<svg width="14" height="14" viewBox="0 0 14 14" fill="none" xmlns="http://www.w3.org/2000/svg">
<path d="M5.76808 5.87302C5.36908 5.87302 5.05408 6.22302 5.05408 6.65002C5.05408 7.07702 5.37608 7.42702 5.76808 7.42702C6.16708 7.42702 6.48208 7.07702 6.48208 6.65002C6.48908 6.22302 6.16708 5.87302 5.76808 5.87302ZM8.32308 5.87302C7.92408 5.87302 7.60908 6.22302 7.60908 6.65002C7.60908 7.07702 7.93108 7.42702 8.32308 7.42702C8.72208 7.42702 9.03708 7.07702 9.03708 6.65002C9.03708 6.22302 8.72208 5.87302 8.32308 5.87302Z" fill="#FAFAFA"/>
<path d="M11.725 0H2.34503C1.55403 0 0.910034 0.644 0.910034 1.442V10.906C0.910034 11.704 1.55403 12.348 2.34503 12.348H10.283L9.91203 11.053L10.808 11.886L11.655 12.67L13.16 14V1.442C13.16 0.644 12.516 0 11.725 0ZM9.02303 9.142C9.02303 9.142 8.77103 8.841 8.56103 8.575C9.47803 8.316 9.82803 7.742 9.82803 7.742C9.54103 7.931 9.26803 8.064 9.02303 8.155C8.67303 8.302 8.33703 8.4 8.00803 8.456C7.33603 8.582 6.72003 8.547 6.19503 8.449C5.79603 8.372 5.45303 8.26 5.16603 8.148C5.00503 8.085 4.83003 8.008 4.65503 7.91C4.63403 7.896 4.61303 7.889 4.59203 7.875C4.57803 7.868 4.57103 7.861 4.56403 7.854C4.43803 7.784 4.36803 7.735 4.36803 7.735C4.36803 7.735 4.70403 8.295 5.59303 8.561C5.38303 8.827 5.12403 9.142 5.12403 9.142C3.57703 9.093 2.98903 8.078 2.98903 8.078C2.98903 5.824 3.99703 3.997 3.99703 3.997C5.00503 3.241 5.96403 3.262 5.96403 3.262L6.03403 3.346C4.77403 3.71 4.19303 4.263 4.19303 4.263C4.19303 4.263 4.34703 4.179 4.60603 4.06C5.35503 3.731 5.95003 3.64 6.19503 3.619C6.23703 3.612 6.27203 3.605 6.31403 3.605C6.74103 3.549 7.22403 3.535 7.72803 3.591C8.39303 3.668 9.10703 3.864 9.83503 4.263C9.83503 4.263 9.28203 3.738 8.09203 3.374L8.19003 3.262C8.19003 3.262 9.14903 3.241 10.157 3.997C10.157 3.997 11.165 5.824 11.165 8.078C11.165 8.078 10.57 9.093 9.02303 9.142Z" fill="#FAFAFA"/>
</svg>
