<svg width="14" height="14" viewBox="0 0 14 14" fill="none" xmlns="http://www.w3.org/2000/svg">
<path d="M7 0C3.14022 0 0 3.14022 0 7C0 10.8595 3.14022 14 7 14C10.8595 14 14 10.8595 14 7C14 3.14022 10.8601 0 7 0ZM8.74084 7.24643H7.60199V11.3056H5.91444C5.91444 11.3056 5.91444 9.08765 5.91444 7.24643H5.11226V5.81181H5.91444V4.88387C5.91444 4.21929 6.23024 3.18082 7.6175 3.18082L8.868 3.18561V4.57822C8.868 4.57822 8.10811 4.57822 7.96036 4.57822C7.81261 4.57822 7.60255 4.6521 7.60255 4.96902V5.81209H8.8883L8.74084 7.24643Z" fill="#FAFAFA"/>
</svg>
