<svg width="14" height="14" viewBox="0 0 14 14" fill="none" xmlns="http://www.w3.org/2000/svg">
<path d="M8.33984 7C8.33984 7.73999 7.73999 8.33984 7 8.33984C6.26001 8.33984 5.66016 7.73999 5.66016 7C5.66016 6.26001 6.26001 5.66016 7 5.66016C7.73999 5.66016 8.33984 6.26001 8.33984 7Z" fill="#FAFAFA"/>
<path d="M10.1334 4.62975C10.069 4.45522 9.9662 4.29724 9.83269 4.16757C9.70302 4.03406 9.54515 3.9313 9.37051 3.8669C9.22888 3.81189 9.01611 3.74641 8.62422 3.72858C8.20029 3.70924 8.07318 3.70508 6.99994 3.70508C5.92659 3.70508 5.79948 3.70914 5.37566 3.72847C4.98376 3.74641 4.77089 3.81189 4.62936 3.8669C4.45473 3.9313 4.29675 4.03406 4.16719 4.16757C4.03368 4.29724 3.93092 4.45511 3.86641 4.62975C3.8114 4.77138 3.74593 4.98425 3.72809 5.37614C3.70876 5.79997 3.70459 5.92708 3.70459 7.00043C3.70459 8.07367 3.70876 8.20078 3.72809 8.62471C3.74593 9.0166 3.8114 9.22937 3.86641 9.371C3.93092 9.54564 4.03357 9.70351 4.16708 9.83318C4.29675 9.96669 4.45462 10.0694 4.62926 10.1339C4.77089 10.189 4.98376 10.2544 5.37566 10.2723C5.79948 10.2916 5.92648 10.2957 6.99983 10.2957C8.07329 10.2957 8.20039 10.2916 8.62411 10.2723C9.01601 10.2544 9.22888 10.189 9.37051 10.1339C9.72107 9.99863 9.99814 9.72156 10.1334 9.371C10.1884 9.22937 10.2538 9.0166 10.2718 8.62471C10.2911 8.20078 10.2952 8.07367 10.2952 7.00043C10.2952 5.92708 10.2911 5.79997 10.2718 5.37614C10.254 4.98425 10.1885 4.77138 10.1334 4.62975V4.62975ZM6.99994 9.06435C5.85994 9.06435 4.93581 8.14032 4.93581 7.00032C4.93581 5.86032 5.85994 4.93629 6.99994 4.93629C8.13983 4.93629 9.06396 5.86032 9.06396 7.00032C9.06396 8.14032 8.13983 9.06435 6.99994 9.06435ZM9.14557 5.33705C8.87918 5.33705 8.66321 5.12108 8.66321 4.85469C8.66321 4.5883 8.87918 4.37233 9.14557 4.37233C9.41196 4.37233 9.62793 4.5883 9.62793 4.85469C9.62782 5.12108 9.41196 5.33705 9.14557 5.33705Z" fill="#FAFAFA"/>
<path d="M7 0C3.1346 0 0 3.1346 0 7C0 10.8654 3.1346 14 7 14C10.8654 14 14 10.8654 14 7C14 3.1346 10.8654 0 7 0ZM10.9953 8.65718C10.9758 9.08507 10.9078 9.3772 10.8085 9.6329C10.5997 10.1728 10.1728 10.5997 9.6329 10.8085C9.3773 10.9078 9.08507 10.9757 8.65729 10.9953C8.22865 11.0148 8.09172 11.0195 7.00011 11.0195C5.90839 11.0195 5.77156 11.0148 5.34282 10.9953C4.91504 10.9757 4.6228 10.9078 4.3672 10.8085C4.09889 10.7075 3.856 10.5493 3.6552 10.3448C3.45076 10.1441 3.29257 9.90111 3.19164 9.6329C3.0923 9.3773 3.02426 9.08507 3.00482 8.65729C2.98506 8.22855 2.98047 8.09161 2.98047 7C2.98047 5.90839 2.98506 5.77145 3.00471 5.34282C3.02415 4.91493 3.09209 4.6228 3.19142 4.3671C3.29236 4.09889 3.45065 3.8559 3.6552 3.6552C3.8559 3.45065 4.09889 3.29247 4.3671 3.19153C4.6228 3.09219 4.91493 3.02426 5.34282 3.00471C5.77145 2.98517 5.90839 2.98047 7 2.98047C8.09161 2.98047 8.22855 2.98517 8.65718 3.00482C9.08507 3.02426 9.3772 3.09219 9.6329 3.19142C9.90111 3.29236 10.1441 3.45065 10.3449 3.6552C10.5493 3.856 10.7076 4.09889 10.8085 4.3671C10.9079 4.6228 10.9758 4.91493 10.9954 5.34282C11.0149 5.77145 11.0195 5.90839 11.0195 7C11.0195 8.09161 11.0149 8.22855 10.9953 8.65718V8.65718Z" fill="#FAFAFA"/>
</svg>
