<svg width="14" height="14" viewBox="0 0 14 14" fill="none" xmlns="http://www.w3.org/2000/svg">
<g clip-path="url(#clip0_122_41791)">
<path d="M4.40426 12.6879C9.68598 12.6879 12.5757 8.31101 12.5757 4.51651C12.5757 4.39347 12.5729 4.26768 12.5675 4.14464C13.1296 3.73811 13.6147 3.23458 14 2.65768C13.4765 2.89061 12.9206 3.04273 12.3514 3.10886C12.9507 2.74962 13.3995 2.18529 13.6145 1.52046C13.0507 1.85459 12.4341 2.09028 11.7912 2.21745C11.358 1.75717 10.7852 1.45241 10.1615 1.35029C9.53772 1.24817 8.89769 1.35437 8.34035 1.65248C7.783 1.95059 7.33938 2.42401 7.07808 2.99953C6.81677 3.57505 6.75233 4.22062 6.89473 4.83644C5.75312 4.77915 4.6363 4.48259 3.61666 3.96599C2.59702 3.44938 1.69732 2.72427 0.975898 1.83765C0.609233 2.46982 0.497033 3.21789 0.662101 3.92981C0.82717 4.64174 1.25712 5.26411 1.86457 5.67042C1.40853 5.65594 0.962486 5.53316 0.563281 5.31222V5.34776C0.562873 6.01118 0.792224 6.65427 1.21235 7.16771C1.63247 7.68115 2.21744 8.03326 2.86781 8.16417C2.44537 8.27975 2.00199 8.29659 1.57199 8.21339C1.75552 8.78393 2.11258 9.28295 2.59337 9.64079C3.07415 9.99863 3.65465 10.1974 4.25387 10.2095C3.23658 11.0086 1.97993 11.442 0.686328 11.44C0.456917 11.4396 0.227733 11.4255 0 11.3978C1.31417 12.2409 2.84289 12.6887 4.40426 12.6879Z" fill="#FAFAFA"/>
</g>
<defs>
<clipPath id="clip0_122_41791">
<rect width="14" height="14" fill="white"/>
</clipPath>
</defs>
</svg>
