<svg width="113" height="113" viewBox="0 0 113 113" fill="none" xmlns="http://www.w3.org/2000/svg">
<circle cx="56.5" cy="56.5" r="54.5" fill="url(#paint0_linear_101_3)" stroke="#8093D0" stroke-width="4"/>
<path d="M34.1667 88V88.5H34.6667H80H80.5V88V73.1176V72.6176H80H58.8066L69.0228 62.1619C69.023 62.1617 69.0232 62.1615 69.0233 62.1613C75.1599 55.9344 79.5476 48.857 79.5476 40.5504C79.5476 26.5934 68.5989 18.5 56.4762 18.5C47.0606 18.5 37.913 23.3347 33.5401 33.5896L33.3684 33.9922L33.7447 34.2156L46.6019 41.8501L47.0934 42.1419L47.3172 41.616C49.0772 37.4803 52.2653 34.5756 56.6667 34.5756C58.7938 34.5756 60.4421 35.2618 61.5589 36.406C62.6774 37.552 63.3095 39.2057 63.3095 41.2269C63.3095 43.0862 62.639 44.9774 61.4647 46.924C60.2902 48.871 58.6288 50.8453 56.6873 52.8634L56.685 52.8659L34.304 76.4457L34.1667 76.5904V76.7899V88Z" fill="white" stroke="#8092D0"/>
<defs>
<linearGradient id="paint0_linear_101_3" x1="2.86261e-07" y1="56.1103" x2="113" y2="56.1103" gradientUnits="userSpaceOnUse">
<stop stop-color="#EF0FF5"/>
<stop offset="1" stop-color="#33D0D7"/>
</linearGradient>
</defs>
</svg>
