<svg width="71" height="71" viewBox="0 0 71 71" fill="none" xmlns="http://www.w3.org/2000/svg">
<circle cx="35.1774" cy="35.1774" r="33.1774" fill="url(#paint0_linear_2_209)" stroke="#8093D0" stroke-width="4"/>
<path d="M25.3584 38.373C23.9009 38.373 22.7118 38.4221 21.7913 38.5202L21.8776 31.2455C22.2995 31.3633 23.5652 31.4222 25.6749 31.4222H31.4859V25.7674C31.4859 23.6075 31.4283 22.3116 31.3133 21.8797L38.4188 21.7913C38.3229 22.7338 38.275 23.9511 38.275 25.4434V31.4222H44.0572C46.1477 31.4222 47.4134 31.3633 47.8545 31.2455L47.9408 38.5202C47.0203 38.4221 45.8312 38.373 44.3737 38.373H38.275V44.9114C38.275 46.4036 38.3229 47.621 38.4188 48.5635L31.3133 48.4751C31.4283 48.0235 31.4859 46.7276 31.4859 44.5874V38.373H25.3584Z" fill="white"/>
<defs>
<linearGradient id="paint0_linear_2_209" x1="1.78229e-07" y1="34.9348" x2="70.3548" y2="34.9348" gradientUnits="userSpaceOnUse">
<stop stop-color="#EF0FF5"/>
<stop offset="1" stop-color="#33D0D7"/>
</linearGradient>
</defs>
</svg>
