<svg width="30" height="30" viewBox="0 0 30 30" fill="none" xmlns="http://www.w3.org/2000/svg">
<circle cx="15" cy="15" r="15" fill="#00D2FE"/>
<path d="M13.164 19.064V13.912H14.9C16.076 13.912 16.944 13.7347 17.504 13.38C18.064 13.0067 18.344 12.3253 18.344 11.336V10.16C18.344 9.05867 18.0547 8.27467 17.476 7.808C16.916 7.34133 16.076 7.108 14.956 7.108C14.0973 7.108 13.2667 7.192 12.464 7.36C11.68 7.528 10.8587 7.77067 10 8.088V5.568C10.784 5.08267 11.6707 4.7 12.66 4.42C13.6493 4.14 14.7413 4 15.936 4C17.2987 4 18.4093 4.23333 19.268 4.7C20.1267 5.16667 20.7613 5.82933 21.172 6.688C21.5827 7.528 21.788 8.508 21.788 9.628V11.392C21.788 13.1093 21.3027 14.3973 20.332 15.256C19.38 16.1147 17.868 16.544 15.796 16.544V19.064H13.164ZM13.472 24.72C13.1173 24.72 12.94 24.552 12.94 24.216V21.556C12.94 21.2013 13.1173 21.024 13.472 21.024H15.46C15.8147 21.024 15.992 21.2013 15.992 21.556V24.216C15.992 24.4027 15.936 24.5333 15.824 24.608C15.7307 24.6827 15.6093 24.72 15.46 24.72H13.472Z" fill="#0D0E10"/>
</svg>
