<svg width="240" height="276" viewBox="0 0 240 276" fill="none" xmlns="http://www.w3.org/2000/svg">
<path d="M44.2683 128.631C24.6683 136.531 5.76829 151.031 1.16829 171.631C-0.731712 180.131 -0.0317117 189.031 1.26829 197.631C2.76829 207.131 4.96829 216.631 9.66829 225.031C13.9683 232.631 20.0683 239.031 26.1683 245.231C34.2683 253.431 42.5683 261.631 52.4683 267.631C62.3683 273.531 74.1683 277.031 85.5683 275.031C90.7683 274.131 95.7683 272.031 100.968 272.031C105.968 272.031 110.768 273.731 115.768 274.331C122.268 275.131 128.868 273.831 135.268 272.231C139.668 271.131 144.068 269.831 148.568 269.731C153.268 269.631 157.868 270.931 162.568 271.231C172.668 271.731 182.368 267.431 191.068 262.231C200.868 256.331 207.868 248.631 216.368 241.231C224.168 234.531 230.768 226.131 234.668 216.431C236.968 210.931 238.068 204.931 238.668 198.931C239.568 189.131 238.968 179.231 236.268 169.731C231.468 152.431 219.868 135.331 204.568 125.931C194.468 119.731 183.268 115.531 171.568 113.331C159.768 111.131 149.968 112.131 138.568 114.631C123.068 117.931 108.468 120.531 92.6683 118.931C77.0683 117.431 58.5683 122.831 44.2683 128.631Z" fill="url(#paint0_radial_203_143)"/>
<path opacity="0.5" d="M27.6683 246.731C21.5683 240.531 15.3683 234.131 11.1683 226.531C6.46826 218.131 4.16826 208.631 2.76826 199.131C1.46826 190.531 0.768264 181.631 2.66826 173.131C7.26826 152.531 26.1683 138.031 45.7683 130.131C60.0683 124.331 78.5683 118.931 94.1683 120.531C109.968 122.031 124.568 119.531 140.068 116.231C151.468 113.731 161.268 112.731 173.068 114.931C184.668 117.031 195.968 121.331 206.068 127.531C209.868 129.831 213.368 132.631 216.668 135.731C212.968 132.031 208.968 128.731 204.668 126.031C194.568 119.831 183.368 115.631 171.668 113.431C159.868 111.231 150.068 112.231 138.668 114.731C123.168 118.031 108.568 120.631 92.7683 119.031C77.0683 117.531 58.6683 122.831 44.3683 128.631C24.7683 136.531 5.86826 151.031 1.26826 171.631C-0.631736 180.131 0.0682639 189.031 1.36826 197.631C2.86826 207.131 5.06826 216.631 9.76826 225.031C14.0683 232.631 20.1683 239.031 26.2683 245.231C27.5683 246.531 28.8683 247.831 30.1683 249.131C29.2683 248.331 28.4683 247.531 27.6683 246.731Z" fill="url(#paint1_radial_203_143)"/>
<path opacity="0.3" d="M119.868 237.531C119.768 244.131 119.568 254.831 120.168 263.531C120.268 261.931 120.368 260.631 120.368 259.931C120.168 252.431 119.968 245.031 119.868 237.531ZM119.868 231.931C119.468 215.231 119.768 198.631 120.568 181.831C121.568 161.531 122.068 141.231 118.368 121.231C118.468 121.531 118.268 122.231 118.368 122.731C124.268 154.531 119.068 186.931 119.468 219.031C119.568 225.231 119.668 231.331 119.868 237.531C119.868 234.931 119.968 232.831 119.868 231.931ZM224.068 182.431C218.768 162.931 204.768 143.331 189.168 131.131C180.368 124.231 169.468 119.031 159.068 115.231C150.368 112.031 142.068 113.131 134.468 117.231C133.068 116.631 131.568 116.131 130.168 115.631C130.168 115.631 130.168 115.631 130.068 115.631C130.068 115.831 129.868 117.031 130.068 117.131C130.968 117.431 131.968 117.831 132.868 118.131C131.668 118.831 130.568 119.631 129.468 120.431C128.768 119.531 128.068 118.531 127.368 117.631C127.568 117.931 127.168 118.831 127.368 119.131C127.868 119.731 128.268 120.331 128.768 120.931C128.668 121.331 128.968 122.231 128.868 122.331C129.068 122.131 129.268 122.031 129.468 121.831C135.868 130.331 142.168 139.031 147.368 148.531C156.768 165.731 159.768 183.631 157.168 203.431C155.268 217.831 152.968 233.031 149.368 247.131C147.168 255.931 143.668 264.331 137.668 270.731C138.268 270.631 138.768 270.431 139.368 270.331C146.568 261.431 149.568 249.631 151.568 238.031C154.368 222.431 157.968 206.631 158.368 190.731C158.968 163.731 145.468 142.031 130.168 121.531C131.568 120.531 132.968 119.631 134.468 118.831C159.568 128.931 179.468 150.031 191.968 174.431C198.268 186.831 198.768 199.931 195.768 213.531C193.868 222.531 191.468 231.431 187.668 239.731C181.568 253.331 172.168 264.031 159.068 270.131C159.868 270.231 160.768 270.331 161.568 270.431C176.268 262.631 185.668 248.731 191.168 232.331C195.468 219.531 200.068 204.131 197.868 190.331C195.368 174.231 184.368 158.731 174.168 146.731C163.568 134.331 150.768 124.331 135.968 118.131C140.768 115.831 145.968 114.531 151.468 115.131C160.268 116.031 169.268 121.131 177.068 125.231C193.368 133.831 206.368 148.431 215.668 164.531C219.868 171.731 223.268 179.631 224.968 187.931C228.368 204.731 224.368 218.631 215.268 232.031C205.568 246.431 194.268 261.631 177.368 266.931C177.168 267.031 177.268 267.831 177.368 268.231C181.868 266.631 186.168 264.431 190.268 262.031C202.168 253.731 211.468 240.431 218.668 228.331C226.968 214.131 228.368 198.031 224.068 182.431ZM108.768 120.431C107.968 120.931 107.268 121.331 106.468 121.831C103.668 121.331 100.968 120.931 98.1682 120.631C98.1682 120.531 98.1682 120.331 98.1682 120.131C99.0682 119.831 100.068 119.531 100.968 119.231C101.068 119.231 101.068 118.931 100.968 118.731C99.9682 118.731 98.9682 118.731 97.9682 118.631C97.4682 118.831 97.0682 118.931 96.5682 119.131C93.2682 118.831 89.5682 119.331 85.8682 120.331C60.8682 121.331 36.9682 132.831 20.5682 153.231C12.0682 164.031 4.56824 177.931 2.46824 191.931C2.06824 194.431 2.26824 197.031 2.46824 199.531C2.56824 201.531 2.26824 204.631 3.36824 206.431C3.46824 206.631 3.76824 206.931 4.06824 206.831C4.26824 206.731 4.26824 206.531 4.36824 206.331C4.86824 203.331 3.56824 199.831 3.36824 196.831C3.16824 193.231 3.36824 189.531 4.36824 186.031C6.36825 179.431 9.16824 173.031 12.5682 167.031C18.2682 157.031 25.7682 148.131 34.5682 140.931C47.8682 130.131 63.8682 123.831 80.4682 122.131C74.8682 124.231 69.5682 127.031 65.1682 129.031C55.1682 133.631 46.1682 140.031 38.6682 148.331C25.4682 163.031 18.0682 182.231 17.6682 202.231C17.3682 217.031 20.8682 232.731 27.8682 246.031C28.3682 246.531 28.9682 247.131 29.4682 247.631C18.5682 229.431 15.4682 204.931 19.9682 185.631C24.0682 167.731 34.5682 151.631 48.6682 140.431C55.5682 135.031 63.3682 131.131 71.3682 127.831C76.0682 125.931 81.4682 123.231 86.9682 121.631C88.1682 121.631 89.4682 121.631 90.6682 121.631C63.1682 135.831 48.1682 173.431 45.1682 204.031C45.9682 197.831 47.1682 191.731 48.6682 186.131C55.2682 161.131 69.5683 132.431 93.7682 121.731C97.4682 121.931 101.168 122.331 104.868 122.931C84.0683 138.431 79.7682 167.531 80.6682 192.631C81.1682 205.831 83.2682 218.831 86.5682 231.631C88.6682 239.731 91.1682 247.731 94.0682 255.531C95.4682 259.231 97.0682 266.731 99.9682 271.131C100.268 271.131 100.668 271.031 100.968 271.031C101.068 271.031 101.068 271.031 101.168 271.031C98.0682 267.331 96.2682 259.931 94.9682 256.631C92.9682 251.431 91.1682 246.131 89.5682 240.831C84.5682 224.631 81.3682 208.131 80.8682 191.131C80.1683 165.331 85.4682 135.931 108.768 121.831C109.068 121.731 108.668 120.531 108.768 120.431ZM44.7682 226.831C44.3682 221.231 44.4682 215.631 44.6682 210.431C44.7682 208.331 44.9682 206.231 45.1682 204.131C44.1682 211.631 43.8682 219.431 44.7682 226.831ZM120.368 273.731C120.768 273.731 121.168 273.731 121.568 273.731C120.868 271.231 120.368 267.631 120.168 263.531C119.968 266.531 119.868 270.531 120.368 273.731ZM84.9682 274.331C85.1682 274.331 85.3682 274.231 85.5682 274.231C86.2682 274.131 86.9682 273.931 87.7682 273.831C77.7682 270.331 67.1682 264.931 59.4682 258.131C50.4682 250.131 46.1682 238.931 44.7682 226.931C45.4682 235.831 47.4682 244.631 52.2682 251.731C59.5682 262.231 72.6682 269.731 84.9682 274.331Z" fill="url(#paint2_radial_203_143)"/>
<path opacity="0.2" d="M121.368 237.531C121.268 244.131 121.068 254.831 121.668 263.531C121.768 261.931 121.868 260.631 121.868 259.931C121.668 252.431 121.468 245.031 121.368 237.531ZM121.368 231.931C120.968 215.231 121.268 198.631 122.068 181.831C123.068 161.531 123.568 141.231 119.868 121.231C119.968 121.531 119.768 122.231 119.868 122.731C125.768 154.531 120.568 186.931 120.968 219.031C121.068 225.231 121.168 231.331 121.368 237.531C121.368 234.931 121.368 232.831 121.368 231.931ZM225.568 182.431C220.268 162.931 206.268 143.331 190.668 131.131C181.868 124.231 170.968 119.031 160.568 115.231C151.868 112.031 143.568 113.131 135.968 117.231C134.568 116.631 133.068 116.131 131.668 115.631C131.668 115.631 131.668 115.631 131.568 115.631C131.568 115.831 131.368 117.031 131.568 117.131C132.468 117.431 133.468 117.831 134.368 118.131C133.168 118.831 132.068 119.631 130.968 120.431C130.268 119.531 129.568 118.531 128.868 117.631C129.068 117.931 128.668 118.831 128.868 119.131C129.368 119.731 129.768 120.331 130.268 120.931C130.168 121.331 130.468 122.231 130.368 122.331C130.568 122.131 130.768 122.031 130.968 121.831C137.368 130.331 143.668 139.031 148.868 148.531C158.268 165.731 161.268 183.631 158.668 203.431C156.768 217.831 154.468 233.031 150.868 247.131C148.668 255.931 145.168 264.331 139.168 270.731C139.768 270.631 140.268 270.431 140.868 270.331C148.068 261.431 151.068 249.631 153.068 238.031C155.868 222.431 159.468 206.631 159.868 190.731C160.468 163.731 146.968 142.031 131.668 121.531C133.068 120.531 134.468 119.631 135.968 118.831C161.068 128.931 180.968 150.031 193.468 174.431C199.768 186.831 200.268 199.931 197.268 213.531C195.368 222.531 192.968 231.431 189.168 239.731C183.068 253.331 173.668 264.031 160.568 270.131C161.368 270.231 162.268 270.331 163.068 270.431C177.768 262.631 187.168 248.731 192.668 232.331C196.968 219.531 201.568 204.131 199.368 190.331C196.868 174.231 185.868 158.731 175.668 146.731C165.068 134.331 152.268 124.331 137.468 118.131C142.268 115.831 147.468 114.531 152.968 115.131C161.768 116.031 170.768 121.131 178.568 125.231C194.868 133.831 207.868 148.431 217.168 164.531C221.368 171.731 224.768 179.631 226.468 187.931C229.868 204.731 225.868 218.631 216.768 232.031C207.068 246.431 195.768 261.631 178.868 266.931C178.668 267.031 178.768 267.831 178.868 268.231C183.368 266.631 187.668 264.431 191.768 262.031C203.668 253.731 212.968 240.431 220.168 228.331C228.468 214.131 229.768 198.031 225.568 182.431ZM110.268 120.431C109.468 120.931 108.768 121.331 107.968 121.831C105.168 121.331 102.468 120.931 99.6683 120.631C99.6683 120.531 99.6683 120.331 99.6683 120.131C100.568 119.831 101.568 119.531 102.468 119.231C102.568 119.231 102.568 118.931 102.468 118.731C101.468 118.731 100.468 118.731 99.4683 118.631C98.9683 118.831 98.5683 118.931 98.0683 119.131C94.7683 118.831 91.0683 119.331 87.3683 120.331C62.3683 121.331 38.4683 132.831 22.0683 153.231C13.5683 164.031 6.06827 177.931 3.96827 191.931C3.26827 196.531 4.36827 200.831 4.16827 205.431C4.06827 209.131 3.36827 211.731 6.46827 214.631C6.26827 205.131 2.96827 195.331 5.76827 186.031C7.76827 179.431 10.5683 173.031 13.9683 167.031C19.6683 157.031 27.1683 148.131 35.9683 140.931C49.2683 130.131 65.2683 123.831 81.8683 122.131C76.2683 124.231 70.9683 127.031 66.5683 129.031C56.5683 133.631 47.5683 140.031 40.0683 148.331C26.8683 163.031 19.4683 182.231 19.0683 202.231C18.7683 217.031 22.2683 232.731 29.2683 246.031C29.7683 246.531 30.3683 247.131 30.8683 247.631C19.9683 229.431 16.8683 204.931 21.3683 185.631C25.4683 167.731 35.9683 151.631 50.0683 140.431C56.9683 135.031 64.7683 131.131 72.7683 127.831C77.4683 125.931 82.8683 123.231 88.3683 121.631C89.5683 121.631 90.8683 121.631 92.0683 121.631C64.5683 135.831 49.5683 173.431 46.5683 204.031C47.3683 197.831 48.5683 191.731 50.0683 186.131C56.6683 161.131 70.9683 132.431 95.1683 121.731C98.8683 121.931 102.568 122.331 106.268 122.931C85.4683 138.431 81.1683 167.531 82.0683 192.631C82.5683 205.831 84.6683 218.831 87.9683 231.631C90.0683 239.731 92.5683 247.731 95.4683 255.531C96.8683 259.231 98.4683 266.731 101.368 271.131C101.668 271.131 102.068 271.031 102.368 271.031C102.468 271.031 102.468 271.031 102.568 271.031C99.4683 267.331 97.6683 259.931 96.3683 256.631C94.3683 251.431 92.5683 246.131 90.9683 240.831C85.9683 224.631 82.7683 208.131 82.2683 191.131C81.5683 165.331 86.8683 135.931 110.168 121.831C110.568 121.731 110.068 120.531 110.268 120.431ZM46.2683 226.831C45.8683 221.231 45.9683 215.631 46.1683 210.431C46.2683 208.331 46.4683 206.231 46.6683 204.131C45.6683 211.631 45.3683 219.431 46.2683 226.831ZM121.868 273.731C122.268 273.731 122.668 273.731 123.068 273.731C122.368 271.231 121.868 267.631 121.668 263.531C121.468 266.531 121.268 270.531 121.868 273.731ZM86.4683 274.331C86.6683 274.331 86.8683 274.231 87.0683 274.231C87.7683 274.131 88.4683 273.931 89.2683 273.831C79.2683 270.331 68.6683 264.931 60.9683 258.131C51.9683 250.131 47.6683 238.931 46.2683 226.931C46.9683 235.831 48.9683 244.631 53.7683 251.731C61.0683 262.231 74.0683 269.731 86.4683 274.331Z" fill="url(#paint3_radial_203_143)"/>
<path opacity="0.2" d="M118.368 237.531C118.268 244.131 118.068 254.831 118.668 263.531C118.768 261.931 118.868 260.631 118.868 259.931C118.768 252.431 118.568 245.031 118.368 237.531ZM118.468 231.931C118.068 215.231 118.368 198.631 119.168 181.831C120.168 161.531 120.668 141.231 116.968 121.231C117.068 121.531 116.868 122.231 116.968 122.731C122.868 154.531 117.668 186.931 118.068 219.031C118.168 225.231 118.268 231.331 118.468 237.531C118.368 234.931 118.468 232.831 118.468 231.931ZM222.668 182.431C217.368 162.931 203.368 143.331 187.768 131.131C178.968 124.231 168.068 119.031 157.668 115.231C148.968 112.031 140.668 113.131 133.068 117.231C131.668 116.631 130.168 116.131 128.768 115.631C128.768 115.631 128.768 115.631 128.668 115.631C128.668 115.831 128.468 117.031 128.668 117.131C129.568 117.431 130.568 117.831 131.468 118.131C130.268 118.831 129.168 119.631 128.068 120.431C127.368 119.531 126.668 118.531 125.968 117.631C126.168 117.931 125.768 118.831 125.968 119.131C126.468 119.731 126.868 120.331 127.368 120.931C127.268 121.331 127.568 122.231 127.468 122.331C127.668 122.131 127.868 122.031 128.068 121.831C134.468 130.331 140.768 139.031 145.968 148.531C155.368 165.731 158.368 183.631 155.768 203.431C153.868 217.831 151.568 233.031 147.968 247.131C145.768 255.931 142.268 264.331 136.268 270.731C136.868 270.631 137.368 270.431 137.968 270.331C145.168 261.431 148.168 249.631 150.168 238.031C152.968 222.431 156.568 206.631 156.968 190.731C157.568 163.731 144.068 142.031 128.768 121.531C130.168 120.531 131.568 119.631 133.068 118.831C158.168 128.931 178.068 150.031 190.568 174.431C196.868 186.831 197.368 199.931 194.368 213.531C192.468 222.531 190.068 231.431 186.268 239.731C180.168 253.331 170.768 264.031 157.668 270.131C158.468 270.231 159.368 270.331 160.168 270.431C174.868 262.631 184.268 248.731 189.768 232.331C194.068 219.531 198.668 204.131 196.468 190.331C193.968 174.231 182.968 158.731 172.768 146.731C162.168 134.331 149.368 124.331 134.568 118.131C139.368 115.831 144.568 114.531 150.068 115.131C158.868 116.031 167.868 121.131 175.668 125.231C191.968 133.831 204.968 148.431 214.268 164.531C218.468 171.731 221.868 179.631 223.568 187.931C226.968 204.731 222.968 218.631 213.868 232.031C204.168 246.431 192.868 261.631 175.968 266.931C175.768 267.031 175.868 267.831 175.968 268.231C180.468 266.631 184.768 264.431 188.868 262.031C200.768 253.731 210.068 240.431 217.268 228.331C225.568 214.131 226.868 198.031 222.668 182.431ZM107.268 120.431C106.468 120.931 105.768 121.331 104.968 121.831C102.168 121.331 99.4682 120.931 96.6682 120.631C96.6682 120.531 96.6682 120.331 96.6682 120.131C97.5682 119.831 98.5682 119.531 99.4682 119.231C99.5682 119.231 99.5682 118.931 99.4682 118.731C98.4682 118.731 97.4682 118.731 96.4682 118.631C95.9682 118.831 95.5682 118.931 95.0682 119.131C91.7682 118.831 88.0682 119.331 84.3682 120.331C59.3682 121.331 35.4682 132.831 19.0682 153.231C14.1682 159.331 9.96824 165.931 6.66824 173.031C4.96824 176.631 3.56824 180.331 2.46824 184.131C1.56824 187.231 -0.231761 191.831 1.16824 195.031C1.06824 194.831 1.56824 192.031 1.56824 191.431C1.66824 189.631 2.06824 187.831 2.56824 186.031C4.56824 179.431 7.36824 173.031 10.7682 167.031C16.4682 157.031 23.9682 148.131 32.7682 140.931C46.0682 130.131 62.0682 123.831 78.6682 122.131C73.0682 124.231 67.7682 127.031 63.3682 129.031C53.3682 133.631 44.3682 140.031 36.8682 148.331C23.6682 163.031 16.2682 182.231 15.8682 202.231C15.5682 217.031 19.0682 232.731 26.0682 246.031C26.5682 246.531 27.1682 247.131 27.6682 247.631C16.7682 229.431 13.6682 204.931 18.1682 185.631C22.2682 167.731 32.7682 151.631 46.8682 140.431C53.7682 135.031 61.5682 131.131 69.5682 127.831C74.2682 125.931 79.6682 123.231 85.1682 121.631C86.3682 121.631 87.6682 121.631 88.8682 121.631C61.3682 135.831 46.3682 173.431 43.3682 204.031C44.1682 197.831 45.3682 191.731 46.8682 186.131C53.4682 161.131 67.7682 132.431 91.9682 121.731C95.6682 121.931 99.3682 122.331 103.068 122.931C82.2682 138.431 77.9682 167.531 78.8682 192.631C79.3682 205.831 81.4682 218.831 84.7682 231.631C86.8682 239.731 89.3682 247.731 92.2682 255.531C93.6682 259.231 95.2682 266.731 98.1682 271.131C98.4682 271.131 98.8682 271.031 99.1682 271.031C99.2682 271.031 99.2682 271.031 99.3682 271.031C96.2682 267.331 94.4682 259.931 93.1682 256.631C91.1682 251.431 89.3682 246.131 87.7682 240.831C82.7682 224.631 79.5682 208.131 79.0682 191.131C78.3682 165.331 83.6682 135.931 106.968 121.831C107.568 121.731 107.168 120.531 107.268 120.431ZM43.2682 226.831C42.8682 221.231 42.9682 215.631 43.1682 210.431C43.2682 208.331 43.4682 206.231 43.6682 204.131C42.6682 211.631 42.4682 219.431 43.2682 226.831ZM118.968 273.731C119.368 273.731 119.768 273.731 120.168 273.731C119.468 271.231 118.968 267.631 118.768 263.531C118.568 266.531 118.368 270.531 118.968 273.731ZM83.4682 274.331C83.6682 274.331 83.8682 274.231 84.0682 274.231C84.7682 274.131 85.4682 273.931 86.2682 273.831C76.2682 270.331 65.6682 264.931 57.9682 258.131C48.9682 250.131 44.6682 238.931 43.2682 226.931C43.9682 235.831 45.9682 244.631 50.7682 251.731C58.0682 262.231 71.1682 269.731 83.4682 274.331Z" fill="url(#paint4_radial_203_143)"/>
<path opacity="0.5" d="M138.668 114.731C123.168 118.031 108.568 120.631 92.7683 119.031C86.2683 118.431 79.3683 118.931 72.4683 120.231C74.1683 119.931 79.1683 124.131 81.5683 124.431C85.3683 124.931 89.0683 124.031 92.7683 124.031C97.0683 123.931 101.168 125.231 105.368 126.031C115.968 128.031 126.768 125.531 136.868 122.231C140.468 121.131 145.168 120.631 147.868 118.131C148.968 117.131 150.568 112.731 152.168 112.531C147.668 112.931 143.268 113.631 138.668 114.731Z" fill="#C44C00"/>
<path opacity="0.2" d="M144.968 114.431C129.068 117.831 114.068 120.431 97.8682 118.831C91.2682 118.131 84.1682 118.731 77.0682 120.031C78.8682 119.731 83.8682 124.031 86.3682 124.331C90.1682 124.831 93.9682 123.931 97.8682 123.931C102.268 123.831 106.468 125.131 110.768 125.931C121.668 128.031 132.668 125.331 143.068 122.031C146.768 120.831 151.568 120.431 154.368 117.831C155.468 116.731 157.168 112.231 158.768 112.131C154.168 112.631 149.768 113.331 144.968 114.431Z" fill="#C44C00"/>
<g opacity="0.5">
<path opacity="0.0555556" d="M67.4684 151.131C62.7684 158.631 59.6684 167.031 57.2684 175.531C55.1684 183.131 52.5684 191.231 51.3684 198.931C50.4684 204.631 50.1684 213.931 54.5684 218.431C58.5684 222.531 68.8684 222.931 72.8684 218.731C76.0684 215.431 75.8684 210.231 75.5684 205.731C74.6684 187.231 74.8684 164.231 82.5684 147.031C83.2684 145.431 83.5684 143.931 82.9684 143.331C82.0684 135.931 69.0684 148.631 67.4684 151.131Z" fill="white"/>
<path opacity="0.1111" d="M67.0683 152.831C62.7683 160.331 59.7683 168.731 57.4683 177.131C55.4683 184.431 53.0683 192.231 52.0683 199.631C51.3683 205.031 51.3683 213.631 55.5683 217.531C59.3683 221.031 68.4683 221.231 72.0683 217.331C74.8683 214.231 74.7683 209.431 74.4683 205.231C73.5683 187.131 74.1683 165.131 81.5683 148.231C82.4683 146.131 82.3683 144.531 81.3683 144.531C80.1683 138.531 68.6683 150.231 67.0683 152.831Z" fill="white"/>
<path opacity="0.1667" d="M66.6684 154.631C62.7684 162.231 59.8684 170.431 57.6684 178.731C55.7684 185.731 53.5684 193.231 52.8684 200.331C52.3684 205.431 52.5684 213.231 56.6684 216.631C60.2684 219.631 68.2684 219.631 71.3684 215.931C73.8684 213.031 73.6684 208.631 73.5684 204.731C72.6684 187.031 73.6684 165.931 80.7684 149.431C81.8684 146.931 81.3684 145.031 79.8684 145.731C78.2684 141.031 68.1684 151.731 66.6684 154.631Z" fill="white"/>
<path opacity="0.2222" d="M66.2683 156.331C62.6683 163.931 59.9683 172.131 57.8683 180.331C56.1683 187.031 54.1683 194.231 53.5683 201.031C53.1683 205.731 53.6683 212.931 57.5683 215.731C60.8683 218.131 67.8683 217.931 70.5683 214.531C72.7683 211.831 72.5683 207.831 72.4683 204.231C71.6683 186.931 72.8683 166.731 79.7683 150.731C81.0683 147.731 80.1683 145.631 78.2683 147.031C76.4683 143.631 67.7683 153.231 66.2683 156.331Z" fill="white"/>
<path opacity="0.2778" d="M65.8683 158.031C62.5683 165.631 60.0683 173.731 58.0683 181.831C56.4683 188.231 54.6683 195.031 54.2683 201.631C54.0683 206.031 54.8683 212.431 58.5683 214.731C61.6683 216.631 67.4683 216.131 69.7683 213.031C71.6683 210.431 71.4683 206.831 71.3683 203.631C70.5683 186.731 72.0683 167.531 78.7683 151.831C80.2683 148.431 79.0683 146.031 76.6683 148.131C74.5683 146.231 67.3683 154.731 65.8683 158.031Z" fill="white"/>
<path opacity="0.3333" d="M65.4683 159.831C62.4683 167.431 60.1683 175.431 58.2683 183.531C56.7683 189.731 55.1683 196.131 55.0683 202.431C54.9683 206.531 56.0683 212.131 59.5683 213.931C62.3683 215.331 67.1683 214.531 68.9683 211.831C70.5683 209.431 70.3683 206.231 70.2683 203.331C69.4683 186.831 71.2683 168.531 77.7683 153.231C79.3683 149.331 77.8683 146.731 74.9683 149.531C72.6683 148.731 66.8683 156.231 65.4683 159.831Z" fill="white"/>
<path opacity="0.3889" d="M65.0684 161.531C62.3684 169.131 60.2684 177.131 58.4684 185.131C57.0684 191.031 55.6684 197.131 55.7684 203.131C55.8684 206.931 57.1684 211.831 60.5684 213.031C63.0684 213.831 66.7684 212.831 68.2684 210.431C69.5684 208.231 69.3684 205.431 69.2684 202.831C68.4684 186.731 70.5684 169.431 76.8684 154.431C78.6684 150.031 76.7684 147.331 73.4684 150.731C70.7684 151.331 66.4684 157.731 65.0684 161.531Z" fill="white"/>
<path opacity="0.4444" d="M64.6684 163.331C62.1684 171.031 60.3684 178.831 58.5684 186.731C57.3684 192.331 56.0684 198.131 56.4684 203.831C56.6684 207.231 58.2684 211.531 61.4684 212.131C63.6684 212.531 66.3684 211.131 67.3684 209.031C68.2684 207.031 68.1684 204.631 68.0684 202.331C67.2684 186.631 69.6684 170.231 75.6684 155.631C77.6684 150.831 75.7684 148.131 71.6684 151.931C69.1684 154.131 65.9684 159.231 64.6684 163.331Z" fill="white"/>
<path opacity="0.5" d="M64.2683 165.031C62.0683 172.731 60.4683 180.531 58.7683 188.331C57.6683 193.631 56.5683 199.131 57.1683 204.531C57.5683 207.631 59.3683 211.331 62.4683 211.231C64.3683 211.131 65.9683 209.431 66.5683 207.631C67.1683 205.731 67.0683 203.731 66.9683 201.831C66.2683 186.531 68.8683 171.031 74.6683 156.831C76.8683 151.531 74.2683 148.331 70.0683 153.131C67.0683 156.431 65.4683 160.731 64.2683 165.031Z" fill="white"/>
</g>
<g opacity="0.3">
<path opacity="0.0555556" d="M46.9683 145.531C43.6683 147.531 42.0683 150.231 39.4683 152.831C35.9683 156.331 32.2683 159.431 30.0683 163.831C28.2683 167.431 27.1683 172.131 25.9683 175.931C24.9683 179.231 25.1683 189.231 28.3683 193.331C29.7683 195.131 31.6683 195.731 34.4683 193.931C36.2683 192.731 37.4683 191.031 38.2683 189.031C39.0683 187.031 39.5683 184.931 40.3683 182.931C41.9683 178.531 43.6683 174.031 45.4683 169.731C46.3683 167.431 47.3683 165.231 48.4683 162.931C49.3683 161.031 50.3683 159.131 51.5683 157.131C53.7683 153.231 58.7683 148.431 59.6683 144.731C61.0683 138.831 52.7683 142.431 48.7683 144.531C47.8683 145.031 47.3683 145.331 46.9683 145.531Z" fill="white"/>
<path opacity="0.1111" d="M46.3683 146.531C43.3683 148.431 41.9683 150.831 39.5683 153.231C36.3683 156.431 33.0683 159.331 30.9683 163.331C29.1683 166.731 28.1683 171.031 26.9683 174.631C25.9683 177.831 26.0683 187.031 28.8683 191.031C30.0683 192.731 31.7683 193.431 34.3683 191.931C36.0683 190.931 37.2683 189.431 38.0683 187.631C38.8683 185.831 39.4683 183.831 40.1683 181.931C41.8683 177.731 43.3683 173.431 45.0683 169.231C45.9683 167.031 46.9683 164.831 47.9683 162.731C48.7683 161.031 49.8683 159.131 50.9683 157.231C53.2683 153.331 57.7683 148.631 58.2683 145.331C58.9683 140.131 51.7683 143.531 47.8683 145.631C47.1683 146.031 46.6683 146.331 46.3683 146.531Z" fill="white"/>
<path opacity="0.1667" d="M45.6683 147.631C43.0683 149.331 41.6683 151.531 39.4683 153.731C36.5683 156.731 33.5683 159.431 31.6683 162.831C29.9683 166.031 28.8683 169.931 27.7683 173.331C26.6683 176.431 26.7683 184.731 29.1683 188.631C30.1683 190.331 31.6683 191.031 34.0683 189.931C35.6683 189.231 36.8683 187.931 37.7683 186.231C38.6683 184.631 39.1683 182.731 39.8683 181.031C41.5683 176.931 42.9683 172.831 44.6683 168.831C45.5683 166.731 46.4683 164.631 47.4683 162.631C48.2683 161.031 49.2683 159.231 50.4683 157.331C52.7683 153.531 56.8683 148.831 56.9683 145.931C57.0683 141.431 50.7683 144.731 47.0683 146.831C46.4683 147.031 46.0683 147.331 45.6683 147.631Z" fill="white"/>
<path opacity="0.2222" d="M45.0683 148.631C42.7683 150.231 41.4683 152.131 39.5683 154.131C36.8683 156.831 34.2683 159.331 32.6683 162.331C30.9683 165.331 29.8683 168.831 28.7683 172.031C27.6683 175.131 27.5683 182.531 29.6683 186.231C30.5683 187.831 31.7683 188.531 33.8683 187.831C35.3683 187.331 36.5683 186.231 37.4683 184.731C38.3683 183.231 38.9683 181.531 39.6683 179.931C41.3683 176.031 42.7683 172.131 44.3683 168.231C45.1683 166.231 46.0683 164.231 47.0683 162.231C47.7683 160.831 48.8683 159.031 49.9683 157.231C52.3683 153.431 56.5683 148.731 55.6683 146.231C55.9683 142.531 49.7683 145.531 46.2683 147.731C45.7683 148.131 45.3683 148.431 45.0683 148.631Z" fill="white"/>
<path opacity="0.2778" d="M44.3682 149.631C42.3682 151.131 41.1682 152.831 39.5682 154.531C37.1682 157.031 34.8682 159.231 33.4682 161.731C31.8682 164.531 30.7682 167.731 29.6682 170.531C28.5682 173.531 28.3682 180.031 30.0682 183.731C30.7682 185.231 31.8682 186.131 33.6682 185.631C35.0682 185.331 36.2682 184.431 37.2682 183.231C38.1682 181.931 38.7682 180.331 39.4682 178.931C41.1682 175.231 42.4682 171.431 43.9682 167.731C44.7682 165.831 45.5682 163.931 46.5682 162.031C47.2682 160.831 48.2682 159.131 49.4682 157.331C51.8682 153.631 55.8682 148.931 54.3682 146.831C54.2682 143.831 48.7682 146.631 45.4682 148.831C45.0682 149.131 44.6682 149.431 44.3682 149.631Z" fill="white"/>
<path opacity="0.3333" d="M43.7683 150.731C42.0683 152.031 40.9683 153.531 39.5683 154.931C37.4683 157.131 35.5683 159.131 34.2683 161.231C32.7683 163.731 31.5683 166.631 30.5683 169.231C29.4683 172.131 29.1683 177.731 30.4683 181.331C30.9683 182.731 31.8683 183.431 33.4683 183.631C34.7683 183.731 36.0683 182.931 36.9683 181.831C37.8683 180.731 38.5683 179.331 39.2683 177.931C41.0683 174.431 42.2683 170.831 43.6683 167.231C44.3683 165.331 45.2683 163.531 46.1683 161.731C46.7683 160.631 47.8683 159.031 49.0683 157.231C51.4683 153.531 55.2683 148.831 53.2683 147.131C52.7683 144.831 47.9683 147.531 44.8683 149.731C44.3683 150.231 44.0683 150.531 43.7683 150.731Z" fill="white"/>
<path opacity="0.3889" d="M43.0683 151.731C41.6683 152.831 40.7683 154.131 39.5683 155.331C37.7683 157.231 36.1683 159.031 35.0683 160.631C33.5683 162.931 32.3683 165.431 31.4683 167.831C30.3683 170.731 29.9683 175.331 30.8683 178.931C31.2683 180.331 31.8683 181.331 33.2683 181.531C34.4683 181.731 35.7683 181.231 36.6683 180.331C37.6683 179.431 38.2683 178.131 38.9683 176.831C40.7683 173.531 41.8683 170.031 43.1683 166.731C43.8683 164.931 44.6683 163.231 45.5683 161.531C46.0683 160.631 47.1683 159.031 48.3683 157.331C50.8683 153.731 54.2683 149.031 51.7683 147.731C50.8683 146.131 46.7683 148.631 43.8683 150.931C43.6683 151.231 43.3683 151.531 43.0683 151.731Z" fill="white"/>
<path opacity="0.4444" d="M42.4683 152.831C41.3683 153.831 40.5683 154.831 39.6683 155.831C38.1683 157.531 36.8683 159.031 35.9683 160.231C34.4683 162.331 33.3683 164.431 32.4683 166.631C31.3683 169.431 30.8683 173.231 31.3683 176.631C31.5683 177.931 31.9683 179.131 33.1683 179.631C34.2683 180.031 35.5683 179.831 36.5683 179.031C37.5683 178.231 38.2683 177.131 38.8683 176.031C40.6683 172.931 41.7683 169.631 42.9683 166.431C43.6683 164.731 44.3683 163.131 45.2683 161.531C45.7683 160.731 46.8683 159.331 48.0683 157.631C50.5683 154.031 53.5683 149.831 50.6683 148.531C49.1683 147.831 45.9683 149.931 43.2683 152.231C42.9683 152.331 42.6683 152.531 42.4683 152.831Z" fill="white"/>
<path opacity="0.5" d="M41.7682 153.831C39.5682 156.131 37.6682 158.531 36.7682 159.631C33.2682 163.931 31.5682 168.431 31.7682 174.131C31.7682 175.331 31.9682 176.631 32.9682 177.431C33.8682 178.131 35.2682 178.031 36.2682 177.431C37.2682 176.831 37.9682 175.831 38.6682 174.831C41.5682 170.431 42.1682 165.331 44.8682 161.031C46.0682 159.131 54.7682 149.431 49.4682 148.731C47.4682 148.531 44.4682 151.031 41.7682 153.831Z" fill="white"/>
</g>
<g opacity="0.5">
<path opacity="0.0555556" d="M102.668 134.231C99.7682 136.331 97.1682 139.031 95.3682 142.831C89.5682 155.131 86.0682 168.331 85.1682 181.931C84.6682 189.931 84.4682 198.131 85.6682 206.031C86.3682 210.531 87.7682 215.031 89.7682 219.031C91.6682 222.831 94.1682 226.431 97.8682 228.431C101.468 230.431 106.468 230.431 109.668 227.531C113.468 223.931 113.368 217.831 112.968 212.531C111.868 195.331 112.168 178.031 113.868 160.931C114.668 152.831 117.668 135.931 107.368 133.131C107.068 132.431 106.268 132.031 105.168 132.531C104.268 132.931 103.568 133.631 102.668 134.231Z" fill="white"/>
<path opacity="0.1111" d="M101.968 137.231C99.1682 138.831 97.0682 141.931 95.4682 145.331C90.1682 156.831 86.9682 169.131 85.9682 181.831C85.3682 189.531 85.0682 197.331 86.2682 204.931C86.9682 209.331 88.4682 213.631 90.4682 217.131C92.4682 220.431 94.7682 223.431 98.0682 224.931C101.368 226.431 105.668 226.231 108.468 223.431C111.768 220.031 111.668 214.331 111.368 209.331C110.468 193.331 110.768 177.131 112.568 161.231C113.468 153.531 116.168 138.131 107.468 135.231C107.468 133.931 106.468 133.231 104.968 134.231C103.768 135.031 102.768 136.031 101.968 137.231Z" fill="white"/>
<path opacity="0.1667" d="M101.268 140.231C98.7683 141.831 96.9683 144.731 95.4683 147.931C90.6683 158.631 87.7683 170.131 86.7683 181.831C86.1683 189.131 85.6683 196.631 86.7683 203.931C87.3683 208.131 88.9683 212.331 91.1683 215.331C93.1683 218.131 95.3683 220.431 98.2683 221.431C101.168 222.431 104.868 222.031 107.268 219.331C110.068 216.031 109.968 210.831 109.768 206.231C108.968 191.331 109.468 176.331 111.268 161.631C112.168 154.331 114.768 140.531 107.568 137.331C107.868 135.531 106.668 134.431 104.768 135.931C103.168 137.131 102.168 138.631 101.268 140.231Z" fill="white"/>
<path opacity="0.2222" d="M100.568 143.331C98.3682 144.931 96.7682 147.631 95.4682 150.631C91.2682 160.531 88.6682 171.131 87.5682 181.931C86.8682 188.931 86.2682 196.131 87.2682 203.031C87.8682 207.031 89.4682 211.131 91.7682 213.631C93.7682 215.931 95.8682 217.631 98.3682 218.131C100.868 218.731 103.968 217.931 105.868 215.431C108.268 212.331 108.068 207.531 107.868 203.231C107.268 189.531 107.768 175.631 109.668 162.031C110.568 155.131 113.068 142.931 107.268 139.531C107.868 137.131 106.468 135.731 104.168 137.731C102.668 139.231 101.468 141.231 100.568 143.331Z" fill="white"/>
<path opacity="0.2778" d="M99.8683 146.331C98.0683 147.931 96.6683 150.431 95.5683 153.131C91.8683 162.331 89.5683 171.931 88.3683 181.731C87.5683 188.431 86.8683 195.231 87.8683 201.831C88.3683 205.631 90.0683 209.531 92.5683 211.631C94.5683 213.331 96.5683 214.431 98.6683 214.531C100.768 214.631 103.268 213.631 104.768 211.131C106.668 208.131 106.568 203.831 106.368 199.931C105.868 187.331 106.568 174.731 108.468 162.231C109.468 155.831 111.668 145.031 107.468 141.431C108.368 138.431 106.668 136.631 104.068 139.231C102.068 141.331 100.868 143.731 99.8683 146.331Z" fill="white"/>
<path opacity="0.3333" d="M99.1683 149.331C97.6683 150.931 96.5683 153.231 95.5683 155.731C92.3683 164.131 90.3683 172.831 89.1683 181.731C88.2683 188.031 87.4683 194.531 88.3683 200.831C88.8683 204.431 90.5683 208.231 93.1683 209.831C95.1683 211.031 97.0683 211.531 98.7683 211.131C100.468 210.731 102.268 209.531 103.468 207.131C104.868 204.231 104.768 200.431 104.668 196.831C104.368 185.431 105.068 173.931 107.068 162.631C108.068 156.631 110.168 147.431 107.468 143.631C108.668 140.031 106.768 137.931 103.768 141.031C101.468 143.431 100.168 146.331 99.1683 149.331Z" fill="white"/>
<path opacity="0.3889" d="M98.4683 152.331C97.5683 154.131 96.3683 156.131 95.5683 158.331C92.9683 165.931 91.1683 173.831 89.9683 181.731C89.0683 187.731 88.0683 193.831 88.8683 199.831C89.3683 203.331 91.0683 207.031 93.8683 208.031C95.8683 208.831 97.5683 208.531 98.9683 207.631C100.368 206.731 101.468 205.231 102.168 203.031C103.068 200.331 102.968 196.931 102.968 193.731C102.868 183.431 103.668 173.131 105.668 163.031C106.768 157.431 108.668 149.831 107.468 145.731C108.968 141.631 106.868 139.131 103.468 142.731C100.968 145.531 100.068 149.131 98.4683 152.331Z" fill="white"/>
<path opacity="0.4444" d="M97.6682 155.331C96.9682 157.031 96.1682 158.931 95.5682 160.831C93.4682 167.631 91.9682 174.631 90.6682 181.631C89.6682 187.331 88.6682 193.031 89.3682 198.731C89.7682 202.031 91.5682 205.731 94.4682 206.131C96.4682 206.431 98.0682 205.531 99.0682 204.131C100.068 202.731 100.568 201.031 100.868 198.931C101.268 196.331 101.168 193.431 101.168 190.531C101.168 181.431 102.168 172.231 104.168 163.331C105.268 158.231 106.368 151.931 107.368 147.731C108.468 142.831 106.868 140.131 103.068 144.431C100.368 147.631 99.1682 151.631 97.6682 155.331Z" fill="white"/>
<path opacity="0.5" d="M96.9683 158.431C94.7683 166.131 93.1683 173.931 91.4683 181.731C90.3683 187.031 89.2683 192.531 89.8683 197.931C90.2683 201.031 92.0683 204.731 95.1683 204.631C97.0683 204.531 98.6683 202.831 99.2683 201.031C99.8683 199.131 99.7683 197.131 99.6683 195.231C98.9683 179.931 101.568 164.431 107.368 150.231C109.568 144.931 106.968 141.731 102.768 146.531C99.7683 149.831 98.2683 154.031 96.9683 158.431Z" fill="white"/>
</g>
<path opacity="0.2" d="M46.8683 136.831C48.3683 135.831 50.1683 134.131 49.2683 132.531C48.3683 130.931 45.9683 131.531 44.5683 132.531C42.0683 134.331 39.9683 136.931 36.8683 137.531C35.2683 137.831 33.5683 137.531 32.0683 137.831C30.7683 138.131 29.6683 138.931 28.5683 139.631C25.4683 141.831 22.4683 144.031 19.5683 146.331C15.5683 149.431 11.5683 152.731 8.86835 157.031C6.36835 160.931 5.16835 165.431 3.96835 169.831C2.76835 174.531 1.76835 179.231 0.768346 183.931C0.368346 185.831 0.368346 188.231 2.16835 188.931C2.76835 189.131 3.36835 189.131 3.96835 189.331C5.26835 189.931 5.26835 191.731 5.16835 193.131C4.36835 200.731 4.36835 209.131 9.16835 215.131C11.7683 210.231 11.2683 204.431 11.4683 198.931C11.9683 174.031 26.3683 150.531 46.8683 136.831Z" fill="#FF8A00"/>
<path opacity="0.2" d="M48.5683 132.531C50.0683 131.531 51.8683 129.831 50.9683 128.231C50.0683 126.631 47.6683 127.231 46.2683 128.231C43.7683 130.031 41.6683 132.631 38.5683 133.231C36.9683 133.531 35.2683 133.231 33.7683 133.531C32.4683 133.831 31.3683 134.631 30.2683 135.331C27.1683 137.531 24.1683 139.731 21.2683 142.031C17.2683 145.131 13.2683 148.431 10.5683 152.731C8.0683 156.631 6.8683 161.131 5.6683 165.531C4.4683 170.231 3.4683 174.931 2.4683 179.631C2.0683 181.531 2.0683 183.931 3.8683 184.631C4.4683 184.831 5.0683 184.831 5.6683 185.031C6.9683 185.631 6.9683 187.431 6.8683 188.831C6.0683 196.431 6.0683 204.831 10.8683 210.831C13.4683 205.931 12.9683 200.131 13.1683 194.631C13.6683 169.831 27.9683 146.331 48.5683 132.531Z" fill="#FF8A00"/>
<path opacity="0.2" d="M58.2683 132.031C59.8683 131.231 61.8683 129.731 61.2683 128.031C60.5683 126.331 58.1683 126.631 56.5683 127.431C53.8683 128.831 51.3683 131.231 48.2683 131.331C46.6683 131.431 45.0683 130.831 43.4683 131.031C42.1683 131.131 40.9683 131.831 39.7683 132.431C36.4683 134.131 33.1683 135.931 29.9683 137.831C25.5683 140.331 21.1683 143.131 17.8683 146.931C14.8683 150.431 13.0683 154.731 11.3683 158.931C9.56829 163.431 7.86829 167.931 6.36829 172.531C5.76829 174.331 5.36829 176.831 7.06829 177.631C7.56829 177.931 8.26829 177.931 8.76829 178.231C9.96829 179.031 9.76829 180.831 9.46829 182.131C7.66829 189.531 6.56829 197.931 10.5683 204.431C13.7683 199.931 14.1683 194.131 14.9683 188.631C18.6683 164.231 36.1683 142.831 58.2683 132.031Z" fill="#FF8A00"/>
<path opacity="0.2" d="M61.9684 128.431C63.5684 127.631 65.5684 126.131 64.9684 124.431C64.2684 122.731 61.8684 123.031 60.2684 123.831C57.5684 125.231 55.0684 127.631 51.9684 127.731C50.3684 127.831 48.7684 127.231 47.1684 127.431C45.8684 127.531 44.6684 128.231 43.4684 128.831C40.1684 130.531 36.8684 132.331 33.6684 134.231C29.2684 136.731 24.8684 139.531 21.5684 143.331C18.5684 146.831 16.7684 151.131 15.0684 155.331C13.2684 159.831 11.5684 164.331 10.0684 168.931C9.46836 170.731 9.06836 173.231 10.7684 174.031C11.2684 174.331 11.9684 174.331 12.4684 174.631C13.6684 175.431 13.4684 177.231 13.1684 178.531C11.3684 185.931 10.2684 194.331 14.2684 200.831C17.4684 196.331 17.8684 190.531 18.6684 185.031C22.3684 160.631 39.7684 139.331 61.9684 128.431Z" fill="#FF8A00"/>
<path opacity="0.2" d="M58.2683 129.731C59.8683 128.931 61.8683 127.431 61.2683 125.731C60.5683 124.031 58.1683 124.331 56.5683 125.131C53.8683 126.531 51.3683 128.931 48.2683 129.031C46.6683 129.131 45.0683 128.531 43.4683 128.731C42.1683 128.831 40.9683 129.531 39.7683 130.131C36.4683 131.831 33.1683 133.631 29.9683 135.531C25.5683 138.031 21.1683 140.831 17.8683 144.631C14.8683 148.131 13.0683 152.431 11.3683 156.631C9.56829 161.131 7.86829 165.631 6.36829 170.231C5.76829 172.031 5.36829 174.531 7.06829 175.331C7.56829 175.631 8.26829 175.631 8.76829 175.931C9.96829 176.731 9.76829 178.531 9.46829 179.831C7.66829 187.231 6.56829 195.631 10.5683 202.131C13.7683 197.631 14.1683 191.831 14.9683 186.331C18.6683 161.931 36.1683 140.531 58.2683 129.731Z" fill="#FF8A00"/>
<path d="M128.368 124.431C129.268 124.131 129.468 123.231 130.268 122.831C131.368 122.231 132.668 122.431 133.768 121.831C134.668 121.331 135.068 120.331 135.968 119.831C136.768 119.431 137.768 119.431 138.368 118.831C139.168 117.931 138.568 116.431 137.568 115.631C136.468 114.831 135.268 114.331 134.268 113.431C133.268 112.431 132.268 111.231 131.368 110.131C128.468 106.631 125.868 103.031 123.368 99.331C119.368 93.631 116.668 87.231 114.368 80.631C112.068 74.031 109.668 67.331 107.568 60.631C106.368 56.731 105.168 52.831 104.768 48.731C103.368 35.431 110.668 21.731 122.468 15.431C123.568 14.831 124.868 14.231 125.668 13.231C126.968 11.531 126.768 9.03099 125.768 7.23099C124.668 5.33099 122.968 4.03099 121.168 2.83099C119.568 1.73099 117.768 0.730989 115.868 0.430989C113.968 0.130989 111.768 0.730989 110.668 2.33099C110.168 3.13099 109.868 4.03099 109.468 4.83099C108.168 7.63099 105.568 9.53099 103.268 11.631C95.0683 19.131 91.8683 30.431 91.9683 41.331C91.9683 52.131 94.8683 62.831 97.2683 73.331C98.9683 81.031 100.568 88.931 100.568 96.831C100.568 100.631 100.268 104.331 99.4683 108.031C98.9683 110.431 97.8683 112.831 96.8683 115.131C95.9683 117.331 92.9683 119.031 95.0683 121.331C96.5683 123.031 98.8683 122.931 100.868 123.331C102.868 123.731 104.468 125.031 106.468 125.231C107.668 125.331 108.768 125.431 109.968 125.631C112.168 125.831 114.368 126.031 116.368 125.331C116.768 125.231 117.068 125.031 117.468 125.031C119.368 124.931 120.968 125.931 123.068 125.631C124.568 125.431 126.168 125.131 127.668 124.731C127.868 124.631 128.068 124.531 128.368 124.431Z" fill="url(#paint5_linear_203_143)"/>
<path opacity="0.4" d="M137.468 115.631C136.368 114.831 135.168 114.331 134.168 113.431C133.168 112.431 132.168 111.231 131.268 110.131C130.568 109.331 129.968 108.531 129.268 107.731C129.268 107.831 129.168 107.831 129.168 107.931C129.168 108.131 129.268 108.331 129.268 108.531C129.568 109.131 129.868 109.831 130.168 110.431C130.268 110.631 130.368 110.931 130.268 111.131C130.068 111.531 129.568 111.431 129.168 111.331C128.268 111.031 127.268 110.731 126.368 110.431C126.568 110.831 126.668 111.331 126.668 111.831C126.568 112.331 126.168 112.731 125.668 112.631C125.368 112.531 125.068 112.331 124.868 112.031C123.068 109.631 121.268 107.331 119.368 105.131C118.668 106.031 119.468 107.331 120.068 108.331C120.968 109.731 121.568 111.431 121.768 113.131C120.768 112.831 119.868 112.231 119.168 111.431C119.668 112.531 119.868 113.631 119.868 114.831C118.168 114.131 117.068 112.431 116.068 110.831C115.068 109.231 113.868 107.531 112.068 107.031C112.168 108.631 112.468 110.231 112.968 111.731C113.468 113.131 114.168 114.531 114.068 116.031C114.068 116.231 113.968 116.531 113.868 116.631C113.468 116.931 112.968 116.431 112.768 115.931C112.068 114.431 111.468 113.031 110.868 111.431C110.568 112.431 110.268 113.331 109.968 114.331C109.768 115.031 109.168 115.831 108.568 115.531C108.268 115.331 108.068 114.931 108.068 114.531C107.868 112.431 108.768 110.031 107.468 108.331C106.168 111.631 105.268 115.031 104.768 118.431C103.868 117.531 104.068 116.031 104.168 114.831C104.368 111.831 103.568 108.831 102.068 106.331C102.268 108.331 102.268 110.331 101.968 112.331C101.868 112.731 101.868 113.231 101.468 113.431C100.768 113.831 100.168 112.831 100.168 112.131C100.168 111.331 100.368 110.531 99.8683 109.931C99.5683 109.631 99.2683 109.631 98.9683 109.631C98.3683 111.531 97.5683 113.431 96.7683 115.231C95.8683 117.431 92.8683 119.131 94.9683 121.431C96.4683 123.131 98.7683 123.031 100.768 123.431C102.768 123.831 104.368 125.131 106.368 125.331C107.568 125.431 108.668 125.531 109.868 125.731C112.068 125.931 114.268 126.131 116.268 125.431C116.668 125.331 116.968 125.131 117.368 125.131C119.268 125.031 120.868 126.031 122.968 125.731C124.468 125.531 126.068 125.231 127.568 124.831C127.768 124.731 127.968 124.731 128.268 124.631C129.168 124.331 129.368 123.431 130.168 123.031C131.268 122.431 132.568 122.631 133.668 122.031C134.568 121.531 134.968 120.531 135.868 120.031C136.668 119.631 137.668 119.631 138.268 119.031C139.068 117.931 138.468 116.331 137.468 115.631Z" fill="url(#paint6_radial_203_143)"/>
<path opacity="0.7" d="M121.668 111.731C121.868 111.831 121.968 111.831 122.168 111.931C121.968 110.231 121.368 108.631 120.368 107.131C119.968 106.531 119.468 105.831 119.368 105.131C118.868 106.031 119.568 107.231 120.168 108.131C120.868 109.231 121.368 110.531 121.668 111.731ZM119.868 113.531C119.968 113.531 120.068 113.631 120.068 113.631C120.068 113.031 119.968 112.431 119.868 111.931C119.668 111.731 119.368 111.531 119.168 111.331C119.568 112.031 119.768 112.731 119.868 113.531ZM130.168 110.331C130.468 110.331 130.868 110.331 130.968 110.031C130.968 109.931 130.968 109.931 130.968 109.831C130.368 109.131 129.768 108.431 129.168 107.631C129.168 107.731 129.068 107.731 129.068 107.831C129.068 108.031 129.168 108.231 129.168 108.431C129.668 109.031 129.968 109.631 130.168 110.331ZM127.168 110.731V110.631C126.868 110.531 126.668 110.431 126.368 110.431C126.468 110.731 126.668 111.131 126.668 111.431C126.968 111.231 127.068 110.931 127.168 110.731ZM103.668 113.831C103.568 115.131 103.468 116.531 104.368 117.431C104.168 116.631 104.268 115.731 104.268 114.831C104.468 111.831 103.668 108.831 102.168 106.331C102.168 106.431 102.168 106.531 102.168 106.631C103.268 108.831 103.768 111.331 103.668 113.831ZM136.768 118.831C135.868 119.331 135.368 120.331 134.468 120.831C133.368 121.431 131.968 121.231 130.868 121.831C130.068 122.231 129.868 123.131 128.868 123.431C128.668 123.531 128.368 123.531 128.168 123.631C126.568 124.031 124.968 124.331 123.368 124.531C121.268 124.831 119.568 123.931 117.468 123.931C117.068 123.931 116.668 124.131 116.268 124.231C114.168 124.931 111.768 124.731 109.468 124.531L105.868 124.131C103.768 123.931 102.068 122.731 99.9684 122.231C98.1684 121.831 96.0684 121.931 94.5684 120.831C94.6684 120.931 94.7684 121.131 94.8684 121.231C96.3684 122.931 98.6684 122.831 100.668 123.231C102.668 123.631 104.268 124.931 106.268 125.131C107.468 125.231 108.568 125.331 109.768 125.531C111.968 125.731 114.168 125.931 116.168 125.231C116.568 125.131 116.868 124.931 117.268 124.931C119.168 124.831 120.768 125.831 122.868 125.531C124.368 125.331 125.968 125.031 127.468 124.631C127.668 124.531 127.868 124.531 128.168 124.431C129.068 124.131 129.268 123.231 130.068 122.831C131.168 122.231 132.468 122.431 133.568 121.831C134.468 121.331 134.868 120.331 135.768 119.831C136.568 119.431 137.568 119.431 138.168 118.831C138.368 118.631 138.368 118.431 138.468 118.231C137.968 118.431 137.368 118.531 136.768 118.831ZM100.268 112.331C100.268 112.231 100.268 112.131 100.268 112.031C100.268 111.231 100.468 110.431 99.9684 109.831C99.8684 109.731 99.6684 109.631 99.5684 109.531C99.6684 109.931 99.5684 110.431 99.5684 110.931C99.4684 111.531 99.8684 112.231 100.268 112.331ZM107.668 113.531C107.668 113.831 107.768 114.231 108.068 114.431C107.868 112.431 108.668 110.231 107.668 108.531C108.068 110.031 107.568 111.831 107.668 113.531ZM113.968 114.531C113.968 113.131 113.268 111.831 112.868 110.531C112.668 109.931 112.468 109.331 112.368 108.731C112.568 109.731 112.768 110.631 113.068 111.531C113.368 112.531 113.768 113.531 113.968 114.531Z" fill="url(#paint7_radial_203_143)"/>
<path opacity="0.3" d="M110.568 107.731C108.468 102.031 106.868 96.2308 105.368 90.2308C102.068 77.3308 99.3684 64.3308 96.9684 51.2308C96.0684 45.9308 95.1684 40.5308 95.1684 35.1308C95.1684 34.8308 95.1684 34.6308 95.0684 34.3308C94.9684 31.5308 94.8684 28.7308 95.5684 26.0308C96.4684 22.3308 98.5684 19.3308 101.068 16.4308C103.268 13.6308 105.768 11.1308 107.768 8.23085C108.468 7.23085 109.668 3.73085 111.168 3.63085C111.568 3.63085 111.768 3.63085 111.968 3.73085C112.268 2.93085 112.568 2.33085 112.868 1.93085C112.568 1.73085 112.168 1.53085 111.768 1.63085C111.268 1.73085 110.868 2.63085 110.468 3.63085C110.268 3.53085 110.068 3.43085 109.668 3.53085C109.468 4.03085 109.268 4.43085 109.068 4.93085C108.168 6.83085 106.668 8.33085 105.068 9.83085C102.768 12.8308 99.9684 15.5308 97.8684 18.8308C94.9684 23.4308 93.7684 29.1308 93.6684 34.6308C93.5684 40.2308 94.4684 45.7308 95.4684 51.2308C97.7684 64.3308 100.568 77.3308 103.868 90.2308C105.368 96.2308 106.968 102.031 109.068 107.731C111.068 113.131 114.068 123.831 121.068 124.531C121.468 124.531 121.868 124.531 122.368 124.531C115.468 123.631 112.468 113.031 110.568 107.731ZM129.868 116.431C128.168 114.431 126.668 112.331 125.168 110.131C122.268 105.831 119.868 101.231 117.668 96.4308C117.468 95.9308 117.268 95.4308 116.968 94.9308C115.468 92.1308 113.968 89.3308 112.668 86.4308C109.368 78.9308 107.068 71.1308 104.668 63.3308C101.868 54.0308 99.0684 44.4308 99.1684 34.8308C98.9684 30.1308 99.6684 25.5308 101.668 21.3308C104.068 16.4308 108.068 12.6308 110.468 7.83085C109.068 9.43085 107.468 11.0308 105.968 12.6308C103.868 15.4308 101.668 18.2308 100.168 21.3308C96.7684 28.3308 97.2684 36.6308 98.8684 44.3308C100.568 52.8308 103.268 61.0308 105.968 69.2308C108.968 78.4308 112.068 87.6308 116.168 96.4308C118.368 101.131 120.768 105.731 123.668 110.131C125.068 112.331 126.668 114.431 128.368 116.431C129.968 118.331 130.868 120.031 132.868 119.431C131.768 119.031 131.068 117.831 129.868 116.431ZM99.1684 121.731C99.1684 121.231 99.2684 120.831 99.3684 120.431C99.7684 119.331 99.7684 118.331 99.9684 117.131C100.468 114.231 100.568 111.331 100.568 108.531C100.468 106.731 100.268 104.931 100.168 103.231C99.9684 104.931 99.7684 106.531 99.3684 108.231C99.2684 108.531 99.1684 108.931 99.0684 109.231C99.0684 111.931 98.9684 114.531 98.4684 117.231C98.2684 118.431 98.2684 119.431 97.8684 120.531C97.7684 120.931 97.5684 121.431 97.6684 121.831C97.6684 122.431 97.9684 122.831 98.3684 123.131C99.1684 123.231 99.9684 123.331 100.768 123.531C100.768 123.531 100.768 123.531 100.868 123.531C100.868 123.531 100.868 123.531 100.968 123.531C100.068 123.231 99.2684 122.731 99.1684 121.731ZM102.068 25.8308C101.868 26.1308 101.768 26.5308 101.668 26.8308C101.168 28.5308 100.968 30.2308 100.868 32.0308C100.768 34.1308 100.668 36.1308 100.868 38.1308C101.068 36.3308 101.368 34.4308 101.768 32.6308C101.868 32.3308 101.968 32.0308 101.968 31.7308C102.068 31.4308 102.068 31.0308 102.168 30.7308C102.468 29.0308 102.768 27.3308 103.568 25.8308C104.268 24.4308 105.368 23.2308 106.468 22.1308C109.068 19.5308 111.868 17.3308 114.968 15.3308C116.368 14.4308 118.168 13.0308 119.668 12.6308C119.768 12.6308 119.768 12.6308 119.868 12.5308C119.668 12.2308 119.568 11.9308 119.468 11.9308C118.668 11.6308 118.768 12.5308 118.168 12.6308C116.668 13.0308 114.768 14.4308 113.468 15.3308C110.368 17.2308 107.568 19.5308 104.968 22.1308C103.868 23.3308 102.768 24.5308 102.068 25.8308ZM100.668 90.8308C100.368 89.8308 100.168 88.8308 99.8684 87.8308C100.268 90.7309 100.468 93.6308 100.468 96.5308C100.568 96.7308 100.568 97.0308 100.668 97.2308C100.668 97.1308 100.668 97.0308 100.668 96.8308C100.768 97.4308 100.968 98.0308 101.068 98.6308C103.468 107.631 106.668 116.331 110.968 124.331C111.268 124.831 111.568 125.331 112.068 125.531C112.468 125.631 112.768 125.531 113.068 125.231C112.768 125.031 112.568 124.631 112.368 124.331C106.868 114.131 103.068 102.631 100.668 90.8308Z" fill="#D17B01"/>
<path opacity="0.5" d="M102.068 108.531C101.768 104.731 101.568 100.631 100.668 96.9307C100.068 103.631 101.268 110.231 100.068 117.031C99.8684 118.231 99.8684 119.231 99.4684 120.331C99.3684 120.731 99.1684 121.231 99.2684 121.631C99.3684 123.231 101.268 123.531 102.568 123.331C101.868 118.531 102.468 113.531 102.068 108.531ZM106.468 22.2307C105.368 23.3307 104.268 24.5307 103.568 25.9307C102.768 27.4307 102.468 29.1307 102.168 30.8307C101.368 35.2307 100.568 39.9307 101.968 44.2307C101.868 40.3307 102.268 36.5307 103.168 32.7307C103.868 29.9307 104.768 27.1307 106.568 24.9307C108.168 22.9307 110.468 21.4307 112.668 20.0307C115.768 18.0307 118.868 16.0307 121.868 14.0307C121.868 14.0307 121.068 12.0307 120.868 12.0307C120.068 11.7307 120.168 12.6307 119.568 12.7307C118.068 13.1307 116.168 14.5307 114.868 15.4307C111.868 17.3307 109.068 19.6307 106.468 22.2307ZM106.368 103.931C102.668 95.2307 101.068 85.5307 98.4684 76.4307C100.168 92.8307 104.668 109.931 112.468 124.431C112.768 124.931 113.068 125.431 113.568 125.631C114.368 125.831 115.168 125.131 115.268 124.331C115.368 123.531 115.068 122.731 114.668 122.031C111.868 116.031 108.868 110.031 106.368 103.931ZM126.368 107.131C121.468 100.831 117.368 93.9307 114.168 86.5307C110.868 79.0307 108.568 71.2307 106.168 63.4307C103.068 53.2307 99.9684 42.7307 100.768 32.0307C100.968 29.1307 101.468 26.2307 102.768 23.6307C103.868 21.3307 105.568 19.4307 107.268 17.5307C109.768 14.6307 112.268 11.8307 114.768 8.93074C115.368 8.23074 115.968 7.63074 116.068 6.73074C116.368 5.43074 115.168 1.23074 113.268 1.63074C112.768 1.73074 112.368 2.63074 111.968 3.63074C111.768 3.53074 111.468 3.43074 111.168 3.53074C109.668 3.63074 108.468 7.13074 107.768 8.13074C105.268 11.9307 101.768 14.9307 99.3684 18.7307C96.4684 23.3307 95.2684 29.0307 95.1684 34.5307C95.0684 40.1307 95.9684 45.6307 96.9684 51.1307C99.2684 64.2307 102.068 77.2307 105.368 90.1307C106.868 96.1307 108.468 101.931 110.568 107.631C112.568 113.031 115.568 123.731 122.568 124.431C124.068 124.531 125.568 124.031 126.968 123.531C127.468 123.331 127.968 123.131 128.468 122.931C128.668 122.831 128.868 122.731 128.968 122.531C129.068 122.331 128.868 122.131 128.768 121.931C124.468 116.431 119.568 111.431 115.668 105.631C112.568 100.631 109.968 95.2307 107.968 89.6307C105.768 83.4307 104.268 76.9307 102.768 70.5307C100.068 58.5307 97.2684 46.4307 96.6684 34.2307C96.5684 31.4307 96.4684 28.6307 97.1684 25.9307C99.0684 18.5307 105.668 13.6307 110.668 7.83074C108.168 12.6307 104.168 16.4307 101.868 21.3307C98.4684 28.3307 98.9684 36.6307 100.568 44.3307C102.268 52.8307 104.968 61.0307 107.668 69.2307C110.668 78.4307 113.768 87.6307 117.868 96.4307C120.068 101.131 122.468 105.731 125.368 110.131C126.768 112.331 128.368 114.431 130.068 116.431C131.868 118.631 132.768 120.531 135.468 119.131C136.068 118.831 136.768 118.431 136.968 117.731C136.868 117.131 127.668 108.631 126.368 107.131Z" fill="#D17B01"/>
<path d="M110.768 5.13069C112.368 8.23069 115.968 9.43069 118.668 11.6307C119.368 12.2307 120.068 12.9307 120.868 13.5307C121.968 14.3307 123.368 14.7307 124.568 14.3307C126.168 13.8307 127.068 12.0307 127.068 10.4307C127.068 8.73069 126.168 7.23069 125.168 5.93069C123.268 3.43069 119.968 0.730693 116.768 0.130693C113.968 -0.369307 108.968 1.53069 110.768 5.13069Z" fill="url(#paint8_linear_203_143)"/>
<path opacity="0.4" d="M121.968 13.5309C121.168 12.9309 120.468 12.2309 119.768 11.6309C117.168 9.43087 113.468 8.23088 111.868 5.13087C110.268 2.13087 113.568 0.230875 116.368 0.0308747C113.468 -0.269125 108.968 1.63087 110.768 5.13087C112.368 8.23088 115.968 9.43087 118.668 11.6309C119.368 12.2309 120.068 12.9309 120.868 13.5309C121.768 14.2309 122.968 14.6309 124.168 14.4309C123.368 14.3309 122.568 14.0309 121.968 13.5309Z" fill="url(#paint9_linear_203_143)"/>
<path opacity="0.2" d="M96.5684 38.631C97.2684 46.231 99.3684 54.131 100.468 60.131C102.868 73.431 106.568 86.531 112.568 98.631C116.468 106.431 121.368 113.831 128.468 119.031C126.468 117.631 124.568 111.931 123.168 109.831C120.968 106.431 118.468 103.131 116.468 99.631C112.568 92.831 109.468 85.931 107.368 78.431C104.468 67.931 101.468 57.531 99.7684 46.731C98.7684 40.431 98.2684 33.931 99.1684 27.631C100.068 21.431 102.668 15.231 107.168 10.731C104.668 14.131 101.268 16.731 99.1684 20.331C96.2684 25.331 95.9684 31.931 96.5684 38.631Z" fill="url(#paint10_linear_203_143)"/>
<path opacity="0.2" d="M96.5684 41.4308C97.2684 49.0308 99.3684 56.9308 100.468 62.9308C102.868 76.2308 106.568 89.3308 112.568 101.431C116.468 109.231 121.368 116.631 128.468 121.831C126.468 120.431 124.568 114.731 123.168 112.631C120.968 109.231 118.468 105.931 116.468 102.431C112.568 95.6308 109.468 88.7308 107.368 81.2308C104.468 70.7308 101.468 60.3308 99.7684 49.5308C98.7684 43.2308 98.2684 36.7308 99.1684 30.4308C100.068 24.2308 102.668 18.0308 107.168 13.5308C104.668 16.9308 101.268 19.5308 99.1684 23.1308C96.2684 28.1308 95.9684 34.6308 96.5684 41.4308Z" fill="url(#paint11_linear_203_143)"/>
<path opacity="0.2" d="M98.4683 37.5309C99.1683 45.4309 101.268 53.6309 102.368 59.8309C104.768 73.6309 108.468 87.2309 114.468 99.8309C118.368 107.931 123.268 115.631 130.368 121.031C128.368 119.531 126.468 113.731 125.068 111.431C122.868 107.931 120.368 104.531 118.368 100.831C114.468 93.8309 111.368 86.6309 109.268 78.8309C106.368 67.9309 103.368 57.0309 101.668 45.9309C100.668 39.3309 100.168 32.6309 101.068 26.0309C101.968 19.6309 104.568 13.1309 109.068 8.43091C106.568 11.9309 103.168 14.6309 101.068 18.4309C98.1683 23.6309 97.7683 30.5309 98.4683 37.5309Z" fill="url(#paint12_linear_203_143)"/>
<path opacity="0.4" d="M92.7684 42.1308C93.4684 50.0308 95.2684 58.2308 96.2684 64.4308C98.4684 78.2308 101.768 91.8308 107.168 104.431C110.668 112.531 115.068 120.231 121.568 125.631C119.768 124.131 118.068 118.331 116.768 116.031C114.768 112.531 112.568 109.131 110.768 105.431C107.268 98.4308 104.468 91.2308 102.568 83.4308C99.9684 72.5308 97.2684 61.6308 95.7684 50.5308C94.8684 43.9308 94.3684 37.2308 95.2684 30.6308C96.1684 24.2308 98.3684 17.7308 102.468 13.0308C100.268 16.5308 97.0684 19.2308 95.2684 23.0308C92.5684 28.2308 92.1684 35.1308 92.7684 42.1308Z" fill="url(#paint13_linear_203_143)"/>
<path opacity="0.5" d="M97.6684 20.1309C95.8684 23.2309 93.9684 26.4309 93.3684 29.9309C92.9684 32.0309 93.0684 34.2309 93.2684 36.3309C93.8684 46.1309 94.4684 56.4309 96.5684 66.0309C96.8684 67.4309 97.4684 69.1309 98.8684 69.4309C99.0684 69.4309 99.2684 69.5309 99.4684 69.4309C99.8684 69.2309 99.8684 68.7309 99.8684 68.3309C99.3684 60.2309 97.2684 52.4309 97.0684 44.3309C96.9684 36.8309 95.4684 29.5309 98.6684 22.2309C99.3684 20.7309 100.268 19.0309 99.8684 17.4309C98.2684 20.0309 96.7684 22.6309 95.3684 25.3309" fill="#7A7362"/>
<path opacity="0.2" d="M208.568 157.431C208.568 157.431 213.368 202.931 192.968 227.831C186.068 236.231 172.868 243.431 172.868 243.431L162.368 225.231L136.768 238.031V252.631C136.768 252.631 126.968 259.931 102.668 255.031C78.3682 250.231 70.4682 243.031 70.4682 243.031V228.431L56.0682 218.731L50.2682 230.331C50.2682 230.331 33.1682 221.131 25.9682 200.931C16.9682 175.331 24.5682 165.831 24.5682 165.831C24.5682 165.831 33.0682 191.631 51.8682 202.431C68.7682 212.231 80.7682 213.831 80.7682 213.831L81.9682 234.531L111.168 240.031L112.368 217.031C112.368 217.031 129.368 221.831 158.568 212.131C187.868 202.331 208.568 157.431 208.568 157.431Z" fill="url(#paint14_linear_203_143)"/>
<path opacity="0.5" d="M112.368 218.231C111.768 218.131 111.368 218.031 111.368 218.031L110.168 239.831L111.168 240.031L112.368 218.231ZM207.568 158.531C207.568 158.531 197.268 180.831 180.968 197.431C194.968 183.631 204.768 165.331 207.668 159.431C207.568 158.831 207.568 158.531 207.568 158.531ZM25.9682 200.931C18.9682 181.031 21.9682 170.831 23.6682 167.331C23.5682 167.031 23.4682 166.831 23.4682 166.831C23.4682 166.831 15.8682 176.431 24.8682 201.931C31.9682 222.131 49.1682 231.331 49.1682 231.331L49.7682 230.131C47.2682 228.531 32.4682 219.331 25.9682 200.931ZM102.668 255.131C78.3682 250.231 70.4682 243.031 70.4682 243.031V228.431L56.0682 218.731L55.4682 220.031L69.4682 229.431V244.031C69.4682 244.031 77.3682 251.331 101.768 256.131C126.168 261.031 135.868 253.731 135.868 253.731V253.331C132.768 255.031 122.568 259.131 102.668 255.131ZM162.368 225.331L136.768 238.131V238.631L161.368 226.331L171.868 244.531C171.868 244.531 182.768 238.531 189.868 231.131C182.768 238.031 172.868 243.531 172.868 243.531L162.368 225.331Z" fill="url(#paint15_linear_203_143)"/>
<path d="M208.568 158.531C208.568 158.531 213.368 204.031 192.968 228.931C186.068 237.331 172.868 244.531 172.868 244.531L162.368 226.331L136.768 239.131V253.731C136.768 253.731 126.968 261.031 102.668 256.131C78.3682 251.331 70.4682 244.031 70.4682 244.031V229.431L56.0682 219.731L50.2682 231.331C50.2682 231.331 33.1682 222.131 25.9682 201.931C16.9682 176.331 24.5682 166.831 24.5682 166.831C24.5682 166.831 33.0682 192.631 51.8682 203.431C68.7682 213.231 80.7682 214.831 80.7682 214.831L81.9682 235.531L111.168 241.031L112.368 218.031C112.368 218.031 129.368 222.831 158.568 213.131C187.868 203.331 208.568 158.531 208.568 158.531Z" fill="url(#paint16_linear_203_143)"/>
<path opacity="0.5" d="M80.7683 214.831C80.7683 214.831 68.7683 213.231 51.8683 203.431C33.0683 192.531 24.5683 166.831 24.5683 166.831C24.5683 166.831 20.5683 171.831 21.7683 184.431C26.7683 191.431 33.8683 198.931 43.1683 203.631C62.3683 213.431 76.0683 215.031 76.0683 215.031L77.4683 235.731L110.668 241.231V240.931L81.9683 235.531L80.7683 214.831ZM208.568 158.531C208.568 158.531 187.868 203.431 158.668 213.131C129.468 222.831 112.468 218.031 112.468 218.031V218.231C115.268 218.831 134.068 222.231 164.668 213.231C183.268 207.731 198.868 191.331 208.968 177.931C209.468 166.631 208.568 158.531 208.568 158.531ZM163.768 228.731L172.868 244.531C172.868 244.531 175.168 243.231 178.468 241.131L168.868 226.431L163.768 228.731ZM43.9683 226.931C47.6683 229.931 50.2683 231.331 50.2683 231.331L54.1683 223.531L53.8683 219.731L43.9683 226.931Z" fill="url(#paint17_linear_203_143)"/>
<path opacity="0.5" d="M70.4682 228.331L56.0682 218.631L50.2682 230.231C50.2682 230.231 33.1682 221.031 25.9682 200.831C22.6682 191.631 21.6682 184.431 21.5682 179.131C21.4682 184.631 22.4682 192.031 25.9682 201.931C33.0682 222.131 50.2682 231.331 50.2682 231.331L56.0682 219.731L70.4682 229.431V228.331ZM102.668 255.131C78.3682 250.231 70.4682 243.031 70.4682 243.031V244.031C70.4682 244.031 78.3682 251.331 102.768 256.131C127.168 261.031 136.868 253.731 136.868 253.731V252.731C136.868 252.731 127.068 260.031 102.668 255.131ZM192.968 227.931C186.068 236.331 172.868 243.531 172.868 243.531L162.368 225.331L136.768 238.131V239.131L162.368 226.331L172.868 244.531C172.868 244.531 186.068 237.231 192.968 228.931C207.068 211.731 209.168 184.831 209.068 169.731C209.068 184.931 206.668 211.131 192.968 227.931Z" fill="url(#paint18_linear_203_143)"/>
<path opacity="0.2" d="M158.668 216.131C129.468 225.831 112.468 221.031 112.468 221.031L111.268 244.031L82.0683 238.531L80.8683 217.831C80.8683 217.831 74.4683 216.931 64.3683 212.731L73.0683 218.931V233.531C73.0683 233.531 80.5683 240.831 103.568 245.631C126.568 250.431 135.768 243.231 135.768 243.231V228.631L159.868 215.831L169.768 234.031C169.768 234.031 182.268 226.731 188.668 218.431C198.868 205.231 202.368 186.231 203.468 171.331C195.568 185.131 179.168 209.331 158.668 216.131ZM27.3683 176.731C27.9683 180.931 29.0683 185.731 30.9683 191.431C37.6683 211.631 53.8683 220.831 53.8683 220.831L58.8683 210.231C56.6683 209.131 54.2683 207.931 51.8683 206.531C39.2683 199.231 31.2683 185.131 27.3683 176.731Z" fill="url(#paint19_linear_203_143)"/>
<path opacity="0.2" d="M158.668 215.131C129.468 224.831 112.468 220.031 112.468 220.031L111.268 243.031L82.0683 237.531L80.8683 216.831C80.8683 216.831 74.4683 215.931 64.3683 211.731L73.0683 217.931V232.531C73.0683 232.531 80.5683 239.831 103.568 244.631C126.568 249.531 135.768 242.231 135.768 242.231V227.631L159.868 214.831L169.768 233.031C169.768 233.031 182.268 225.731 188.668 217.431C198.868 204.231 202.368 185.231 203.468 170.331C195.568 184.131 179.168 208.331 158.668 215.131ZM27.3683 175.731C27.9683 179.931 29.0683 184.731 30.9683 190.431C37.6683 210.631 53.8683 219.831 53.8683 219.831L58.8683 209.231C56.6683 208.131 54.2683 206.931 51.8683 205.531C39.2683 198.131 31.2683 184.131 27.3683 175.731Z" fill="url(#paint20_linear_203_143)"/>
<path opacity="0.5" d="M158.668 214.131C129.468 223.831 112.468 219.031 112.468 219.031L111.268 242.031L82.0683 236.531L80.8683 215.831C80.8683 215.831 74.4683 214.931 64.3683 210.731L73.0683 216.931V231.531C73.0683 231.531 80.5683 238.831 103.568 243.631C126.568 248.531 135.768 241.231 135.768 241.231V226.631L159.868 213.831L169.768 232.031C169.768 232.031 182.268 224.731 188.668 216.431C198.868 203.231 202.368 184.231 203.468 169.331C195.568 183.031 179.168 207.231 158.668 214.131ZM27.3683 174.631C27.9683 178.831 29.0683 183.631 30.9683 189.331C37.6683 209.531 53.8683 218.731 53.8683 218.731L58.8683 208.131C56.6683 207.031 54.2683 205.831 51.8683 204.431C39.2683 197.131 31.2683 183.131 27.3683 174.631Z" fill="url(#paint21_linear_203_143)"/>
<path d="M159.768 213.831L162.368 226.331L172.868 244.631L169.668 231.031L159.768 213.831Z" fill="url(#paint22_linear_203_143)"/>
<path d="M72.9683 216.831L70.4683 229.331C70.4683 229.331 70.4683 244.931 70.4683 243.931C70.4683 242.931 72.9683 232.431 72.9683 232.431V216.831Z" fill="url(#paint23_linear_203_143)"/>
<path opacity="0.5" d="M58.8682 207.131L56.0682 219.731L50.2682 231.331L53.8682 217.731L58.8682 207.131Z" fill="url(#paint24_linear_203_143)"/>
<path opacity="0.5" d="M135.668 225.531L136.868 239.131V253.731L135.668 243.231V225.531Z" fill="url(#paint25_linear_203_143)"/>
<path d="M158.668 213.131C129.468 222.831 112.468 218.031 112.468 218.031L111.268 241.031L82.0683 235.531L80.8683 214.831C80.8683 214.831 74.4683 213.931 64.3683 209.731L73.0683 215.931V230.531C73.0683 230.531 80.5683 237.831 103.568 242.631C126.568 247.531 135.768 240.231 135.768 240.231V225.631L159.868 212.831L169.768 231.031C169.768 231.031 182.268 223.731 188.668 215.431C198.868 202.231 202.368 183.231 203.468 168.331C195.568 182.031 179.168 206.231 158.668 213.131ZM27.3683 173.631C27.9683 177.831 29.0683 182.631 30.9683 188.331C37.6683 208.531 53.8683 217.731 53.8683 217.731L58.8683 207.131C56.6683 206.031 54.2683 204.831 51.8683 203.431C39.2683 196.131 31.2683 182.031 27.3683 173.631Z" fill="url(#paint26_radial_203_143)"/>
<path opacity="0.5" d="M111.268 240.931L115.268 234.831L116.868 218.831L112.468 218.031L111.268 240.931Z" fill="url(#paint27_linear_203_143)"/>
<path opacity="0.3" d="M115.268 183.831C115.268 183.831 111.168 184.331 105.468 192.131C99.7683 199.931 99.3683 202.731 99.3683 202.731C99.3683 202.731 107.768 205.631 117.468 206.031C127.168 206.431 130.468 204.631 130.468 204.631C130.468 204.631 126.968 197.131 123.368 192.131C118.968 186.131 115.268 183.831 115.268 183.831Z" fill="url(#paint28_linear_203_143)"/>
<path opacity="0.5" d="M117.268 181.831C117.268 181.831 113.168 182.331 107.468 190.131C101.768 197.931 101.368 200.731 101.368 200.731C101.368 200.731 109.768 203.631 119.468 204.031C129.168 204.431 132.468 202.631 132.468 202.631C132.468 202.631 128.968 195.131 125.368 190.131C120.968 184.031 117.268 181.831 117.268 181.831Z" fill="url(#paint29_linear_203_143)"/>
<path d="M117.268 182.831C117.268 182.831 113.168 183.331 107.468 191.131C101.768 198.931 101.368 201.731 101.368 201.731C101.368 201.731 109.768 204.631 119.468 205.031C129.168 205.431 132.468 203.631 132.468 203.631C132.468 203.631 128.968 196.131 125.368 191.131C120.968 185.031 117.268 182.831 117.268 182.831Z" fill="url(#paint30_linear_203_143)"/>
<path opacity="0.3" d="M117.268 181.831L116.168 190.631L106.368 202.231L101.268 201.731C101.268 201.731 102.668 196.031 106.668 191.131C110.668 186.231 114.568 182.931 117.268 181.831Z" fill="url(#paint31_linear_203_143)"/>
<path d="M116.168 190.631C116.168 190.631 113.668 190.931 110.168 195.731C106.668 200.531 106.368 202.231 106.368 202.231C106.368 202.231 111.468 204.031 117.468 204.231C123.468 204.531 125.468 203.331 125.468 203.331C125.468 203.331 123.268 198.731 121.068 195.631C118.468 192.031 116.168 190.631 116.168 190.631Z" fill="url(#paint32_radial_203_143)"/>
<path opacity="0.5" d="M70.3682 130.631C70.3682 130.631 73.0682 142.231 80.9682 162.931C88.8682 183.531 90.7682 187.431 90.7682 187.431C90.7682 187.431 79.2682 186.831 60.0682 178.631C40.8682 170.431 33.1682 163.931 33.1682 163.931C33.1682 163.931 43.7682 138.131 70.3682 130.631Z" fill="url(#paint33_linear_203_143)"/>
<g opacity="0.7">
<path opacity="0.1" d="M72.4682 127.631C72.4682 127.631 75.2682 139.931 83.5682 161.731C91.8682 183.531 93.7682 187.631 93.7682 187.631C93.7682 187.631 81.6682 187.031 61.4682 178.431C41.2682 169.831 33.1682 163.031 33.1682 163.031C33.1682 163.031 44.3682 135.631 72.4682 127.631Z" fill="url(#paint34_linear_203_143)"/>
<path opacity="0.1" d="M72.3682 128.531C72.3682 128.531 75.1682 140.631 83.4682 162.131C91.7682 183.631 93.6682 187.631 93.6682 187.631C93.6682 187.631 81.6682 186.931 61.6682 178.431C41.6682 169.831 33.5682 163.131 33.5682 163.131C33.5682 163.131 44.5682 136.331 72.3682 128.531Z" fill="url(#paint35_linear_203_143)"/>
<path opacity="0.4" d="M70.8682 128.331C70.8682 128.331 73.6682 140.031 81.7682 160.731C89.8682 181.531 91.7682 185.331 91.7682 185.331C91.7682 185.331 80.1682 184.631 60.6682 176.331C41.2682 168.031 33.3682 161.431 33.3682 161.431C33.3682 161.431 43.9682 135.631 70.8682 128.331Z" fill="url(#paint36_linear_203_143)"/>
</g>
<path d="M70.3682 129.631C70.3682 129.631 73.0682 141.231 80.9682 161.931C88.8682 182.531 90.7682 186.431 90.7682 186.431C90.7682 186.431 79.2682 185.831 60.0682 177.631C40.8682 169.431 33.1682 162.931 33.1682 162.931C33.1682 162.931 43.7682 137.131 70.3682 129.631Z" fill="url(#paint37_linear_203_143)"/>
<g opacity="0.8">
<path opacity="0.1" d="M72.4682 137.031C55.1682 145.031 44.8682 159.231 40.0682 167.431C44.3682 170.031 50.9682 173.531 60.1682 177.531C79.3682 185.731 90.8682 186.331 90.8682 186.331C90.8682 186.331 88.9682 182.531 81.0682 161.831C76.7682 150.931 74.0682 142.531 72.4682 137.031Z" fill="black"/>
<path opacity="0.1444" d="M72.5683 137.631C55.4683 145.631 45.2683 159.531 40.3683 167.731C44.6683 170.331 51.0683 173.731 59.9683 177.531C79.1683 185.731 90.6683 186.331 90.6683 186.331C90.6683 186.331 88.7683 182.531 80.8683 161.831C76.9683 151.231 74.2683 143.031 72.5683 137.631Z" fill="url(#paint38_linear_203_143)"/>
<path opacity="0.1889" d="M72.7683 138.131C55.9683 146.031 45.7683 159.731 40.8683 167.931C45.1683 170.431 51.4683 173.831 60.0683 177.431C79.2683 185.631 90.7683 186.231 90.7683 186.231C90.7683 186.231 88.8683 182.431 80.9683 161.731C77.0683 151.531 74.3683 143.531 72.7683 138.131Z" fill="url(#paint39_linear_203_143)"/>
<path opacity="0.2333" d="M72.9683 138.631C56.3683 146.531 46.2683 159.931 41.3683 168.231C45.6683 170.731 51.7683 173.931 60.1683 177.531C79.3683 185.731 90.8683 186.331 90.8683 186.331C90.8683 186.331 88.9683 182.531 81.0683 161.831C77.1683 151.831 74.5683 144.031 72.9683 138.631Z" fill="url(#paint40_linear_203_143)"/>
<path opacity="0.2778" d="M73.0682 139.231C56.6682 147.031 46.6682 160.331 41.7682 168.531C45.9682 170.931 51.9682 174.131 60.0682 177.531C79.2682 185.731 90.7682 186.331 90.7682 186.331C90.7682 186.331 88.8682 182.531 80.9682 161.831C77.2682 152.231 74.7682 144.531 73.0682 139.231Z" fill="url(#paint41_linear_203_143)"/>
<path opacity="0.3222" d="M73.2682 139.731C57.0682 147.431 47.1682 160.531 42.1682 168.731C46.3682 171.131 52.2682 174.231 60.0682 177.531C79.2682 185.731 90.7682 186.331 90.7682 186.331C90.7682 186.331 88.8682 182.531 80.9682 161.831C77.3682 152.531 74.8682 145.031 73.2682 139.731Z" fill="url(#paint42_linear_203_143)"/>
<path opacity="0.3667" d="M73.4682 140.231C57.5682 147.931 47.6682 160.731 42.6682 168.931C46.8682 171.331 52.5682 174.231 60.0682 177.431C79.2682 185.631 90.7682 186.231 90.7682 186.231C90.7682 186.231 88.8682 182.431 80.9682 161.731C77.5682 152.831 75.0682 145.531 73.4682 140.231Z" fill="url(#paint43_linear_203_143)"/>
<path opacity="0.4111" d="M73.5682 140.831C57.8682 148.431 48.0682 161.131 43.0682 169.231C47.1682 171.531 52.7682 174.431 60.0682 177.531C79.2682 185.731 90.7682 186.331 90.7682 186.331C90.7682 186.331 88.8682 182.531 80.9682 161.831C77.6682 153.131 75.2682 146.031 73.5682 140.831Z" fill="url(#paint44_linear_203_143)"/>
<path opacity="0.4556" d="M73.7683 141.331C58.2683 148.931 48.5683 161.331 43.4683 169.431C47.5683 171.731 53.0683 174.431 60.0683 177.431C79.2683 185.631 90.7683 186.231 90.7683 186.231C90.7683 186.231 88.8683 182.431 80.9683 161.731C77.7683 153.431 75.3683 146.531 73.7683 141.331Z" fill="url(#paint45_linear_203_143)"/>
<path opacity="0.5" d="M73.9683 141.931C58.7683 149.431 49.0683 161.631 43.9683 169.831C48.0683 172.031 53.3683 174.731 60.0683 177.631C79.2683 185.831 90.7683 186.431 90.7683 186.431C90.7683 186.431 88.8683 182.631 80.9683 161.931C77.8683 153.731 75.5683 147.031 73.9683 141.931Z" fill="url(#paint46_linear_203_143)"/>
</g>
<path d="M45.5682 170.631C49.3682 172.631 54.1682 175.031 60.0682 177.531C79.2682 185.731 90.7682 186.331 90.7682 186.331C90.7682 186.331 88.8682 182.531 80.9682 161.831C78.1682 154.431 75.9682 148.231 74.3682 143.331C58.1682 150.431 49.0682 164.131 45.5682 170.631Z" fill="url(#paint47_radial_203_143)"/>
<path opacity="0.4" d="M78.2682 164.031C83.7682 173.631 87.2682 179.531 89.4682 183.231C88.1682 180.031 85.5682 173.731 81.0682 161.831C73.1682 141.231 70.4682 129.531 70.4682 129.531C67.5682 130.331 64.7682 131.431 62.2682 132.631C63.9682 136.731 68.9682 147.731 78.2682 164.031Z" fill="url(#paint48_linear_203_143)"/>
<path opacity="0.5" d="M160.868 128.431C160.868 128.431 157.668 139.731 148.968 159.731C140.268 179.731 138.268 183.431 138.268 183.431C138.268 183.431 149.568 183.331 168.868 176.131C188.168 168.931 196.068 162.831 196.068 162.831C196.068 162.831 186.768 136.931 160.868 128.431Z" fill="url(#paint49_linear_203_143)"/>
<g opacity="0.5">
<path opacity="0.1" d="M158.968 126.331C158.968 126.331 155.668 138.331 146.568 159.431C137.468 180.531 135.368 184.431 135.368 184.431C135.368 184.431 147.368 184.331 167.568 176.731C187.868 169.131 196.168 162.831 196.168 162.831C196.168 162.831 186.268 135.431 158.968 126.331Z" fill="url(#paint50_linear_203_143)"/>
<path opacity="0.1" d="M159.068 127.231C159.068 127.231 155.768 139.031 146.668 159.831C137.568 180.631 135.468 184.531 135.468 184.531C135.468 184.531 147.268 184.431 167.468 176.831C187.568 169.331 195.868 163.031 195.868 163.031C195.868 163.031 185.968 136.131 159.068 127.231Z" fill="url(#paint51_linear_203_143)"/>
<path opacity="0.4" d="M160.468 127.131C160.468 127.131 157.168 138.531 148.268 158.631C139.368 178.731 137.268 182.431 137.268 182.431C137.268 182.431 148.768 182.231 168.268 174.931C187.768 167.631 195.868 161.531 195.868 161.531C195.868 161.531 186.568 135.531 160.468 127.131Z" fill="url(#paint52_linear_203_143)"/>
</g>
<path d="M160.868 127.331C160.868 127.331 157.668 138.631 148.968 158.631C140.268 178.631 138.268 182.331 138.268 182.331C138.268 182.331 149.568 182.231 168.868 175.031C188.168 167.831 196.068 161.731 196.068 161.731C196.068 161.731 186.768 135.931 160.868 127.331Z" fill="url(#paint53_linear_203_143)"/>
<path opacity="0.7" d="M160.868 127.331C160.868 127.331 160.868 127.431 160.768 127.631C185.968 136.531 195.068 161.731 195.068 161.731C195.068 161.731 187.168 167.731 167.868 175.031C151.968 181.031 141.468 182.131 138.268 182.331C138.268 182.331 149.568 182.231 168.868 175.031C188.168 167.831 196.068 161.731 196.068 161.731C196.068 161.731 186.768 135.931 160.868 127.331Z" fill="url(#paint54_linear_203_143)"/>
<g opacity="0.8">
<path opacity="0.1" d="M158.568 134.631C175.268 143.331 184.768 157.731 189.168 166.031C184.768 168.431 178.168 171.631 168.968 175.031C149.668 182.231 138.368 182.331 138.368 182.331C138.368 182.331 140.368 178.631 149.068 158.631C153.668 148.131 156.668 139.931 158.568 134.631Z" fill="black"/>
<path opacity="0.1444" d="M158.368 135.131C174.768 143.731 184.268 157.931 188.768 166.231C184.368 168.531 177.968 171.631 168.968 175.031C149.668 182.231 138.368 182.331 138.368 182.331C138.368 182.331 140.368 178.631 149.068 158.631C153.468 148.431 156.468 140.431 158.368 135.131Z" fill="url(#paint55_linear_203_143)"/>
<path opacity="0.1889" d="M158.168 135.631C174.368 144.131 183.868 158.131 188.268 166.431C183.968 168.731 177.568 171.731 168.968 175.031C149.668 182.231 138.368 182.331 138.368 182.331C138.368 182.331 140.368 178.631 149.068 158.631C153.368 148.731 156.268 140.931 158.168 135.631Z" fill="url(#paint56_linear_203_143)"/>
<path opacity="0.2333" d="M157.968 136.131C173.968 144.631 183.368 158.331 187.768 166.631C183.468 168.931 177.268 171.831 168.868 174.931C149.568 182.131 138.268 182.231 138.268 182.231C138.268 182.231 140.268 178.531 148.968 158.531C153.268 149.031 156.068 141.431 157.968 136.131Z" fill="url(#paint57_linear_203_143)"/>
<path opacity="0.2778" d="M157.768 136.731C173.568 145.131 182.868 158.631 187.368 166.931C183.068 169.131 177.068 172.031 168.868 175.031C149.568 182.231 138.268 182.331 138.268 182.331C138.268 182.331 140.268 178.631 148.968 158.631C153.068 149.331 155.968 141.931 157.768 136.731Z" fill="url(#paint58_linear_203_143)"/>
<path opacity="0.3222" d="M157.568 137.231C173.168 145.531 182.368 158.931 186.868 167.131C182.668 169.331 176.668 172.031 168.868 175.031C149.568 182.231 138.268 182.331 138.268 182.331C138.268 182.331 140.268 178.631 148.968 158.631C152.968 149.631 155.768 142.331 157.568 137.231Z" fill="url(#paint59_linear_203_143)"/>
<path opacity="0.3667" d="M157.368 137.731C172.768 146.031 181.868 159.131 186.468 167.431C182.268 169.531 176.468 172.231 168.868 175.031C149.568 182.231 138.268 182.331 138.268 182.331C138.268 182.331 140.268 178.631 148.968 158.631C152.868 149.931 155.568 142.831 157.368 137.731Z" fill="url(#paint60_linear_203_143)"/>
<path opacity="0.4111" d="M157.268 138.231C172.368 146.431 181.468 159.331 186.068 167.631C181.868 169.731 176.268 172.331 168.968 175.031C149.668 182.231 138.368 182.331 138.368 182.331C138.368 182.331 140.368 178.631 149.068 158.631C152.668 150.231 155.368 143.331 157.268 138.231Z" fill="url(#paint61_linear_203_143)"/>
<path opacity="0.4556" d="M157.068 138.831C171.968 146.931 180.968 159.631 185.668 167.931C181.568 170.031 176.068 172.431 168.968 175.131C149.668 182.331 138.368 182.431 138.368 182.431C138.368 182.431 140.368 178.731 149.068 158.731C152.568 150.531 155.168 143.831 157.068 138.831Z" fill="url(#paint62_linear_203_143)"/>
<path opacity="0.5" d="M156.868 139.331C171.568 147.431 180.568 159.831 185.168 168.131C181.068 170.131 175.668 172.531 168.968 175.131C149.668 182.331 138.368 182.431 138.368 182.431C138.368 182.431 140.368 178.731 149.068 158.731C152.468 150.831 154.968 144.331 156.868 139.331Z" fill="url(#paint63_linear_203_143)"/>
</g>
<path d="M183.468 168.931C179.568 170.731 174.768 172.831 168.868 175.031C149.568 182.231 138.268 182.331 138.268 182.331C138.268 182.331 140.268 178.631 148.968 158.631C152.068 151.531 154.468 145.431 156.268 140.631C172.068 148.431 180.368 162.331 183.468 168.931Z" fill="url(#paint64_radial_203_143)"/>
<path opacity="0.4" d="M151.568 160.931C145.768 170.131 142.068 175.831 139.668 179.431C141.168 176.331 143.968 170.231 148.968 158.731C157.668 138.731 160.868 127.431 160.868 127.431C163.768 128.331 166.368 129.531 168.868 130.831C166.868 134.731 161.468 145.231 151.568 160.931Z" fill="url(#paint65_linear_203_143)"/>
<defs>
<radialGradient id="paint0_radial_203_143" cx="0" cy="0" r="1" gradientUnits="userSpaceOnUse" gradientTransform="translate(72.8242 135.662) scale(182.554 182.554)">
<stop stop-color="#FFBA20"/>
<stop offset="0.5695" stop-color="#E78000"/>
<stop offset="1" stop-color="#EA3817"/>
</radialGradient>
<radialGradient id="paint1_radial_203_143" cx="0" cy="0" r="1" gradientUnits="userSpaceOnUse" gradientTransform="translate(65.9772 131.86) scale(160.381 160.381)">
<stop stop-color="#FFA00E"/>
<stop offset="0.5695" stop-color="#D34E00"/>
<stop offset="1" stop-color="#8E1300"/>
</radialGradient>
<radialGradient id="paint2_radial_203_143" cx="0" cy="0" r="1" gradientUnits="userSpaceOnUse" gradientTransform="translate(72.7679 152.484) scale(172.213 172.213)">
<stop stop-color="#FFA00E"/>
<stop offset="0.5695" stop-color="#D34E00"/>
<stop offset="1" stop-color="#8E1300"/>
</radialGradient>
<radialGradient id="paint3_radial_203_143" cx="0" cy="0" r="1" gradientUnits="userSpaceOnUse" gradientTransform="translate(74.2367 152.484) scale(172.216 172.216)">
<stop stop-color="#FFA00E"/>
<stop offset="0.5695" stop-color="#D34E00"/>
<stop offset="1" stop-color="#8E1300"/>
</radialGradient>
<radialGradient id="paint4_radial_203_143" cx="0" cy="0" r="1" gradientUnits="userSpaceOnUse" gradientTransform="translate(71.3851 152.484) scale(172.151 172.151)">
<stop stop-color="#FFA00E"/>
<stop offset="0.5695" stop-color="#D34E00"/>
<stop offset="1" stop-color="#8E1300"/>
</radialGradient>
<linearGradient id="paint5_linear_203_143" x1="95.7582" y1="11.6756" x2="127.098" y2="125.975" gradientUnits="userSpaceOnUse">
<stop stop-color="#B78D5E"/>
<stop offset="0.5656" stop-color="#5A503C"/>
<stop offset="1" stop-color="#5D2101"/>
</linearGradient>
<radialGradient id="paint6_radial_203_143" cx="0" cy="0" r="1" gradientUnits="userSpaceOnUse" gradientTransform="translate(93.8348 110.63) scale(38.2032 38.2032)">
<stop stop-color="#FFA00E"/>
<stop offset="0.5695" stop-color="#D34E00"/>
<stop offset="1" stop-color="#8E1300"/>
</radialGradient>
<radialGradient id="paint7_radial_203_143" cx="0" cy="0" r="1" gradientUnits="userSpaceOnUse" gradientTransform="translate(94.2261 110.748) scale(37.8133 37.8133)">
<stop stop-color="#FFA00E"/>
<stop offset="0.5695" stop-color="#D34E00"/>
<stop offset="1" stop-color="#8E1300"/>
</radialGradient>
<linearGradient id="paint8_linear_203_143" x1="110.394" y1="7.26429" x2="127.104" y2="7.26429" gradientUnits="userSpaceOnUse">
<stop offset="0.166" stop-color="#E0B886"/>
<stop offset="1" stop-color="#5A503C"/>
</linearGradient>
<linearGradient id="paint9_linear_203_143" x1="110.394" y1="7.24907" x2="124.132" y2="7.24907" gradientUnits="userSpaceOnUse">
<stop offset="0.166" stop-color="#E0B886"/>
<stop offset="1" stop-color="#5A503C"/>
</linearGradient>
<linearGradient id="paint10_linear_203_143" x1="108.26" y1="22.746" x2="113.413" y2="90.4696" gradientUnits="userSpaceOnUse">
<stop stop-color="#B78D5E"/>
<stop offset="0.5656" stop-color="#5A503C"/>
<stop offset="1" stop-color="#5D2101"/>
</linearGradient>
<linearGradient id="paint11_linear_203_143" x1="108.26" y1="25.5063" x2="113.413" y2="93.2298" gradientUnits="userSpaceOnUse">
<stop stop-color="#B78D5E"/>
<stop offset="0.5656" stop-color="#5A503C"/>
<stop offset="1" stop-color="#5D2101"/>
</linearGradient>
<linearGradient id="paint12_linear_203_143" x1="109.938" y1="20.9717" x2="115.287" y2="91.2697" gradientUnits="userSpaceOnUse">
<stop stop-color="#B78D5E"/>
<stop offset="0.5656" stop-color="#5A503C"/>
<stop offset="1" stop-color="#5D2101"/>
</linearGradient>
<linearGradient id="paint13_linear_203_143" x1="102.736" y1="25.6282" x2="108.077" y2="95.8286" gradientUnits="userSpaceOnUse">
<stop stop-color="#B78D5E"/>
<stop offset="0.5656" stop-color="#5A503C"/>
<stop offset="1" stop-color="#5D2101"/>
</linearGradient>
<linearGradient id="paint14_linear_203_143" x1="105.585" y1="192.548" x2="171.401" y2="210.916" gradientUnits="userSpaceOnUse">
<stop stop-color="#F24B00"/>
<stop offset="1" stop-color="#FA5E00"/>
</linearGradient>
<linearGradient id="paint15_linear_203_143" x1="101.766" y1="192.789" x2="165.357" y2="210.535" gradientUnits="userSpaceOnUse">
<stop stop-color="#F24B00"/>
<stop offset="1" stop-color="#FA5E00"/>
</linearGradient>
<linearGradient id="paint16_linear_203_143" x1="105.585" y1="193.57" x2="171.401" y2="211.937" gradientUnits="userSpaceOnUse">
<stop stop-color="#F24B00"/>
<stop offset="1" stop-color="#FA5E00"/>
</linearGradient>
<linearGradient id="paint17_linear_203_143" x1="105.497" y1="188.223" x2="170.145" y2="206.264" gradientUnits="userSpaceOnUse">
<stop stop-color="#F24B00"/>
<stop offset="1" stop-color="#FA5E00"/>
</linearGradient>
<linearGradient id="paint18_linear_203_143" x1="104.731" y1="198.866" x2="170.145" y2="217.122" gradientUnits="userSpaceOnUse">
<stop stop-color="#F24B00"/>
<stop offset="1" stop-color="#FA5E00"/>
</linearGradient>
<linearGradient id="paint19_linear_203_143" x1="130.737" y1="237.569" x2="125.635" y2="216.652" gradientUnits="userSpaceOnUse">
<stop stop-color="#FFBE00"/>
<stop offset="1" stop-color="#FFC32D"/>
</linearGradient>
<linearGradient id="paint20_linear_203_143" x1="130.737" y1="236.548" x2="125.635" y2="215.631" gradientUnits="userSpaceOnUse">
<stop stop-color="#FFBE00"/>
<stop offset="1" stop-color="#FFC32D"/>
</linearGradient>
<linearGradient id="paint21_linear_203_143" x1="130.737" y1="235.527" x2="125.635" y2="214.61" gradientUnits="userSpaceOnUse">
<stop stop-color="#FFBE00"/>
<stop offset="1" stop-color="#FFC32D"/>
</linearGradient>
<linearGradient id="paint22_linear_203_143" x1="171.698" y1="244.132" x2="160.283" y2="212.998" gradientUnits="userSpaceOnUse">
<stop stop-color="#F24B00"/>
<stop offset="1" stop-color="white"/>
</linearGradient>
<linearGradient id="paint23_linear_203_143" x1="69.6123" y1="243.925" x2="73.6936" y2="218.672" gradientUnits="userSpaceOnUse">
<stop stop-color="#F24B00"/>
<stop offset="0.166" stop-color="#F66A1F"/>
<stop offset="1" stop-color="white"/>
</linearGradient>
<linearGradient id="paint24_linear_203_143" x1="52.5837" y1="231.69" x2="56.3584" y2="208.334" gradientUnits="userSpaceOnUse">
<stop stop-color="#F24B00"/>
<stop offset="1" stop-color="#FDA67E"/>
</linearGradient>
<linearGradient id="paint25_linear_203_143" x1="134.018" y1="253.302" x2="138.155" y2="227.707" gradientUnits="userSpaceOnUse">
<stop stop-color="#F24B00"/>
<stop offset="1" stop-color="#FDA67E"/>
</linearGradient>
<radialGradient id="paint26_radial_203_143" cx="0" cy="0" r="1" gradientUnits="userSpaceOnUse" gradientTransform="translate(115.409 206.278) scale(106.116 55.9339)">
<stop stop-color="#FDF799"/>
<stop offset="1" stop-color="#FFDD00"/>
</radialGradient>
<linearGradient id="paint27_linear_203_143" x1="110.989" y1="229.493" x2="116.346" y2="229.493" gradientUnits="userSpaceOnUse">
<stop stop-color="#F24B00"/>
<stop offset="1" stop-color="#FDA67E"/>
</linearGradient>
<linearGradient id="paint28_linear_203_143" x1="105.496" y1="190.993" x2="119.271" y2="205.788" gradientUnits="userSpaceOnUse">
<stop stop-color="#F24B00"/>
<stop offset="1" stop-color="#FA5E00"/>
</linearGradient>
<linearGradient id="paint29_linear_203_143" x1="107.538" y1="188.951" x2="121.313" y2="203.746" gradientUnits="userSpaceOnUse">
<stop stop-color="#F24B00"/>
<stop offset="1" stop-color="#FA5E00"/>
</linearGradient>
<linearGradient id="paint30_linear_203_143" x1="107.538" y1="189.972" x2="121.313" y2="204.767" gradientUnits="userSpaceOnUse">
<stop stop-color="#F24B00"/>
<stop offset="1" stop-color="#FA5E00"/>
</linearGradient>
<linearGradient id="paint31_linear_203_143" x1="107.368" y1="189.738" x2="111.717" y2="194.409" gradientUnits="userSpaceOnUse">
<stop stop-color="#F24B00"/>
<stop offset="1" stop-color="#FA5E00"/>
</linearGradient>
<radialGradient id="paint32_radial_203_143" cx="0" cy="0" r="1" gradientUnits="userSpaceOnUse" gradientTransform="translate(115.96 197.471) scale(12.6364 12.6364)">
<stop offset="0.2905" stop-color="#FFCB00"/>
<stop offset="1" stop-color="#FF9A2B"/>
</radialGradient>
<linearGradient id="paint33_linear_203_143" x1="61.9178" y1="176.139" x2="64.4686" y2="138.387" gradientUnits="userSpaceOnUse">
<stop stop-color="#FF6000"/>
<stop offset="1" stop-color="#F87100"/>
</linearGradient>
<linearGradient id="paint34_linear_203_143" x1="63.37" y1="175.76" x2="65.9501" y2="135.791" gradientUnits="userSpaceOnUse">
<stop stop-color="#FF6000"/>
<stop offset="1" stop-color="#F87100"/>
</linearGradient>
<linearGradient id="paint35_linear_203_143" x1="63.5345" y1="175.944" x2="66.219" y2="136.615" gradientUnits="userSpaceOnUse">
<stop stop-color="#FF6000"/>
<stop offset="1" stop-color="#F87100"/>
</linearGradient>
<linearGradient id="paint36_linear_203_143" x1="62.5684" y1="173.895" x2="65.3214" y2="136.069" gradientUnits="userSpaceOnUse">
<stop stop-color="#FF6000"/>
<stop offset="1" stop-color="#F87100"/>
</linearGradient>
<linearGradient id="paint37_linear_203_143" x1="61.9178" y1="175.118" x2="64.4686" y2="137.366" gradientUnits="userSpaceOnUse">
<stop stop-color="#FF6000"/>
<stop offset="1" stop-color="#F87100"/>
</linearGradient>
<linearGradient id="paint38_linear_203_143" x1="56.237" y1="152.08" x2="71.2075" y2="183.173" gradientUnits="userSpaceOnUse">
<stop stop-color="#1C1500"/>
<stop offset="1" stop-color="#1C1605"/>
</linearGradient>
<linearGradient id="paint39_linear_203_143" x1="56.5424" y1="152.48" x2="71.3521" y2="183.239" gradientUnits="userSpaceOnUse">
<stop stop-color="#392A00"/>
<stop offset="1" stop-color="#392B0A"/>
</linearGradient>
<linearGradient id="paint40_linear_203_143" x1="56.8477" y1="152.879" x2="71.4967" y2="183.304" gradientUnits="userSpaceOnUse">
<stop stop-color="#553F00"/>
<stop offset="1" stop-color="#55410F"/>
</linearGradient>
<linearGradient id="paint41_linear_203_143" x1="57.1527" y1="153.278" x2="71.6411" y2="183.37" gradientUnits="userSpaceOnUse">
<stop stop-color="#715400"/>
<stop offset="1" stop-color="#715714"/>
</linearGradient>
<linearGradient id="paint42_linear_203_143" x1="57.4577" y1="153.677" x2="71.7856" y2="183.435" gradientUnits="userSpaceOnUse">
<stop stop-color="#8E6A00"/>
<stop offset="1" stop-color="#8E6C19"/>
</linearGradient>
<linearGradient id="paint43_linear_203_143" x1="57.7626" y1="154.075" x2="71.9301" y2="183.5" gradientUnits="userSpaceOnUse">
<stop stop-color="#AA7F00"/>
<stop offset="1" stop-color="#AA821E"/>
</linearGradient>
<linearGradient id="paint44_linear_203_143" x1="58.0674" y1="154.474" x2="72.0746" y2="183.565" gradientUnits="userSpaceOnUse">
<stop stop-color="#C69400"/>
<stop offset="1" stop-color="#C69823"/>
</linearGradient>
<linearGradient id="paint45_linear_203_143" x1="58.3723" y1="154.872" x2="72.2191" y2="183.631" gradientUnits="userSpaceOnUse">
<stop stop-color="#E3A900"/>
<stop offset="1" stop-color="#E3AD28"/>
</linearGradient>
<linearGradient id="paint46_linear_203_143" x1="58.6772" y1="155.27" x2="72.3636" y2="183.696" gradientUnits="userSpaceOnUse">
<stop stop-color="#FFBE00"/>
<stop offset="1" stop-color="#FFC32D"/>
</linearGradient>
<radialGradient id="paint47_radial_203_143" cx="0" cy="0" r="1" gradientUnits="userSpaceOnUse" gradientTransform="translate(84.1204 177.547) scale(38.7201 38.7201)">
<stop stop-color="#FDF799"/>
<stop offset="1" stop-color="#FFDD00"/>
</radialGradient>
<linearGradient id="paint48_linear_203_143" x1="80.8838" y1="154.001" x2="76.1223" y2="157.742" gradientUnits="userSpaceOnUse">
<stop stop-color="#FF6000"/>
<stop offset="1" stop-color="white"/>
</linearGradient>
<linearGradient id="paint49_linear_203_143" x1="167.168" y1="173.588" x2="166.323" y2="136.277" gradientUnits="userSpaceOnUse">
<stop stop-color="#FF6000"/>
<stop offset="1" stop-color="#F87100"/>
</linearGradient>
<linearGradient id="paint50_linear_203_143" x1="165.754" y1="174.17" x2="164.978" y2="134.675" gradientUnits="userSpaceOnUse">
<stop stop-color="#FF6000"/>
<stop offset="1" stop-color="#F87100"/>
</linearGradient>
<linearGradient id="paint51_linear_203_143" x1="165.584" y1="174.343" x2="164.675" y2="135.474" gradientUnits="userSpaceOnUse">
<stop stop-color="#FF6000"/>
<stop offset="1" stop-color="#F87100"/>
</linearGradient>
<linearGradient id="paint52_linear_203_143" x1="166.626" y1="172.371" x2="165.589" y2="134.976" gradientUnits="userSpaceOnUse">
<stop stop-color="#FF6000"/>
<stop offset="1" stop-color="#F87100"/>
</linearGradient>
<linearGradient id="paint53_linear_203_143" x1="165.917" y1="164.493" x2="162.091" y2="141.918" gradientUnits="userSpaceOnUse">
<stop stop-color="#F24B00"/>
<stop offset="1" stop-color="#FA5E00"/>
</linearGradient>
<linearGradient id="paint54_linear_203_143" x1="165.917" y1="164.492" x2="162.091" y2="141.918" gradientUnits="userSpaceOnUse">
<stop stop-color="#F24B00"/>
<stop offset="1" stop-color="#FA5E00"/>
</linearGradient>
<linearGradient id="paint55_linear_203_143" x1="152.48" y1="144.553" x2="167.443" y2="168.556" gradientUnits="userSpaceOnUse">
<stop stop-color="#1C1500"/>
<stop offset="1" stop-color="#1C1605"/>
</linearGradient>
<linearGradient id="paint56_linear_203_143" x1="155.561" y1="144.537" x2="174.45" y2="166.088" gradientUnits="userSpaceOnUse">
<stop stop-color="#392A00"/>
<stop offset="1" stop-color="#392B0A"/>
</linearGradient>
<linearGradient id="paint57_linear_203_143" x1="158.629" y1="143.853" x2="181.628" y2="159.651" gradientUnits="userSpaceOnUse">
<stop stop-color="#553F00"/>
<stop offset="1" stop-color="#55410F"/>
</linearGradient>
<linearGradient id="paint58_linear_203_143" x1="161.075" y1="111.359" x2="189.63" y2="118.263" gradientUnits="userSpaceOnUse">
<stop stop-color="#715400"/>
<stop offset="1" stop-color="#715714"/>
</linearGradient>
<linearGradient id="paint59_linear_203_143" x1="168.842" y1="102.228" x2="135.713" y2="108.683" gradientUnits="userSpaceOnUse">
<stop stop-color="#8E6A00"/>
<stop offset="1" stop-color="#8E6C19"/>
</linearGradient>
<linearGradient id="paint60_linear_203_143" x1="167.799" y1="147.584" x2="140.128" y2="164.822" gradientUnits="userSpaceOnUse">
<stop stop-color="#AA7F00"/>
<stop offset="1" stop-color="#AA821E"/>
</linearGradient>
<linearGradient id="paint61_linear_203_143" x1="168.81" y1="153.596" x2="147.013" y2="176.326" gradientUnits="userSpaceOnUse">
<stop stop-color="#C69400"/>
<stop offset="1" stop-color="#C69823"/>
</linearGradient>
<linearGradient id="paint62_linear_203_143" x1="170.751" y1="154.321" x2="153.065" y2="180.05" gradientUnits="userSpaceOnUse">
<stop stop-color="#E3A900"/>
<stop offset="1" stop-color="#E3AD28"/>
</linearGradient>
<linearGradient id="paint63_linear_203_143" x1="171.284" y1="153.168" x2="156.543" y2="180.571" gradientUnits="userSpaceOnUse">
<stop stop-color="#FFBE00"/>
<stop offset="1" stop-color="#FFC32D"/>
</linearGradient>
<radialGradient id="paint64_radial_203_143" cx="0" cy="0" r="1" gradientUnits="userSpaceOnUse" gradientTransform="translate(147.041 176.186) scale(31.7598)">
<stop stop-color="#FDF799"/>
<stop offset="1" stop-color="#FFDD00"/>
</radialGradient>
<linearGradient id="paint65_linear_203_143" x1="149.459" y1="150.937" x2="153.985" y2="154.833" gradientUnits="userSpaceOnUse">
<stop stop-color="#FF6000"/>
<stop offset="1" stop-color="white"/>
</linearGradient>
</defs>
</svg>
