<svg width="40" height="96" viewBox="0 0 40 96" fill="none" xmlns="http://www.w3.org/2000/svg">
<path opacity="0.77" d="M19.8319 69.1481H19.1883C18.9543 53.1773 18.7203 37.2066 18.4863 21.1773C18.4863 14.0987 18.4863 7.07861 18.4863 0C18.8958 23.1079 19.3638 46.0987 19.8319 69.1481Z" fill="#828282"/>
<path fill-rule="evenodd" clip-rule="evenodd" d="M32.468 78.6252C32.468 78.6252 32.468 78.5082 32.351 78.3327C32.2925 78.2157 32.234 78.0987 32.117 78.0402C31.883 77.8647 31.7075 77.8647 31.532 77.8062C30.8885 77.6307 30.245 77.5137 29.66 77.3382C28.4314 77.0457 27.3199 76.7532 26.3254 76.5192C25.6234 76.3437 25.0384 76.1682 24.5119 76.0512C24.9214 75.9342 25.3894 75.7587 25.9744 75.5832C26.9689 75.2907 28.0804 74.9397 29.2505 74.5302C29.8355 74.3546 30.479 74.1206 31.1225 73.9451C31.298 73.8866 31.415 73.8866 31.4735 73.8866C31.532 73.8866 31.532 73.8866 31.5905 73.9451C31.649 73.9451 31.7075 74.0037 31.7075 74.0622C31.9415 74.2962 32.1755 74.5302 32.4095 74.7642C36.0951 78.6252 39.8391 82.5448 39.8391 82.5448C39.8391 82.5448 36.3291 78.3912 32.8775 74.2376C32.6435 74.0036 32.468 73.7111 32.234 73.4771C32.1755 73.4186 32.117 73.3601 32 73.2431C31.9415 73.1846 31.766 73.1261 31.649 73.0676C31.3565 73.0091 31.181 73.0676 31.0055 73.1261C30.362 73.3016 29.7185 73.4186 29.1335 73.5941C27.9049 73.8866 26.7934 74.1791 25.7989 74.4132C25.3309 74.5302 24.9214 74.6472 24.5704 74.7057C24.9799 74.3547 25.3894 74.0036 25.7989 73.5356C26.7349 72.5411 27.7294 71.2541 28.4314 69.6746C28.7824 68.9141 29.075 68.0951 29.3675 67.276C29.6015 66.457 29.8355 65.5795 29.9525 64.702C30.5375 61.1919 30.128 57.6234 29.3675 55.0493C29.0164 53.7623 28.5484 52.7678 28.1974 52.1243C28.0219 51.7733 27.8464 51.5393 27.7294 51.3638C27.6124 51.1883 27.5539 51.0713 27.5539 51.0713C27.5539 51.0713 27.6124 51.1883 27.7294 51.3638C27.8464 51.5393 27.9634 51.8318 28.1389 52.1243C28.4899 52.8263 28.841 53.8208 29.1335 55.1078C29.7185 57.6234 29.9525 61.1919 29.192 64.5265C29.0165 65.3455 28.7824 66.1645 28.4899 66.9835C28.1974 67.744 27.8464 68.5046 27.4954 69.2066C26.7349 70.6106 25.7989 71.7221 24.8629 72.5996C24.5704 72.8336 24.3364 73.0676 24.0439 73.3016C25.9744 70.4936 25.9159 67.042 24.1024 64.936C22.4058 62.947 19.8318 62.8885 19.5978 62.8885C19.4223 62.8885 16.3803 62.947 14.6837 65.404C13.2212 67.51 13.3382 70.5521 15.0347 72.7751C14.9762 72.7166 14.9177 72.6581 14.8007 72.5996C13.9232 71.7221 12.9287 70.6106 12.1682 69.2066C11.7587 68.5046 11.4662 67.744 11.1737 66.9835C10.8812 66.223 10.6472 65.404 10.4717 64.5265C9.71115 61.1919 9.94515 57.6234 10.5302 55.1078C10.8227 53.8208 11.2322 52.8263 11.5247 52.1243C11.7002 51.7733 11.8172 51.5393 11.9342 51.3638C12.0512 51.1883 12.1097 51.0713 12.1097 51.0713C12.1097 51.0713 12.0512 51.1883 11.9342 51.3638C11.8172 51.5393 11.6417 51.7733 11.4662 52.1243C11.1152 52.8263 10.6472 53.8208 10.2962 55.0493C9.53565 57.5649 9.12614 61.1334 9.71115 64.702C9.82815 65.5795 10.0622 66.457 10.2962 67.276C10.5887 68.0951 10.8812 68.9141 11.2322 69.6746C11.9342 71.1956 12.9287 72.4826 13.8647 73.5356C14.2742 74.0036 14.6837 74.3547 15.0932 74.7057C14.7422 74.5887 14.3327 74.5302 13.8647 74.4132C12.8702 74.1791 11.7587 73.8866 10.5302 73.5941C9.94515 73.4186 9.30165 73.3016 8.65814 73.1261C8.48263 73.0676 8.30713 73.0091 8.01462 73.0676C7.89762 73.0676 7.78062 73.1846 7.66362 73.2431C7.54662 73.3016 7.48811 73.3601 7.42961 73.4771C7.19561 73.7111 7.02011 74.0036 6.7861 74.2376C3.51005 78.3912 0 82.5448 0 82.5448C0 82.5448 3.68556 78.6837 7.42961 74.7642C7.66362 74.5302 7.89762 74.2962 8.13163 74.0622C8.19013 74.0037 8.24863 73.9451 8.24863 73.9451C8.30713 73.9451 8.30713 73.8866 8.36563 73.8866C8.42413 73.8866 8.54113 73.8866 8.71664 73.9451C9.36015 74.1206 10.0037 74.3546 10.5887 74.5302C11.8172 74.9397 12.9287 75.2907 13.8647 75.5832C14.3912 75.7587 14.8592 75.9342 15.3272 76.0512C14.8007 76.1682 14.2157 76.3437 13.5137 76.5192C12.5192 76.7532 11.4077 77.0457 10.1792 77.3382C9.59415 77.5137 8.95064 77.6307 8.30713 77.8062C8.13162 77.8647 7.95612 77.8647 7.72212 78.0402C7.60512 78.0987 7.54662 78.2157 7.48812 78.3327C7.42962 78.4497 7.42961 78.5082 7.37111 78.6252C7.31261 78.9762 7.25411 79.2687 7.13711 79.6197C6.02559 84.9433 4.91408 90.2084 4.91408 90.2084C4.91408 90.2084 6.3181 85.0603 7.78062 79.8537C7.89762 79.5027 7.95613 79.2102 8.07313 78.8592C8.07313 78.8007 8.13163 78.7422 8.13163 78.6837C8.13163 78.6252 8.19013 78.6252 8.19013 78.6252C8.24863 78.5667 8.36563 78.5667 8.54113 78.5082C9.18464 78.3912 9.82815 78.2742 10.4717 78.1572C11.7002 77.9232 12.8702 77.6892 13.8647 77.5137C14.3912 77.3967 14.8592 77.3382 15.2687 77.2212C15.0932 77.3967 14.9177 77.6307 14.7422 77.8062C13.9817 78.6252 13.1627 79.5027 12.2267 80.5557C11.7587 81.0823 11.3492 81.6673 10.9982 82.3693C10.6472 83.0128 10.3547 83.7148 10.1792 84.4753C9.76965 85.9378 9.71115 87.4004 9.82815 88.8044C9.94516 90.1499 10.1792 91.4369 10.4717 92.4899C10.7057 93.543 10.9982 94.4205 11.1737 95.0055C11.3492 95.5905 11.4662 95.9415 11.4662 95.9415C11.4662 95.9415 11.4077 95.5905 11.2322 94.947C11.1152 94.3035 10.8812 93.4259 10.7057 92.3729C10.5302 91.3199 10.3547 90.0914 10.3547 88.7459C10.3547 87.4004 10.5302 85.9963 10.9982 84.7093C11.2322 84.0658 11.5247 83.4223 11.8757 82.8373C12.2267 82.2523 12.6362 81.7843 13.1042 81.3163C14.0402 80.3802 14.9762 79.5027 15.7367 78.8007C16.2048 78.3327 16.6143 77.9817 16.9653 77.6307C17.0238 77.9232 17.1408 78.3912 17.4918 78.9177C17.6088 79.0932 18.6618 80.5557 20.3583 80.4387C20.4753 80.4387 21.8793 80.3217 22.6399 79.0932C22.9909 78.5667 23.0494 78.0987 23.0494 77.8062C23.4004 78.0987 23.7514 78.4497 24.1609 78.8592C24.9214 79.6197 25.9159 80.4973 26.7934 81.3748C27.2614 81.8428 27.6709 82.3693 28.0219 82.8958C28.3729 83.4808 28.6654 84.1243 28.8995 84.7678C29.3675 86.0548 29.543 87.5174 29.543 88.8044C29.543 90.1499 29.3675 91.3784 29.192 92.4314C29.0165 93.4845 28.7824 94.362 28.6654 95.0055C28.5484 95.649 28.4314 96 28.4314 96C28.4314 96 28.5484 95.649 28.7239 95.064C28.8994 94.479 29.192 93.6015 29.426 92.5484C29.66 91.4954 29.9525 90.2669 30.0695 88.8629C30.1865 87.5174 30.0695 85.9963 29.7185 84.5338C29.543 83.8318 29.2505 83.0713 28.8995 82.4278C28.5484 81.7843 28.0804 81.1408 27.6709 80.6143C26.7349 79.5612 25.9159 78.6837 25.1554 77.8647C24.9799 77.6892 24.8044 77.4552 24.6289 77.2797C25.0384 77.3382 25.5064 77.4552 26.0329 77.5722C27.0274 77.7477 28.1974 77.9817 29.426 78.2157C30.0695 78.3327 30.713 78.4497 31.3565 78.5667C31.532 78.5667 31.649 78.6252 31.7075 78.6837C31.766 78.6837 31.766 78.7422 31.766 78.7422C31.766 78.8007 31.8245 78.8592 31.8245 78.9177C31.9415 79.2102 32 79.5612 32.117 79.9122C33.521 85.0603 34.9835 90.2669 34.9835 90.2669C33.521 83.5978 32.5265 78.9177 32.468 78.6252Z" fill="#4E1A6C"/>
<path d="M18.0767 68.8558C18.0182 68.0953 18.4862 67.3348 19.3052 67.1593C20.1827 66.9838 21.0017 67.5688 21.2357 68.3293C21.5282 69.2653 20.8847 70.3768 19.8902 70.4938C19.0127 70.5523 18.1352 69.7333 18.0767 68.8558Z" fill="#F14678"/>
<path d="M17.2578 79.3272C17.2578 79.0932 17.4333 78.8007 17.6673 78.7422C17.9598 78.6837 18.2523 78.8592 18.3108 79.1517C18.4278 79.5027 18.1938 79.8537 17.8428 79.9122C17.6088 79.9122 17.3163 79.6197 17.2578 79.3272Z" fill="#F7D583"/>
<path d="M21.8208 78.9175C21.8208 78.6835 21.9963 78.391 22.2303 78.3325C22.5228 78.274 22.8153 78.4495 22.8738 78.742C22.9908 79.093 22.7568 79.444 22.4058 79.5025C22.1133 79.561 21.8208 79.2685 21.8208 78.9175Z" fill="#F7D583"/>
</svg>
