<svg width="12" height="12" viewBox="0 0 12 12" fill="none" xmlns="http://www.w3.org/2000/svg">
<g clip-path="url(#clip0_111_4769)">
<path d="M11.0755 7.53842C10.9104 7.53842 10.7767 7.6722 10.7767 7.83728V10.4908C10.7761 10.9858 10.3751 11.387 9.88007 11.3874H1.49431C0.99932 11.387 0.598308 10.9858 0.597724 10.4908V2.70281C0.598308 2.20793 0.99932 1.8068 1.49431 1.80622H4.14788C4.31295 1.80622 4.44674 1.67243 4.44674 1.50736C4.44674 1.3424 4.31295 1.2085 4.14788 1.2085H1.49431C0.669404 1.20943 0.000933944 1.8779 0 2.70281V10.491C0.000933944 11.3159 0.669404 11.9843 1.49431 11.9853H9.88007C10.705 11.9843 11.3735 11.3159 11.3744 10.491V7.83728C11.3744 7.6722 11.2406 7.53842 11.0755 7.53842Z" fill="#EBEEF6"/>
<path d="M11.256 0.43933C10.7308 -0.0858966 9.87929 -0.0858966 9.35406 0.43933L4.02216 5.77122C3.98562 5.80776 3.95924 5.85305 3.94546 5.90279L3.2443 8.43413C3.21547 8.53791 3.24477 8.64905 3.32089 8.72528C3.39712 8.8014 3.50826 8.8307 3.61205 8.80198L6.14339 8.10071C6.19312 8.08693 6.23842 8.06055 6.27496 8.02401L11.6067 2.692C12.1312 2.16643 12.1312 1.3156 11.6067 0.790026L11.256 0.43933ZM4.67336 5.96548L9.03711 1.60162L10.4444 3.00896L6.08058 7.37282L4.67336 5.96548ZM4.39224 6.52958L5.5166 7.65405L3.96134 8.08495L4.39224 6.52958ZM11.1841 2.26939L10.8672 2.58635L9.45972 1.1789L9.77679 0.86194C10.0685 0.570199 10.5416 0.570199 10.8333 0.86194L11.1841 1.21264C11.4754 1.50473 11.4754 1.97742 11.1841 2.26939Z" fill="#EBEEF6"/>
</g>
<defs>
<clipPath id="clip0_111_4769">
<rect width="12" height="12" fill="white"/>
</clipPath>
</defs>
</svg>
