<svg width="12" height="12" viewBox="0 0 12 12" fill="none" xmlns="http://www.w3.org/2000/svg">
<path d="M5.79678 11.3124H2.66689C1.8163 11.3124 1.12614 10.6197 1.12614 9.77165V2.22835C1.12614 1.37776 1.81884 0.687606 2.66689 0.687606H5.84771C6.03871 0.687606 6.19151 0.534805 6.19151 0.343803C6.19151 0.152801 6.03871 0 5.84771 0H2.66689C1.43684 0 0.438538 1.00085 0.438538 2.22835V9.77165C0.438538 11.0017 1.43939 12 2.66689 12H5.79678C5.98778 12 6.14058 11.8472 6.14058 11.6562C6.14058 11.4652 5.98523 11.3124 5.79678 11.3124Z" fill="#FFF"/>
<path d="M11.4606 5.75797L9.27555 3.57291C9.14057 3.43794 8.9241 3.43794 8.78913 3.57291C8.65415 3.70789 8.65415 3.92435 8.78913 4.05933L10.3884 5.65865H3.41308C3.22208 5.65865 3.06927 5.81145 3.06927 6.00245C3.06927 6.19345 3.22208 6.34625 3.41308 6.34625H10.3884L8.78913 7.94558C8.65415 8.08055 8.65415 8.29702 8.78913 8.43199C8.85534 8.49821 8.94448 8.53386 9.03106 8.53386C9.11765 8.53386 9.20679 8.50075 9.273 8.43199L11.4581 6.24693C11.5956 6.10941 11.5956 5.8904 11.4606 5.75797Z" fill="#FFF"/>
</svg>
