<svg width="48" height="48" viewBox="0 0 48 48" fill="none" xmlns="http://www.w3.org/2000/svg">
<path d="M21.9094 14.8933C21.4618 14.6324 20.9517 14.4925 20.431 14.4878C19.9103 14.4831 19.3977 14.6137 18.9452 14.8665C18.4927 15.1192 18.1165 15.4851 17.8549 15.9268C17.5932 16.3685 17.4554 16.8703 17.4556 17.3811V30.6189C17.4554 31.1298 17.5932 31.6316 17.8549 32.0733C18.1165 32.5149 18.4927 32.8808 18.9452 33.1335C19.3977 33.3863 19.9103 33.5169 20.431 33.5122C20.9517 33.5075 21.4618 33.3676 21.9094 33.1067L34.6951 25.6586C34.9884 25.4878 35.2314 25.2451 35.4001 24.9543C35.5689 24.6635 35.6576 24.3346 35.6576 24C35.6576 23.6654 35.5689 23.3365 35.4001 23.0457C35.2314 22.7549 34.9884 22.5122 34.6951 22.3414L21.9094 14.8933ZM0.748657 24C0.748657 11.2194 11.3094 0.857147 24.3349 0.857147C37.3603 0.857147 47.9211 11.2194 47.9211 24C47.9211 36.7807 37.3603 47.1429 24.3349 47.1429C11.3094 47.1429 0.748657 36.7807 0.748657 24ZM24.3349 3.75C12.9368 3.75 3.69693 12.8162 3.69693 24C3.69693 35.1838 12.9368 44.25 24.3349 44.25C35.7329 44.25 44.9728 35.1838 44.9728 24C44.9728 12.8162 35.7329 3.75 24.3349 3.75Z" fill="white"/>
</svg>
