<svg width="100" height="100" viewBox="0 0 100 100" fill="none" xmlns="http://www.w3.org/2000/svg">
<path d="M50.9227 100H49.0772C36.0611 100 23.5782 94.7322 14.3744 85.3553C5.17062 75.9785 0 63.2608 0 50C0 36.7392 5.17062 24.0215 14.3744 14.6447C23.5782 5.26784 36.0611 0 49.0772 0H50.9227C63.9388 0 76.4218 5.26784 85.6256 14.6447C94.8294 24.0215 100 36.7392 100 50C100 63.2608 94.8294 75.9785 85.6256 85.3553C76.4218 94.7322 63.9388 100 50.9227 100ZM49.0772 5.38324C37.4625 5.38324 26.3235 10.0839 18.1107 18.4512C9.89782 26.8185 5.28389 38.1669 5.28389 50C5.28389 61.8331 9.89782 73.1816 18.1107 81.5488C26.3235 89.9161 37.4625 94.6168 49.0772 94.6168H50.9227C62.5375 94.6168 73.6765 89.9161 81.8893 81.5488C90.1022 73.1816 94.7161 61.8331 94.7161 50C94.7161 38.1669 90.1022 26.8185 81.8893 18.4512C73.6765 10.0839 62.5375 5.38324 50.9227 5.38324H49.0772Z" fill="#FF00FF"/>
<path d="M70.0464 30.6091L44.2451 56.8944L34.0312 46.4885L26.9351 53.717L44.2451 71.3525L77.1415 37.8377L70.0464 30.6091Z" fill="#FF00FF"/>
</svg>
