<svg width="38" height="38" viewBox="0 0 38 38" fill="none" xmlns="http://www.w3.org/2000/svg">
<path d="M18.4512 11.6416L18.5335 13.0018L17.1607 12.8353C12.1635 12.1968 7.79781 10.0315 4.09111 6.39502L2.27894 4.59064L1.81217 5.92311C0.823713 8.8934 1.45523 12.0302 3.51451 14.14C4.61279 15.3059 4.36568 15.4725 2.47114 14.7785C1.81217 14.5564 1.23557 14.3898 1.18066 14.4731C0.988455 14.6674 1.64743 17.1936 2.16911 18.1929C2.88299 19.5809 4.33822 20.9411 5.93073 21.7462L7.27613 22.3846L5.68362 22.4124C4.14602 22.4124 4.09111 22.4401 4.25585 23.0231C4.80499 24.8275 6.9741 26.7429 9.39033 27.5757L11.0927 28.1586L9.60998 29.047C7.41342 30.3239 4.83245 31.0457 2.25148 31.1012C1.01591 31.1289 0 31.24 0 31.3233C0 31.6009 3.34977 33.1554 5.29922 33.7661C11.1476 35.5705 18.0942 34.7932 23.3111 31.7119C27.0178 29.5189 30.7245 25.1606 32.4543 20.9411C33.3878 18.6926 34.3214 14.5841 34.3214 12.6132C34.3214 11.3363 34.4037 11.1697 35.9413 9.64291C36.8474 8.7546 37.6986 7.78301 37.8633 7.50541C38.1379 6.97798 38.1104 6.97798 36.7101 7.44989C34.3763 8.28269 34.0468 8.17165 35.2 6.92246C36.0512 6.03415 37.0671 4.42408 37.0671 3.95217C37.0671 3.86889 36.6552 4.00769 36.1884 4.25753C35.6942 4.53512 34.5959 4.95152 33.7722 5.20136L32.2895 5.67327L30.9441 4.7572C30.2028 4.25753 29.1594 3.70233 28.6103 3.53577C27.21 3.14714 25.0683 3.20266 23.8053 3.64681C20.3732 4.896 18.2041 8.11613 18.4512 11.6416Z" fill="white"/>
</svg>
