<svg width="294" height="294" viewBox="0 0 294 294" fill="none" xmlns="http://www.w3.org/2000/svg">
<path d="M1.12402 1.33887L1.69932 0.000277941" stroke="#03FDCB" stroke-opacity="0.5"/>
<path d="M20.5586 1.33887L21.3558 0.119355" stroke="#03FDCB" stroke-opacity="0.5"/>
<path d="M39.9912 1.33887L40.9875 0.275727" stroke="#03FDCB" stroke-opacity="0.5"/>
<path d="M59.4258 1.33887L60.7329 0.358409" stroke="#03FDCB" stroke-opacity="0.5"/>
<path d="M78.8594 1.33887L80.5706 0.470197" stroke="#03FDCB" stroke-opacity="0.5"/>
<path d="M98.293 1.33887L100.381 0.697774" stroke="#03FDCB" stroke-opacity="0.5"/>
<path d="M117.727 1.33887L120.122 1.02556" stroke="#03FDCB" stroke-opacity="0.5"/>
<path d="M137.16 1.33887L139.755 1.41807" stroke="#03FDCB" stroke-opacity="0.5"/>
<path d="M156.594 1.33887L159.262 1.82462" stroke="#03FDCB" stroke-opacity="0.5"/>
<path d="M176.027 1.33887L178.645 2.18956" stroke="#03FDCB" stroke-opacity="0.5"/>
<path d="M195.462 1.33887L197.929 2.46659" stroke="#03FDCB" stroke-opacity="0.5"/>
<path d="M214.896 1.33887L217.148 2.63001" stroke="#03FDCB" stroke-opacity="0.5"/>
<path d="M234.329 1.33887L236.339 2.67759" stroke="#03FDCB" stroke-opacity="0.5"/>
<path d="M253.763 1.33887L255.528 2.62464" stroke="#03FDCB" stroke-opacity="0.5"/>
<path d="M273.196 1.33887L274.727 2.49654" stroke="#03FDCB" stroke-opacity="0.5"/>
<path d="M292.63 1.33887L293.937 2.31933" stroke="#03FDCB" stroke-opacity="0.5"/>
<path d="M1.12402 20.7744L1.74568 19.4567" stroke="#03FDCB" stroke-opacity="0.5"/>
<path d="M20.5586 20.7744L21.4049 19.5884" stroke="#03FDCB" stroke-opacity="0.5"/>
<path d="M39.9912 20.7754L41.1999 19.6041" stroke="#03FDCB" stroke-opacity="0.5"/>
<path d="M59.4258 20.7744L61.1193 19.6501" stroke="#03FDCB" stroke-opacity="0.5"/>
<path d="M78.8594 20.7744L81.0516 19.8457" stroke="#03FDCB" stroke-opacity="0.5"/>
<path d="M98.293 20.7754L100.943 20.1972" stroke="#03FDCB" stroke-opacity="0.5"/>
<path d="M117.727 20.7744L120.735 20.683" stroke="#03FDCB" stroke-opacity="0.5"/>
<path d="M137.16 20.7754L140.374 21.2576" stroke="#03FDCB" stroke-opacity="0.5"/>
<path d="M156.594 20.7744L159.829 21.8402" stroke="#03FDCB" stroke-opacity="0.5"/>
<path d="M176.027 20.7754L179.111 22.3468" stroke="#03FDCB" stroke-opacity="0.5"/>
<path d="M195.462 20.7754L198.269 22.7043" stroke="#03FDCB" stroke-opacity="0.5"/>
<path d="M214.896 20.7744L217.369 22.8818" stroke="#03FDCB" stroke-opacity="0.5"/>
<path d="M234.329 20.7744L236.47 22.8898" stroke="#03FDCB" stroke-opacity="0.5"/>
<path d="M253.763 20.7754L255.606 22.7651" stroke="#03FDCB" stroke-opacity="0.5"/>
<path d="M273.196 20.7744L274.786 22.5469" stroke="#03FDCB" stroke-opacity="0.5"/>
<path d="M292.63 20.7754L294 22.2772" stroke="#03FDCB" stroke-opacity="0.5"/>
<path d="M1.12402 40.21L1.77043 38.9042" stroke="#03FDCB" stroke-opacity="0.5"/>
<path d="M20.5586 40.21L21.5389 38.9027" stroke="#03FDCB" stroke-opacity="0.5"/>
<path d="M39.9912 40.21L41.4929 38.8398" stroke="#03FDCB" stroke-opacity="0.5"/>
<path d="M59.4258 40.21L61.5178 38.9345" stroke="#03FDCB" stroke-opacity="0.5"/>
<path d="M78.8594 40.21L81.5617 39.2211" stroke="#03FDCB" stroke-opacity="0.5"/>
<path d="M98.293 40.21L101.557 39.7169" stroke="#03FDCB" stroke-opacity="0.5"/>
<path d="M117.727 40.21L121.416 40.4073" stroke="#03FDCB" stroke-opacity="0.5"/>
<path d="M137.16 40.21L141.055 41.2277" stroke="#03FDCB" stroke-opacity="0.5"/>
<path d="M156.594 40.21L160.419 42.0588" stroke="#03FDCB" stroke-opacity="0.5"/>
<path d="M176.027 40.21L179.529 42.7546" stroke="#03FDCB" stroke-opacity="0.5"/>
<path d="M195.462 40.21L198.481 43.2" stroke="#03FDCB" stroke-opacity="0.5"/>
<path d="M214.896 40.21L217.4 43.3608" stroke="#03FDCB" stroke-opacity="0.5"/>
<path d="M234.329 40.21L236.385 43.2802" stroke="#03FDCB" stroke-opacity="0.5"/>
<path d="M253.763 40.21L255.473 43.0329" stroke="#03FDCB" stroke-opacity="0.5"/>
<path d="M273.196 40.21L274.656 42.6898" stroke="#03FDCB" stroke-opacity="0.5"/>
<path d="M292.63 40.21L293.905 42.3023" stroke="#03FDCB" stroke-opacity="0.5"/>
<path d="M1.12402 59.6465L1.78767 58.3091" stroke="#03FDCB" stroke-opacity="0.5"/>
<path d="M20.5586 59.6465L21.7161 58.1158" stroke="#03FDCB" stroke-opacity="0.5"/>
<path d="M39.9912 59.6465L41.7631 58.0574" stroke="#03FDCB" stroke-opacity="0.5"/>
<path d="M59.4258 59.6465L61.9053 58.1866" stroke="#03FDCB" stroke-opacity="0.5"/>
<path d="M78.8594 59.6465L82.0871 58.5576" stroke="#03FDCB" stroke-opacity="0.5"/>
<path d="M98.293 59.6465L102.225 59.2132" stroke="#03FDCB" stroke-opacity="0.5"/>
<path d="M117.727 59.6465L122.194 60.1601" stroke="#03FDCB" stroke-opacity="0.5"/>
<path d="M137.16 59.6465L141.845 61.327" stroke="#03FDCB" stroke-opacity="0.5"/>
<path d="M156.594 59.6465L161.066 62.5289" stroke="#03FDCB" stroke-opacity="0.5"/>
<path d="M176.027 59.6465L179.879 63.4984" stroke="#03FDCB" stroke-opacity="0.5"/>
<path d="M195.462 59.6465L198.482 64.0275" stroke="#03FDCB" stroke-opacity="0.5"/>
<path d="M214.896 59.6465L217.129 64.0946" stroke="#03FDCB" stroke-opacity="0.5"/>
<path d="M234.329 59.6465L235.978 63.8299" stroke="#03FDCB" stroke-opacity="0.5"/>
<path d="M253.763 59.6465L255.048 63.3874" stroke="#03FDCB" stroke-opacity="0.5"/>
<path d="M273.196 59.6465L274.285 62.8746" stroke="#03FDCB" stroke-opacity="0.5"/>
<path d="M292.63 59.6465L293.619 62.3491" stroke="#03FDCB" stroke-opacity="0.5"/>
<path d="M1.12402 79.082L1.85483 77.5374" stroke="#03FDCB" stroke-opacity="0.5"/>
<path d="M20.5586 79.082L21.8446 77.3161" stroke="#03FDCB" stroke-opacity="0.5"/>
<path d="M39.9912 79.082L41.9802 77.239" stroke="#03FDCB" stroke-opacity="0.5"/>
<path d="M59.4258 79.082L62.2484 77.3718" stroke="#03FDCB" stroke-opacity="0.5"/>
<path d="M78.8594 79.082L82.5999 77.7962" stroke="#03FDCB" stroke-opacity="0.5"/>
<path d="M98.293 79.082L102.945 78.6002" stroke="#03FDCB" stroke-opacity="0.5"/>
<path d="M117.727 79.082L123.119 79.8524" stroke="#03FDCB" stroke-opacity="0.5"/>
<path d="M137.16 79.082L142.858 81.5228" stroke="#03FDCB" stroke-opacity="0.5"/>
<path d="M156.594 79.082L161.882 83.3427" stroke="#03FDCB" stroke-opacity="0.5"/>
<path d="M176.027 79.082L180.155 84.7642" stroke="#03FDCB" stroke-opacity="0.5"/>
<path d="M195.462 79.082L198.123 85.3298" stroke="#03FDCB" stroke-opacity="0.5"/>
<path d="M214.896 79.082L216.362 85.1056" stroke="#03FDCB" stroke-opacity="0.5"/>
<path d="M234.329 79.082L235.099 84.4747" stroke="#03FDCB" stroke-opacity="0.5"/>
<path d="M253.763 79.082L254.244 83.7349" stroke="#03FDCB" stroke-opacity="0.5"/>
<path d="M273.196 79.082L273.63 83.0141" stroke="#03FDCB" stroke-opacity="0.5"/>
<path d="M292.63 79.082L293.123 82.346" stroke="#03FDCB" stroke-opacity="0.5"/>
<path d="M1.12402 98.5176L1.86498 96.7763" stroke="#03FDCB" stroke-opacity="0.5"/>
<path d="M20.5586 98.5176L21.8972 96.5071" stroke="#03FDCB" stroke-opacity="0.5"/>
<path d="M39.9912 98.5176L42.1064 96.3767" stroke="#03FDCB" stroke-opacity="0.5"/>
<path d="M59.4258 98.5176L62.4956 96.4616" stroke="#03FDCB" stroke-opacity="0.5"/>
<path d="M78.8594 98.5176L83.0423 96.8684" stroke="#03FDCB" stroke-opacity="0.5"/>
<path d="M98.293 98.5176L103.685 97.7472" stroke="#03FDCB" stroke-opacity="0.5"/>
<path d="M117.727 98.5176L124.258 99.2983" stroke="#03FDCB" stroke-opacity="0.5"/>
<path d="M137.16 98.5176L144.363 101.704" stroke="#03FDCB" stroke-opacity="0.5"/>
<path d="M156.594 98.5176L163.261 104.759" stroke="#03FDCB" stroke-opacity="0.5"/>
<path d="M176.027 98.5176L180.439 107.176" stroke="#03FDCB" stroke-opacity="0.5"/>
<path d="M195.462 98.5176L197.052 107.511" stroke="#03FDCB" stroke-opacity="0.5"/>
<path d="M214.896 98.5176L214.725 106.393" stroke="#03FDCB" stroke-opacity="0.5"/>
<path d="M234.329 98.5176L233.548 105.049" stroke="#03FDCB" stroke-opacity="0.5"/>
<path d="M253.763 98.5176L252.992 103.91" stroke="#03FDCB" stroke-opacity="0.5"/>
<path d="M273.196 98.5176L272.683 102.985" stroke="#03FDCB" stroke-opacity="0.5"/>
<path d="M292.63 98.5176L292.433 102.208" stroke="#03FDCB" stroke-opacity="0.5"/>
<path d="M1.12402 117.954L1.80459 116.038" stroke="#03FDCB" stroke-opacity="0.5"/>
<path d="M20.5586 117.954L21.8496 115.701" stroke="#03FDCB" stroke-opacity="0.5"/>
<path d="M39.9912 117.954L42.098 115.48" stroke="#03FDCB" stroke-opacity="0.5"/>
<path d="M59.4258 117.954L62.5768 115.449" stroke="#03FDCB" stroke-opacity="0.5"/>
<path d="M78.8594 117.954L83.3069 115.72" stroke="#03FDCB" stroke-opacity="0.5"/>
<path d="M98.293 117.954L104.316 116.488" stroke="#03FDCB" stroke-opacity="0.5"/>
<path d="M117.727 117.954L125.601 118.125" stroke="#03FDCB" stroke-opacity="0.5"/>
<path d="M137.16 117.954L145.299 120.844" stroke="#03FDCB" stroke-opacity="0.5"/>
<path d="M156.594 117.954L160.522 121.657" stroke="#03FDCB" stroke-opacity="0.5"/>
<path d="M176.027 117.954L177.362 122.062" stroke="#03FDCB" stroke-opacity="0.5"/>
<path d="M195.462 117.954L194.856 123.319" stroke="#03FDCB" stroke-opacity="0.5"/>
<path d="M214.896 117.954L212.006 126.094" stroke="#03FDCB" stroke-opacity="0.5"/>
<path d="M234.329 117.954L231.143 125.158" stroke="#03FDCB" stroke-opacity="0.5"/>
<path d="M253.763 117.954L251.322 123.653" stroke="#03FDCB" stroke-opacity="0.5"/>
<path d="M273.196 117.954L271.516 122.639" stroke="#03FDCB" stroke-opacity="0.5"/>
<path d="M292.63 117.954L291.612 121.849" stroke="#03FDCB" stroke-opacity="0.5"/>
<path d="M1.12402 137.39L1.66781 135.337" stroke="#03FDCB" stroke-opacity="0.5"/>
<path d="M20.5586 137.39L21.6862 134.922" stroke="#03FDCB" stroke-opacity="0.5"/>
<path d="M39.9912 137.39L41.92 134.582" stroke="#03FDCB" stroke-opacity="0.5"/>
<path d="M59.4258 137.39L62.4155 134.37" stroke="#03FDCB" stroke-opacity="0.5"/>
<path d="M78.8594 137.39L83.24 134.369" stroke="#03FDCB" stroke-opacity="0.5"/>
<path d="M98.293 137.39L104.54 134.728" stroke="#03FDCB" stroke-opacity="0.5"/>
<path d="M117.727 137.39L126.719 135.8" stroke="#03FDCB" stroke-opacity="0.5"/>
<path d="M137.16 137.39L142.524 137.995" stroke="#03FDCB" stroke-opacity="0.5"/>
<path d="M156.594 137.39L158.419 138.542" stroke="#03FDCB" stroke-opacity="0.5"/>
<path d="M176.027 137.39L176.255 138.829" stroke="#03FDCB" stroke-opacity="0.5"/>
<path d="M195.462 137.39L194.309 139.215" stroke="#03FDCB" stroke-opacity="0.5"/>
<path d="M214.896 137.39L211.193 141.318" stroke="#03FDCB" stroke-opacity="0.5"/>
<path d="M234.329 137.39L228.089 144.058" stroke="#03FDCB" stroke-opacity="0.5"/>
<path d="M253.763 137.39L249.503 142.678" stroke="#03FDCB" stroke-opacity="0.5"/>
<path d="M273.196 137.39L270.314 141.862" stroke="#03FDCB" stroke-opacity="0.5"/>
<path d="M292.63 137.39L290.781 141.216" stroke="#03FDCB" stroke-opacity="0.5"/>
<path d="M1.12402 156.825L1.46092 154.698" stroke="#03FDCB" stroke-opacity="0.5"/>
<path d="M20.5586 156.825L21.4092 154.207" stroke="#03FDCB" stroke-opacity="0.5"/>
<path d="M39.9912 156.825L41.5625 153.741" stroke="#03FDCB" stroke-opacity="0.5"/>
<path d="M59.4258 156.825L61.9698 153.323" stroke="#03FDCB" stroke-opacity="0.5"/>
<path d="M78.8594 156.825L82.7109 152.973" stroke="#03FDCB" stroke-opacity="0.5"/>
<path d="M98.293 156.825L103.975 152.697" stroke="#03FDCB" stroke-opacity="0.5"/>
<path d="M117.727 156.825L126.384 152.413" stroke="#03FDCB" stroke-opacity="0.5"/>
<path d="M137.16 156.825L141.267 155.491" stroke="#03FDCB" stroke-opacity="0.5"/>
<path d="M156.594 156.825L158.033 156.597" stroke="#03FDCB" stroke-opacity="0.5"/>
<path d="M176.027 156.825H176.093" stroke="#03FDCB" stroke-opacity="0.5"/>
<path d="M195.462 156.825L194.023 157.053" stroke="#03FDCB" stroke-opacity="0.5"/>
<path d="M214.896 156.825L210.788 158.16" stroke="#03FDCB" stroke-opacity="0.5"/>
<path d="M234.329 156.825L225.671 161.237" stroke="#03FDCB" stroke-opacity="0.5"/>
<path d="M253.763 156.825L248.081 160.954" stroke="#03FDCB" stroke-opacity="0.5"/>
<path d="M273.196 156.825L269.345 160.677" stroke="#03FDCB" stroke-opacity="0.5"/>
<path d="M292.63 156.825L290.086 160.327" stroke="#03FDCB" stroke-opacity="0.5"/>
<path d="M1.12402 176.262L1.20409 174.14" stroke="#03FDCB" stroke-opacity="0.5"/>
<path d="M20.5586 176.262L21.0443 173.593" stroke="#03FDCB" stroke-opacity="0.5"/>
<path d="M39.9912 176.262L41.0569 173.026" stroke="#03FDCB" stroke-opacity="0.5"/>
<path d="M59.4258 176.262L61.2745 172.436" stroke="#03FDCB" stroke-opacity="0.5"/>
<path d="M78.8594 176.262L81.7412 171.789" stroke="#03FDCB" stroke-opacity="0.5"/>
<path d="M98.293 176.262L102.553 170.973" stroke="#03FDCB" stroke-opacity="0.5"/>
<path d="M117.727 176.262L123.967 169.593" stroke="#03FDCB" stroke-opacity="0.5"/>
<path d="M137.16 176.262L140.863 172.333" stroke="#03FDCB" stroke-opacity="0.5"/>
<path d="M156.594 176.262L157.747 174.436" stroke="#03FDCB" stroke-opacity="0.5"/>
<path d="M176.027 176.262L175.799 174.822" stroke="#03FDCB" stroke-opacity="0.5"/>
<path d="M195.462 176.262L193.637 175.109" stroke="#03FDCB" stroke-opacity="0.5"/>
<path d="M214.896 176.262L209.531 175.656" stroke="#03FDCB" stroke-opacity="0.5"/>
<path d="M234.329 176.262L225.336 177.852" stroke="#03FDCB" stroke-opacity="0.5"/>
<path d="M253.763 176.262L247.516 178.923" stroke="#03FDCB" stroke-opacity="0.5"/>
<path d="M273.196 176.262L268.816 179.282" stroke="#03FDCB" stroke-opacity="0.5"/>
<path d="M292.63 176.262L289.64 179.281" stroke="#03FDCB" stroke-opacity="0.5"/>
<path d="M1.12402 195.697L0.928948 193.673" stroke="#03FDCB" stroke-opacity="0.5"/>
<path d="M20.5586 195.697L20.6378 193.102" stroke="#03FDCB" stroke-opacity="0.5"/>
<path d="M39.9912 195.697L40.4734 192.483" stroke="#03FDCB" stroke-opacity="0.5"/>
<path d="M59.4258 195.697L60.4434 191.802" stroke="#03FDCB" stroke-opacity="0.5"/>
<path d="M78.8594 195.697L80.5398 191.012" stroke="#03FDCB" stroke-opacity="0.5"/>
<path d="M98.293 195.697L100.733 189.999" stroke="#03FDCB" stroke-opacity="0.5"/>
<path d="M117.727 195.697L120.912 188.493" stroke="#03FDCB" stroke-opacity="0.5"/>
<path d="M137.16 195.697L140.049 187.557" stroke="#03FDCB" stroke-opacity="0.5"/>
<path d="M156.594 195.697L157.199 190.333" stroke="#03FDCB" stroke-opacity="0.5"/>
<path d="M176.027 195.697L174.693 191.59" stroke="#03FDCB" stroke-opacity="0.5"/>
<path d="M195.462 195.697L191.534 191.994" stroke="#03FDCB" stroke-opacity="0.5"/>
<path d="M214.896 195.697L206.756 192.808" stroke="#03FDCB" stroke-opacity="0.5"/>
<path d="M234.329 195.697L226.454 195.527" stroke="#03FDCB" stroke-opacity="0.5"/>
<path d="M253.763 195.697L247.74 197.164" stroke="#03FDCB" stroke-opacity="0.5"/>
<path d="M273.196 195.697L268.749 197.931" stroke="#03FDCB" stroke-opacity="0.5"/>
<path d="M292.63 195.697L289.479 198.203" stroke="#03FDCB" stroke-opacity="0.5"/>
<path d="M1.12402 215.133L0.672134 213.295" stroke="#03FDCB" stroke-opacity="0.5"/>
<path d="M20.5586 215.133L20.2453 212.738" stroke="#03FDCB" stroke-opacity="0.5"/>
<path d="M39.9912 215.132L39.8998 212.123" stroke="#03FDCB" stroke-opacity="0.5"/>
<path d="M59.4258 215.133L59.6231 211.443" stroke="#03FDCB" stroke-opacity="0.5"/>
<path d="M78.8594 215.133L79.3729 210.665" stroke="#03FDCB" stroke-opacity="0.5"/>
<path d="M98.293 215.132L99.0633 209.739" stroke="#03FDCB" stroke-opacity="0.5"/>
<path d="M117.727 215.133L118.507 208.601" stroke="#03FDCB" stroke-opacity="0.5"/>
<path d="M137.16 215.132L137.331 207.256" stroke="#03FDCB" stroke-opacity="0.5"/>
<path d="M156.594 215.133L155.004 206.139" stroke="#03FDCB" stroke-opacity="0.5"/>
<path d="M176.027 215.132L171.616 206.473" stroke="#03FDCB" stroke-opacity="0.5"/>
<path d="M195.462 215.132L188.794 208.891" stroke="#03FDCB" stroke-opacity="0.5"/>
<path d="M214.896 215.133L207.693 211.947" stroke="#03FDCB" stroke-opacity="0.5"/>
<path d="M234.329 215.133L227.798 214.352" stroke="#03FDCB" stroke-opacity="0.5"/>
<path d="M253.763 215.132L248.371 215.902" stroke="#03FDCB" stroke-opacity="0.5"/>
<path d="M273.196 215.133L269.013 216.782" stroke="#03FDCB" stroke-opacity="0.5"/>
<path d="M292.63 215.132L289.56 217.188" stroke="#03FDCB" stroke-opacity="0.5"/>
<path d="M1.12402 234.568L0.46734 232.991" stroke="#03FDCB" stroke-opacity="0.5"/>
<path d="M20.5586 234.568L19.9176 232.48" stroke="#03FDCB" stroke-opacity="0.5"/>
<path d="M39.9912 234.568L39.4131 231.918" stroke="#03FDCB" stroke-opacity="0.5"/>
<path d="M59.4258 234.568L58.9328 231.304" stroke="#03FDCB" stroke-opacity="0.5"/>
<path d="M78.8594 234.568L78.4262 230.636" stroke="#03FDCB" stroke-opacity="0.5"/>
<path d="M98.293 234.568L97.8112 229.915" stroke="#03FDCB" stroke-opacity="0.5"/>
<path d="M117.727 234.568L116.956 229.176" stroke="#03FDCB" stroke-opacity="0.5"/>
<path d="M137.16 234.568L135.694 228.545" stroke="#03FDCB" stroke-opacity="0.5"/>
<path d="M156.594 234.568L153.933 228.321" stroke="#03FDCB" stroke-opacity="0.5"/>
<path d="M176.027 234.568L171.899 228.886" stroke="#03FDCB" stroke-opacity="0.5"/>
<path d="M195.462 234.568L190.174 230.308" stroke="#03FDCB" stroke-opacity="0.5"/>
<path d="M214.896 234.568L209.198 232.128" stroke="#03FDCB" stroke-opacity="0.5"/>
<path d="M234.329 234.568L228.937 233.798" stroke="#03FDCB" stroke-opacity="0.5"/>
<path d="M253.763 234.568L249.11 235.05" stroke="#03FDCB" stroke-opacity="0.5"/>
<path d="M273.196 234.568L269.456 235.854" stroke="#03FDCB" stroke-opacity="0.5"/>
<path d="M292.63 234.568L289.807 236.279" stroke="#03FDCB" stroke-opacity="0.5"/>
<path d="M1.12402 254.004L0.339216 252.734" stroke="#03FDCB" stroke-opacity="0.5"/>
<path d="M20.5586 254.004L19.6897 252.292" stroke="#03FDCB" stroke-opacity="0.5"/>
<path d="M39.9912 254.004L39.0625 251.811" stroke="#03FDCB" stroke-opacity="0.5"/>
<path d="M59.4258 254.004L58.437 251.301" stroke="#03FDCB" stroke-opacity="0.5"/>
<path d="M78.8594 254.004L77.7706 250.776" stroke="#03FDCB" stroke-opacity="0.5"/>
<path d="M98.293 254.004L97.0073 250.263" stroke="#03FDCB" stroke-opacity="0.5"/>
<path d="M117.727 254.004L116.078 249.82" stroke="#03FDCB" stroke-opacity="0.5"/>
<path d="M137.16 254.004L134.927 249.556" stroke="#03FDCB" stroke-opacity="0.5"/>
<path d="M156.594 254.004L153.574 249.623" stroke="#03FDCB" stroke-opacity="0.5"/>
<path d="M176.027 254.004L172.176 250.152" stroke="#03FDCB" stroke-opacity="0.5"/>
<path d="M195.462 254.004L190.99 251.121" stroke="#03FDCB" stroke-opacity="0.5"/>
<path d="M214.896 254.004L210.211 252.323" stroke="#03FDCB" stroke-opacity="0.5"/>
<path d="M234.329 254.004L229.862 253.49" stroke="#03FDCB" stroke-opacity="0.5"/>
<path d="M253.763 254.004L249.831 254.437" stroke="#03FDCB" stroke-opacity="0.5"/>
<path d="M273.196 254.004L269.969 255.093" stroke="#03FDCB" stroke-opacity="0.5"/>
<path d="M292.63 254.004L290.15 255.464" stroke="#03FDCB" stroke-opacity="0.5"/>
<path d="M1.12402 273.44L0.167451 272.341" stroke="#03FDCB" stroke-opacity="0.5"/>
<path d="M20.5586 273.44L19.5783 272.133" stroke="#03FDCB" stroke-opacity="0.5"/>
<path d="M39.9912 273.44L38.8667 271.746" stroke="#03FDCB" stroke-opacity="0.5"/>
<path d="M59.4258 273.44L58.1504 271.348" stroke="#03FDCB" stroke-opacity="0.5"/>
<path d="M78.8594 273.44L77.3996 270.961" stroke="#03FDCB" stroke-opacity="0.5"/>
<path d="M98.293 273.44L96.5828 270.617" stroke="#03FDCB" stroke-opacity="0.5"/>
<path d="M117.727 273.44L115.671 270.37" stroke="#03FDCB" stroke-opacity="0.5"/>
<path d="M137.16 273.44L134.655 270.29" stroke="#03FDCB" stroke-opacity="0.5"/>
<path d="M156.594 273.44L153.574 270.45" stroke="#03FDCB" stroke-opacity="0.5"/>
<path d="M176.027 273.44L172.525 270.896" stroke="#03FDCB" stroke-opacity="0.5"/>
<path d="M195.462 273.44L191.636 271.592" stroke="#03FDCB" stroke-opacity="0.5"/>
<path d="M214.896 273.44L211.001 272.423" stroke="#03FDCB" stroke-opacity="0.5"/>
<path d="M234.329 273.44L230.639 273.243" stroke="#03FDCB" stroke-opacity="0.5"/>
<path d="M253.763 273.44L250.499 273.933" stroke="#03FDCB" stroke-opacity="0.5"/>
<path d="M273.196 273.44L270.494 274.429" stroke="#03FDCB" stroke-opacity="0.5"/>
<path d="M292.63 273.44L290.538 274.716" stroke="#03FDCB" stroke-opacity="0.5"/>
<path d="M1.12402 292.876L-1.89345e-05 291.949" stroke="#03FDCB" stroke-opacity="0.5"/>
<path d="M20.5586 292.876L19.4956 291.88" stroke="#03FDCB" stroke-opacity="0.5"/>
<path d="M39.9912 292.876L38.8201 291.667" stroke="#03FDCB" stroke-opacity="0.5"/>
<path d="M59.4258 292.876L58.0558 291.374" stroke="#03FDCB" stroke-opacity="0.5"/>
<path d="M78.8594 292.876L77.2701 291.103" stroke="#03FDCB" stroke-opacity="0.5"/>
<path d="M98.293 292.876L96.4497 290.886" stroke="#03FDCB" stroke-opacity="0.5"/>
<path d="M117.727 292.876L115.586 290.761" stroke="#03FDCB" stroke-opacity="0.5"/>
<path d="M137.16 292.876L134.686 290.769" stroke="#03FDCB" stroke-opacity="0.5"/>
<path d="M156.594 292.876L153.786 290.947" stroke="#03FDCB" stroke-opacity="0.5"/>
<path d="M176.027 292.876L172.944 291.305" stroke="#03FDCB" stroke-opacity="0.5"/>
<path d="M195.462 292.876L192.227 291.81" stroke="#03FDCB" stroke-opacity="0.5"/>
<path d="M214.896 292.876L211.682 292.394" stroke="#03FDCB" stroke-opacity="0.5"/>
<path d="M234.329 292.876L231.321 292.967" stroke="#03FDCB" stroke-opacity="0.5"/>
<path d="M253.763 292.876L251.112 293.454" stroke="#03FDCB" stroke-opacity="0.5"/>
<path d="M273.196 292.876L271.004 293.805" stroke="#03FDCB" stroke-opacity="0.5"/>
<path d="M292.63 292.876L290.936 294" stroke="#03FDCB" stroke-opacity="0.5"/>
</svg>
