<svg width="491" height="183" viewBox="0 0 491 183" fill="none" xmlns="http://www.w3.org/2000/svg">
<path d="M469.148 93.9388L472.226 42.563C431.373 42.06 384.641 40.3562 369.083 39.1718L260.989 58.6309L259.719 47.4103L234.995 46.1682L237.564 58.6182L232.117 58.4434L231.717 45.7517L198.11 44.3275L196.812 37.6698L175.177 36.3303L175.731 43.0114L140.497 39.0398L141.599 61.2952C121.609 61.2321 89.6094 58.1402 89.6094 58.1402L90.8419 62.7211L83.6898 62.9465C83.6898 62.9465 83.7079 63.5234 79.2953 36.1751C79.2953 36.1751 51.8781 34.9023 14.8157 29.2559L31.4922 164.088C66.1466 149.657 78.1005 147.317 78.1005 147.317L93.415 160.751L109.939 134.418L100.565 127.726C100.565 127.726 130.985 124.342 133.497 124.09L133.745 130.145L157.212 125.999L156.8 122.028L182.593 119.021L183.404 133.836L205.126 132.516L207.36 147.056C236.253 146.088 291.36 146.373 319.131 147.981C341.395 149.3 407.678 155.297 407.678 155.297L406.98 142.21C406.98 142.21 437.323 145.47 461.738 149.609L461.34 98.8045L469.148 93.9388Z" fill="#0A0956"/>
<path d="M205.884 120.193L209.805 144.67C209.805 144.67 289.764 144.807 316.155 146.228C337.153 147.356 399.883 153.291 399.883 153.291L398.928 128.432C398.928 128.432 332.001 121.995 309.632 120.967C283.877 119.757 205.884 120.193 205.884 120.193Z" fill="#1F2F6D"/>
<path d="M207.546 118.408L211.467 142.885C211.467 142.885 291.998 143.004 318.389 144.424C339.387 145.553 402.118 151.488 402.118 151.488L401.163 126.629C401.163 126.629 334.235 120.191 311.866 119.164C286.112 117.954 207.546 118.408 207.546 118.408Z" fill="#1C75BC"/>
<path d="M234.048 125.196L234.107 125.252C234.347 125.59 234.587 125.929 234.77 126.27C235.07 126.723 235.373 127.233 235.618 127.745C235.802 128.143 235.988 128.599 236.06 129.059C236.255 129.804 236.107 130.559 235.668 131.15C235.341 131.68 234.837 132.043 234.267 132.118C234.152 132.122 234.038 132.126 233.92 132.014C233.803 131.96 233.743 131.846 233.737 131.673L233.73 131.442C233.73 131.442 233.73 131.442 233.728 131.385L232.582 131.363C232.584 131.421 232.584 131.421 232.585 131.478C232.589 131.594 232.537 131.769 232.543 131.942C232.546 132.057 232.493 132.174 232.437 132.234C232.325 132.295 232.212 132.356 232.098 132.36C231.524 132.32 230.948 132.223 230.428 132.066C230.254 132.014 230.134 131.844 230.129 131.671C230.125 131.556 230.123 131.498 230.121 131.441C230.116 131.267 230.109 131.037 230.103 130.864L230.361 128.141L230.411 127.909L230.628 125.708C230.621 125.477 230.673 125.302 230.667 125.129L229.455 124.821L229.166 126.562C229.114 126.737 228.948 126.916 228.776 126.921C228.547 126.928 228.372 126.818 228.365 126.587L228.361 126.472C228.358 126.357 228.299 126.301 228.297 126.243C228.16 125.554 227.912 124.927 227.661 124.242C227.477 123.844 227.235 123.447 226.881 123.112C226.527 122.776 226.063 122.618 225.606 122.632C225.207 122.702 224.812 122.888 224.478 123.187C224.031 123.548 223.7 123.963 223.371 124.435C223.316 124.494 223.318 124.552 223.262 124.612L223.207 124.671C223.096 124.79 222.984 124.851 222.81 124.799C222.639 124.804 222.52 124.693 222.46 124.579L222.395 124.35C222.332 124.179 222.272 124.065 222.211 123.952C221.908 123.442 221.438 123.052 220.803 122.899C219.993 122.636 219.133 122.605 218.278 122.747C217.195 122.897 216.117 123.22 215.101 123.714C214.989 123.775 214.819 123.838 214.706 123.899L214.649 123.901C214.713 124.13 214.778 124.359 214.841 124.53L218.148 136.784C218.21 136.955 218.214 137.071 218.277 137.242L218.561 137.175C218.674 137.114 218.788 137.11 218.901 137.049C219.128 136.984 219.297 136.921 219.525 136.856C219.46 136.627 219.337 136.342 219.272 136.113C219.208 135.884 219.145 135.713 219.143 135.655C218.815 134.338 218.43 133.022 218.104 131.761C218.102 131.704 218.1 131.646 218.039 131.532L218.038 131.475C218.032 131.302 218.084 131.127 218.197 131.066L218.422 130.943L218.815 130.7C218.983 130.579 219.151 130.458 219.319 130.337C219.487 130.216 219.653 130.038 219.879 129.915C220.104 129.793 220.213 129.616 220.379 129.438C220.545 129.259 220.713 129.138 220.822 128.962L221.099 128.664L221.265 128.486C221.376 128.367 221.489 128.305 221.662 128.358C221.834 128.352 221.952 128.464 222.015 128.635L222.138 128.92C222.201 129.091 222.262 129.205 222.324 129.376C222.627 129.887 223.04 130.278 223.62 130.49C224.142 130.705 224.662 130.862 225.238 130.959L225.871 131.055L227.082 131.305C227.198 131.359 227.312 131.356 227.429 131.41L227.545 131.464C227.718 131.516 227.84 131.743 227.845 131.916L227.847 131.974C227.849 132.032 227.851 132.09 227.796 132.149C227.744 132.324 227.69 132.441 227.637 132.558C227.208 133.496 226.606 134.381 225.886 135.154C225.775 135.273 225.662 135.335 225.607 135.394C225.385 135.632 225.046 135.758 224.7 135.711C224.353 135.607 224.06 135.385 223.879 135.102C223.219 134.141 222.784 133.058 222.578 131.967C222.574 131.852 222.512 131.68 222.508 131.565L222.222 131.574C221.936 131.583 221.651 131.65 221.367 131.716C221.385 132.293 221.518 132.867 221.706 133.38C221.957 134.065 222.265 134.749 222.571 135.374C222.814 135.829 223.115 136.281 223.528 136.672C224.067 137.406 225.102 137.547 225.829 137.004C226.11 136.822 226.389 136.582 226.668 136.342C227.5 135.508 228.156 134.505 228.637 133.393L228.746 133.216L228.801 133.157C228.855 133.04 228.967 132.978 229.08 132.917C229.194 132.913 229.366 132.908 229.427 133.022C230.189 133.575 231.115 133.892 232.031 133.863L232.605 133.903C232.778 133.955 232.953 134.065 232.961 134.296C232.964 134.412 232.988 135.161 233.085 136.429L233.087 136.487C233.105 137.063 233.123 137.64 233.191 137.985C233.649 137.97 234.107 137.956 234.506 137.886C234.504 137.828 234.502 137.77 234.502 137.77C234.419 136.964 234.169 134.489 234.159 134.143C234.151 133.912 234.26 133.735 234.487 133.671C235.453 133.409 236.295 132.863 236.899 132.035C236.952 131.918 237.122 131.855 237.236 131.852L237.351 131.848C237.524 131.9 237.642 132.012 237.648 132.185C237.651 132.3 237.655 132.416 237.659 132.531C237.514 133.402 237.54 134.21 237.624 135.073C237.712 136.052 238.083 136.907 238.681 137.696C239.457 138.711 240.732 139.191 242.043 138.976C243.926 138.744 245.815 136.894 245.538 133.553L245.534 133.438C245.527 133.207 245.519 132.977 245.457 132.805C245.455 132.748 245.398 132.749 245.396 132.692C245.165 132.641 244.993 132.647 244.765 132.654C244.654 132.773 244.486 132.894 244.375 133.013L244.32 133.072C244.323 133.187 244.329 133.361 244.334 133.534C244.345 133.88 244.415 134.282 244.365 134.514C244.337 135.439 243.965 136.375 243.24 136.975C242.627 137.514 241.888 137.711 241.086 137.678C239.821 137.545 239.048 136.645 238.833 135.266C238.767 134.979 238.758 134.691 238.749 134.403C238.771 133.305 238.91 132.261 239.164 131.213C239.463 129.818 239.935 128.417 240.581 127.126C240.742 126.775 240.962 126.479 241.182 126.184L241.237 126.124C241.403 125.946 241.686 125.821 241.918 125.929C242.206 125.978 242.44 126.144 242.564 126.429C242.632 126.773 242.698 127.06 242.765 127.346C242.838 127.864 242.912 128.381 243.044 128.955L243.116 129.414C243.345 129.407 243.746 129.394 244.089 129.384C244.076 128.98 243.999 128.347 243.934 128.118C243.87 127.889 243.863 127.658 243.861 127.601C243.715 126.624 243.456 125.65 243.028 124.797C242.849 124.572 242.617 124.464 242.384 124.356C241.862 124.141 241.236 124.276 240.846 124.635C240.344 125.055 239.96 125.587 239.692 126.173C239.206 127.112 238.837 128.105 238.524 129.097L238.474 129.329L238.419 129.389C238.367 129.564 238.142 129.686 237.97 129.692C237.799 129.697 237.621 129.53 237.616 129.357C237.482 128.726 237.292 128.154 237.045 127.584C236.735 126.843 236.313 126.164 235.892 125.542L234.693 123.847L234.304 124.206L233.803 124.684C233.805 124.741 233.864 124.797 233.866 124.855L234.048 125.196ZM221.287 125.54C221.237 125.773 221.13 126.007 221.023 126.241C220.807 126.652 220.532 127.007 220.256 127.363C219.651 128.132 218.927 128.79 218.085 129.337C218.029 129.396 217.972 129.398 217.972 129.398C217.917 129.457 217.86 129.459 217.745 129.463C217.688 129.465 217.631 129.466 217.572 129.411C217.455 129.356 217.395 129.243 217.334 129.129L216.295 125.235C216.23 125.006 216.339 124.83 216.564 124.707C217.074 124.518 217.583 124.329 218.154 124.253C218.78 124.118 219.409 124.098 219.983 124.137C220.271 124.186 220.559 124.235 220.791 124.343C221.254 124.502 221.498 124.956 221.341 125.423C221.285 125.482 221.287 125.54 221.287 125.54ZM228.867 129.805C228.815 129.98 228.706 130.157 228.478 130.164L228.363 130.168C228.249 130.171 228.191 130.173 228.132 130.117C227.667 129.901 227.145 129.686 226.628 129.645L226.11 129.546C225.534 129.448 224.956 129.293 224.438 129.194C224.15 129.146 223.917 129.037 223.683 128.872C223.277 128.711 223.032 128.199 223.191 127.79C223.243 127.615 223.294 127.44 223.346 127.265C223.716 126.272 224.261 125.389 225.038 124.613C225.149 124.494 225.317 124.374 225.485 124.253C225.653 124.132 225.823 124.069 226.053 124.119C226.227 124.172 226.404 124.339 226.524 124.509C226.703 124.734 226.826 125.019 226.893 125.306C227.145 126.048 227.281 126.737 227.475 127.424C227.541 127.711 227.607 127.997 227.672 128.226L227.742 128.628L228.539 128.488C228.654 128.484 228.825 128.479 228.886 128.592C229.004 128.704 229.065 128.817 229.012 128.935L228.867 129.805Z" fill="white"/>
<path d="M257.794 124.448C257.493 123.995 257.196 123.658 256.727 123.326C256.023 122.771 254.994 122.861 254.444 123.571C254.389 123.631 254.335 123.748 254.28 123.808C254.226 123.925 254.064 124.219 253.955 124.395C253.901 124.512 253.846 124.572 253.847 124.63C253.688 125.039 252.666 128.94 252.676 131.076L252.106 131.152C251.964 130.29 251.767 129.488 251.625 128.626C251.349 127.134 251.073 125.641 250.797 124.148L249.429 124.365C249.504 124.94 249.637 125.513 249.71 126.03C249.779 126.375 249.845 126.661 249.913 127.006C249.981 127.35 250.049 127.694 250.117 128.039C250.252 128.67 250.329 129.302 250.463 129.933L250.473 130.222L247.172 130.903L246.901 129.584C246.763 128.837 246.566 128.035 246.428 127.289C246.356 126.829 246.285 126.369 246.156 125.911C246.08 125.336 245.948 124.763 245.815 124.19L244.39 124.408C244.817 127.051 245.357 129.632 245.83 131.927C246.229 133.705 246.574 135.542 246.973 137.319L247.382 139.385C247.552 139.322 247.724 139.317 247.895 139.312L247.952 139.31C248.181 139.303 248.408 139.238 248.635 139.173L248.75 139.169C248.744 138.996 248.739 138.823 248.676 138.652C248.47 137.561 248.207 136.472 248.001 135.381L247.662 133.717C247.656 133.544 247.594 133.373 247.588 133.2L247.457 132.684L247.742 132.618C248.65 132.358 249.56 132.156 250.472 132.012L250.758 132.003L251.712 138.672C251.884 138.666 252.056 138.661 252.227 138.655C252.456 138.648 252.742 138.639 252.969 138.574L253.082 138.513C253.08 138.455 253.08 138.455 253.078 138.398C253.077 138.34 253.073 138.224 253.071 138.167L252.77 135.866C252.768 135.809 252.766 135.751 252.764 135.693L252.724 134.424L253.272 135.446C253.392 135.616 253.456 135.845 253.519 136.016L253.582 136.187C253.893 136.986 254.432 137.72 255.136 138.275C256.02 139.056 257.395 139.07 258.287 138.291C258.732 137.873 259.061 137.401 259.329 136.815C259.75 135.646 259.998 134.426 259.96 133.215C259.953 131.194 259.604 129.183 259.029 127.296C258.828 126.378 258.395 125.353 257.794 124.448ZM258.303 135.172C258.202 135.58 258.041 135.931 257.88 136.283C257.716 136.519 257.551 136.755 257.328 136.935C257.16 137.056 256.935 137.179 256.706 137.186C256.477 137.193 256.187 137.087 256.012 136.977C255.719 136.755 255.482 136.532 255.3 136.191C254.937 135.567 254.629 134.884 254.491 134.138C254.229 133.106 254.139 132.07 254.164 131.03C254.192 130.105 254.27 125.309 255.743 124.801L255.855 124.74L255.972 124.794C256.147 124.904 256.324 125.071 256.501 125.239L256.56 125.295C256.8 125.634 256.984 126.032 257.169 126.431C257.602 127.456 257.98 128.542 258.186 129.632C258.387 130.55 258.473 131.471 258.559 132.392C258.588 133.315 258.503 134.242 258.303 135.172Z" fill="white"/>
<path d="M317.125 137.015L316.892 136.907C316.717 136.797 316.137 136.584 315.615 136.369C315.093 136.155 314.514 135.942 314.397 135.888C314.338 135.832 314.281 135.834 314.279 135.776L313.986 135.554L314.265 135.315C314.601 135.073 314.996 134.887 315.394 134.817C315.849 134.687 316.367 134.787 316.718 135.006L316.834 135.061L317.209 134.24L316.859 134.02C316.567 133.856 316.163 133.753 315.82 133.764L315.419 133.777C314.902 133.735 314.391 133.867 313.942 134.17C313.831 134.289 313.719 134.35 313.665 134.467L313.499 134.646L313.056 135.122L313.036 134.487C313.036 134.487 313.018 133.91 313.005 133.507L312.032 133.537C312.032 133.537 312.032 133.537 312.034 133.595L312.052 134.172C312.083 135.152 312.059 136.193 311.975 137.177C311.975 137.177 311.74 138.801 311.459 138.983L311.291 139.104L311.114 138.937C310.878 138.713 310.697 138.43 310.574 138.145L310.148 137.35C309.661 136.441 308.866 134.85 308.505 134.284L307.777 134.826L307.84 134.997L308.203 135.621C308.753 136.701 310.09 139.142 310.269 139.367C310.448 139.593 310.625 139.76 310.802 139.928C311.156 140.263 311.726 140.188 312.002 139.832L312.057 139.773C312.223 139.595 312.275 139.42 312.382 139.185L312.327 139.245L312.63 137.965C312.628 137.907 312.628 137.907 312.684 137.848L312.732 137.557L312.852 135.937L313.426 135.976C313.432 136.149 313.672 136.488 313.906 136.654L314.198 136.818C314.487 136.925 315.124 137.136 315.702 137.291C316.454 137.556 316.916 137.657 317.091 137.767C317.207 137.821 317.266 137.876 317.325 137.932L317.735 138.208L317.458 138.506C317.403 138.565 317.347 138.625 317.347 138.625C316.841 138.929 316.33 139.061 315.76 139.137C315.702 139.138 315.588 139.142 315.533 139.202C315.247 139.211 314.957 139.104 314.778 138.879C314.601 138.711 314.481 138.542 314.361 138.372L314.359 138.315C314.298 138.201 314.175 137.916 313.992 137.575L313.327 138.289C313.329 138.347 313.388 138.403 313.39 138.461C313.575 138.859 313.816 139.256 314.169 139.533C314.584 139.982 315.22 140.193 315.848 140.116C316.647 140.033 317.439 139.719 318.111 139.236C318.277 139.057 318.443 138.879 318.551 138.644C318.711 138.293 318.641 137.891 318.402 137.552C317.996 137.392 317.531 137.175 317.125 137.015Z" fill="white"/>
<path d="M387.975 146.158C388.27 146.438 388.674 146.541 389.073 146.47C389.586 146.396 390.038 146.209 390.489 145.964C391.5 145.354 392.39 144.518 393.105 143.571C393.602 142.978 393.981 142.273 394.245 141.572C394.509 140.871 394.539 140.004 394.231 139.321C394.104 138.92 393.805 138.525 393.51 138.246C393.158 137.968 392.805 137.691 392.455 137.471L392.161 137.249C391.986 137.139 391.868 137.027 391.693 136.917C391.342 136.697 391.049 136.476 390.755 136.254C390.403 135.976 390.106 135.639 389.864 135.243C389.684 134.96 389.558 134.617 389.492 134.33C389.42 133.871 389.463 133.407 389.738 133.052C389.958 132.757 390.239 132.574 390.637 132.504C391.093 132.432 391.503 132.708 391.63 133.108C391.752 133.335 391.816 133.564 391.823 133.795C391.892 134.139 391.902 134.485 391.972 134.887L392.046 135.405C392.048 135.463 392.048 135.463 392.05 135.52L393.416 135.246L393.414 135.189L393.405 134.9C393.396 134.612 393.385 134.265 393.318 133.979L393.317 133.921C393.243 133.404 393.114 132.946 392.983 132.43C392.847 131.742 392.371 131.179 391.786 130.793C391.087 130.411 390.23 130.496 389.556 130.921C388.493 131.706 387.961 132.993 388.06 134.318C388.146 135.239 388.459 136.095 389.053 136.77L389.293 137.108C389.413 137.278 389.419 137.451 389.308 137.57C389.199 137.747 389.029 137.81 388.855 137.757L388.51 137.711L388.108 137.666C388.11 137.723 388.11 137.723 388.112 137.781C388.062 138.013 388.012 138.246 388.019 138.477L388.023 138.592L388.03 138.823C387.935 139.461 387.898 140.098 387.806 140.793L387.58 142.706C387.228 144.276 387.442 145.598 387.975 146.158ZM388.788 142.899C388.924 141.74 389.059 140.581 389.146 139.712L389.385 138.203C389.435 137.97 389.658 137.79 389.889 137.84C389.946 137.839 390.005 137.895 390.062 137.893L390.706 138.334C391.234 138.722 391.76 139.052 392.288 139.439C392.463 139.549 392.583 139.719 392.76 139.887L392.819 139.942C393.055 140.166 393.125 140.568 392.962 140.862L392.911 141.037C392.859 141.212 392.75 141.388 392.698 141.563C391.991 142.74 391.047 143.694 389.865 144.367C389.753 144.428 389.64 144.489 389.583 144.491L389.299 144.558C389.242 144.559 389.127 144.563 389.068 144.507C388.952 144.453 388.891 144.339 388.83 144.226C388.758 143.766 388.744 143.305 388.788 142.899Z" fill="white"/>
<path d="M387.518 138.955L387.402 138.901C387.227 138.791 387.053 138.739 386.88 138.686L386.823 138.688L386.825 138.746C386.826 138.803 386.826 138.803 386.771 138.863L386.403 139.914C386.143 140.731 385.823 141.491 385.505 142.31C385.293 142.836 385.025 143.422 384.812 143.949L384.651 144.3C384.544 144.535 384.38 144.771 384.156 144.951L383.933 145.131L383.756 144.964L383.64 144.91C383.523 144.855 383.463 144.742 383.402 144.628C383.221 144.345 382.981 144.006 382.856 143.664C382.365 142.64 381.989 141.612 381.726 140.523L381.724 140.466L381.717 140.235L381.885 140.114L382.053 139.993C382.616 139.687 383.181 139.438 383.748 139.247L384.144 139.119C384.597 138.931 385.049 138.744 385.444 138.558C385.782 138.374 386.118 138.133 386.336 137.779C386.833 137.186 386.979 136.373 386.841 135.627C386.769 135.167 386.585 134.769 386.343 134.372C385.74 133.41 384.914 132.627 383.978 132.021C383.57 131.803 383.163 131.585 382.701 131.484C382.065 131.273 381.382 131.41 380.879 131.83C380.379 132.308 379.998 132.955 379.906 133.651C379.708 134.639 379.624 135.623 379.771 136.658C379.944 138.501 380.288 140.338 380.858 142.052L381.175 143.024L374.178 139.086L375.245 138.418C375.583 138.234 375.919 137.992 376.255 137.751C376.703 137.448 377.091 137.031 377.422 136.617C378.247 135.551 378.375 134.161 377.82 132.908C377.573 132.339 377.214 131.83 376.858 131.437C376.325 130.877 375.734 130.318 375.09 129.876C373.86 128.991 372.575 128.223 371.409 127.567L370.879 128.912L370.936 128.91L371.054 129.022C371.346 129.186 371.639 129.407 371.931 129.571C372.163 129.68 372.285 129.907 372.235 130.139C372.37 132.618 372.563 135.095 372.698 137.574C372.238 135.683 371.661 133.738 370.964 131.623C370.775 131.051 370.526 130.424 370.214 129.625C370.091 129.341 369.91 129.058 369.731 128.832C369.611 128.663 369.436 128.553 369.262 128.501L369.091 128.506C368.919 128.511 368.635 128.578 368.306 129.05C368.199 129.285 367.333 132.719 367.039 134.287L366.939 134.753C366.839 135.218 366.797 135.681 366.697 136.146C366.647 136.379 366.597 136.611 366.547 136.844C366.449 137.367 366.351 137.889 366.31 138.41C366.215 139.049 366.119 139.629 366.023 140.21C365.973 140.442 365.925 140.732 365.875 140.965L365.939 141.194L365.424 141.21L365.358 140.924L365.233 136.943L365.517 136.876C365.512 136.703 365.506 136.53 365.501 136.357C365.547 136.009 365.536 135.663 365.47 135.376L365.123 135.272L365.033 134.235C365.016 133.716 364.998 133.139 364.925 132.622C364.817 131.008 364.71 129.452 364.659 127.837C364.652 127.606 364.586 127.32 364.579 127.089L363.495 127.239C363.502 127.469 363.51 127.7 363.517 127.931L363.908 134.906L363.927 135.483L359.192 136.094L360.553 126.581L360.323 126.53C360.035 126.481 359.745 126.375 359.402 126.386C359.404 126.444 359.35 126.561 359.352 126.618L359.024 128.939L358.033 135.668C358.039 135.841 357.437 140.365 357.261 142.045L357.262 142.103L357.607 142.149C357.838 142.2 358.069 142.25 358.296 142.185L358.41 142.182C358.408 142.124 358.408 142.124 358.407 142.066C358.403 141.951 358.458 141.892 358.455 141.776C358.453 141.719 358.451 141.661 358.448 141.545L358.544 140.965C358.635 140.211 358.725 139.458 358.816 138.704C358.811 138.531 358.861 138.299 358.912 138.124L359.012 137.659L359.182 137.596C359.865 137.459 362.717 137.08 363.575 137.053C363.632 137.051 363.747 137.048 363.861 137.044L364.035 137.096L364.073 138.308C364.097 139.058 364.12 139.808 364.144 140.558C364.167 141.308 364.191 142.057 364.159 142.867L364.181 143.559L364.467 143.55C364.755 143.599 365.041 143.59 365.325 143.523C365.324 143.465 365.377 143.348 365.375 143.291C365.37 143.118 365.365 142.944 365.359 142.771L365.35 142.483C365.348 142.425 365.346 142.368 365.345 142.31L365.387 141.847L365.85 142.005L365.967 142.059L366.657 142.153L366.945 142.202L366.943 142.144C366.941 142.086 366.941 142.086 366.939 142.029L367.137 141.041C367.285 140.285 367.433 139.53 367.522 138.719C367.574 138.544 367.626 138.369 367.676 138.136L367.776 137.671L371.499 137.669L371.563 137.898C371.896 139.389 372.172 140.882 372.334 142.378L372.735 142.366C372.742 142.597 372.747 142.77 372.755 143C372.712 143.464 372.669 143.927 372.68 144.273C372.968 144.322 373.542 144.361 373.83 144.41C373.983 143.828 374.078 143.19 374.172 142.551C374.165 142.321 374.158 142.09 374.151 141.859C374.147 141.744 374.141 141.571 374.136 141.398C374.134 141.34 374.132 141.282 374.131 141.225L374.171 140.704L377.439 142.622C378.548 143.28 379.714 143.936 380.877 144.477L381.05 144.529C381.226 144.639 381.456 144.69 381.63 144.742C381.86 144.792 382.095 144.958 382.216 145.185C382.401 145.584 382.698 145.921 383.05 146.199C383.463 146.59 384.039 146.687 384.547 146.44C384.828 146.258 385.106 146.018 385.269 145.724C385.598 145.252 385.867 144.724 386.078 144.14C386.348 143.612 386.559 143.027 386.821 142.268L387.239 140.985C387.237 140.927 387.755 139.178 387.753 139.121L387.518 138.955ZM370.761 136.076C369.96 136.101 368.413 136.092 368.413 136.092L368.07 136.103L368.116 135.755C368.257 134.769 368.514 133.837 368.714 132.907C368.812 132.384 368.967 131.859 369.065 131.336L369.162 130.756L369.519 131.206C370.139 132.688 370.587 134.176 370.979 135.722L371.047 136.067L370.761 136.076ZM373.953 137.419L373.56 130.386L374.204 130.828C374.32 130.882 374.379 130.938 374.497 131.05C375.023 131.38 375.495 131.827 375.968 132.274C376.204 132.497 376.385 132.78 376.565 133.063C376.746 133.346 376.868 133.574 376.934 133.86C377.063 134.318 377.02 134.781 376.802 135.135C376.693 135.311 376.584 135.488 376.418 135.667C375.807 136.263 375.137 136.804 374.347 137.176L373.953 137.419ZM381.323 138.63L381.255 138.286C380.986 137.024 380.888 135.757 381.018 134.424C381.066 134.134 381.115 133.844 381.22 133.552C381.32 133.087 381.767 132.726 382.285 132.825C382.573 132.874 382.92 132.979 383.21 133.085C383.966 133.465 384.673 134.078 385.153 134.756C385.272 134.926 385.394 135.153 385.516 135.38C385.874 135.831 385.779 136.469 385.332 136.829C385.277 136.889 385.22 136.891 385.164 136.95C384.996 137.071 384.771 137.194 384.544 137.258C384.204 137.385 381.605 138.506 381.605 138.506L381.323 138.63Z" fill="white"/>
<path d="M335.466 124.715L335.121 124.668C334.947 124.616 334.718 124.623 334.547 124.628C334.489 124.63 334.489 124.63 334.434 124.69L334.323 124.809L332.583 127.751L332.31 128.164C331.224 130.046 329.862 132.283 329.099 133.52C329.044 133.579 328.989 133.639 328.933 133.698L328.878 133.758C328.765 133.819 328.653 133.88 328.538 133.884C328.366 133.889 328.248 133.777 328.188 133.664L328.001 133.208C327.448 132.013 325.356 127.401 324.751 126.381C324.568 126.04 324.33 125.759 324.092 125.477C323.972 125.308 323.799 125.256 323.625 125.203C323.452 125.151 323.28 125.157 323.11 125.22C322.941 125.283 322.774 125.461 322.665 125.638C322.508 126.105 321.012 133.139 320.775 134.706C321.004 134.699 321.461 134.684 322.434 134.654C322.898 133.022 323.248 131.394 323.483 129.77C323.477 129.597 323.586 129.42 323.756 129.357C323.926 129.294 324.098 129.289 324.216 129.4C324.275 129.456 324.334 129.512 327.43 135.074L327.552 135.301C327.674 135.528 327.91 135.751 328.142 135.86C328.548 136.02 329.004 135.948 329.281 135.651C329.392 135.532 330.049 134.587 333.265 129.404C333.321 129.344 333.319 129.287 333.374 129.227L333.43 129.168C333.54 129.049 333.71 128.986 333.884 129.038C334.057 129.09 334.177 129.26 334.183 129.433C334.114 130.879 334.12 132.9 334.128 134.978C334.096 137.578 334.065 140.235 334.01 142.142L334.413 142.187C334.701 142.236 334.988 142.285 335.275 142.276C335.326 142.101 335.376 141.868 335.371 141.695C335.415 141.29 335.403 140.886 335.39 140.482C335.381 140.194 335.373 139.963 335.423 139.73C335.457 138.979 335.469 137.534 335.477 135.975C335.481 134.3 335.484 132.568 335.514 131.701L335.609 129.272L335.604 129.099C335.632 128.174 335.66 127.25 335.688 126.325C335.681 126.094 335.672 125.806 335.665 125.575L335.652 125.171C335.582 124.769 335.525 124.771 335.466 124.715Z" fill="white"/>
<path d="M353.243 132.701C352.651 132.084 352.004 131.527 351.303 131.087C350.074 130.26 348.734 129.551 347.396 128.9C346.756 128.574 346.059 128.25 345.307 128.042C345.018 127.936 344.73 127.887 344.386 127.898C344.1 127.907 343.822 128.147 343.716 128.439C343.666 128.671 343.616 128.904 343.624 129.135C343.69 129.421 344.209 131.368 344.458 131.996C344.646 132.51 344.833 132.966 345.021 133.48L345.022 133.537C345.645 135.134 346.27 136.789 346.783 138.506L346.845 138.677L347.135 138.783C347.251 138.837 347.312 138.951 347.371 139.007L347.498 139.407C347.624 139.75 347.69 140.036 347.813 140.321C347.878 140.55 348 140.777 348.121 141.004C348.367 141.516 348.95 141.844 349.516 141.653C349.801 141.587 350.026 141.464 350.249 141.284C351.425 140.438 352.537 139.364 353.418 138.239C353.749 137.824 354.018 137.296 354.231 136.77C354.656 135.717 354.56 134.507 353.9 133.546C353.778 133.319 353.54 133.038 353.243 132.701ZM353.358 136.335C353.254 136.685 353.092 136.979 352.872 137.274C352.599 137.687 352.266 138.044 351.934 138.401C351.325 139.056 350.713 139.652 349.986 140.195L349.65 140.436L349.482 140.557C349.426 140.617 349.369 140.619 349.255 140.622L349.14 140.626C349.024 140.572 348.908 140.518 348.845 140.346L348.781 140.117C348.718 139.946 348.655 139.775 348.593 139.604L348.458 138.973C348.261 138.17 348.005 137.312 347.806 136.452C347.476 135.077 347.204 133.699 346.876 132.382L346.543 130.891C346.541 130.833 346.539 130.775 346.537 130.718L346.534 130.602C346.53 130.487 346.582 130.312 346.694 130.251C346.807 130.189 346.92 130.128 347.093 130.18C347.15 130.179 347.266 130.233 347.324 130.231C348.661 130.882 349.944 131.592 351.173 132.42C351.699 132.749 352.228 133.195 352.643 133.644C352.881 133.925 353.062 134.208 353.243 134.491C353.545 135.001 353.624 135.692 353.358 136.335Z" fill="white"/>
<path d="M343.792 136.29C342.806 134.069 340.715 129.515 340.169 128.551C339.985 128.153 339.745 127.814 339.448 127.476C339.265 127.136 338.859 126.975 338.518 127.044C338.348 127.107 338.18 127.228 338.071 127.404C337.908 127.698 337.803 127.99 337.814 128.336L337.775 128.915C337.736 129.494 337.697 130.072 337.656 130.593C337.591 132.155 337.391 140.361 337.411 140.996L337.583 140.99L338.675 141.129C338.673 141.071 338.673 141.071 338.672 141.014L338.668 140.898C338.693 139.858 338.774 138.816 338.799 137.776C338.791 137.545 338.956 137.309 339.183 137.244L340.887 136.786L341.852 136.525L342.079 136.46L342.421 136.391L344.946 142.029L346.019 141.533C345.708 140.734 344.655 138.227 344.225 137.316L343.792 136.29ZM339.016 135.575L338.949 135.288C338.881 134.944 338.922 130.785 339.022 130.319L339.118 129.739L339.533 130.188C339.712 130.413 340.883 133.033 341.619 134.569L341.742 134.853L339.016 135.575Z" fill="white"/>
<path d="M289.721 134.356C289.789 134.7 290.923 137.956 291.878 139.196C292.179 139.649 292.592 140.04 293.059 140.314C293.994 140.92 295.25 140.765 295.966 139.876C296.463 139.283 296.843 138.635 296.991 137.88L297.245 136.833L297.608 137.456C297.669 137.57 297.73 137.684 297.733 137.799C297.737 137.914 297.8 138.086 297.803 138.201C297.811 138.432 297.877 138.718 297.941 138.947C298.081 139.751 298.841 140.247 299.583 140.166C300.039 140.094 300.492 139.906 300.94 139.604C301.895 138.996 302.672 138.221 303.33 137.276C303.771 136.743 304.095 136.097 304.302 135.398C304.509 134.698 304.485 133.948 304.179 133.323C303.995 132.924 303.699 132.645 303.404 132.365C303.054 132.145 302.703 131.925 302.352 131.706L302.118 131.54L301.651 131.266C301.36 131.102 301.011 130.939 300.718 130.718C300.367 130.498 300.072 130.218 299.832 129.879C299.653 129.654 299.53 129.369 299.406 129.084C299.281 128.742 299.325 128.336 299.545 128.04C299.708 127.747 299.988 127.565 300.274 127.556C300.616 127.487 300.965 127.649 301.147 127.99C301.267 128.159 301.332 128.388 301.339 128.619C301.405 128.906 301.473 129.25 301.54 129.537L301.611 129.997C301.613 130.054 301.617 130.17 301.676 130.225L303.154 129.89L303.149 129.717L303.14 129.429C303.074 129.142 303.066 128.911 303 128.625L302.998 128.567C302.926 128.107 302.797 127.649 302.613 127.251C302.421 126.622 301.947 126.117 301.307 125.791C300.322 125.417 299.185 125.684 298.582 126.569C297.977 127.339 297.72 128.271 297.865 129.248C298.005 130.052 298.374 130.849 298.966 131.466L299.678 132.252L299.676 132.194L300.61 132.742C301.193 133.07 301.717 133.342 302.243 133.672C302.418 133.782 302.536 133.894 302.654 134.006L302.713 134.062C302.947 134.228 303.014 134.514 302.908 134.806L302.855 134.924C302.803 135.098 302.749 135.216 302.696 135.333C302.099 136.391 301.27 137.341 300.201 137.952C300.088 138.014 300.033 138.073 299.919 138.077L299.524 138.262L299.455 137.918C299.328 137.518 299.317 137.172 299.362 136.766C299.388 135.783 299.473 134.857 299.557 133.872C299.6 133.409 299.685 132.483 299.685 132.483L299.731 132.135L298.929 132.102L298.24 132.066C298.242 132.124 298.187 132.183 298.19 132.299C298.14 132.531 298.149 132.82 298.099 133.052L298.058 133.573C298.062 133.689 298.009 133.806 298.014 133.979L297.614 135.839L297.277 134.233C297.211 133.946 297.145 133.66 297.134 133.314C297.123 132.967 297.06 132.796 296.996 132.567L295.857 132.776L296.291 132.012C296.564 131.599 296.663 131.076 296.705 130.613C296.746 130.092 296.674 129.632 296.486 129.119C296.169 128.147 295.514 127.359 294.638 126.809C294.228 126.533 293.708 126.376 293.193 126.393C292.337 126.477 291.548 126.907 291.053 127.557C290.39 128.329 289.963 129.324 289.823 130.31C289.637 131.702 289.622 133.031 289.721 134.356ZM295.406 133.022L295.534 133.422C295.535 133.479 295.537 133.537 295.596 133.593C295.802 134.684 295.837 135.78 295.641 136.825C295.6 137.346 295.386 137.815 295.112 138.228C294.898 138.697 294.329 138.83 293.864 138.614C293.805 138.558 293.689 138.504 293.63 138.448C293.337 138.226 293.099 137.945 292.861 137.664L292.741 137.494C292.265 136.932 291.902 136.308 291.594 135.625L291.533 135.511L291.69 135.044L291.745 134.985C292.475 134.5 293.206 134.073 293.996 133.701L295.067 133.148L295.406 133.022ZM291.104 132.811C291.082 132.118 291.12 131.482 291.27 130.784C291.369 130.319 291.527 129.852 291.743 129.441C291.907 129.205 292.07 128.911 292.293 128.731C292.679 128.257 293.364 128.177 293.831 128.452C294.414 128.78 294.831 129.286 295.022 129.915C295.21 130.429 295.055 130.954 294.665 131.313C294.555 131.432 294.387 131.552 294.274 131.614L291.571 133.085L291.178 133.328L291.104 132.811Z" fill="white"/>
<path d="M281.625 128.259C281.561 128.03 281.494 127.743 281.43 127.514L281.369 127.401C281.256 127.462 281.142 127.466 281.029 127.527C280.861 127.648 280.634 127.713 280.407 127.778L280.236 127.783L280.051 127.385L280.044 127.154C280.04 127.038 280.038 126.981 280.035 126.865L280.354 122.466L280.353 122.409L278.919 122.339C278.92 122.396 278.92 122.396 278.922 122.454C278.883 123.033 278.787 123.613 278.748 124.192C278.616 125.466 278.542 126.739 278.41 128.014C278.419 128.302 278.253 128.481 277.97 128.605C277.518 128.792 277.123 128.978 276.728 129.164L276.615 129.225L275.995 129.533L275.94 129.593C276.13 130.164 276.319 130.736 276.565 131.248L278.202 130.503L278.159 130.967C278.07 131.778 278.086 134.087 278.091 136.051C278.071 137.264 278.11 138.475 278.074 139.169L278.534 139.213C278.879 139.259 279.167 139.308 279.51 139.297L279.567 139.296C279.619 139.121 279.614 138.948 279.665 138.773C279.747 137.731 279.733 135.479 279.784 133.456C279.782 129.761 279.782 129.761 280.067 129.694L281.881 129.117L281.878 129.002C281.756 128.774 281.69 128.488 281.625 128.259Z" fill="white"/>
<path d="M286.468 129.261C286.403 129.032 286.282 128.805 286.16 128.578L286.099 128.464C285.758 128.533 285.475 128.657 285.195 128.839L284.801 129.083L284.781 128.448C284.778 128.333 284.776 128.275 284.772 128.16L284.74 127.121C284.705 126.025 284.669 124.871 284.577 123.777L284.575 123.719L283.146 123.822C283.148 123.88 283.15 123.937 283.15 123.937C283.168 124.514 283.186 125.091 283.205 125.668C283.245 126.937 283.285 128.206 283.325 129.476C283.334 129.764 283.227 129.998 283.001 130.121C282.608 130.364 282.215 130.608 281.879 130.849L281.709 130.912L281.205 131.275L281.092 131.336C281.337 131.848 281.585 132.418 281.887 132.928L283.403 131.956L283.554 136.744C283.566 137.148 283.579 137.552 283.592 137.956C283.619 138.821 283.648 139.744 283.677 140.667L284.135 140.653C284.478 140.642 284.822 140.631 285.163 140.563C285.158 140.39 285.209 140.215 285.147 140.043L284.949 133.755C284.943 133.582 284.938 133.409 284.934 133.294C284.923 132.948 284.912 132.602 284.903 132.313L284.899 132.198C284.819 131.45 284.806 131.046 285.031 130.923L286.779 130.06L286.591 129.546L286.468 129.261Z" fill="white"/>
<path d="M287.479 130.442L287.483 130.558C287.604 134.423 287.759 139.326 287.797 140.538L288.255 140.523C288.598 140.513 288.941 140.502 289.283 140.433C289.279 140.318 289.277 140.26 289.331 140.143C289.302 139.22 289.275 138.355 289.246 137.432L289.107 131.199C289.087 130.565 289.007 129.874 288.987 129.24L288.973 128.778C288.966 128.547 288.958 128.317 288.951 128.086C288.937 127.624 288.92 127.105 288.906 126.644L288.62 126.653C288.219 126.665 287.876 126.676 287.477 126.746C287.486 127.035 287.51 127.785 287.568 129.631L287.479 130.442Z" fill="white"/>
<path d="M273.972 138.028L274.487 138.011C274.83 138.001 275.116 137.992 275.401 137.925C275.395 137.752 275.39 137.579 275.386 137.463C275.379 137.233 275.37 136.944 275.362 136.713L275.326 135.56C275.302 134.81 275.279 134.06 275.2 133.369C275.099 131.987 274.998 130.604 274.84 129.223L274.741 127.898C274.736 127.725 274.73 127.552 274.666 127.323L273.182 127.485C273.275 128.637 273.426 129.787 273.577 130.937C273.858 132.603 274.025 134.273 274.076 135.888L274.032 136.293L273.957 137.566L273.972 138.028Z" fill="white"/>
<path d="M273.281 136.087C272.44 134.843 271.536 133.427 270.634 132.07C270.033 131.165 269.489 130.258 268.949 129.467L268.829 129.297L268.938 129.121C269.266 128.648 269.538 128.178 269.867 127.705C270.633 126.584 271.398 125.405 272.105 124.228C271.93 124.118 271.81 123.948 271.635 123.838C271.399 123.615 271.105 123.393 270.871 123.227C270.816 123.287 270.76 123.346 270.707 123.463L268.193 127.296L267.044 129.007C266.989 129.066 266.933 129.126 266.935 129.184L266.771 129.42L266.422 129.258L266.357 129.029L266.256 122.16C266.084 122.165 265.796 122.117 265.395 122.129C265.167 122.137 264.938 122.144 264.766 122.149C264.81 123.534 264.91 130.345 264.953 131.729C264.962 132.018 264.914 132.308 264.693 132.546L264.637 132.605C264.872 132.771 264.995 133.056 265.004 133.344C265.026 134.037 265.046 134.671 265.123 135.304C265.204 136.052 265.23 136.86 265.31 137.608L265.386 138.183L265.443 138.181L265.502 138.237C265.958 138.165 266.414 138.093 266.925 137.961C266.922 137.846 266.92 137.788 266.916 137.673C266.812 136.175 266.709 134.734 266.605 133.236C266.597 133.006 266.645 132.715 266.812 132.537C266.976 132.301 267.139 132.007 267.303 131.771L267.578 131.415C267.633 131.356 267.632 131.298 267.687 131.239L268.018 130.824L268.682 131.9C269.043 132.467 269.405 133.033 269.766 133.599C270.306 134.39 270.791 135.241 271.332 136.032L271.815 136.826C272.116 137.278 272.359 137.732 272.658 138.127C272.769 138.008 272.992 137.828 273.269 137.531L273.491 137.293L273.88 136.934L273.281 136.087Z" fill="white"/>
<path d="M274.872 124.776C274.913 124.255 275.08 122.287 275.113 121.535L274.711 121.49C274.366 121.443 273.963 121.398 273.62 121.409C273.538 122.451 273.418 124.071 273.382 124.765L273.956 124.805C274.298 124.737 274.757 124.78 274.872 124.776Z" fill="white"/>
<path d="M287.286 124.327L287.629 124.316C287.915 124.307 288.144 124.3 288.428 124.233C288.486 124.232 288.543 124.23 288.541 124.172C288.541 124.172 288.539 124.114 288.537 124.057L288.532 123.884L288.521 123.538C288.512 123.249 288.503 122.961 288.551 122.67L288.64 121.859L287.143 121.618C286.942 122.49 286.914 123.415 287 124.336L287.286 124.327Z" fill="white"/>
<path d="M368.196 43.762L337.378 49.064L341.734 74.6239L339.176 75.2242L341.08 86.598L343.306 86.3547L347.66 117.285C354.14 117.543 370.629 119.16 370.629 119.16L369.998 106.418L357.309 107.222L353.981 85.2099L365.109 83.9354L365.014 70.0214L351.133 72.9996L348.595 57.8923L368.381 55.0745L368.196 43.762Z" fill="#1F2F6D"/>
<path d="M287.41 113.697L298.762 114.091L295.102 96.0735L306.187 93.4144L304.618 81.799L293.189 86.2591L289.575 67.8941L304.726 65.2224L303.494 55.2133L276 60.5837L287.41 113.697Z" fill="#1F2F6D"/>
<path d="M312.931 114.798L324.985 115.631L320.699 86.8352L326.622 89.4204L331.528 116.06L343.301 117.075L336.474 85.8185L329.996 81.9803L336.865 76.3935L333.441 49.5337L305.882 54.6753L312.931 114.798ZM324.185 75.6958L318.975 73.9543L317.305 62.7463L325.957 61.0301L327.952 71.6503L324.185 75.6958Z" fill="#1F2F6D"/>
<path d="M368.196 43.762L337.378 49.064L341.734 74.6239L339.176 75.2242L341.08 86.598L343.306 86.3547L347.66 117.285C354.14 117.543 370.629 119.16 370.629 119.16L369.998 106.418L357.309 107.222L353.981 85.2099L365.109 83.9354L365.014 70.0214L351.133 72.9996L348.595 57.8923L368.381 55.0745L368.196 43.762Z" fill="#1F2F6D"/>
<path d="M371.974 60.0435L374.195 119.626L388.378 120.796C388.378 120.796 384.626 90.7702 382.806 76.6219C385.917 77.2168 389.088 77.8676 392.201 78.5203C392.208 91.4553 392.271 104.388 392.276 117.266L403.649 118.293C403.543 100.395 402.859 84.1324 402.748 66.0612C396.141 65.4032 400.754 66.4128 386.229 65.3112L385.733 60.4761L371.974 60.0435Z" fill="#1F2F6D"/>
<path d="M371.285 43.6067L371.523 54.8021L417.89 55.8243L407.228 115.524L407.553 122.212L440.512 124.869L441.206 108.736L419.679 110.8L431.78 45.8585C431.839 45.9144 387.267 45.5285 371.285 43.6067Z" fill="#1F2F6D"/>
<path d="M434.083 46.2485L446.237 46.6163L445.723 84.8606L455.711 83.7375L453.813 47.1283L468.377 47.6511L465.368 90.3051L457.619 95.2267L458.024 144.414C436.574 141.683 408.464 138.411 408.464 138.411L407.8 126.42L443.876 129.846L444.953 94.9328L435.9 93.0236L434.083 46.2485Z" fill="#1F2F6D"/>
<path d="M104.642 108.08C104.642 108.08 95.127 109.65 95.1288 109.708C93.6182 96.3005 90.0693 69.0982 90.0693 69.0982L78.683 69.4569L87.0623 122.724L119.094 119.578L107.807 64.9014L95.5185 63.9026L104.642 108.08Z" fill="#1F2F6D"/>
<path d="M135.058 77.2664C135.217 80.4952 135.459 86.3777 135.459 86.3777L125.593 89.5181C125.593 89.5181 122.963 76.9545 123.135 76.9491L135.058 77.2664ZM110.392 65.166C114.062 83.4715 121.376 119.275 121.376 119.275L132.913 118.276L128.366 99.3631L135.842 96.7022L137.518 122.635L148.401 120.849L143.163 67.3096L110.392 65.166Z" fill="#1F2F6D"/>
<path d="M145.775 61.1064C147.445 79.5904 150.844 116.557 150.844 116.557L164.432 115.205L159.103 78.7612L168.617 80.7713L169.624 112.731L181.73 111.599L178.873 69.996L159.693 68.406L157.793 62.6334L145.775 61.1064Z" fill="#1F2F6D"/>
<path d="M180.286 47.6041C168.814 47.0416 155.673 46.243 144.811 45.0838L145.2 57.4293C156.525 58.7471 170.072 59.7062 182.009 60.485L186.233 127.28L203.221 126.572L193.26 61.2855L224.513 62.4952L224.122 50.0921L191.299 48.1234L190.617 42.8322L179.715 42.194L180.286 47.6041Z" fill="#1F2F6D"/>
<path d="M221.37 102.728C220.798 102.746 212.064 103.656 212.064 103.656C210.681 92.4967 207.945 71.1013 207.945 71.1013L197.263 70.1674C199.714 84.3535 204.137 113.838 204.137 113.838L235.87 113.936L225.577 67.1964L212.73 66.6195L221.37 102.728Z" fill="#1F2F6D"/>
<path d="M242.522 65.1035L228.258 65.0332L239.344 113.306L250.514 113.359C250.514 113.359 245.267 86.7875 242.691 74.1067L245.378 73.9642C247.301 82.2769 251.782 99.0555 251.782 99.0555L258.251 98.9671C257.295 90.4508 256.34 81.9344 255.327 73.4198L257.9 73.281C260.542 86.2485 265.748 113.341 265.748 113.341L277.548 113.373L265.84 61.7125L254.097 63.4684L252.783 50.8633L238.387 50.2197L242.522 65.1035Z" fill="#1F2F6D"/>
<path d="M37.3891 54.9351C45.4422 54.2194 53.5544 53.5596 61.7256 52.9557C64.9856 74.6234 68.2256 95.6565 71.4474 116.113C69.7726 113.856 68.096 111.541 66.4176 109.168C63.7802 112.716 61.2019 116.32 58.6271 120.039C60.8242 122.511 62.9622 124.927 65.1555 127.283C58.68 128.988 52.1527 130.869 45.7417 132.803C42.8821 107.485 40.117 81.528 37.3891 54.9351ZM20.9102 37.2642C25.927 78.3371 30.8476 116.352 35.7517 153.849C50.1286 148.429 64.7008 143.755 79.3484 139.655C83.005 143.005 86.7132 146.18 90.3625 149.299C93.1942 144.647 95.9724 140.113 98.8132 135.751C93.8942 132.325 89.0252 128.667 84.1526 124.894C79.6382 97.9533 70.5886 41.5891 70.5886 41.5891C70.5886 41.5891 37.2916 39.1157 20.9102 37.2642Z" fill="#1F2F6D"/>
<path d="M38.5332 54.899C46.5863 54.1833 54.6984 53.5235 62.8696 52.9196C66.1296 74.5873 69.3696 95.6204 72.5915 116.077C70.9167 113.82 69.2401 111.505 67.5616 109.132C64.9243 112.68 62.3459 116.284 59.7712 120.003C61.9682 122.475 64.1062 124.89 66.2996 127.247C59.824 128.952 53.2968 130.832 46.8857 132.767C44.0262 107.448 41.2611 81.4919 38.5332 54.899ZM22.0542 37.228C27.0711 78.3009 31.9916 116.316 36.8958 153.813C51.2727 148.393 65.8449 143.719 80.4925 139.619C84.149 142.969 87.8573 146.144 91.5066 149.262C94.3383 144.611 97.1164 140.077 99.9572 135.714C95.0383 132.289 90.1693 128.631 85.2966 124.858C80.7823 97.9172 71.7326 41.553 71.7326 41.553C71.7326 41.553 38.4357 39.0795 22.0542 37.228Z" fill="#5EA49B"/>
<path d="M105.787 108.044C105.787 108.044 96.2713 109.614 96.2731 109.672C94.7625 96.2643 91.2136 69.0621 91.2136 69.0621L79.8273 69.4208L88.2066 122.688L120.238 119.542L108.951 64.8652L96.6628 63.8665L105.787 108.044Z" fill="#5EA49B"/>
<path d="M136.202 77.2302C136.361 80.459 136.604 86.3415 136.604 86.3415L126.737 89.482C126.737 89.482 124.107 76.9183 124.279 76.9129L136.202 77.2302ZM111.537 65.1299C115.206 83.4354 122.52 119.239 122.52 119.239L134.058 118.24L129.51 99.327L136.986 96.6661L138.662 122.599L149.546 120.813L144.308 67.2735L111.537 65.1299Z" fill="#5EA49B"/>
<path d="M146.919 61.0703C148.589 79.5543 151.988 116.52 151.988 116.52L165.576 115.168L160.247 78.725L169.761 80.7352L170.768 112.695L182.874 111.563L180.017 69.9599L160.837 68.3698L158.937 62.5973L146.919 61.0703Z" fill="#5EA49B"/>
<path d="M181.431 47.567C169.958 47.0045 156.817 46.2059 145.956 45.0467L146.345 57.3922C157.669 58.71 171.216 59.6691 183.154 60.4479L187.377 127.243L204.365 126.535L194.405 61.2484L225.657 62.4581L225.266 50.0549L192.444 48.0862L191.761 42.7951L180.859 42.1569L181.431 47.567Z" fill="#5EA49B"/>
<path d="M222.515 102.692C221.943 102.71 213.208 103.62 213.208 103.62C211.826 92.4611 209.09 71.0656 209.09 71.0656L198.407 70.1317C200.859 84.3179 205.282 113.802 205.282 113.802L237.015 113.9L226.722 67.1608L213.874 66.5839L222.515 102.692Z" fill="#5EA49B"/>
<path d="M243.666 65.0674L229.403 64.9971L240.488 113.27L251.659 113.323C251.659 113.323 246.411 86.7513 243.835 74.0705L246.523 73.9281C248.446 82.2408 252.926 99.0193 252.926 99.0193L259.395 98.931C258.44 90.4146 257.484 81.8983 256.471 73.3837L259.044 73.2449C261.687 86.2123 266.893 113.305 266.893 113.305L278.692 113.337L266.985 61.6764L255.241 63.4323L253.928 50.8272L239.532 50.1836L243.666 65.0674Z" fill="#5EA49B"/>
<path d="M286.265 113.734L297.618 114.127L293.958 96.1096L305.042 93.4505L303.474 81.8351L292.045 86.2952L288.431 67.9302L303.581 65.2585L302.35 55.2494L274.855 60.6199L286.265 113.734Z" fill="#5EA49B"/>
<path d="M311.787 114.836L323.841 115.669L319.554 86.8728L325.478 89.458L330.383 116.098L342.157 117.113L335.33 85.8561L328.852 82.0179L335.72 76.4311L332.297 49.5713L304.738 54.7128L311.787 114.836ZM323.041 75.7334L317.831 73.9919L316.161 62.7839L324.812 61.0677L326.808 71.6879L323.041 75.7334Z" fill="#5EA49B"/>
<path d="M367.052 43.7982L336.234 49.1001L340.59 74.6601L338.032 75.2604L339.936 86.6342L342.162 86.3908L346.516 117.321C352.996 117.579 369.485 119.196 369.485 119.196L368.854 106.454L356.165 107.258L352.837 85.246L363.965 83.9715L363.87 70.0576L349.989 73.0358L347.451 57.9284L367.237 55.1107L367.052 43.7982Z" fill="#5EA49B"/>
<path d="M370.83 60.0791L373.05 119.661L387.234 120.831C387.234 120.831 383.482 90.8058 381.661 76.6575C384.773 77.2525 387.943 77.9033 391.057 78.5559C391.063 91.4909 391.127 104.424 391.132 117.301L402.505 118.329C402.399 100.431 401.715 84.168 401.604 66.0969C394.996 65.4388 399.61 66.4484 385.085 65.3469L384.589 60.5118L370.83 60.0791Z" fill="#5EA49B"/>
<path d="M370.14 43.6429L370.378 54.8382L416.745 55.8604L406.083 115.56L406.408 122.248L439.367 124.905L440.062 108.772L418.535 110.836L430.635 45.8947C430.694 45.9505 386.123 45.5647 370.14 43.6429Z" fill="#5EA49B"/>
<path d="M432.939 46.2842L445.092 46.652L444.579 84.8963L454.567 83.7732L452.669 47.164L467.233 47.6868L464.224 90.3407L456.475 95.2623L456.879 144.45C435.43 141.718 407.32 138.446 407.32 138.446L406.656 126.456L442.732 129.881L443.808 94.9685L434.756 93.0593L432.939 46.2842Z" fill="#5EA49B"/>
<path d="M39.1054 54.8814C47.1585 54.1657 55.2707 53.5059 63.4419 52.902C66.7019 74.5697 69.9419 95.6028 73.1637 116.059C71.4889 113.802 69.8123 111.487 68.1339 109.115C65.4965 112.663 62.9182 116.266 60.3435 119.985C62.5405 122.457 64.6785 124.873 66.8718 127.229C60.3963 128.935 53.869 130.815 47.458 132.749C44.5984 107.431 41.8333 81.4743 39.1054 54.8814ZM22.6265 37.2104C27.6433 78.2834 32.5639 116.299 37.468 153.795C51.845 148.376 66.4171 143.701 81.0647 139.602C84.7213 142.951 88.4296 146.126 92.0788 149.245C94.9105 144.594 97.6887 140.06 100.529 135.697C95.6105 132.272 90.7415 128.614 85.8689 124.84C81.3545 97.8996 72.3049 41.5354 72.3049 41.5354C72.3049 41.5354 39.0079 39.0619 22.6265 37.2104Z" fill="url(#paint0_linear_20_1376)"/>
<path d="M106.359 108.026C106.359 108.026 96.8433 109.596 96.8451 109.654C95.3345 96.2463 91.7856 69.044 91.7856 69.044L80.3993 69.4027L88.7787 122.67L120.81 119.524L109.523 64.8472L97.2348 63.8484L106.359 108.026Z" fill="url(#paint1_linear_20_1376)"/>
<path d="M136.774 77.2127C136.933 80.4414 137.176 86.3239 137.176 86.3239L127.309 89.4644C127.309 89.4644 124.679 76.9008 124.851 76.8953L136.774 77.2127ZM112.109 65.1123C115.778 83.4178 123.092 119.221 123.092 119.221L134.63 118.222L130.082 99.3094L137.558 96.6485L139.234 122.582L150.118 120.795L144.88 67.2559L112.109 65.1123Z" fill="url(#paint2_linear_20_1376)"/>
<path d="M147.491 61.0522C149.162 79.5362 152.56 116.502 152.56 116.502L166.149 115.15L160.82 78.707L170.333 80.7171L171.34 112.677L183.447 111.545L180.589 69.9418L161.41 68.3518L159.51 62.5792L147.491 61.0522Z" fill="url(#paint3_linear_20_1376)"/>
<path d="M182.003 47.5494C170.53 46.987 157.389 46.1883 146.528 45.0291L146.917 57.3746C158.241 58.6924 171.788 59.6515 183.726 60.4304L187.949 127.225L204.937 126.517L194.977 61.2308L226.229 62.4405L225.838 50.0374L193.016 48.0687L192.333 42.7775L181.431 42.1393L182.003 47.5494Z" fill="url(#paint4_linear_20_1376)"/>
<path d="M223.087 102.673C222.515 102.691 213.78 103.602 213.78 103.602C212.398 92.4425 209.662 71.0471 209.662 71.0471L198.979 70.1132C201.431 84.2993 205.854 113.784 205.854 113.784L237.587 113.881L227.294 67.1422L214.446 66.5653L223.087 102.673Z" fill="url(#paint5_linear_20_1376)"/>
<path d="M244.239 65.0493L229.975 64.979L241.061 113.252L252.231 113.305C252.231 113.305 246.984 86.7333 244.408 74.0525L247.095 73.91C249.018 82.2227 253.498 99.0013 253.498 99.0013L259.968 98.9129C259.012 90.3966 258.056 81.8802 257.044 73.3656L259.617 73.2268C262.259 86.1943 267.465 113.287 267.465 113.287L279.265 113.319L267.557 61.6583L255.814 63.4142L254.5 50.8091L240.104 50.1655L244.239 65.0493Z" fill="url(#paint6_linear_20_1376)"/>
<path d="M285.693 113.752L297.046 114.145L293.385 96.1277L304.47 93.4686L302.901 81.8532L291.472 86.3133L287.858 67.9483L303.009 65.2766L301.777 55.2675L274.283 60.6379L285.693 113.752Z" fill="url(#paint7_linear_20_1376)"/>
<path d="M311.214 114.853L323.268 115.686L318.982 86.8904L324.905 89.4756L329.811 116.115L341.584 117.13L334.757 85.8736L328.279 82.0355L335.148 76.4487L331.724 49.5889L304.166 54.7304L311.214 114.853ZM322.468 75.751L317.259 74.0095L315.588 62.8015L324.24 61.0853L326.235 71.7055L322.468 75.751Z" fill="url(#paint8_linear_20_1376)"/>
<path d="M366.48 43.8162L335.661 49.1182L340.018 74.6781L337.459 75.2784L339.364 86.6522L341.59 86.4089L345.944 117.339C352.424 117.597 368.913 119.214 368.913 119.214L368.282 106.472L355.592 107.276L352.264 85.2641L363.393 83.9896L363.298 70.0756L349.417 73.0538L346.879 57.9465L366.664 55.1287L366.48 43.8162Z" fill="url(#paint9_linear_20_1376)"/>
<path d="M370.257 60.0972L372.478 119.679L386.662 120.849C386.662 120.849 382.909 90.8239 381.089 76.6756C384.201 77.2705 387.371 77.9213 390.484 78.574C390.491 91.509 390.555 104.442 390.56 117.319L401.932 118.347C401.827 100.449 401.143 84.1861 401.031 66.1149C394.424 65.4569 399.038 66.4665 384.513 65.3649L384.017 60.5299L370.257 60.0972Z" fill="url(#paint10_linear_20_1376)"/>
<path d="M369.568 43.6609L369.806 54.8563L416.173 55.8785L405.511 115.578L405.836 122.266L438.795 124.924L439.49 108.79L417.962 110.855L430.063 45.9127C430.122 45.9686 385.551 45.5827 369.568 43.6609Z" fill="url(#paint11_linear_20_1376)"/>
<path d="M432.366 46.3022L444.52 46.67L444.007 84.9144L453.994 83.7912L452.096 47.182L466.66 47.7049L463.651 90.3588L455.903 95.2804L456.307 144.468C434.858 141.736 406.747 138.464 406.747 138.464L406.083 126.474L442.159 129.899L443.236 94.9865L434.184 93.0774L432.366 46.3022Z" fill="url(#paint12_linear_20_1376)"/>
<defs>
<linearGradient id="paint0_linear_20_1376" x1="29.7456" y1="34.3404" x2="78.3063" y2="154.797" gradientUnits="userSpaceOnUse">
<stop stop-color="#2480FF"/>
<stop offset="0.274" stop-color="#6A53D7"/>
<stop offset="0.5202" stop-color="#A12FB8"/>
<stop offset="0.7309" stop-color="#C916A1"/>
<stop offset="0.8978" stop-color="#E10693"/>
<stop offset="1" stop-color="#EA008E"/>
</linearGradient>
<linearGradient id="paint1_linear_20_1376" x1="90.7738" y1="65.8141" x2="108.276" y2="123.338" gradientUnits="userSpaceOnUse">
<stop stop-color="#2480FF"/>
<stop offset="0.274" stop-color="#6A53D7"/>
<stop offset="0.5202" stop-color="#A12FB8"/>
<stop offset="0.7309" stop-color="#C916A1"/>
<stop offset="0.8978" stop-color="#E10693"/>
<stop offset="1" stop-color="#EA008E"/>
</linearGradient>
<linearGradient id="paint2_linear_20_1376" x1="124.43" y1="61.3634" x2="143.157" y2="122.913" gradientUnits="userSpaceOnUse">
<stop stop-color="#2480FF"/>
<stop offset="0.274" stop-color="#6A53D7"/>
<stop offset="0.5202" stop-color="#A12FB8"/>
<stop offset="0.7309" stop-color="#C916A1"/>
<stop offset="0.8978" stop-color="#E10693"/>
<stop offset="1" stop-color="#EA008E"/>
</linearGradient>
<linearGradient id="paint3_linear_20_1376" x1="152.932" y1="58.8588" x2="175.468" y2="114.761" gradientUnits="userSpaceOnUse">
<stop stop-color="#2480FF"/>
<stop offset="0.274" stop-color="#6A53D7"/>
<stop offset="0.5202" stop-color="#A12FB8"/>
<stop offset="0.7309" stop-color="#C916A1"/>
<stop offset="0.8978" stop-color="#E10693"/>
<stop offset="1" stop-color="#EA008E"/>
</linearGradient>
<linearGradient id="paint4_linear_20_1376" x1="186.009" y1="41.9951" x2="188.693" y2="127.202" gradientUnits="userSpaceOnUse">
<stop stop-color="#2480FF"/>
<stop offset="0.274" stop-color="#6A53D7"/>
<stop offset="0.5202" stop-color="#A12FB8"/>
<stop offset="0.7309" stop-color="#C916A1"/>
<stop offset="0.8978" stop-color="#E10693"/>
<stop offset="1" stop-color="#EA008E"/>
</linearGradient>
<linearGradient id="paint5_linear_20_1376" x1="207.182" y1="66.8065" x2="227.757" y2="117.844" gradientUnits="userSpaceOnUse">
<stop stop-color="#2480FF"/>
<stop offset="0.274" stop-color="#6A53D7"/>
<stop offset="0.5202" stop-color="#A12FB8"/>
<stop offset="0.7309" stop-color="#C916A1"/>
<stop offset="0.8978" stop-color="#E10693"/>
<stop offset="1" stop-color="#EA008E"/>
</linearGradient>
<linearGradient id="paint6_linear_20_1376" x1="239.587" y1="50.374" x2="266.962" y2="118.279" gradientUnits="userSpaceOnUse">
<stop stop-color="#2480FF"/>
<stop offset="0.274" stop-color="#6A53D7"/>
<stop offset="0.5202" stop-color="#A12FB8"/>
<stop offset="0.7309" stop-color="#C916A1"/>
<stop offset="0.8978" stop-color="#E10693"/>
<stop offset="1" stop-color="#EA008E"/>
</linearGradient>
<linearGradient id="paint7_linear_20_1376" x1="282.87" y1="57.1679" x2="304.612" y2="111.101" gradientUnits="userSpaceOnUse">
<stop stop-color="#00FFFF"/>
<stop offset="0.29" stop-color="#25D4FF"/>
<stop offset="0.6" stop-color="#46ACFF"/>
<stop offset="0.85" stop-color="#5A94FF"/>
<stop offset="1" stop-color="#628BFF"/>
</linearGradient>
<linearGradient id="paint8_linear_20_1376" x1="309.633" y1="52.5105" x2="336.493" y2="119.136" gradientUnits="userSpaceOnUse">
<stop stop-color="#00FFFF"/>
<stop offset="0.29" stop-color="#25D4FF"/>
<stop offset="0.6" stop-color="#46ACFF"/>
<stop offset="0.85" stop-color="#5A94FF"/>
<stop offset="1" stop-color="#628BFF"/>
</linearGradient>
<linearGradient id="paint9_linear_20_1376" x1="342.595" y1="46.3317" x2="371.551" y2="118.157" gradientUnits="userSpaceOnUse">
<stop stop-color="#00FFFF"/>
<stop offset="0.29" stop-color="#25D4FF"/>
<stop offset="0.6" stop-color="#46ACFF"/>
<stop offset="0.85" stop-color="#5A94FF"/>
<stop offset="1" stop-color="#628BFF"/>
</linearGradient>
<linearGradient id="paint10_linear_20_1376" x1="373.257" y1="58.8877" x2="397.885" y2="119.979" gradientUnits="userSpaceOnUse">
<stop stop-color="#00FFFF"/>
<stop offset="0.29" stop-color="#25D4FF"/>
<stop offset="0.6" stop-color="#46ACFF"/>
<stop offset="0.85" stop-color="#5A94FF"/>
<stop offset="1" stop-color="#628BFF"/>
</linearGradient>
<linearGradient id="paint11_linear_20_1376" x1="393.475" y1="34.0324" x2="431.344" y2="127.968" gradientUnits="userSpaceOnUse">
<stop stop-color="#00FFFF"/>
<stop offset="0.29" stop-color="#25D4FF"/>
<stop offset="0.6" stop-color="#46ACFF"/>
<stop offset="0.85" stop-color="#5A94FF"/>
<stop offset="1" stop-color="#628BFF"/>
</linearGradient>
<linearGradient id="paint12_linear_20_1376" x1="414.712" y1="57.3373" x2="465.56" y2="138.684" gradientUnits="userSpaceOnUse">
<stop stop-color="#00FFFF"/>
<stop offset="0.0850831" stop-color="#04FAFF"/>
<stop offset="0.1803" stop-color="#10EDFF"/>
<stop offset="0.2801" stop-color="#23D7FF"/>
<stop offset="0.29" stop-color="#25D4FF"/>
<stop offset="0.6" stop-color="#46ACFF"/>
<stop offset="0.85" stop-color="#5A94FF"/>
<stop offset="1" stop-color="#628BFF"/>
</linearGradient>
</defs>
</svg>
