<svg width="40" height="94" viewBox="0 0 40 94" fill="none" xmlns="http://www.w3.org/2000/svg">
<path opacity="0.77" d="M19.8319 67.3347H19.1883C18.9543 51.9992 18.7203 36.6637 18.4863 21.2721C18.4863 14.475 18.4863 7.73418 18.4863 0.937134C18.8958 23.1258 19.3638 45.2022 19.8319 67.3347Z" fill="#828282"/>
<path fill-rule="evenodd" clip-rule="evenodd" d="M32.468 76.4349C32.468 76.4349 32.468 76.3225 32.351 76.154C32.2925 76.0416 32.234 75.9293 32.117 75.8731C31.883 75.7046 31.7075 75.7046 31.532 75.6484C30.8885 75.4799 30.245 75.3676 29.66 75.199C28.4314 74.9182 27.3199 74.6373 26.3254 74.4126C25.6234 74.2441 25.0384 74.0756 24.5119 73.9632C24.9214 73.8509 25.3894 73.6823 25.9744 73.5138C26.9689 73.233 28.0804 72.8959 29.2505 72.5027C29.8355 72.3342 30.479 72.1095 31.1225 71.941C31.298 71.8848 31.415 71.8848 31.4735 71.8848C31.532 71.8848 31.532 71.8848 31.5905 71.941C31.649 71.941 31.7075 71.9971 31.7075 72.0533C31.9415 72.278 32.1755 72.5027 32.4095 72.7274C36.0951 76.4349 39.8391 80.1985 39.8391 80.1985C39.8391 80.1985 36.3291 76.2102 32.8775 72.2218C32.6435 71.9971 32.468 71.7163 32.234 71.4916C32.1755 71.4354 32.117 71.3792 32 71.2669C31.9415 71.2107 31.766 71.1545 31.649 71.0983C31.3565 71.0422 31.181 71.0983 31.0055 71.1545C30.362 71.323 29.7185 71.4354 29.1335 71.6039C27.9049 71.8848 26.7934 72.1656 25.7989 72.3903C25.3309 72.5027 24.9214 72.615 24.5704 72.6712C24.9799 72.3342 25.3894 71.9971 25.7989 71.5477C26.7349 70.5928 27.7294 69.357 28.4314 67.8403C28.7824 67.11 29.075 66.3236 29.3675 65.5371C29.6015 64.7507 29.8355 63.9081 29.9525 63.0655C30.5375 59.695 30.128 56.2684 29.3675 53.7968C29.0164 52.561 28.5484 51.606 28.1974 50.9881C28.0219 50.651 27.8464 50.4264 27.7294 50.2578C27.6124 50.0893 27.5539 49.977 27.5539 49.977C27.5539 49.977 27.6124 50.0893 27.7294 50.2578C27.8464 50.4264 27.9634 50.7072 28.1389 50.9881C28.4899 51.6622 28.841 52.6171 29.1335 53.853C29.7185 56.2684 29.9525 59.695 29.192 62.897C29.0165 63.6834 28.7824 64.4698 28.4899 65.2563C28.1974 65.9865 27.8464 66.7168 27.4954 67.3909C26.7349 68.739 25.7989 69.8064 24.8629 70.649C24.5704 70.8737 24.3364 71.0983 24.0439 71.323C25.9744 68.6267 25.9159 65.3124 24.1024 63.2902C22.4058 61.3803 19.8318 61.3241 19.5978 61.3241C19.4223 61.3241 16.3803 61.3803 14.6837 63.7396C13.2212 65.7618 13.3382 68.6829 15.0347 70.8175C14.9762 70.7613 14.9177 70.7051 14.8007 70.649C13.9232 69.8064 12.9287 68.739 12.1682 67.3909C11.7587 66.7168 11.4662 65.9865 11.1737 65.2563C10.8812 64.526 10.6472 63.7396 10.4717 62.897C9.71115 59.695 9.94515 56.2684 10.5302 53.853C10.8227 52.6171 11.2322 51.6622 11.5247 50.9881C11.7002 50.651 11.8172 50.4264 11.9342 50.2578C12.0512 50.0893 12.1097 49.977 12.1097 49.977C12.1097 49.977 12.0512 50.0893 11.9342 50.2578C11.8172 50.4264 11.6417 50.651 11.4662 50.9881C11.1152 51.6622 10.6472 52.6171 10.2962 53.7968C9.53565 56.2123 9.12614 59.6389 9.71115 63.0655C9.82815 63.9081 10.0622 64.7507 10.2962 65.5371C10.5887 66.3236 10.8812 67.11 11.2322 67.8403C11.9342 69.3008 12.9287 70.5366 13.8647 71.5477C14.2742 71.9971 14.6837 72.3342 15.0932 72.6712C14.7422 72.5589 14.3327 72.5027 13.8647 72.3903C12.8702 72.1656 11.7587 71.8848 10.5302 71.6039C9.94515 71.4354 9.30165 71.323 8.65814 71.1545C8.48263 71.0983 8.30713 71.0422 8.01462 71.0983C7.89762 71.0983 7.78062 71.2107 7.66362 71.2669C7.54662 71.323 7.48811 71.3792 7.42961 71.4916C7.19561 71.7163 7.02011 71.9971 6.7861 72.2218C3.51005 76.2102 0 80.1985 0 80.1985C0 80.1985 3.68556 76.491 7.42961 72.7274C7.66362 72.5027 7.89762 72.278 8.13163 72.0533C8.19013 71.9971 8.24863 71.941 8.24863 71.941C8.30713 71.941 8.30713 71.8848 8.36563 71.8848C8.42413 71.8848 8.54113 71.8848 8.71664 71.941C9.36015 72.1095 10.0037 72.3342 10.5887 72.5027C11.8172 72.8959 12.9287 73.233 13.8647 73.5138C14.3912 73.6823 14.8592 73.8509 15.3272 73.9632C14.8007 74.0756 14.2157 74.2441 13.5137 74.4126C12.5192 74.6373 11.4077 74.9182 10.1792 75.199C9.59415 75.3676 8.95064 75.4799 8.30713 75.6484C8.13162 75.7046 7.95612 75.7046 7.72212 75.8731C7.60512 75.9293 7.54662 76.0416 7.48812 76.154C7.42962 76.2663 7.42961 76.3225 7.37111 76.4349C7.31261 76.7719 7.25411 77.0528 7.13711 77.3898C6.02559 82.5017 4.91408 87.5573 4.91408 87.5573C4.91408 87.5573 6.3181 82.614 7.78062 77.6145C7.89762 77.2775 7.95613 76.9966 8.07313 76.6596C8.07313 76.6034 8.13163 76.5472 8.13163 76.491C8.13163 76.4349 8.19013 76.4349 8.19013 76.4349C8.24863 76.3787 8.36563 76.3787 8.54113 76.3225C9.18464 76.2102 9.82815 76.0978 10.4717 75.9855C11.7002 75.7608 12.8702 75.5361 13.8647 75.3676C14.3912 75.2552 14.8592 75.199 15.2687 75.0867C15.0932 75.2552 14.9177 75.4799 14.7422 75.6484C13.9817 76.4349 13.1627 77.2775 12.2267 78.2886C11.7587 78.7942 11.3492 79.3559 10.9982 80.03C10.6472 80.6479 10.3547 81.322 10.1792 82.0523C9.76965 83.4566 9.71115 84.861 9.82815 86.2091C9.94516 87.5011 10.1792 88.737 10.4717 89.7481C10.7057 90.7592 10.9982 91.6018 11.1737 92.1636C11.3492 92.7253 11.4662 93.0623 11.4662 93.0623C11.4662 93.0623 11.4077 92.7253 11.2322 92.1074C11.1152 91.4895 10.8812 90.6469 10.7057 89.6357C10.5302 88.6246 10.3547 87.445 10.3547 86.153C10.3547 84.861 10.5302 83.5128 10.9982 82.277C11.2322 81.659 11.5247 81.0411 11.8757 80.4794C12.2267 79.9177 12.6362 79.4683 13.1042 79.0189C14.0402 78.1201 14.9762 77.2775 15.7367 76.6034C16.2048 76.154 16.6143 75.817 16.9653 75.4799C17.0238 75.7608 17.1408 76.2102 17.4918 76.7157C17.6088 76.8843 18.6618 78.2886 20.3583 78.1763C20.4753 78.1763 21.8793 78.0639 22.6399 76.8843C22.9909 76.3787 23.0494 75.9293 23.0494 75.6484C23.4004 75.9293 23.7514 76.2663 24.1609 76.6596C24.9214 77.3898 25.9159 78.2324 26.7934 79.075C27.2614 79.5244 27.6709 80.03 28.0219 80.5356C28.3729 81.0973 28.6654 81.7152 28.8995 82.3331C29.3675 83.569 29.543 84.9733 29.543 86.2091C29.543 87.5011 29.3675 88.6808 29.192 89.6919C29.0165 90.703 28.7824 91.5456 28.6654 92.1636C28.5484 92.7815 28.4314 93.1185 28.4314 93.1185C28.4314 93.1185 28.5484 92.7815 28.7239 92.2197C28.8994 91.658 29.192 90.8154 29.426 89.8043C29.66 88.7931 29.9525 87.6135 30.0695 86.2653C30.1865 84.9733 30.0695 83.5128 29.7185 82.1084C29.543 81.4343 29.2505 80.7041 28.8995 80.0862C28.5484 79.4683 28.0804 78.8503 27.6709 78.3448C26.7349 77.3337 25.9159 76.491 25.1554 75.7046C24.9799 75.5361 24.8044 75.3114 24.6289 75.1429C25.0384 75.199 25.5064 75.3114 26.0329 75.4237C27.0274 75.5923 28.1974 75.817 29.426 76.0416C30.0695 76.154 30.713 76.2663 31.3565 76.3787C31.532 76.3787 31.649 76.4349 31.7075 76.491C31.766 76.491 31.766 76.5472 31.766 76.5472C31.766 76.6034 31.8245 76.6596 31.8245 76.7157C31.9415 76.9966 32 77.3337 32.117 77.6707C33.521 82.614 34.9835 87.6135 34.9835 87.6135C33.521 81.2097 32.5265 76.7157 32.468 76.4349Z" fill="#4E1A6C"/>
<path d="M18.0767 67.0538C18.0182 66.3236 18.4862 65.5933 19.3052 65.4248C20.1827 65.2563 21.0017 65.818 21.2357 66.5483C21.5282 67.447 20.8847 68.5143 19.8902 68.6267C19.0127 68.6829 18.1352 67.8964 18.0767 67.0538Z" fill="#F14678"/>
<path d="M17.2578 77.1089C17.2578 76.8842 17.4333 76.6034 17.6673 76.5472C17.9598 76.491 18.2523 76.6595 18.3108 76.9404C18.4278 77.2775 18.1938 77.6145 17.8428 77.6707C17.6088 77.6707 17.3163 77.3898 17.2578 77.1089Z" fill="#F7D583"/>
<path d="M21.8208 76.7157C21.8208 76.491 21.9963 76.2102 22.2303 76.154C22.5228 76.0978 22.8153 76.2663 22.8738 76.5472C22.9908 76.8842 22.7568 77.2213 22.4058 77.2775C22.1133 77.3336 21.8208 77.0528 21.8208 76.7157Z" fill="#F7D583"/>
</svg>
