<svg width="153" height="246" viewBox="0 0 153 246" fill="none" xmlns="http://www.w3.org/2000/svg">
<path opacity="0.77" d="M33.9 118.2H32.8C32.4 90.9 32 63.6 31.6 36.2C31.6 24.1 31.6 12.1 31.6 0C32.3 39.5 33.1 78.8 33.9 118.2Z" fill="#828282"/>
<path fill-rule="evenodd" clip-rule="evenodd" d="M55.5 134.4C55.5 134.4 55.5 134.2 55.3 133.9C55.2 133.7 55.1 133.5 54.9 133.4C54.5 133.1 54.2 133.1 53.9 133C52.8 132.7 51.7 132.5 50.7 132.2C48.6 131.7 46.7 131.2 45 130.8C43.8 130.5 42.8 130.2 41.9 130C42.6 129.8 43.4 129.5 44.4 129.2C46.1 128.7 48 128.1 50 127.4C51 127.1 52.1 126.7 53.2 126.4C53.5 126.3 53.7 126.3 53.8 126.3C53.9 126.3 53.9 126.3 54 126.4C54.1 126.4 54.2 126.5 54.2 126.6C54.6 127 55 127.4 55.4 127.8C61.7 134.4 68.1 141.1 68.1 141.1C68.1 141.1 62.1 134 56.2 126.9C55.8 126.5 55.5 126 55.1 125.6C55 125.5 54.9 125.4 54.7 125.2C54.6 125.1 54.3 125 54.1 124.9C53.6 124.8 53.3 124.9 53 125C51.9 125.3 50.8 125.5 49.8 125.8C47.7 126.3 45.8 126.8 44.1 127.2C43.3 127.4 42.6 127.6 42 127.7C42.7 127.1 43.4 126.5 44.1 125.7C45.7 124 47.4 121.8 48.6 119.1C49.2 117.8 49.7 116.4 50.2 115C50.6 113.6 51 112.1 51.2 110.6C52.2 104.6 51.5 98.5 50.2 94.1C49.6 91.9 48.8 90.2 48.2 89.1C47.9 88.5 47.6 88.1 47.4 87.8C47.2 87.5 47.1 87.3 47.1 87.3C47.1 87.3 47.2 87.5 47.4 87.8C47.6 88.1 47.8 88.6 48.1 89.1C48.7 90.3 49.3 92 49.8 94.2C50.8 98.5 51.2 104.6 49.9 110.3C49.6 111.7 49.2 113.1 48.7 114.5C48.2 115.8 47.6 117.1 47 118.3C45.7 120.7 44.1 122.6 42.5 124.1C42 124.5 41.6 124.9 41.1 125.3C44.4 120.5 44.3 114.6 41.2 111C38.3 107.6 33.9 107.5 33.5 107.5C33.2 107.5 28 107.6 25.1 111.8C22.6 115.4 22.8 120.6 25.7 124.4C25.6 124.3 25.5 124.2 25.3 124.1C23.8 122.6 22.1 120.7 20.8 118.3C20.1 117.1 19.6 115.8 19.1 114.5C18.6 113.2 18.2 111.8 17.9 110.3C16.6 104.6 17 98.5 18 94.2C18.5 92 19.2 90.3 19.7 89.1C20 88.5 20.2 88.1 20.4 87.8C20.6 87.5 20.7 87.3 20.7 87.3C20.7 87.3 20.6 87.5 20.4 87.8C20.2 88.1 19.9 88.5 19.6 89.1C19 90.3 18.2 92 17.6 94.1C16.3 98.4 15.6 104.5 16.6 110.6C16.8 112.1 17.2 113.6 17.6 115C18.1 116.4 18.6 117.8 19.2 119.1C20.4 121.7 22.1 123.9 23.7 125.7C24.4 126.5 25.1 127.1 25.8 127.7C25.2 127.5 24.5 127.4 23.7 127.2C22 126.8 20.1 126.3 18 125.8C17 125.5 15.9 125.3 14.8 125C14.5 124.9 14.2 124.8 13.7 124.9C13.5 124.9 13.3 125.1 13.1 125.2C12.9 125.3 12.8 125.4 12.7 125.6C12.3 126 12 126.5 11.6 126.9C6 134 0 141.1 0 141.1C0 141.1 6.3 134.5 12.7 127.8C13.1 127.4 13.5 127 13.9 126.6C14 126.5 14.1 126.4 14.1 126.4C14.2 126.4 14.2 126.3 14.3 126.3C14.4 126.3 14.6 126.3 14.9 126.4C16 126.7 17.1 127.1 18.1 127.4C20.2 128.1 22.1 128.7 23.7 129.2C24.6 129.5 25.4 129.8 26.2 130C25.3 130.2 24.3 130.5 23.1 130.8C21.4 131.2 19.5 131.7 17.4 132.2C16.4 132.5 15.3 132.7 14.2 133C13.9 133.1 13.6 133.1 13.2 133.4C13 133.5 12.9 133.7 12.8 133.9C12.7 134.1 12.7 134.2 12.6 134.4C12.5 135 12.4 135.5 12.2 136.1C10.3 145.2 8.4 154.2 8.4 154.2C8.4 154.2 10.8 145.4 13.3 136.5C13.5 135.9 13.6 135.4 13.8 134.8C13.8 134.7 13.9 134.6 13.9 134.5C13.9 134.4 14 134.4 14 134.4C14.1 134.3 14.3 134.3 14.6 134.2C15.7 134 16.8 133.8 17.9 133.6C20 133.2 22 132.8 23.7 132.5C24.6 132.3 25.4 132.2 26.1 132C25.8 132.3 25.5 132.7 25.2 133C23.9 134.4 22.5 135.9 20.9 137.7C20.1 138.6 19.4 139.6 18.8 140.8C18.2 141.9 17.7 143.1 17.4 144.4C16.7 146.9 16.6 149.4 16.8 151.8C17 154.1 17.4 156.3 17.9 158.1C18.3 159.9 18.8 161.4 19.1 162.4C19.4 163.4 19.6 164 19.6 164C19.6 164 19.5 163.4 19.2 162.3C19 161.2 18.6 159.7 18.3 157.9C18 156.1 17.7 154 17.7 151.7C17.7 149.4 18 147 18.8 144.8C19.2 143.7 19.7 142.6 20.3 141.6C20.9 140.6 21.6 139.8 22.4 139C24 137.4 25.6 135.9 26.9 134.7C27.7 133.9 28.4 133.3 29 132.7C29.1 133.2 29.3 134 29.9 134.9C30.1 135.2 31.9 137.7 34.8 137.5C35 137.5 37.4 137.3 38.7 135.2C39.3 134.3 39.4 133.5 39.4 133C40 133.5 40.6 134.1 41.3 134.8C42.6 136.1 44.3 137.6 45.8 139.1C46.6 139.9 47.3 140.8 47.9 141.7C48.5 142.7 49 143.8 49.4 144.9C50.2 147.1 50.5 149.6 50.5 151.8C50.5 154.1 50.2 156.2 49.9 158C49.6 159.8 49.2 161.3 49 162.4C48.8 163.5 48.6 164.1 48.6 164.1C48.6 164.1 48.8 163.5 49.1 162.5C49.4 161.5 49.9 160 50.3 158.2C50.7 156.4 51.2 154.3 51.4 151.9C51.6 149.6 51.4 147 50.8 144.5C50.5 143.3 50 142 49.4 140.9C48.8 139.8 48 138.7 47.3 137.8C45.7 136 44.3 134.5 43 133.1C42.7 132.8 42.4 132.4 42.1 132.1C42.8 132.2 43.6 132.4 44.5 132.6C46.2 132.9 48.2 133.3 50.3 133.7C51.4 133.9 52.5 134.1 53.6 134.3C53.9 134.3 54.1 134.4 54.2 134.5C54.3 134.5 54.3 134.6 54.3 134.6C54.3 134.7 54.4 134.8 54.4 134.9C54.6 135.4 54.7 136 54.9 136.6C57.3 145.4 59.8 154.3 59.8 154.3C57.3 142.9 55.6 134.9 55.5 134.4Z" fill="#4E1A6C"/>
<path d="M30.9 117.7C30.8 116.4 31.6 115.1 33 114.8C34.5 114.5 35.9 115.5 36.3 116.8C36.8 118.4 35.7 120.3 34 120.5C32.5 120.6 31 119.2 30.9 117.7Z" fill="#F14678"/>
<path d="M29.5 135.6C29.5 135.2 29.8 134.7 30.2 134.6C30.7 134.5 31.2 134.8 31.3 135.3C31.5 135.9 31.1 136.5 30.5 136.6C30.1 136.6 29.6 136.1 29.5 135.6Z" fill="#F7D583"/>
<path d="M37.3 134.9C37.3 134.5 37.6 134 38 133.9C38.5 133.8 39 134.1 39.1 134.6C39.3 135.2 38.9 135.8 38.3 135.9C37.8 136 37.3 135.5 37.3 134.9Z" fill="#F7D583"/>
<path opacity="0.77" d="M117.9 199.2H116.8C116.4 153.192 116 107.184 115.6 61.0071C115.6 40.6152 115.6 20.3919 115.6 0C116.3 66.5685 117.1 132.8 117.9 199.2Z" fill="#828282"/>
<path fill-rule="evenodd" clip-rule="evenodd" d="M139.5 215.4C139.5 215.4 139.5 215.2 139.3 214.9C139.2 214.7 139.1 214.5 138.9 214.4C138.5 214.1 138.2 214.1 137.9 214C136.8 213.7 135.7 213.5 134.7 213.2C132.6 212.7 130.7 212.2 129 211.8C127.8 211.5 126.8 211.2 125.9 211C126.6 210.8 127.4 210.5 128.4 210.2C130.1 209.7 132 209.1 134 208.4C135 208.1 136.1 207.7 137.2 207.4C137.5 207.3 137.7 207.3 137.8 207.3C137.9 207.3 137.9 207.3 138 207.4C138.1 207.4 138.2 207.5 138.2 207.6C138.6 208 139 208.4 139.4 208.8C145.7 215.4 152.1 222.1 152.1 222.1C152.1 222.1 146.1 215 140.2 207.9C139.8 207.5 139.5 207 139.1 206.6C139 206.5 138.9 206.4 138.7 206.2C138.6 206.1 138.3 206 138.1 205.9C137.6 205.8 137.3 205.9 137 206C135.9 206.3 134.8 206.5 133.8 206.8C131.7 207.3 129.8 207.8 128.1 208.2C127.3 208.4 126.6 208.6 126 208.7C126.7 208.1 127.4 207.5 128.1 206.7C129.7 205 131.4 202.8 132.6 200.1C133.2 198.8 133.7 197.4 134.2 196C134.6 194.6 135 193.1 135.2 191.6C136.2 185.6 135.5 179.5 134.2 175.1C133.6 172.9 132.8 171.2 132.2 170.1C131.9 169.5 131.6 169.1 131.4 168.8C131.2 168.5 131.1 168.3 131.1 168.3C131.1 168.3 131.2 168.5 131.4 168.8C131.6 169.1 131.8 169.6 132.1 170.1C132.7 171.3 133.3 173 133.8 175.2C134.8 179.5 135.2 185.6 133.9 191.3C133.6 192.7 133.2 194.1 132.7 195.5C132.2 196.8 131.6 198.1 131 199.3C129.7 201.7 128.1 203.6 126.5 205.1C126 205.5 125.6 205.9 125.1 206.3C128.4 201.5 128.3 195.6 125.2 192C122.3 188.6 117.9 188.5 117.5 188.5C117.2 188.5 112 188.6 109.1 192.8C106.6 196.4 106.8 201.6 109.7 205.4C109.6 205.3 109.5 205.2 109.3 205.1C107.8 203.6 106.1 201.7 104.8 199.3C104.1 198.1 103.6 196.8 103.1 195.5C102.6 194.2 102.2 192.8 101.9 191.3C100.6 185.6 101 179.5 102 175.2C102.5 173 103.2 171.3 103.7 170.1C104 169.5 104.2 169.1 104.4 168.8C104.6 168.5 104.7 168.3 104.7 168.3C104.7 168.3 104.6 168.5 104.4 168.8C104.2 169.1 103.9 169.5 103.6 170.1C103 171.3 102.2 173 101.6 175.1C100.3 179.4 99.6 185.5 100.6 191.6C100.8 193.1 101.2 194.6 101.6 196C102.1 197.4 102.6 198.8 103.2 200.1C104.4 202.7 106.1 204.9 107.7 206.7C108.4 207.5 109.1 208.1 109.8 208.7C109.2 208.5 108.5 208.4 107.7 208.2C106 207.8 104.1 207.3 102 206.8C101 206.5 99.9 206.3 98.8 206C98.5 205.9 98.2 205.8 97.7 205.9C97.5 205.9 97.3 206.1 97.1 206.2C96.9 206.3 96.8 206.4 96.7 206.6C96.3 207 96 207.5 95.6 207.9C90 215 84 222.1 84 222.1C84 222.1 90.3 215.5 96.7 208.8C97.1 208.4 97.5 208 97.9 207.6C98 207.5 98.1 207.4 98.1 207.4C98.2 207.4 98.2 207.3 98.3 207.3C98.4 207.3 98.6 207.3 98.9 207.4C100 207.7 101.1 208.1 102.1 208.4C104.2 209.1 106.1 209.7 107.7 210.2C108.6 210.5 109.4 210.8 110.2 211C109.3 211.2 108.3 211.5 107.1 211.8C105.4 212.2 103.5 212.7 101.4 213.2C100.4 213.5 99.3 213.7 98.2 214C97.9 214.1 97.6 214.1 97.2 214.4C97 214.5 96.9 214.7 96.8 214.9C96.7 215.1 96.7 215.2 96.6 215.4C96.5 216 96.4 216.5 96.2 217.1C94.3 226.2 92.4 235.2 92.4 235.2C92.4 235.2 94.8 226.4 97.3 217.5C97.5 216.9 97.6 216.4 97.8 215.8C97.8 215.7 97.9 215.6 97.9 215.5C97.9 215.4 98 215.4 98 215.4C98.1 215.3 98.3 215.3 98.6 215.2C99.7 215 100.8 214.8 101.9 214.6C104 214.2 106 213.8 107.7 213.5C108.6 213.3 109.4 213.2 110.1 213C109.8 213.3 109.5 213.7 109.2 214C107.9 215.4 106.5 216.9 104.9 218.7C104.1 219.6 103.4 220.6 102.8 221.8C102.2 222.9 101.7 224.1 101.4 225.4C100.7 227.9 100.6 230.4 100.8 232.8C101 235.1 101.4 237.3 101.9 239.1C102.3 240.9 102.8 242.4 103.1 243.4C103.4 244.4 103.6 245 103.6 245C103.6 245 103.5 244.4 103.2 243.3C103 242.2 102.6 240.7 102.3 238.9C102 237.1 101.7 235 101.7 232.7C101.7 230.4 102 228 102.8 225.8C103.2 224.7 103.7 223.6 104.3 222.6C104.9 221.6 105.6 220.8 106.4 220C108 218.4 109.6 216.9 110.9 215.7C111.7 214.9 112.4 214.3 113 213.7C113.1 214.2 113.3 215 113.9 215.9C114.1 216.2 115.9 218.7 118.8 218.5C119 218.5 121.4 218.3 122.7 216.2C123.3 215.3 123.4 214.5 123.4 214C124 214.5 124.6 215.1 125.3 215.8C126.6 217.1 128.3 218.6 129.8 220.1C130.6 220.9 131.3 221.8 131.9 222.7C132.5 223.7 133 224.8 133.4 225.9C134.2 228.1 134.5 230.6 134.5 232.8C134.5 235.1 134.2 237.2 133.9 239C133.6 240.8 133.2 242.3 133 243.4C132.8 244.5 132.6 245.1 132.6 245.1C132.6 245.1 132.8 244.5 133.1 243.5C133.4 242.5 133.9 241 134.3 239.2C134.7 237.4 135.2 235.3 135.4 232.9C135.6 230.6 135.4 228 134.8 225.5C134.5 224.3 134 223 133.4 221.9C132.8 220.8 132 219.7 131.3 218.8C129.7 217 128.3 215.5 127 214.1C126.7 213.8 126.4 213.4 126.1 213.1C126.8 213.2 127.6 213.4 128.5 213.6C130.2 213.9 132.2 214.3 134.3 214.7C135.4 214.9 136.5 215.1 137.6 215.3C137.9 215.3 138.1 215.4 138.2 215.5C138.3 215.5 138.3 215.6 138.3 215.6C138.3 215.7 138.4 215.8 138.4 215.9C138.6 216.4 138.7 217 138.9 217.6C141.3 226.4 143.8 235.3 143.8 235.3C141.3 223.9 139.6 215.9 139.5 215.4Z" fill="#4E1A6C"/>
<path d="M114.9 198.7C114.8 197.4 115.6 196.1 117 195.8C118.5 195.5 119.9 196.5 120.3 197.8C120.8 199.4 119.7 201.3 118 201.5C116.5 201.6 115 200.2 114.9 198.7Z" fill="#F14678"/>
<path d="M113.5 216.6C113.5 216.2 113.8 215.7 114.2 215.6C114.7 215.5 115.2 215.8 115.3 216.3C115.5 216.9 115.1 217.5 114.5 217.6C114.1 217.6 113.6 217.1 113.5 216.6Z" fill="#F7D583"/>
<path d="M121.3 215.9C121.3 215.5 121.6 215 122 214.9C122.5 214.8 123 215.1 123.1 215.6C123.3 216.2 122.9 216.8 122.3 216.9C121.8 217 121.3 216.5 121.3 215.9Z" fill="#F7D583"/>
</svg>
