<svg width="523" height="486" viewBox="0 0 523 486" fill="none" xmlns="http://www.w3.org/2000/svg">
<path opacity="0.5" d="M545.498 14.4018C545.163 14.4018 544.996 14.5692 544.996 14.9042C544.996 10.5501 545.163 6.19612 545.33 1.84209C545.33 1.3397 545.498 0.66985 545.163 0.167463C544.828 -0.167463 544.159 -8.04857e-08 544.159 0.66985C542.485 20.0955 541.983 39.3537 541.648 58.7794C538.635 85.071 532.609 112.87 527.754 139.831C527.085 143.181 526.583 146.53 525.913 149.879C522.398 158.587 518.381 167.295 513.861 175.668C514.363 174.329 514.865 172.989 515.367 171.649C515.535 170.812 515.87 169.807 515.702 169.137C515.535 168.97 515.367 169.137 515.367 169.305C513.024 178.515 507.165 186.553 502.144 194.592C501.307 195.931 500.302 197.438 499.298 198.778C499.131 198.946 498.963 199.113 498.796 199.28C498.628 199.28 498.628 199.28 498.461 199.448C490.594 208.491 482.224 217.199 473.352 225.405C468.163 229.424 462.974 233.108 457.45 236.792C416.774 264.423 372.416 284.854 324.375 295.069C313.494 297.581 302.112 298.921 292.57 300.26C286.544 301.433 280.518 302.772 274.492 304.279C274.325 304.112 274.157 304.112 273.99 304.112C272.818 304.447 271.647 304.782 270.475 305.284C268.299 305.787 266.123 306.289 263.947 306.791C263.779 306.959 263.947 307.461 264.114 307.294L264.281 307.294C240.177 315.165 214.901 324.542 191.299 327.389C180.251 328.896 168.701 329.734 158.156 327.892C157.988 327.724 157.821 327.557 157.486 327.389C157.151 327.222 156.649 327.389 156.314 327.557C155.812 327.557 155.477 327.389 155.143 327.222C145.769 322.7 136.395 318.346 126.686 314.495C126.017 314.327 125.514 313.825 124.845 314.16C124.343 314.495 124.51 315.165 125.012 315.332C135.39 320.021 145.601 324.877 155.812 329.901C157.653 347.317 156.482 364.734 156.649 382.652C156.649 382.819 156.649 382.987 156.816 382.819C156.984 381.982 156.816 381.145 156.984 380.14C157.486 367.58 157.988 354.853 158.658 342.294C158.825 339.447 159.16 334.925 158.993 331.408L158.993 331.241C165.521 334.423 172.049 337.772 178.577 340.954C178.41 341.289 178.41 341.624 178.577 341.959C185.44 353.848 181.925 369.255 176.903 382.819C162.843 420.833 122.501 456.503 85.0058 471.91C71.2798 477.436 57.2189 481.79 42.8233 485.809C41.9864 485.976 41.1494 486.311 40.1451 486.479C39.9777 486.479 39.8103 486.479 39.8103 486.646C30.7712 486.311 21.7321 485.976 12.693 485.641C8.50822 485.641 4.15605 484.972 0.138712 485.307C-0.196066 485.641 0.138712 486.144 0.473489 486.144C13.5299 486.814 26.5865 487.316 39.6429 487.986C39.9777 488.488 40.8147 488.321 41.4842 488.153C58.3907 488.991 75.1297 489.828 92.0362 490.665C92.2036 490.833 92.371 491 92.5384 491C93.208 491 93.8775 490.833 94.5471 490.833C103.251 491.335 111.788 491.838 120.493 492.34C120.66 492.507 120.827 492.675 121.162 492.675C121.832 492.675 122.669 492.507 123.338 492.507C126.853 492.675 130.201 492.842 133.717 493.177C134.219 503.895 133.717 514.613 133.717 525.665C133.717 525.833 133.884 526 134.219 526C134.888 525.33 134.386 523.321 134.553 522.483C134.721 515.115 135.056 506.239 135.893 499.541C136.06 497.531 136.395 495.354 136.562 493.345C172.719 495.522 208.708 497.866 244.697 500.881C276.668 503.727 308.807 505.57 340.779 507.244C396.353 510.593 452.429 512.436 508.002 507.747C516.204 506.909 522.398 506.072 527.085 505.235C529.428 504.565 530.433 504.9 531.772 504.397C532.776 504.397 533.948 504.23 534.952 504.23C537.128 504.397 537.965 503.393 537.463 502.053C537.296 501.383 537.128 500.713 536.961 499.876C537.128 499.206 537.128 498.369 536.961 497.699C536.961 497.531 536.793 497.364 536.793 497.196C536.793 495.857 536.793 494.517 536.793 493.512C536.793 486.981 536.626 480.618 536.626 474.087C536.459 465.044 536.291 456.168 536.124 447.125C536.626 444.278 536.626 441.431 536.124 438.417C536.124 438.25 536.124 438.25 536.124 438.082C536.124 437.747 536.124 437.245 535.957 436.91C535.454 407.771 535.287 378.633 535.287 349.327C535.454 348.155 535.789 346.982 535.789 345.81C535.789 345.643 535.622 345.475 535.454 345.308C535.287 345.308 535.287 345.308 535.287 345.308C535.287 339.447 535.287 333.585 535.287 327.724C535.622 324.877 535.622 322.031 535.287 319.016C535.454 285.859 535.957 252.701 536.793 219.543C536.961 216.697 537.128 213.85 536.961 211.003C537.296 195.931 537.798 180.86 538.3 165.62C539.304 158.922 539.974 152.391 540.643 146.027C543.154 112.535 544.159 79.0423 544.159 45.5498C544.159 43.8752 544.159 42.2006 544.159 40.5259C544.828 31.9854 545.163 23.4448 546 15.0716C546 14.7367 545.665 14.4018 545.498 14.4018ZM501.474 202.295C501.474 201.96 501.641 201.625 501.641 201.29C505.491 195.429 509.174 189.4 512.522 183.037C516.874 174.831 521.059 166.458 524.741 157.917C524.407 159.592 524.239 161.266 523.904 162.774C516.874 180.692 509.174 198.108 499.298 214.687C500.135 210.5 500.804 206.314 501.474 202.295ZM498.628 219.041C508.17 203.635 515.87 187.391 522.733 170.644C522.565 171.649 522.398 172.654 522.231 173.826C515.367 189.735 507.668 205.309 498.628 220.046C498.461 219.543 498.628 219.376 498.628 219.041ZM262.273 377.963C263.779 378.131 265.118 378.298 266.625 378.298C282.862 379.135 299.099 378.633 315.168 376.456C318.516 376.121 322.031 375.451 325.714 374.781C325.546 378.968 325.379 383.154 325.212 387.173C311.318 387.843 295.583 387.173 283.531 386.839C282.527 386.671 283.196 386.839 282.527 386.671L282.36 386.671C282.025 386.671 281.69 386.504 281.355 386.504C280.351 386.001 279.514 385.666 278.51 385.164C278.51 384.996 278.51 384.829 278.342 384.829C278.007 384.494 277.673 384.494 277.338 384.662C276.333 384.159 275.162 383.657 274.157 383.154C270.14 381.647 266.123 379.805 262.273 377.963ZM262.775 407.604C262.942 406.097 263.11 404.422 263.277 402.915C263.612 409.111 263.444 415.475 262.105 421.838C256.414 445.283 241.684 466.551 221.931 479.78C220.425 480.785 218.918 481.622 217.412 482.46C225.112 477.101 232.31 470.737 238.671 464.039C252.397 449.135 261.77 428.537 262.775 407.604ZM317.344 373.944C300.94 375.786 283.029 376.456 267.127 375.116C278.342 374.446 288.386 373.442 300.605 371.265C309.142 369.59 317.679 367.413 326.216 364.734C326.049 367.413 326.049 370.092 325.881 372.772C322.868 373.274 320.19 373.609 317.344 373.944ZM304.12 368.25C290.394 370.26 274.492 371.097 259.594 371.432C256.079 371.265 252.564 371.265 249.049 370.93C248.547 370.93 248.044 370.762 247.375 370.93C245.701 370.092 244.194 369.422 242.521 368.585C242.855 368.753 243.357 368.585 243.86 368.753C247.542 368.753 251.225 368.753 254.907 368.418C271.144 367.245 287.046 364.064 302.781 359.877C310.816 357.533 318.851 355.188 326.885 352.509C326.551 356.193 326.383 359.71 326.216 363.394C319.018 365.403 311.653 367.078 304.12 368.25ZM242.186 368.418C237.666 366.241 233.314 364.231 228.794 362.054C230.971 362.222 233.147 362.222 235.323 362.222C250.221 362.054 265.118 361.552 280.016 359.375C292.905 357.365 305.459 353.346 317.846 349.494C321.027 348.49 324.04 347.485 327.22 346.48C327.053 347.652 327.053 348.825 326.885 349.997C321.194 351.839 315.336 353.681 309.477 355.523C293.575 360.212 275.664 363.896 261.101 365.403C255.41 366.073 249.886 366.576 244.194 366.911C243.357 367.078 242.353 366.576 242.018 367.413C241.851 367.915 242.018 368.25 242.186 368.418ZM222.768 363.226C226.953 365.403 231.305 367.58 235.49 369.757C235.155 370.595 235.658 371.599 235.658 372.102C236.494 379.973 237.331 387.843 236.829 395.714C236.327 424.35 218.751 451.312 196.488 468.225C184.771 476.933 172.216 484.469 158.323 488.321C162.006 486.814 165.521 484.972 168.869 482.962C182.762 474.756 195.819 464.876 205.527 451.981C217.412 435.57 225.781 415.642 226.953 395.212C227.288 384.494 227.623 372.939 222.768 363.226ZM218.918 356.193C237.666 357.198 253.401 354.183 271.814 350.834C291.399 347.317 310.314 340.786 328.559 332.748C328.392 333.753 328.392 334.59 328.225 335.428C328.057 337.772 327.89 340.284 327.555 342.628C313.494 347.15 299.099 351.002 284.87 354.351C268.968 357.365 252.062 358.537 234.486 359.71C231.138 359.877 227.79 360.045 224.275 359.877C224.108 359.877 223.773 359.877 223.605 359.877C220.927 358.537 218.416 357.365 215.738 356.193C217.245 356.025 218.416 356.025 218.918 356.193ZM208.205 352.174C204.69 350.499 201.175 348.825 197.66 347.15L197.492 346.982C197.325 346.982 197.325 346.815 197.158 346.815C196.153 346.313 195.316 345.81 194.312 345.475C212.223 350.499 231.975 349.327 250.388 347.15C256.581 346.48 262.607 345.81 268.633 345.308C273.153 345.308 277.673 344.973 282.025 344.471C279.514 344.973 277.003 345.643 274.325 346.145C255.41 349.829 238.503 351.671 218.751 352.509C215.403 352.509 211.721 352.174 208.205 352.174ZM329.062 326.217C328.894 326.887 328.894 327.724 328.727 328.729C322.031 331.576 315.336 334.255 308.473 336.767C313.996 333.92 319.018 330.571 324.04 326.385C325.881 324.71 327.555 323.203 328.894 321.528C328.894 322.868 328.894 324.04 329.062 326.217ZM326.718 364.566C371.746 350.332 415.937 322.533 450.42 292.725C466.992 277.318 481.555 260.069 494.444 241.649C493.941 247.677 493.439 253.538 493.105 259.567C474.357 285.691 450.755 308.466 424.809 326.72C409.242 337.437 393.34 347.987 376.433 356.36C361.201 363.561 343.29 369.59 326.216 372.604C326.383 369.925 326.551 367.245 326.718 364.566ZM449.416 292.222C436.359 304.112 421.796 314.495 407.066 324.208C381.957 340.284 355.342 355.021 326.718 363.226C326.885 359.542 327.22 356.025 327.388 352.341C346.805 345.978 365.72 338.274 383.631 328.562C428.157 304.28 467.829 269.782 495.615 227.247C495.281 231.266 494.946 235.117 494.611 239.137C481.555 258.395 466.657 276.146 449.416 292.222ZM480.048 246.337C453.433 279.495 418.95 307.629 380.953 327.724C363.879 336.935 346.135 343.801 327.722 349.829C327.89 348.657 327.89 347.485 328.057 346.313C343.457 341.289 358.857 335.428 373.42 328.059C417.779 304.949 459.292 274.304 488.92 233.61C491.431 230.094 493.941 226.409 496.285 222.725C496.285 222.893 496.285 223.228 496.285 223.395C491.263 231.266 485.907 238.969 480.048 246.337ZM497.791 224.232C503.315 215.524 508.337 206.649 512.857 197.438C515.87 191.41 518.548 185.381 521.394 179.185C520.389 186.218 519.385 193.084 518.381 200.118C512.689 211.673 505.826 222.558 498.963 233.443C498.126 234.783 497.122 236.122 496.118 237.629C496.452 232.94 497.122 228.586 497.791 224.232ZM496.62 219.041C493.607 223.73 490.594 228.419 487.246 233.108C457.115 273.466 416.44 303.275 370.909 325.715C357.518 332.078 343.29 337.437 328.559 342.126C328.894 338.777 329.396 335.26 329.898 331.911C334.251 329.901 338.77 327.892 343.122 325.715C366.724 314.327 389.657 301.433 411.418 287.031C444.059 264.926 475.194 238.969 497.959 206.649C497.457 210.835 496.954 215.022 496.62 219.041ZM330.568 327.892C331.07 326.05 331.572 324.375 332.075 322.365C332.075 321.863 332.242 321.528 332.242 321.026C333.246 320.858 334.418 320.691 335.422 320.356C354.17 314.997 371.579 305.619 388.485 296.074C417.109 279.663 443.222 259.567 466.992 236.96C474.189 230.094 481.555 223.06 488.418 215.692C463.811 246.17 431.17 272.629 397.022 293.394C377.94 304.782 358.522 315.332 338.268 324.375C335.59 325.715 333.079 326.887 330.568 327.892ZM478.709 223.06C483.898 218.706 488.752 214.017 493.272 208.993C493.105 209.161 493.105 209.328 492.937 209.328C485.237 218.371 476.198 226.409 467.494 234.615C452.931 248.012 438.368 260.404 422.466 271.457C395.85 290.045 367.394 306.289 337.598 316.672C335.59 317.342 333.581 317.844 331.572 318.179C331.405 318.179 331.405 318.011 331.238 318.011C331.907 317.007 332.409 315.834 332.912 314.495C333.246 312.988 333.246 311.48 332.912 310.141L333.079 310.141C336.929 309.806 341.448 308.801 345.968 307.461C366.724 301.265 386.309 291.552 404.89 280.5C426.65 267.773 446.905 252.366 465.652 235.452C470.005 231.433 474.524 227.247 478.709 223.06ZM346.135 305.284C341.616 306.624 336.929 307.629 332.409 308.801C330.903 305.787 327.555 303.777 323.872 302.437C327.053 302.102 330.066 301.433 333.581 300.763C378.944 291.887 420.792 269.782 456.781 241.146C459.459 238.969 462.137 236.792 464.815 234.448C429.998 265.596 388.82 291.72 346.135 305.284ZM315.001 298.921C366.222 289.543 414.431 267.773 457.283 238.634C457.785 238.299 458.12 238.132 458.622 237.797C422.968 266.768 380.785 288.538 336.427 297.748C330.568 298.921 324.542 300.093 318.683 301.098C318.181 301.098 317.679 300.93 317.177 300.93C312.992 300.595 308.975 300.595 304.79 300.595C308.305 300.093 311.653 299.591 315.001 298.921ZM272.818 308.634C287.046 304.112 300.27 302.27 315.336 302.94C315.67 303.107 316.34 303.107 316.842 303.107L317.009 303.107C317.679 303.107 318.181 303.107 318.851 303.107C321.864 303.61 328.559 305.117 330.735 309.303C330.568 309.471 330.568 309.638 330.568 309.806C330.568 310.308 330.903 310.476 331.238 310.476C331.405 310.978 331.405 311.313 331.572 311.815C331.238 320.691 315.335 329.399 308.138 333.083C298.262 338.274 285.54 340.619 274.492 341.624C267.462 342.294 260.097 341.959 253.401 340.954C249.384 339.949 245.534 338.442 241.684 336.6C235.825 333.418 235.155 332.078 235.825 329.566C238.671 319.184 260.097 312.82 272.818 308.634ZM232.644 334.423C233.649 336.097 235.323 337.102 236.829 337.94C236.997 337.94 237.164 338.107 237.164 338.107C220.09 338.944 202.849 340.284 186.277 337.605C187.616 337.605 188.955 337.605 190.295 337.605C203.686 337.772 216.91 334.925 229.129 329.566C230.134 329.064 231.138 328.562 232.142 328.059C232.142 328.394 231.975 328.562 231.975 328.897C231.473 330.906 231.64 332.748 232.644 334.423ZM169.873 333.585C167.697 332.581 165.688 331.576 163.512 330.571C162.675 330.236 161.838 329.734 161.001 329.399C170.04 331.074 179.582 330.906 188.788 329.901C206.364 328.227 223.103 322.868 239.842 317.509C241.349 317.007 242.855 316.504 244.362 316.002C243.357 316.504 242.521 317.174 241.516 317.677C238.168 320.021 234.821 322.7 232.979 326.385C213.897 335.595 190.964 338.777 170.208 333.585C170.04 333.753 169.873 333.585 169.873 333.585ZM177.908 337.437C196.823 342.628 216.91 342.628 236.494 340.451C237.499 340.284 239.173 340.117 240.847 339.949C243.023 340.954 245.366 341.791 247.71 342.294C250.221 342.963 252.899 343.633 255.577 344.136C256.247 344.303 256.916 344.303 257.586 344.471C231.975 346.648 205.862 349.494 182.427 339.614C180.921 338.944 179.414 338.274 177.908 337.437ZM59.5624 486.814C55.2102 486.646 51.0255 486.479 46.6733 486.311C57.219 483.297 67.4298 479.613 77.6406 475.761C99.9036 467.723 119.99 454.326 137.567 438.584C158.156 420.164 175.899 397.389 182.762 370.092C184.436 362.891 185.105 355.523 183.599 348.322C183.097 346.145 182.595 343.968 181.59 341.959C181.925 342.126 182.092 342.294 182.427 342.461C182.595 342.796 182.929 343.298 182.929 343.633C183.599 344.973 184.101 346.648 184.603 348.322C186.779 355.523 187.114 362.557 186.445 370.26C184.436 391.528 172.886 411.456 159.662 428.537C148.782 443.106 134.553 456.168 118.819 465.713C104.925 474.254 90.3623 479.278 74.2928 483.297C69.4385 484.469 64.4167 485.307 59.5624 486.479C59.7298 486.814 59.5624 486.814 59.5624 486.814ZM93.5428 487.986C87.5167 487.818 81.658 487.484 75.6319 487.316L68.6015 487.149C106.934 480.283 139.743 459.182 163.345 426.527C176.234 408.944 188.119 388.848 188.621 366.576C188.955 359.04 187.784 351.337 185.105 344.471C184.938 344.136 184.771 343.968 184.771 343.633C184.938 343.633 184.938 343.801 185.105 343.801C185.273 343.968 185.44 344.303 185.608 344.638C192.471 354.351 193.642 365.906 193.475 377.628C193.14 393.035 189.458 407.604 181.758 420.833C170.877 440.929 154.808 457.173 135.558 468.895C121.999 477.268 107.938 482.962 93.5428 487.986ZM98.3971 488.153C109.612 484.469 120.325 479.278 130.536 473.417C165.688 452.986 195.818 416.312 194.814 373.944C194.647 364.231 193.475 353.514 187.951 345.308C190.797 346.815 193.81 348.322 196.655 349.829C195.819 350.164 196.99 351.839 197.325 353.011C200.003 361.049 200.84 368.083 201.342 376.288C202.347 394.374 198.999 412.628 189.792 428.369C174.56 453.991 148.782 472.747 121.664 483.464C115.304 485.809 108.608 487.316 101.745 488.321C100.573 488.321 99.4014 488.321 98.3971 488.153ZM123.171 488.153C122.167 488.488 120.493 488.488 119.823 488.991C115.806 488.823 111.788 488.656 107.604 488.488C116.475 486.646 125.012 483.632 133.047 479.445C144.262 473.752 155.143 467.053 164.349 458.68C189.792 437.412 204.021 409.446 202.849 375.954C202.682 367.748 201.51 359.542 198.162 352.006C197.827 351.504 197.66 350.834 197.158 350.332C197.325 350.499 197.492 350.499 197.66 350.667C201.008 355.188 205.36 363.394 206.866 371.097C209.712 387.508 208.373 406.264 201.845 422.676C193.81 444.446 177.573 463.369 157.319 475.091C146.94 481.455 135.558 485.307 123.171 488.153ZM128.862 489.326L126.686 489.158C137.232 486.814 147.275 482.962 156.482 477.436C190.964 458.345 212.892 419.661 210.549 380.308C210.382 373.107 208.875 365.906 205.862 359.207C205.025 357.03 204.021 355.021 202.849 353.011C206.029 354.686 209.377 356.36 212.558 358.035C212.558 358.202 212.558 358.37 212.558 358.537C217.077 375.451 216.073 393.537 216.24 412.795C216.24 413.13 216.24 413.633 216.24 413.967C216.24 413.967 216.24 413.967 216.408 413.967C216.91 412.293 216.575 410.283 216.742 408.441C217.077 394.542 218.081 380.475 217.077 366.408C218.751 373.107 218.918 378.968 219.086 386.169C219.086 401.408 217.077 417.317 210.716 431.049C198.664 453.321 176.903 471.24 154.808 481.287C147.108 484.972 137.232 487.986 128.862 489.326ZM146.271 490.163C143.425 489.996 140.58 489.996 137.734 489.828C167.362 482.627 194.814 461.359 210.549 435.068C214.399 428.369 216.575 421.001 218.081 413.633C220.258 404.422 221.429 395.044 221.262 385.666C221.262 377.293 220.425 368.418 217.412 360.547C218.249 361.049 219.086 361.384 219.923 361.887C227.455 369.925 226.451 391.695 225.279 402.748C222.434 419.661 215.236 436.407 204.858 450.642C196.823 461.359 185.44 470.57 173.723 477.771C167.697 481.455 161.169 485.139 155.31 487.149C152.464 488.488 147.777 488.991 146.271 490.163ZM161.169 490.665C159.495 490.665 157.653 490.665 155.98 490.498C156.984 490.33 157.821 489.996 158.825 489.828C168.199 486.981 176.736 482.292 185.273 477.436C215.738 459.685 237.331 429.039 238.838 393.202C239.173 386.336 238.838 379.303 237.834 372.437C237.666 371.934 237.666 371.432 237.666 370.762C238.838 371.432 240.01 371.934 241.181 372.437C246.203 379.638 246.873 391.36 245.868 401.575C242.521 434.733 218.081 466.886 188.119 481.622C181.423 484.469 171.882 487.986 163.679 489.661C162.675 489.995 161.671 489.828 161.169 490.665ZM167.864 491C173.89 489.828 180.084 487.316 185.942 484.972C205.862 476.264 221.931 460.187 233.147 441.766C242.855 426.36 248.044 408.609 248.044 390.355C247.877 384.996 247.04 379.303 244.864 374.446C249.886 376.958 254.907 379.638 260.097 382.15C260.264 382.652 260.264 383.154 260.431 383.657C260.934 386.336 261.436 388.848 261.603 391.36C261.938 395.379 262.105 399.398 261.938 403.417C258.423 438.082 234.988 468.393 202.849 483.13C196.99 485.809 191.466 488.321 184.938 489.996C182.595 490.498 180.251 490.833 177.74 491.335C174.392 491.168 171.212 491.168 167.864 491ZM184.603 491.67C189.29 490.498 193.977 489.158 198.329 487.316C226.786 475.929 251.057 452.149 259.594 422.508C259.594 422.676 259.594 422.843 259.427 423.178C253.234 446.455 237.666 466.886 217.914 479.948C208.205 486.144 199.501 491.168 189.458 492.005C187.951 491.838 186.277 491.67 184.603 491.67ZM219.253 492.507C218.081 492.34 217.245 492.675 216.91 492.675C216.408 492.842 216.073 492.842 215.738 493.177C210.549 493.01 205.36 492.675 200.338 492.507C203.016 491.335 205.695 489.996 208.373 488.488C210.382 487.484 212.39 486.479 214.399 485.474C220.927 482.125 227.288 478.441 232.644 473.417C254.907 452.819 269.805 421.336 263.779 390.69C263.779 390.523 263.612 390.188 263.612 390.02C263.444 388.011 263.277 386.001 263.11 383.992C263.947 384.996 264.951 386.001 265.788 387.173C268.466 390.523 272.149 396.384 273.655 400.57C278.342 413.298 279.179 427.364 274.827 440.259C269.47 459.517 257.586 476.431 240.512 485.976C235.323 488.991 230.803 491 224.61 492.005C223.271 492.34 221.429 492.507 219.253 492.507ZM241.851 494.015C241.516 494.182 241.014 494.182 240.679 494.35C236.662 494.182 232.477 494.015 228.46 493.68C239.173 490.498 250.723 482.795 257.753 474.589C269.136 460.857 276.333 443.608 278.175 425.857C278.51 417.987 277.17 409.948 275.664 402.413C274.325 395.882 270.977 390.355 266.792 385.164C270.14 386.839 273.655 388.513 277.003 390.02C278.175 408.776 278.51 427.364 278.51 446.12C278.51 446.288 278.51 446.288 278.677 446.288C278.844 445.785 278.677 445.116 278.844 444.446C279.346 426.695 280.351 408.776 279.179 391.025C281.523 392.197 284.033 393.37 286.377 394.542C290.729 402.58 291.901 412.628 291.566 422.341C290.394 447.795 277.003 472.244 255.912 486.814C250.89 490.33 246.873 492.507 241.851 494.015ZM247.71 494.684C250.89 493.177 253.736 491.503 254.74 490.833C281.523 473.417 297.759 441.096 293.073 409.111C292.905 408.441 292.905 407.771 292.738 407.102C293.909 411.456 294.579 415.642 294.914 419.996C295.918 431.551 293.575 443.106 288.72 453.154C283.029 466.383 273.153 478.106 262.273 486.479C257.92 489.828 253.066 492.507 248.044 494.684L247.71 494.684ZM257.753 495.187C255.075 495.019 252.564 494.852 249.886 494.852C253.234 493.512 256.414 491.838 259.427 489.828C266.123 485.474 271.814 479.78 277.003 473.919C290.227 457.675 298.262 436.407 295.249 415.307C294.746 411.288 294.077 407.269 292.905 403.417C293.073 403.585 293.073 403.585 293.24 403.25C292.57 401.408 292.403 399.398 291.733 397.556C292.236 397.724 292.738 398.059 293.073 398.226C296.086 404.422 297.592 412.125 298.262 418.322C301.777 444.948 290.729 471.24 270.475 488.488C267.629 490.665 263.947 493.512 260.264 495.354C259.594 495.354 258.59 495.187 257.753 495.187ZM267.294 495.689C266.29 495.689 265.118 495.522 264.114 495.522C267.462 493.345 270.642 490.498 271.479 489.996C292.905 472.077 304.455 442.604 299.433 414.972C298.596 409.781 297.425 404.422 295.081 399.733C295.583 400.403 296.253 400.738 296.253 401.073C297.927 403.25 299.768 407.102 300.773 410.283C305.459 424.685 306.799 439.757 302.279 454.159C296.755 469.063 287.214 483.799 273.99 492.842C272.149 494.015 269.973 494.517 267.629 494.852C267.462 494.852 267.294 495.354 267.294 495.689ZM269.638 495.857C273.99 494.35 277.673 491.503 281.02 488.321C286.879 482.627 291.901 476.096 296.086 469.063C300.438 461.694 304.12 453.656 305.292 445.116C307.301 432.221 305.627 419.326 301.944 407.102C301.275 405.092 300.438 403.082 299.433 401.073C301.777 402.245 304.12 403.25 306.464 404.422C308.472 406.767 309.979 409.446 311.82 412.125C317.344 420.499 320.19 432.053 318.683 441.766C317.177 454.326 312.49 465.211 305.459 475.426C301.275 481.622 296.923 486.981 290.562 490.665C286.21 493.177 281.523 494.852 276.501 496.192C274.325 496.024 271.981 495.857 269.638 495.857ZM293.24 495.187C291.566 495.689 289.725 496.359 288.218 496.694C286.377 496.527 284.368 496.527 282.527 496.359C285.038 495.354 287.381 494.35 289.725 493.01C310.816 481.287 327.722 443.608 317.679 420.499C315.503 415.14 312.49 409.781 308.807 405.259C310.649 406.097 312.49 406.934 314.164 407.771C317.679 413.633 321.529 419.829 324.04 426.025C326.551 431.551 328.057 437.077 328.727 442.771C329.062 457.508 323.705 472.579 312.155 481.957C307.97 485.641 303.283 488.991 298.094 491.838C296.253 492.842 295.081 493.177 293.24 493.847C293.073 494.517 293.073 494.852 293.24 495.187ZM326.885 413.633C329.229 414.637 331.405 415.81 333.748 416.814C334.251 420.499 334.585 424.35 334.92 428.369C332.577 423.178 330.066 418.154 326.885 413.633ZM335.088 432.723C335.088 433.393 335.088 434.063 335.088 434.733C333.414 429.542 331.07 424.518 328.559 419.661C328.225 419.159 328.057 418.656 327.722 418.322C330.735 423.01 333.079 427.699 335.088 432.723ZM327.22 420.331C331.07 427.365 334.418 436.073 335.422 443.608C335.422 444.781 335.422 445.785 335.59 446.958C335.59 447.125 335.59 447.125 335.757 447.125C336.427 459.685 334.251 472.579 326.885 482.125C322.199 485.474 316.842 487.986 311.486 489.996C310.314 490.498 309.142 490.833 307.97 491.168C328.057 479.11 334.92 455.833 328.559 433.728C327.722 429.542 326.551 425.522 324.877 421.671C323.203 417.652 321.194 413.633 318.851 409.948C319.855 410.451 321.027 410.953 322.031 411.456C323.872 414.135 325.546 417.149 327.22 420.331ZM337.096 443.776C336.929 442.269 336.594 440.761 336.259 439.254C336.259 438.25 336.259 437.412 336.259 436.24C336.594 437.412 337.096 438.417 337.431 439.589C341.616 452.149 340.612 467.221 332.409 476.933C332.242 477.101 332.242 477.101 332.075 477.268C337.096 467.221 338.77 454.828 337.096 443.776ZM302.781 491.168C304.79 489.828 306.799 488.321 308.807 486.814C315.001 481.957 320.525 476.096 324.04 469.063C326.718 463.536 328.392 457.508 329.229 451.312C328.559 465.881 321.696 479.445 308.472 487.818C306.799 489.158 304.79 490.163 302.781 491.168ZM324.04 422.006C324.709 423.345 325.212 424.685 325.714 426.192C325.212 425.02 324.709 423.68 324.04 422.508C321.696 417.987 319.353 413.298 316.507 409.111C316.675 409.111 316.675 409.279 316.842 409.279C316.842 409.279 316.842 409.279 316.842 409.446C319.52 413.298 322.031 417.484 324.04 422.006ZM305.125 497.531C301.609 497.364 298.262 497.196 294.746 497.029C294.914 497.029 295.249 496.862 295.416 496.862C299.099 496.192 302.949 495.522 306.631 494.182C311.318 492.507 316.172 490.833 320.692 488.488C320.357 488.656 320.19 488.823 320.022 489.158C317.177 491.335 310.983 494.517 306.631 496.527C305.962 496.694 305.292 497.029 305.125 497.531ZM314.666 498.034C312.992 497.866 311.318 497.866 309.477 497.699C312.825 496.024 316.005 494.35 319.018 492.173C322.533 489.996 325.546 486.981 328.057 483.632C330.735 481.622 333.246 479.278 335.255 476.599C343.122 465.211 342.285 450.139 338.101 437.412C337.431 435.57 336.762 433.896 336.092 432.053C336.092 427.197 335.925 421.838 335.59 417.652C337.096 418.322 338.603 418.991 340.109 419.661C342.118 424.015 343.959 428.034 345.298 432.723C347.809 441.096 349.316 449.302 347.642 457.34C344.127 474.589 331.238 491 316.005 497.196C315.67 497.699 315.168 497.866 314.666 498.034ZM330.401 498.871C327.22 498.704 323.872 498.536 320.692 498.369C333.079 492.675 342.453 479.11 347.14 467.053C351.492 456.503 350.488 444.948 347.14 434.23C345.801 429.541 343.959 425.187 342.118 420.833C344.964 422.173 347.809 423.345 350.655 424.685C351.157 425.69 351.492 426.695 351.827 427.699C353.835 433.896 354.84 439.757 355.342 446.12C356.179 458.345 354.003 470.067 348.646 480.618C344.964 487.986 340.444 494.015 332.912 497.866C332.075 498.034 331.238 498.369 330.401 498.871ZM350.153 499.876C344.796 499.708 339.44 499.373 334.083 499.039C342.118 494.182 347.977 486.479 351.492 477.603C357.518 464.374 357.685 449.135 354.84 435.068C354.17 432.053 353.333 428.872 352.161 426.025C352.329 426.025 352.329 426.192 352.496 426.192C353.501 426.527 354.672 426.695 355.677 426.862C360.531 435.57 362.707 447.125 363.209 457.843C363.879 471.24 360.196 482.962 352.664 494.517C351.827 496.192 350.655 497.699 349.818 499.206C349.818 499.373 349.985 499.708 350.153 499.876ZM385.807 415.81C435.522 407.939 487.915 364.901 509.341 320.021C515.535 307.126 520.724 293.897 524.909 280.332C526.415 276.648 527.754 272.797 528.926 268.945C528.759 273.299 528.424 277.653 528.257 282.007C528.089 287.198 527.922 292.557 527.922 297.748C523.904 310.811 518.213 323.538 512.02 335.762C489.255 378.8 448.244 410.953 401.374 423.178C393.172 425.02 385.305 425.69 376.433 425.187C372.751 424.853 368.733 424.35 367.227 424.183C367.059 424.183 366.724 424.183 366.557 424.183C362.038 422.173 357.518 420.331 352.998 418.322C363.879 418.154 374.927 417.484 385.807 415.81ZM382.459 412.795C416.774 404.925 448.913 383.824 473.855 360.045C491.431 343.466 504.654 323.203 515.367 301.6C510.346 313.49 504.822 324.71 498.796 334.59C474.524 371.599 431.672 404.59 387.314 411.958C385.64 412.293 384.133 412.46 382.459 412.795ZM426.148 449.135C435.355 448.465 444.394 446.958 453.265 444.111C471.511 438.417 488.585 428.537 502.311 415.475C509.007 408.609 514.865 400.905 519.552 392.532C518.548 397.221 517.878 401.91 517.041 406.599C499.968 431.216 472.515 452.149 445.9 454.493C444.226 454.661 442.218 454.996 440.209 454.996C435.689 453.154 431.003 451.144 426.148 449.135ZM439.205 464.039C439.874 465.881 440.209 467.723 440.711 469.565C443.389 479.278 442.218 489.661 438.033 498.704C440.042 492.005 441.046 484.469 441.046 477.436C440.879 472.914 439.372 467.89 437.196 463.034C437.866 463.536 438.535 463.871 439.205 464.039ZM389.824 432.556C389.322 432.556 388.82 432.891 388.653 433.393C385.974 432.221 383.296 431.216 380.618 430.044C440.376 431.719 500.302 393.37 522.565 337.605C524.407 333.083 525.913 328.562 527.42 324.04C527.252 331.408 527.252 338.609 527.252 345.978C520.557 361.049 509.676 375.786 501.139 385.834C489.924 398.561 477.872 408.944 463.979 417.987C463.309 417.652 462.472 417.987 462.639 418.824C462.639 418.824 462.639 418.824 462.639 418.991C460.798 420.164 459.124 421.168 457.283 422.341C444.059 430.546 430.668 436.407 415.435 436.24C408.405 436.24 403.383 435.57 396.52 434.063C394.344 433.728 392.335 433.058 390.159 432.891C390.829 432.556 389.992 432.388 389.824 432.556ZM521.728 401.575C523.904 398.393 525.746 394.877 527.42 391.36C527.42 391.528 527.42 391.695 527.42 391.862C525.411 401.073 521.394 409.781 516.539 418.154C517.209 414.135 517.711 410.283 518.381 406.264C519.552 404.925 520.557 403.25 521.728 401.575ZM518.883 404.255C519.385 401.743 519.72 399.398 520.222 396.886C520.724 394.207 521.226 391.528 521.896 388.848C523.904 384.996 525.746 381.145 527.42 377.126C527.42 381.145 527.42 385.164 527.587 389.016C524.909 394.207 522.063 399.231 518.883 404.255ZM515.2 420.499C514.698 421.336 514.196 422.173 513.694 423.01C502.646 441.934 480.718 453.824 461.802 454.828C458.455 454.996 455.107 454.996 451.759 454.996C463.476 452.651 474.692 447.627 484.4 440.594C497.289 432.221 508.002 421.001 517.041 408.609C516.204 412.628 515.702 416.647 515.2 420.499ZM515.702 424.183C520.724 415.475 525.076 406.264 527.587 396.384C527.587 403.585 527.754 410.953 527.922 418.154C524.239 426.695 519.385 434.9 513.191 441.766C513.861 435.905 514.698 430.044 515.702 424.183ZM527.587 315.834C526.415 320.858 524.909 325.715 523.067 330.404C505.157 382.317 452.596 420.164 399.533 425.522C399.198 425.522 399.031 425.522 398.696 425.522C399.533 425.355 400.37 425.187 401.207 425.02C451.424 412.125 495.448 375.953 516.874 328.562C520.724 319.854 524.574 310.308 527.754 300.763C527.754 305.787 527.587 310.811 527.587 315.834ZM416.44 438.752C433.179 438.584 448.411 430.881 462.305 422.006C461.97 426.36 461.97 430.881 461.802 435.235C461.802 435.738 462.472 435.738 462.472 435.235C462.974 430.714 463.644 425.02 464.146 420.833C464.146 420.833 464.146 420.833 464.146 420.666C464.481 420.499 464.815 420.331 464.983 420.164C491.096 403.417 513.024 379.638 527.085 352.006C527.085 358.537 527.085 365.068 527.085 371.599C520.891 387.676 511.685 403.417 498.796 415.475C477.537 434.23 449.583 445.785 420.792 447.125C413.092 443.776 405.224 440.594 397.357 437.245C403.885 438.25 410.079 438.919 416.44 438.752ZM456.613 459.35C478.207 458.178 500.637 447.46 512.02 429.876C512.857 428.537 513.694 427.197 514.531 426.025C513.861 431.384 513.191 436.91 512.522 442.269C506.328 448.8 498.963 454.326 490.259 457.508C481.387 461.025 471.344 463.536 461.133 463.704C457.785 462.197 454.27 460.857 450.755 459.35C452.763 459.517 454.605 459.517 456.613 459.35ZM499.298 455.331C504.152 452.316 508.504 448.465 512.354 444.278C512.187 445.618 512.02 446.79 511.852 448.13C511.852 448.297 511.852 448.297 512.02 448.297C512.354 448.13 512.187 447.628 512.354 447.293C512.522 446.12 512.689 444.948 512.857 443.776C517.209 438.919 521.059 433.393 524.407 427.699C525.746 425.187 526.917 422.508 527.922 419.996C527.922 422.173 527.922 424.35 528.089 426.527C520.557 446.455 504.32 467.556 487.413 475.091C480.55 472.245 473.52 469.23 466.657 466.383C477.872 464.876 489.255 461.025 499.298 455.331ZM514.363 454.996C519.72 448.13 524.407 440.594 528.089 432.723C528.257 438.082 528.257 443.273 528.424 448.632C527.085 451.312 525.578 453.824 523.904 456.168C516.874 465.211 505.826 474.589 494.946 477.771C494.778 477.771 494.611 477.771 494.444 477.938C493.272 477.436 491.933 476.933 490.761 476.431C499.968 471.575 508.337 463.034 514.363 454.996ZM512.354 472.077C517.711 467.556 522.565 462.699 526.08 457.675C526.917 456.336 527.754 454.828 528.424 453.489C528.424 456.168 528.591 459.015 528.591 461.694C526.583 464.709 524.574 467.221 521.896 470.068C516.874 474.924 511.183 479.445 505.157 482.627C503.148 481.79 501.307 480.953 499.298 480.115C504.152 478.106 508.337 475.259 512.354 472.077ZM526.583 467.388C527.252 466.383 527.922 465.546 528.591 464.541C528.591 465.379 528.591 466.216 528.591 467.053C526.248 471.742 522.565 475.426 518.548 478.608C516.372 480.283 512.689 482.795 509.509 484.469C508.839 484.134 508.337 483.967 507.667 483.632C515.033 479.445 521.394 473.752 526.583 467.388ZM353.166 500.043C357.016 494.852 359.527 488.823 361.703 482.962C367.227 467.053 367.394 449.47 363.042 433.226C362.707 432.053 362.372 431.049 362.038 430.044C361.87 429.876 361.535 429.876 361.368 430.211C361.703 431.551 362.038 433.058 362.372 434.398C363.544 439.087 364.214 443.943 364.548 448.8C363.879 444.111 362.874 439.254 361.368 434.565C360.698 432.556 359.861 430.379 359.025 428.537C361.535 429.709 364.046 430.881 366.557 431.886C368.231 435.403 369.235 439.087 370.24 443.441C373.253 458.513 372.416 475.594 366.222 489.828C365.051 492.842 362.874 496.527 361.368 499.541C361.368 500.043 361.535 500.211 361.703 500.378C358.857 500.211 356.011 500.043 353.166 500.043ZM362.372 500.378C362.707 500.211 363.042 499.876 363.209 499.373C374.257 479.613 375.596 455.163 369.235 433.728C369.068 433.561 369.068 433.226 368.901 433.058C371.244 434.063 373.42 435.068 375.764 436.073C379.614 451.144 379.614 466.718 374.592 481.455C372.248 488.488 369.57 495.354 364.381 500.546C363.879 500.378 363.209 500.378 362.372 500.378ZM366.557 500.546C371.244 495.187 373.922 487.986 376.098 481.287C380.785 466.886 380.785 451.312 377.27 436.575C378.609 437.245 379.948 437.747 381.287 438.417C382.627 442.771 383.296 447.627 383.798 451.814C385.807 469.23 382.292 486.479 372.918 500.881C370.909 500.713 368.733 500.546 366.557 500.546ZM374.759 500.881C384.803 484.302 387.481 463.704 383.798 444.613C383.798 444.111 383.129 441.431 382.459 438.919C382.627 438.919 382.627 439.087 382.794 439.087C386.811 440.929 390.829 442.771 394.846 444.446C394.344 459.685 395.181 474.924 394.177 489.996C394.177 490.163 394.344 490.163 394.344 490.163C394.511 489.326 394.511 488.488 394.511 487.651C395.516 474.924 396.018 462.029 396.855 449.135C397.022 447.962 397.022 446.79 397.19 445.618C400.872 447.293 404.555 448.967 408.237 450.642C408.237 450.809 408.237 450.809 408.237 450.977C409.577 457.34 410.246 463.704 409.409 470.402C408.907 475.091 406.396 482.292 404.555 486.814C402.211 491.67 398.529 498.034 394.679 501.718C387.983 501.383 381.455 501.048 374.759 500.881ZM396.855 501.55C399.198 498.704 401.207 495.689 403.048 492.675C409.911 480.283 413.092 465.379 409.744 451.144C410.748 451.647 411.753 451.982 412.757 452.484C416.607 468.56 413.929 487.316 402.546 499.876C402.211 500.378 401.542 501.048 400.872 501.718C399.533 501.55 398.194 501.55 396.855 501.55ZM401.374 501.718C410.581 492.34 414.933 479.11 414.598 466.048C414.431 461.527 414.263 457.005 413.092 452.651C413.761 452.986 414.431 453.321 415.1 453.489C415.435 454.661 415.937 455.833 416.272 457.005C418.113 464.206 418.616 472.245 416.774 479.78C414.598 487.651 411.585 495.354 406.396 501.55C404.722 501.718 403.048 501.718 401.374 501.718ZM407.903 501.718C410.916 498.369 413.259 494.182 414.933 490.163C419.955 478.943 420.959 466.048 416.774 454.493C416.774 454.326 416.607 454.326 416.607 454.159C417.611 454.661 418.783 455.163 419.787 455.498C419.62 455.666 419.62 455.833 419.787 456.001C422.968 458.847 422.968 463.871 423.47 467.723C424.642 478.776 422.8 489.996 417.109 499.541C416.774 500.378 416.272 501.048 415.77 501.718C413.259 501.885 410.581 501.885 407.903 501.718ZM416.272 501.885C416.272 501.718 416.44 501.718 416.44 501.55C423.972 490.498 425.646 476.599 423.47 463.536C422.968 461.024 422.466 458.345 420.959 456.336L420.792 456.168C421.796 456.67 422.968 457.173 423.972 457.508C423.972 457.508 423.972 457.508 423.972 457.675C428.659 467.89 428.492 480.45 424.474 491.67C423.135 495.187 421.963 499.038 419.787 502.053C418.616 501.885 417.444 501.885 416.272 501.885ZM434.518 502.053C429.998 502.053 425.646 502.053 421.126 501.885C422.968 499.039 424.307 495.857 425.479 492.507C429.831 481.622 430.166 468.895 426.148 458.345C429.496 459.852 432.676 461.192 436.024 462.699C440.879 475.091 439.037 487.818 435.187 500.378C435.02 500.881 434.853 501.55 434.518 502.053ZM436.861 502.053C436.861 501.885 437.029 501.718 437.029 501.55C440.042 496.527 441.883 490.498 442.552 484.637C443.055 478.441 441.883 472.077 440.376 466.048C440.209 465.379 440.042 464.876 439.874 464.206C440.879 464.541 441.716 465.044 442.72 465.379C443.222 466.048 443.724 466.551 444.059 467.388C449.75 475.594 452.763 485.642 449.75 495.019C449.081 497.531 448.076 499.708 446.737 501.885C443.389 502.22 440.042 502.053 436.861 502.053ZM447.909 502.053C449.081 500.211 449.75 498.034 450.252 495.857C453.433 485.474 449.918 474.421 443.724 466.048C444.561 466.383 445.398 466.718 446.235 467.053C449.75 471.24 452.429 475.761 453.433 481.287C454.437 487.986 452.763 495.857 449.081 502.053C448.579 502.053 448.244 502.053 447.909 502.053ZM449.918 502.053C452.931 497.364 454.437 491 454.605 485.307C454.605 479.613 452.429 474.087 449.248 469.565C448.913 468.895 448.411 468.393 447.909 467.723C450.085 468.728 452.429 469.733 454.605 470.57C459.292 479.948 458.622 493.01 452.596 501.885C451.759 502.053 450.755 502.053 449.918 502.053ZM454.27 502.053C459.626 493.345 459.961 480.283 455.944 471.407C460.296 473.249 464.648 475.091 469.168 477.101C470.172 480.115 470.842 483.297 470.674 486.311C470.507 491.838 467.996 497.531 464.648 501.885C461.3 501.885 457.785 502.053 454.27 502.053ZM472.348 501.383C472.181 501.55 472.181 501.55 472.181 501.718C470.172 501.718 467.996 501.885 465.987 501.885C467.159 500.378 467.996 498.536 469 496.862C472.181 491 472.515 483.967 470.339 477.771C470.339 477.603 470.172 477.603 470.172 477.436C471.846 478.106 473.52 478.776 475.194 479.613C475.194 479.78 475.194 479.78 475.361 479.948C477.035 486.646 476.7 491.67 474.357 497.866C473.855 498.536 473.185 499.876 472.348 501.383ZM478.876 501.383C477.537 501.383 476.365 501.55 475.026 501.55C475.528 500.546 475.863 499.541 476.198 498.536C478.374 492.675 478.207 486.144 476.365 480.115L476.533 480.115C478.039 480.785 479.713 481.455 481.22 482.125C483.061 487.986 481.889 494.182 479.713 499.541C479.546 500.211 479.211 500.713 478.876 501.383ZM480.048 501.216C483.061 495.522 483.898 488.823 482.726 482.627C483.563 482.962 484.233 483.297 485.07 483.632C485.405 485.307 485.405 487.149 485.572 488.823C485.572 493.512 485.07 497.196 482.894 501.048C481.722 501.216 480.885 501.216 480.048 501.216ZM484.4 501.048C487.078 496.359 487.413 489.828 486.241 484.134C487.581 484.637 488.752 485.139 490.091 485.642C490.426 490.833 489.757 496.527 487.246 500.881C486.241 501.048 485.237 501.048 484.4 501.048ZM492.435 500.713C491.096 500.713 489.589 500.881 488.25 500.881C488.752 500.043 489.087 499.039 489.422 498.201C490.761 494.35 491.263 490.163 490.761 486.144C491.765 486.479 492.602 486.981 493.607 487.316C494.444 491.67 493.941 496.862 492.435 500.713ZM494.109 500.546C495.615 497.029 495.615 492.675 494.946 488.656C495.448 488.991 496.118 488.991 496.62 488.823C496.787 488.823 496.787 488.823 496.954 488.656C496.787 493.345 496.285 497.029 494.276 500.546C494.444 500.546 494.276 500.546 494.109 500.546ZM496.452 500.378C498.126 496.861 498.461 493.01 498.294 489.158C498.628 489.326 498.963 489.493 499.298 489.493C499.465 490.665 499.298 491.838 499.298 493.01C498.628 495.522 497.791 497.866 496.954 499.541C496.787 499.876 496.62 500.211 496.452 500.378ZM498.796 500.211C500.302 497.196 501.139 493.68 501.307 490.33C501.474 490.33 501.641 490.498 501.641 490.498C501.139 493.847 500.302 497.364 498.963 500.043L498.796 500.211ZM504.822 492.675C504.654 494.852 504.32 497.531 503.65 499.876C502.646 499.876 501.474 500.043 500.47 500.043C501.307 498.536 501.809 496.861 502.311 495.354C502.646 494.182 502.981 492.507 503.148 491C503.483 491.168 503.818 491.335 504.152 491.335C504.32 491.67 504.654 491.838 504.822 492.005C504.822 492.34 504.822 492.507 504.822 492.675ZM507.333 499.708C506.663 499.708 505.826 499.876 505.157 499.876C505.659 498.034 505.994 496.192 506.161 494.35C506.161 493.68 506.328 493.01 506.328 492.507C506.496 492.507 506.831 492.675 506.998 492.675C507.667 493.01 508.504 493.177 509.174 493.512C508.672 495.522 508.002 497.699 507.333 499.708ZM512.522 496.192C512.187 497.364 511.852 498.369 511.517 499.373C511.35 499.373 511.35 499.373 511.183 499.373C510.346 499.373 509.341 499.541 508.504 499.541C509.174 497.699 509.676 495.857 510.011 493.847C510.848 494.182 511.852 494.517 512.689 494.852C512.689 495.354 512.689 495.857 512.522 496.192ZM516.707 482.795C520.389 479.948 525.411 475.594 528.424 470.905C528.591 470.737 528.759 470.402 528.759 470.235C528.759 472.579 528.926 474.924 528.926 477.268C528.759 477.436 528.591 477.603 528.591 477.771C524.741 482.46 520.222 485.474 515.87 487.149C514.865 486.814 513.861 486.311 513.024 485.976C514.196 484.804 515.367 483.799 516.707 482.795ZM516.539 499.039C516.539 498.369 516.372 498.034 515.702 498.201C515.535 498.369 515.367 498.704 515.2 499.206C514.698 499.206 514.196 499.373 513.694 499.373C514.028 498.201 514.196 497.029 514.531 495.857C514.865 496.024 515.033 496.024 515.367 496.192C517.376 496.861 519.72 497.699 521.896 498.704C520.054 498.704 518.213 498.871 516.539 499.039ZM524.239 490.163C524.239 490.33 524.239 490.498 524.239 490.498C523.067 489.996 522.063 489.493 520.891 489.158C522.063 488.488 523.235 487.651 524.239 486.981C526.08 485.307 527.754 483.465 529.094 481.622C529.094 482.962 529.094 484.302 529.261 485.642C528.257 486.646 527.252 487.484 526.248 488.488C525.578 488.991 524.741 489.493 524.239 490.163ZM528.424 492.34C527.587 492.005 526.75 491.67 525.913 491.335C526.917 490.665 528.089 489.828 529.261 488.656C529.261 489.996 529.261 491.335 529.428 492.842C528.926 492.675 528.591 492.507 528.424 492.34ZM529.428 258.562C526.583 268.777 523.067 279.16 519.385 288.036C510.346 309.973 497.624 332.916 481.052 350.667C454.437 378.633 421.629 401.073 384.133 410.451C370.574 413.633 356.011 414.805 342.285 413.633C339.607 412.46 336.929 411.288 334.251 410.116C346.805 409.111 358.355 407.269 371.244 404.422C443.055 386.001 502.144 327.054 524.909 257.055C527.754 247.677 529.763 237.964 531.102 228.252C530.433 238.299 529.93 248.347 529.428 258.562ZM532.107 209.328C531.939 210.835 531.772 212.343 531.604 214.017C530.433 226.074 528.591 238.132 525.411 249.854C507.5 315.332 450.922 371.767 389.49 394.877C368.398 402.748 347.642 405.427 326.049 406.767C314.833 401.91 303.786 396.886 292.57 392.03C302.279 392.867 315.168 392.532 325.044 392.03C325.044 394.039 324.877 396.049 324.877 397.891C325.881 398.896 325.379 394.374 325.546 393.872C325.546 393.202 325.546 392.7 325.546 392.03C362.54 390.69 396.855 373.442 426.483 352.341C460.631 328.729 489.087 297.079 507.835 259.902C517.209 241.983 525.411 223.395 532.107 204.304L532.107 209.328ZM532.944 195.094C528.089 211.84 520.557 227.079 513.024 242.988C500.804 267.103 487.581 290.883 469.837 310.141C433.346 349.829 381.957 384.327 328.559 387.006C327.722 387.006 326.718 387.173 325.714 387.173C325.881 382.987 326.049 378.8 326.216 374.614C342.62 371.599 361.033 365.906 376.266 358.37C400.203 346.648 422.633 331.576 443.557 314.83C462.137 299.926 478.876 282.509 492.937 263.251C492.602 268.108 492.268 272.964 492.1 277.988C492.1 278.658 491.933 279.328 492.1 279.83L492.268 279.83C492.435 278.49 492.435 277.151 492.602 275.811C492.937 271.457 493.272 266.935 493.607 262.581C509.341 240.811 521.728 216.529 529.094 190.405C531.102 183.539 532.944 176.673 534.45 169.64C533.78 178.18 533.278 186.721 532.944 195.094ZM534.952 159.257C529.596 195.261 514.865 229.089 493.941 258.562C494.444 252.366 495.113 246.17 495.783 239.974C503.818 228.252 511.183 216.194 517.878 203.635C517.544 206.481 517.041 209.496 516.707 212.343C516.707 213.012 516.372 213.682 516.539 214.185L516.707 214.352C517.544 212.008 517.544 208.993 518.046 206.481C518.213 204.974 518.548 203.635 518.715 202.127C518.883 201.96 518.883 201.792 519.05 201.625C526.415 187.558 530.265 172.152 534.617 157.08C534.785 156.41 535.12 155.74 535.287 155.07C535.12 156.578 534.952 157.917 534.952 159.257ZM535.287 153.228C535.12 153.228 535.12 153.228 535.287 153.228C530.767 166.123 527.587 179.855 522.063 191.912C521.059 194.089 520.222 196.099 519.217 198.276C520.389 190.907 521.394 183.539 522.733 176.171C527.42 165.286 531.772 154.233 535.454 143.013C535.622 142.511 535.789 142.008 535.957 141.673C535.622 145.525 535.454 149.377 535.287 153.228ZM536.124 137.152C532.274 148.372 528.257 159.424 523.57 170.309C523.737 169.137 524.072 167.798 524.239 166.625C525.578 163.276 526.917 159.927 528.089 156.41C530.935 148.874 533.78 141.338 536.291 133.635C536.291 134.807 536.124 135.98 536.124 137.152ZM536.626 129.281C532.944 138.994 529.428 148.707 525.578 158.252C525.913 156.745 526.08 155.238 526.415 153.731C530.433 144.185 533.948 134.305 536.626 124.257C536.794 123.42 536.961 122.583 537.296 121.578C536.961 124.257 536.794 126.769 536.626 129.281ZM537.798 114.377C535.287 124.76 531.939 134.975 528.089 144.855C530.6 130.956 533.278 117.056 536.124 103.324C536.291 102.32 538.133 93.7791 539.807 84.4011C539.137 94.2814 538.467 104.329 537.798 114.377Z" fill="white"/>
</svg>
