<svg width="121" height="145" viewBox="0 0 121 145" fill="none" xmlns="http://www.w3.org/2000/svg">
<path d="M21.9698 144.808C21.131 143.647 20.2922 142.421 19.4534 141.195C18.9372 136.033 20.6148 131.065 22.6796 126.483C30.1644 110.675 46.8762 100.738 63.2009 96.0279C67.0078 94.931 70.8148 93.8986 74.7507 93.3824C75.9767 93.1888 77.7189 93.0597 78.8158 92.9307C79.0739 92.8662 79.332 92.9307 79.5901 92.8662C81.6548 93.3178 83.6551 93.7695 85.7199 94.1567C86.6877 94.2857 87.5911 94.4793 88.5589 94.5438C88.688 94.4793 88.6235 94.3502 88.5589 94.3502C85.4618 93.6405 82.3646 92.9307 79.2674 92.1564C79.2674 92.1564 79.2674 92.0919 79.2029 92.0919C74.3636 88.543 71.9762 79.7677 71.589 74.3477C70.3631 55.6356 80.3643 37.1171 92.5594 23.567C98.044 18.0179 104.109 12.985 110.175 8.46834C110.175 8.46834 110.239 8.46834 110.239 8.40382C113.594 6.98428 116.885 5.4357 120.176 3.82259C120.24 3.75807 120.305 3.69354 120.24 3.62902C120.176 3.56449 120.111 3.49997 120.047 3.56449C116.692 5.1776 113.336 6.66166 109.916 8.14572C109.852 8.14572 109.787 8.21025 109.787 8.21025C99.4636 12.5979 88.817 16.4048 78.2996 20.4053C77.7189 20.5989 77.2027 20.7925 76.6219 20.9861C73.5893 21.6313 70.4921 21.8249 67.3304 22.083C60.6844 22.5992 54.361 21.9539 48.0377 19.9537C41.069 17.8889 34.6811 14.5982 30.0354 8.79097C28.7449 7.24238 27.3254 5.1776 26.422 2.98378C26.3575 2.85473 26.293 2.72568 26.293 2.59663C26.422 2.46758 26.5511 2.27401 26.6801 2.14496C27.2608 1.49972 27.8416 0.918997 28.3577 0.273754C28.4223 0.0801806 28.1642 -0.113392 28.0351 0.0801806C27.0027 1.11257 25.9703 2.08043 24.938 3.0483C23.9056 3.62902 22.9377 4.27426 21.9053 4.91951C19.5824 6.27452 17.3241 7.69405 14.8076 8.72644C4.54827 13.1786 -8.42112 15.6305 -19.1967 10.9848C-21.455 9.88788 -23.7779 8.66192 -25.5846 6.91976L-25.6491 6.85524C-25.7136 5.24213 -25.7136 3.62902 -25.7782 2.08044C-25.8427 1.95139 -25.9717 2.01591 -25.9717 2.14496C-25.9717 3.69354 -25.9717 5.24213 -25.9717 6.85524C-26.0363 6.91976 -26.0363 6.98428 -25.9717 7.04881C-25.9717 8.98454 -25.9717 10.9203 -25.9717 12.856C-26.1653 12.9205 -26.1008 13.0496 -25.9717 13.2431C-25.9717 14.4691 -25.9717 15.6305 -26.0363 16.8565C-26.1653 16.921 -26.1653 17.1146 -26.0363 17.3082C-26.1008 22.3411 -26.2944 27.374 -26.5525 32.4069C-26.6815 35.5686 -27.0687 38.6657 -26.9396 41.8274C-26.8106 42.8598 -26.8751 45.4408 -26.746 45.6344C-26.8106 45.8279 -26.8106 45.8925 -26.8106 45.8925C-26.8751 46.1506 -26.8751 46.4087 -26.8751 46.6668C-26.8751 46.7958 -26.8751 46.9894 -26.8106 47.0539C-27.0041 47.312 -26.746 47.7637 -26.3589 47.6346C-25.1329 47.3765 -22.681 48.2799 -21.455 48.8606C-21.3905 48.8606 -21.3905 48.8606 -21.326 48.9251C-21.2615 49.1187 -21.1324 49.3122 -20.9388 49.4413C-20.9388 49.7639 -20.9388 50.1511 -20.9388 50.4737C-20.8743 52.6675 -20.8098 54.8613 -20.2291 56.9906C-20.1645 57.1197 -20.1645 57.2487 -20.1645 57.3778C-20.1645 57.4423 -20.2291 57.5068 -20.2291 57.5714C-20.2936 57.7649 -20.2291 57.894 -20.1645 58.0876C-20.7453 58.9264 -20.9388 60.0233 -21.0679 60.9911C-21.326 62.6043 -21.2615 64.2174 -20.8743 65.8305C-20.8743 65.9595 -20.8098 66.024 -20.8098 66.0886C-20.8743 66.1531 -20.8743 66.2176 -20.8743 66.2821C-22.9391 66.5402 -24.4877 67.6372 -26.2944 69.0567C-27.0041 69.6374 -27.6494 70.2181 -28.1656 70.9279C-28.3591 70.7989 -28.4882 70.7343 -28.6818 70.6053C-29.8432 70.0891 -30.2949 70.0246 -31.0692 69.8955C-31.7144 69.831 -32.4887 69.831 -33.0049 70.2181C-33.263 70.3472 -33.3275 70.6053 -33.392 70.7989C-33.8437 71.2505 -33.5856 72.0893 -33.4566 72.6701C-33.0694 74.2832 -32.8758 75.8317 -32.7468 76.7351C-31.9725 82.0906 -31.1982 89.3173 -30.7465 96.1569C-30.8111 96.1569 -30.8111 96.2214 -30.8111 96.2214C-30.8756 96.3505 -30.8111 96.4795 -30.682 96.4795C-30.682 96.6731 -30.682 96.8667 -30.6175 96.9957C-30.1658 103.061 -29.5206 109.126 -29.2625 115.256C-29.0689 120.289 -28.9399 125.257 -28.7463 130.29C-28.7463 130.484 -28.7463 130.742 -28.5527 130.806C-28.3591 130.871 -28.101 130.742 -28.101 130.548C-28.101 130.29 -28.101 129.968 -28.101 129.71C-25.5201 125.58 -21.3905 122.418 -16.9383 120.612C-11.5828 118.547 -5.64658 118.482 -0.032959 119.773C2.03182 120.289 3.45135 120.805 5.38708 121.515C5.25804 121.45 5.32256 121.45 5.38708 121.515C5.51613 121.58 5.70971 121.579 5.83875 121.45C9.38759 126.612 12.8719 131.774 16.4207 136.936C18.0984 139.453 19.776 141.969 21.6472 144.357C21.7763 144.55 21.9053 144.744 22.0989 144.873C21.9053 145.131 22.0344 144.937 21.9698 144.808ZM77.4608 92.2855C77.3317 92.2855 77.1381 92.2855 77.0091 92.35C73.4603 92.7371 69.3307 93.6405 65.6528 94.8019C48.4893 99.6412 31.0678 109.126 22.6796 125.58C21.5827 127.774 20.6148 130.097 19.9051 132.484C22.0989 123.128 28.0996 113.449 34.6166 107.578C37.6492 104.997 40.94 102.738 44.5534 100.867C49.9089 98.3507 55.8451 96.4795 61.6523 94.931C65.5883 93.8986 69.6533 93.1888 73.7183 92.6081C75.0088 92.4145 76.0412 92.2855 76.88 92.1564C77.1381 92.2209 77.3317 92.2855 77.4608 92.2855ZM62.8137 94.0276C56.5549 95.8343 50.296 97.77 44.4243 100.545C40.6819 102.48 37.1976 104.868 34.0359 107.707C30.1644 111.32 27.0673 115.643 24.5508 120.224C21.9053 124.87 19.9696 129.968 19.1953 135.259C19.0662 136.227 18.9372 137.259 18.8727 138.227C18.8727 137.969 18.8727 137.646 18.8727 137.388C18.8727 136.097 19.0017 134.807 19.1953 133.646C19.9696 128.613 21.5182 123.773 23.7765 119.257C25.9703 114.804 28.5513 110.546 31.9711 106.997C39.0688 99.7058 48.0377 94.6083 57.9099 92.35C61.4587 91.5757 64.7495 90.9304 68.2338 90.7369C69.2016 90.6723 70.234 90.7369 71.2019 90.7369H71.2664C72.1698 90.995 73.0731 91.1885 73.9764 91.4466C74.2991 91.5112 74.6217 91.5757 74.8798 91.6402C74.4926 91.7047 74.1055 91.7047 73.7183 91.7693C70.105 92.2855 66.4271 93.0597 62.8137 94.0276ZM76.0412 91.3176C76.0412 91.1885 75.9122 91.0595 75.8476 90.9304C75.1379 89.9626 74.4926 88.9947 73.9119 88.0268C73.3312 86.9299 72.7505 85.833 72.2988 84.6716C73.5893 87.1235 75.1379 89.4464 77.0091 91.5112C76.9446 91.5112 76.88 91.5112 76.8155 91.5112C76.5574 91.4466 76.2993 91.3821 76.0412 91.3176ZM106.432 10.0815C106.884 9.88788 107.4 9.69431 107.852 9.50073C107.529 9.75883 107.142 10.0169 106.819 10.275C102.432 13.5012 98.3021 17.0501 94.3661 20.857C80.2353 35.0524 68.4919 56.7325 71.3955 77.2513C71.8471 80.2194 72.7505 83.0585 73.9764 85.833C75.0088 88.0914 76.2348 90.2852 78.106 91.8983C77.977 91.8983 77.9124 91.8338 77.7834 91.8338C75.2024 89.0592 73.2667 85.704 71.6536 82.2197C70.8793 80.542 70.1695 78.6708 69.5888 76.7996C69.2016 75.1865 68.879 73.5734 68.6854 71.9603C66.8142 53.5709 76.2993 34.9878 89.7204 22.5992C93.3337 19.3084 96.689 16.4694 100.431 13.9529C102.303 12.4689 104.109 11.2429 106.432 10.0815C106.432 10.146 106.432 10.0815 106.432 10.0815ZM101.851 12.0172C98.044 14.1465 94.8178 17.1146 91.269 20.2763C81.0741 29.7614 72.8795 41.8274 69.5888 55.4421C68.9435 58.2166 68.4273 60.9911 68.2338 63.8302C68.4273 51.5706 72.8795 39.44 80.9451 30.1485C84.9456 25.3737 89.8494 20.4053 94.4306 16.7275C95.7211 15.7596 97.0116 14.8563 98.3666 13.9529C98.4312 13.9529 98.4312 13.8884 98.4957 13.8239C99.3345 13.3077 100.173 12.7915 101.012 12.3398C101.206 12.2108 101.528 12.1462 101.851 12.0172ZM86.1715 18.2115C89.9785 16.7275 93.7854 15.2434 97.5923 13.6948C94.4952 15.437 91.7852 17.8889 89.2042 20.3408C85.6553 23.7606 82.3646 27.4385 79.332 31.31C70.8147 42.0855 67.0078 55.313 68.0402 68.605C68.1047 71.5731 68.4919 74.5413 69.2662 77.3803C69.3307 77.6384 69.4597 77.8965 69.5243 78.1546C69.5243 78.2191 69.5243 78.2191 69.5243 78.2837C70.234 81.1873 71.3955 83.9618 72.686 86.6718C73.4603 88.2849 74.3636 89.769 75.4605 91.1885C75.396 91.1885 75.2669 91.124 75.2024 91.124C73.9764 89.9626 73.1376 88.543 72.2343 87.1235C69.9114 83.3166 68.3628 79.3161 67.1369 75.0575C62.5556 58.7973 66.2335 40.666 76.9446 27.503C78.6222 25.3092 81.0096 22.7927 83.2034 20.7925C84.1068 19.9537 85.0101 19.1794 85.9134 18.3406C86.0425 18.276 86.107 18.2115 86.1715 18.2115ZM80.687 20.3408C81.9775 19.8246 83.2679 19.3084 84.4939 18.8568C81.6548 21.3087 79.0093 24.0832 76.6865 27.0514C65.2011 40.9241 61.8459 60.8621 67.6531 77.8965C69.1371 82.2842 71.1374 86.4783 73.9119 90.2207C74.1055 90.4788 74.3636 90.7369 74.5572 90.995C71.6536 90.2207 68.75 89.4464 65.9109 88.6721C61.2006 85.3813 57.2646 76.0253 55.7806 70.4762C52.2963 57.7004 54.361 45.957 61.4587 34.8588C63.3299 31.8907 65.3302 29.4388 67.7821 26.9223C68.6209 26.0835 69.4597 25.3092 70.2986 24.4704C70.2986 24.4704 70.3631 24.4059 70.3631 24.3413C73.8474 22.9863 77.2672 21.6958 80.687 20.3408ZM-30.4884 78.6063C-30.553 78.6063 -30.682 78.6708 -30.7465 78.6708C-30.7465 78.5418 -30.7465 78.4127 -30.7465 78.3482C-29.2625 77.3803 -27.3268 77.2513 -25.5201 77.4449C-25.3265 77.703 -25.1974 77.8965 -25.0039 78.1546C-25.4555 78.0901 -25.9717 78.0256 -26.4879 77.9611C-27.8429 77.8965 -29.198 78.2191 -30.4884 78.6063ZM-31.4563 72.9282C-30.682 72.4765 -29.6496 72.4765 -28.6818 72.6055C-28.6172 72.6701 -28.6172 72.7346 -28.5527 72.7991C-28.4237 73.0572 -28.2946 73.2508 -28.101 73.5089C-29.0689 73.2508 -30.2949 73.1217 -31.3918 73.1217C-31.3918 73.0572 -31.3918 72.9927 -31.4563 72.9282ZM-13.7121 37.7624C-12.6797 37.6333 -11.5828 37.3752 -10.5504 37.1171C-11.1957 37.7624 -11.8409 38.4076 -12.4862 39.0529C-16.6802 39.8917 -21.455 38.7948 -24.6167 35.8267C-23.1972 36.73 -21.455 37.5688 -19.8419 37.8914C-17.8417 38.2786 -15.7769 38.0205 -13.7121 37.7624ZM-5.00133 31.2454C-5.32396 31.31 -5.64658 31.31 -5.90468 31.3745C-7.64683 31.5035 -9.38899 31.439 -11.0666 31.1809C-13.8412 30.7938 -16.9383 30.1485 -19.3903 28.6645C-21.0034 27.6966 -22.552 26.6642 -23.6489 25.2447C-21.9712 27.0514 -19.7129 28.5999 -17.4545 29.5678C-13.9702 30.9873 -10.2278 31.31 -6.48539 31.3745C-5.9692 31.31 -5.453 31.31 -5.00133 31.2454ZM-1.77512 31.31C-1.06535 30.5357 -0.291061 29.7614 0.418709 28.9871C1.38657 35.375 6.7421 40.8596 11.9686 44.2793C11.2588 44.5374 10.549 44.7955 9.83926 45.1182C8.3552 44.3439 7.06472 43.247 5.77423 42.0855C2.35444 39.1819 -0.355583 35.4395 -1.77512 31.31ZM70.4276 23.1799C66.04 24.793 61.6523 26.3416 57.2646 27.8902C55.9096 27.9547 54.5546 27.8256 53.1996 27.6966C48.2958 27.1804 42.9402 26.2125 38.4881 23.567C32.8099 20.5344 27.5189 16.4048 25.1315 10.2105C24.4863 8.66192 24.0991 7.11333 24.0346 5.6938C24.0346 5.50023 24.0346 5.37118 24.0346 5.24213C24.1637 5.88737 24.4863 6.79071 24.5508 7.11333C24.938 8.14572 25.5187 9.37168 26.293 10.5331C32.8099 19.8892 44.5533 23.3089 55.458 23.9542C60.4909 24.2768 65.5238 24.0832 70.4276 23.1799ZM49.5863 67.0564C47.715 54.9904 50.8122 42.15 59.0068 33.2457C61.4587 30.4066 64.5559 27.6966 67.2014 25.5028C67.6531 25.3092 68.1693 25.1156 68.6209 24.9866C68.5564 24.9866 68.5564 25.0511 68.5564 25.0511C66.169 27.3095 64.0397 29.8904 62.233 32.6004C53.8448 44.8601 51.7156 58.6038 56.2323 72.7991C58.168 78.2837 60.5554 83.8328 64.6204 88.0268C64.7495 88.1559 64.943 88.285 65.1366 88.4785C63.0073 87.8978 60.9425 87.3171 58.8132 86.7364C53.8449 81.1873 50.4251 74.2832 49.5863 67.0564ZM58.297 86.5428C58.2325 86.5428 58.1035 86.4783 58.0389 86.4783C56.1677 84.8652 54.6837 82.9939 53.2641 80.9937C51.1348 78.0256 49.3927 74.9284 48.3603 71.5086C44.4888 59.6361 45.5857 46.1506 52.1027 35.8267C53.7803 33.2457 55.0063 31.6971 56.4903 30.0195C56.813 29.6969 57.1356 29.3742 57.4582 29.1161C59.9747 28.1483 62.4911 27.2449 65.0076 26.2771C62.9428 27.9547 61.0716 29.8904 59.2649 31.8907C51.4575 40.3434 47.9086 52.2158 49.0055 63.8947C49.5217 71.315 51.9736 78.6708 56.6839 84.478C57.2001 85.1878 57.7808 85.833 58.297 86.5428ZM24.5508 10.146C25.5187 12.4689 26.8092 14.7272 28.5513 16.5339C31.1968 19.502 34.4876 21.7604 37.9073 23.6316C42.6821 26.4061 48.0377 28.1483 53.5868 28.5354C54.1675 28.5354 54.7482 28.5999 55.3289 28.5999C53.006 29.4388 50.6186 30.2776 48.2958 31.1164C44.3598 31.1809 40.4883 30.7292 36.6169 29.8259C28.7449 28.2773 21.131 24.0187 16.6143 17.6953C16.0336 16.921 15.1948 15.5015 15.0012 15.0498C14.8722 14.7272 14.8722 14.7272 14.8076 14.4691C17.7112 11.501 20.6148 8.59739 23.4539 5.56475C23.3894 7.11333 23.9701 8.72644 24.5508 10.146ZM47.2634 31.439C43.3919 32.794 39.585 34.149 35.7135 35.5686C35.649 35.504 35.5199 35.504 35.3264 35.4395C34.294 35.1169 32.6809 34.5362 31.9711 34.2781C29.2611 33.1812 25.7768 31.31 23.4539 29.2452C20.0986 26.2125 17.066 22.8573 15.2593 18.6632C14.9367 17.8889 14.485 16.6629 14.2914 15.6951C14.7431 16.5984 15.4529 17.5018 15.6465 17.6953C21.3246 24.5349 28.4868 28.729 37.2621 30.3421C40.5528 31.0519 43.9081 31.439 47.2634 31.439ZM21.4536 27.6966C24.5508 31.0519 28.4223 33.7619 32.7454 35.375C33.1971 35.504 33.5842 35.6976 34.0359 35.8267C26.293 34.5362 17.4531 27.1804 14.7431 20.5989C14.2269 19.3084 13.7107 18.0825 13.3236 16.7275C13.2591 16.5339 13.2591 16.2758 13.0655 16.2113C13.0655 16.2113 13.0655 16.2113 13.001 16.2113C13.3236 15.8886 13.6462 15.566 13.9043 15.3079C14.8722 20.1472 18.1629 24.2123 21.4536 27.6966ZM12.8719 17.1791C13.0655 17.6953 13.4526 18.5987 13.7107 19.1794C15.6465 24.3413 19.5179 28.4064 23.9701 31.5035C27.0027 33.6328 30.4225 35.4395 34.1004 35.9557C34.2295 35.9557 34.423 36.0202 34.5521 36.0202C31.4549 37.1171 28.4223 38.2141 25.3251 39.3755C25.1315 39.311 24.938 39.1819 24.7444 39.0529C18.55 35.7621 13.4526 28.9226 11.1297 23.1799C10.6136 21.9539 10.2264 20.728 9.90379 19.4375C10.42 18.9213 11.0007 18.3406 11.5169 17.8244C11.904 17.4372 12.2912 17.0501 12.6783 16.6629C12.6783 16.8565 12.8074 16.9856 12.8719 17.1791ZM24.7444 39.5046C24.7444 39.5691 24.8089 39.5691 24.7444 39.5046C24.6799 39.5691 24.6153 39.5691 24.4863 39.6336C17.5177 37.3752 11.1297 31.3745 8.67783 24.922C8.29068 23.8251 8.03258 22.9863 7.90353 22.083C7.83901 21.9539 7.90353 21.7604 7.77449 21.5023C8.29068 20.9861 8.80688 20.4053 9.32307 19.8892C11.1297 28.4064 17.195 35.6331 24.7444 39.5046ZM0.934906 70.2181C-0.420105 67.9598 -1.38797 65.6369 -1.96869 63.1205C-2.74298 59.1199 -2.54941 54.6032 -0.549156 51.1189C-0.0974884 50.9254 0.354187 50.7318 0.805855 50.6027C0.225136 52.6675 0.0960846 54.8613 0.0960846 56.9906C0.0315628 61.3783 1.25752 65.766 3.38683 69.5729C3.45135 69.7665 4.22564 70.9924 4.87089 72.0248C3.77398 71.7022 2.67706 71.4441 1.58015 71.1215C1.32205 70.7989 1.12848 70.5408 0.934906 70.2181ZM1.25753 71.0569C1.193 71.0569 1.12848 70.9924 0.999428 70.9924C-0.16201 69.831 -1.12988 68.5405 -1.90417 67.0564C-3.71085 63.5721 -4.74324 59.5071 -4.54966 55.5066C-4.48514 54.3451 -4.35609 53.2482 -4.29157 52.603C-3.3237 52.2158 -2.29131 51.8287 -1.32345 51.4415C-1.96869 52.7966 -2.35584 54.3451 -2.54941 55.8937C-3.25918 61.1202 -1.71059 66.6048 1.25753 71.0569ZM0.741329 61.3138C0.289658 57.9585 0.354183 54.3451 1.193 51.1835C1.25753 50.9254 1.38657 50.6027 1.4511 50.2801C4.22565 49.1832 6.93567 48.1508 9.71022 47.0539C8.48425 49.5703 8.16163 52.4739 7.96806 55.313C7.58091 61.5073 8.93592 67.9598 12.4202 73.1862C12.6138 73.5089 12.8719 73.8315 13.13 74.1541C11.3878 73.7024 9.64569 73.2508 7.90353 72.7346C7.06472 72.541 6.16137 72.2829 5.32256 72.0248C2.99968 68.8631 1.38657 65.1852 0.741329 61.3138ZM12.6783 72.9282C8.93592 67.7017 7.83901 61.1847 8.29068 54.9259C8.48425 52.1513 8.93592 49.3768 10.1619 46.9248C10.549 46.7958 10.9362 46.6022 11.3233 46.4732C11.3233 46.4732 11.3233 46.4732 11.3233 46.5377C11.1943 46.7313 11.1297 46.9894 11.0652 47.1184C10.8071 47.8282 10.549 48.6025 10.3555 49.3768C9.19402 53.7644 9.58117 58.4102 10.9362 62.6688C12.1621 66.9919 14.1624 71.1215 17.1305 74.6058C17.4531 74.9284 17.7112 75.251 18.0339 75.5736C16.6143 75.1865 15.1948 74.7994 13.8398 74.4122C13.3881 73.896 13.0655 73.4444 12.6783 72.9282ZM12.0331 46.1506C12.0976 46.086 12.2267 46.086 12.2912 46.0215C10.0974 51.377 10.2264 58.0876 11.5814 63.5721C12.8074 68.0243 15.3238 71.9603 18.292 75.4446C17.7112 74.8639 17.1305 74.2832 16.6788 73.6379C13.5817 69.7665 11.5814 64.8626 10.4845 59.8942C9.71021 56.539 9.77474 53.1192 10.549 49.8284C10.7426 49.1187 11.0007 48.4089 11.2588 47.6991C11.3233 47.6991 11.3878 47.6346 11.3878 47.5701C11.5169 47.0539 11.7105 46.6667 12.0331 46.1506ZM16.5498 72.9282C13.7752 69.0567 11.9686 64.3464 11.6459 59.8297C11.3233 55.2485 11.4524 51.3125 12.6138 47.5056C12.8074 46.8603 13.0655 46.2151 13.2591 45.6344C13.5172 45.5698 13.7752 45.4408 14.0333 45.3763C13.5817 46.5377 13.1945 47.7637 12.9364 48.9896C11.8395 53.6354 12.2912 58.5392 13.5172 63.1205C14.6786 68.0888 17.5177 72.541 21.002 76.2834C21.002 76.2834 21.002 76.3479 21.0665 76.3479C20.2922 76.1544 19.5824 75.9608 18.8081 75.7672C17.9693 74.7994 17.2596 73.896 16.5498 72.9282ZM15.5174 67.4436C13.3236 62.4752 12.4202 56.668 13.13 51.0544C13.3236 49.3122 13.9688 46.8603 14.6786 45.1182C17.1305 44.1503 19.5824 43.247 22.0344 42.3436C21.5182 43.247 21.2601 44.2793 20.9375 45.1827C19.7115 49.893 20.0986 54.7968 20.9375 59.5716C22.0344 65.1207 23.3894 70.7989 26.5511 75.5091C27.1963 76.477 27.9061 77.4449 28.6158 78.3482C26.5511 77.7675 24.4863 77.2513 22.4215 76.6706C19.5179 74.0251 17.195 71.0569 15.5174 67.4436ZM29.0675 78.0256C28.1642 76.9932 27.4544 76.0253 26.6156 74.8639C24.4863 71.9603 23.3248 68.6695 22.357 65.1852C20.9374 59.7652 20.0341 53.958 20.6794 48.538C20.8729 47.2475 21.131 45.957 21.5182 44.7955C21.3891 45.4408 21.3246 45.8925 21.2601 46.086C20.4213 50.022 20.8729 54.0225 21.7763 57.9585C22.9377 63.8947 26.0349 69.1857 29.4547 74.0251C31.0032 76.1544 32.5518 78.2837 34.5521 80.0258C32.939 79.5742 31.3259 79.1225 29.6482 78.7353C29.5192 78.4127 29.1966 78.2191 29.0675 78.0256ZM33.0035 77.8965C31.1323 75.7672 29.5192 73.4443 27.9706 70.9924C24.938 66.2821 22.6796 61.3783 21.8408 55.7647C21.3246 52.8611 21.0665 49.8284 21.7117 46.9894C22.0989 45.3117 22.486 43.5696 23.0022 41.9565C23.3248 41.8274 23.6475 41.6984 23.9701 41.5693C23.6475 42.4727 23.4539 43.376 23.2603 44.2793C22.8732 47.2475 23.0022 50.2801 23.1958 53.3128C23.712 58.6683 25.067 64.0238 27.4544 68.9276C28.9385 71.7667 30.7451 74.4122 32.6809 76.9287C33.5197 77.9611 34.3585 79.058 35.1973 80.0904H35.1328C34.3585 79.5096 33.7133 78.6708 33.0035 77.8965ZM18.1629 42.021C15.6465 40.2143 12.9364 37.8914 11.1943 35.4395C8.6133 31.9552 6.54852 26.9868 6.03233 23.3735C6.35495 23.0508 6.67757 22.7282 7.00019 22.4056C7.12924 22.8573 7.32281 23.3089 7.38734 23.5025C9.90379 30.0195 14.9367 35.6331 21.2601 38.7303C22.2279 39.1819 23.1958 39.5691 24.2282 39.8917C22.1634 40.5369 20.1632 41.2467 18.1629 42.021ZM4.16112 22.6637C3.64493 23.1799 3.12873 23.6961 2.54801 24.2123C-3.38823 26.0835 -9.77613 26.4061 -15.7124 24.5349C-18.4224 23.8897 -20.6162 22.4056 -22.552 20.4053C-20.8743 21.6313 -19.1322 22.6637 -17.1319 23.2444C-12.099 24.7285 -6.67897 24.922 -1.51702 23.9542C0.741329 23.567 2.93516 22.9218 4.99994 21.8894C4.67731 22.1475 4.41922 22.4056 4.16112 22.6637ZM5.38708 24.0187C5.64518 25.6963 6.41947 27.374 7.06472 28.9871C9.12949 34.3426 13.2591 38.9238 17.6467 42.2791C17.2596 42.4081 16.9369 42.5372 16.5498 42.6662C11.904 40.2788 8.29068 36.4074 5.77423 31.9552C4.74184 30.1485 3.64492 28.0192 3.38683 26.2125C3.38683 26.148 3.38683 26.148 3.38683 26.0835C3.96754 25.3737 4.67732 24.664 5.38708 24.0187ZM4.80637 30.6647C6.7421 34.2781 9.19402 37.7624 12.5493 40.2788C13.7752 41.1822 15.0012 42.021 16.2917 42.7308C15.0012 43.1824 13.7752 43.6986 12.4848 44.1503C12.4848 44.1503 12.4202 44.1503 12.4202 44.0858C6.67757 40.795 1.83825 35.3105 0.805855 28.6645C1.51562 27.9547 2.22539 27.2449 2.93516 26.5352C3.25778 28.0192 4.03207 29.3097 4.80637 30.6647ZM7.12924 43.6986C7.83901 44.2793 8.67783 44.7955 9.45212 45.2472C8.41973 45.6344 7.38734 46.0215 6.35495 46.4087C4.22565 45.2472 2.22539 43.6341 0.547756 41.8274C-1.51702 39.5046 -3.00108 36.5364 -3.64632 33.2457C-3.64632 33.1812 -3.64632 33.1166 -3.64632 33.0521C-3.13013 32.5359 -2.61394 32.0197 -2.16227 31.5035C-0.226536 36.4074 3.06421 40.5369 7.12924 43.6986ZM-2.16227 38.9884C-0.742729 41.5693 1.38657 43.6986 3.90302 45.2472C4.03207 45.3763 5.06446 46.0215 5.9678 46.5377C5.4516 46.7313 4.87088 46.9894 4.35469 47.1829C-0.420109 44.4729 -3.8399 39.44 -4.67871 34.2136C-4.48514 33.9555 -4.22704 33.7619 -4.03347 33.5038C-3.71085 35.4395 -3.00108 37.2462 -2.16227 38.9884ZM-3.45275 39.1174C-1.90417 42.6017 0.870377 45.2472 3.96754 47.3765C3.90302 47.441 3.77397 47.441 3.70945 47.5056C1.38657 46.4732 -0.742729 44.5374 -2.48489 42.5372C-4.098 40.6015 -5.06586 37.8269 -5.58205 35.1169C-5.38848 34.9233 -5.19491 34.7297 -5.00133 34.5362C-4.74324 36.1493 -4.098 37.6979 -3.45275 39.1174ZM0.547756 46.0215C1.38657 46.6022 2.28991 47.2475 3.25778 47.6346C2.54801 47.8927 1.83825 48.2153 1.12848 48.4734C0.999428 48.4089 0.87038 48.3444 0.805855 48.2799C-1.77512 46.6668 -3.71085 44.2793 -5.00133 41.4403C-5.77563 39.7626 -6.42087 37.8914 -6.48539 35.9557C-6.35634 35.8267 -6.2273 35.6976 -6.09825 35.5686C-5.13038 39.8917 -3.3237 43.3115 0.547756 46.0215ZM-5.25943 41.8274C-3.96895 44.602 -1.77512 46.9248 0.676807 48.667C0.676807 48.667 0.676804 48.667 0.741329 48.7315C-0.613682 49.1832 -1.90417 49.6994 -3.19465 50.2156C-4.80776 48.667 -6.16277 46.6667 -7.32421 44.5374C-8.29208 42.7308 -9.06637 40.8596 -9.32446 38.8593C-8.48565 38.0205 -7.64683 37.1817 -6.87254 36.3429C-6.74349 38.2786 -6.09825 40.1498 -5.25943 41.8274ZM-4.098 49.893C-3.96895 50.022 -3.77537 50.2156 -3.64632 50.4092C-4.22704 50.6673 -4.87229 50.9254 -5.453 51.1189C-5.64658 50.9254 -5.84015 50.7318 -5.9692 50.4737C-7.51778 48.4734 -9.13089 46.086 -9.77613 43.6341C-10.1633 42.2791 -10.1633 40.9241 -9.96971 39.5691C-9.90518 39.5046 -9.77613 39.3755 -9.71161 39.311C-8.93732 43.247 -6.80802 46.9248 -4.098 49.893ZM-10.2278 43.5051C-9.38899 46.4087 -7.51778 48.9251 -5.64658 51.248C-5.84015 51.3125 -6.03372 51.377 -6.16277 51.4415C-9.13089 48.8606 -11.5183 45.8925 -12.4862 42.15C-11.7764 41.4403 -11.0666 40.7305 -10.3569 40.0207C-10.5504 41.1822 -10.4859 42.3436 -10.2278 43.5051ZM-7.19516 51.0544C-7.00159 51.248 -6.80802 51.4416 -6.61444 51.5706C-6.74349 51.6351 -6.87254 51.6996 -7.00159 51.7642C-7.06611 51.6996 -7.13064 51.6996 -7.19516 51.6351C-8.8728 50.3446 -10.0342 48.7961 -11.1957 47.0539C-12.0345 45.6989 -12.6797 44.4084 -13.0023 42.8598C-13.0023 42.7953 -13.0023 42.7308 -13.0023 42.7308C-12.9378 42.6662 -12.9378 42.6662 -12.8733 42.6017C-11.97 45.8925 -9.84066 48.7961 -7.19516 51.0544ZM-11.3892 47.2475C-10.2923 48.9896 -8.93732 50.6027 -7.32421 51.8932C-8.48565 52.3449 -9.64709 52.8611 -10.8085 53.3128C-10.873 53.2482 -11.0021 53.1192 -11.0666 53.0547C-12.6797 50.9254 -13.3895 47.6991 -13.454 45.0536C-13.454 44.2794 -13.454 43.6341 -13.325 42.9889L-13.2604 42.9243C-12.9378 44.4084 -12.1635 45.8925 -11.3892 47.2475ZM-11.1957 53.5063C-13.3895 51.1835 -14.9381 48.0218 -15.0026 44.6665C-14.6155 44.2793 -14.2928 43.9567 -13.9057 43.5696C-14.3574 47.0539 -13.2605 50.6673 -11.1957 53.5063ZM-5.9692 53.2482C-5.7111 53.1192 -5.38848 52.9901 -5.13038 52.9256C-5.13038 53.6999 -5.13038 54.4742 -5.13038 55.313C-4.93681 60.4104 -3.5818 65.7014 -0.355583 69.7665C-0.032959 70.1536 0.289661 70.5408 0.612282 70.8634C-1.25892 70.3472 -3.06561 69.831 -4.93681 69.3793C-5.00134 69.2503 -5.13038 69.1212 -5.19491 68.9922C-7.06611 65.3143 -7.32421 60.5395 -6.87254 56.7325C-6.61444 55.5066 -6.35634 54.3451 -5.9692 53.2482ZM-23.907 76.0898C-22.81 73.5734 -20.8743 71.4441 -18.4224 70.0891C-17.5836 69.5729 -16.7448 69.1857 -15.8414 68.8631C-14.7445 69.1212 -13.6476 69.3793 -12.5507 69.6374C-16.2286 70.6698 -19.3257 73.5089 -21.455 76.606C-21.7777 77.1868 -22.1003 77.703 -22.3584 78.3482C-22.8746 77.5739 -23.3908 76.8641 -23.907 76.0898ZM-25.1329 74.2832C-25.0039 74.1541 -24.9394 74.0251 -24.8103 73.896C-22.81 71.186 -19.7129 69.4438 -16.4867 68.7341H-16.4221C-17.1319 68.9922 -17.8417 69.3793 -18.4869 69.7665C-20.9388 71.1215 -22.9391 73.2508 -24.1005 75.7672C-24.2941 75.5091 -24.4232 75.251 -24.6167 74.9929C-24.7458 74.7994 -24.9394 74.5413 -25.1329 74.2832ZM-7.64683 61.1202C-7.45326 64.0238 -6.61444 66.7983 -5.19491 69.3148C-5.32396 69.2503 -5.453 69.2503 -5.58205 69.2503C-7.13064 67.3145 -7.90493 64.7981 -8.29208 62.3462C-8.74375 59.6361 -8.67922 56.668 -7.64683 54.0225C-7.38873 53.8935 -7.13064 53.8289 -6.87254 53.6999C-7.64683 56.0228 -7.77588 58.6037 -7.64683 61.1202ZM-7.84041 65.0562C-7.38873 66.5402 -6.67897 67.9598 -5.7111 69.1857C-7.06611 68.7986 -8.42112 68.476 -9.84066 68.0888C-10.6795 65.766 -10.873 63.4431 -10.6795 60.9911C-10.4859 58.6683 -9.90518 56.3454 -8.67922 54.4097C-8.48565 54.3451 -8.3566 54.2806 -8.16303 54.2161C-9.06637 57.7004 -8.93732 61.5073 -7.84041 65.0562ZM-16.9383 68.605C-17.1964 68.6695 -17.5191 68.7986 -17.7772 68.8631C-20.7453 69.7665 -23.3908 71.6377 -25.1974 74.1541C-25.391 73.896 -25.5846 73.6379 -25.7136 73.3798C-24.2941 70.8634 -21.6486 68.9276 -18.8095 68.0888C-18.2288 68.2824 -17.5836 68.476 -16.9383 68.605ZM-27.1332 74.9284C-27.0687 74.9929 -27.0041 75.122 -26.9396 75.1865C-27.972 74.8639 -29.327 74.7348 -30.4884 74.9929C-30.682 75.0575 -30.8756 75.0575 -31.1337 75.122C-31.1337 75.0575 -31.1337 75.0575 -31.1337 74.9929C-30.8756 74.8639 -30.682 74.7994 -30.553 74.7348C-29.5851 74.3477 -28.6172 74.2832 -27.6494 74.2832C-27.4558 74.5413 -27.2622 74.7348 -27.1332 74.9284ZM-31.0692 75.4446C-29.5851 75.0575 -28.101 75.122 -26.6815 75.6382C-26.617 75.7027 -26.617 75.7672 -26.5525 75.8317C-28.0365 75.6382 -29.5851 76.0253 -30.8756 76.7996C-30.9401 76.3479 -31.0046 75.8963 -31.0692 75.4446ZM-26.4234 75.9608C-26.2298 76.2189 -26.1008 76.477 -25.9072 76.7351C-27.1332 76.4125 -28.4237 76.3479 -29.6496 76.7351C-30.0368 76.7996 -30.4239 76.9287 -30.8756 77.0577C-29.5206 76.2189 -27.972 75.7027 -26.4234 75.9608ZM-30.8756 77.1868C-29.9722 76.9287 -29.0689 76.7996 -28.101 76.7351C-27.3268 76.7351 -26.5525 76.8641 -25.7136 77.0577C-25.6491 77.1222 -25.6491 77.1868 -25.5846 77.2513C-26.746 77.1222 -27.972 77.1222 -29.1334 77.3803C-29.7142 77.5094 -30.2949 77.7675 -30.7465 78.1546C-30.8111 77.832 -30.8111 77.5094 -30.8756 77.1868ZM-22.2293 78.5418C-21.6486 76.7996 -20.2936 75.3156 -19.0031 73.9605C-17.0674 72.0893 -14.8736 70.4117 -12.2281 69.7019C-11.5828 69.831 -11.0021 70.0246 -10.3569 70.1536C-13.0669 70.7989 -15.6478 72.3474 -17.7126 73.896C-19.3257 75.0575 -21.326 76.8641 -22.0358 78.8644C-22.1003 78.7353 -22.1648 78.6708 -22.2293 78.5418ZM-17.1964 74.2186C-14.8736 72.412 -11.97 70.9924 -9.06637 70.4762C-8.29207 70.6698 -7.51778 70.8634 -6.67897 71.0569C-10.744 72.9927 -14.2283 75.9608 -16.4867 79.8323C-17.261 81.2518 -18.0998 82.8004 -18.1643 84.4135C-19.3257 82.7359 -20.5517 80.9937 -21.7131 79.3161C-21.5841 79.1225 -21.5196 78.9934 -21.3905 78.8644C-20.1 77.3803 -18.8741 75.7027 -17.1964 74.2186ZM-17.261 81.6389C-16.8093 80.6711 -16.2286 79.7032 -15.5833 78.7999C-13.3895 75.4446 -10.2278 72.8636 -6.48539 71.186C-6.48539 71.186 -6.42087 71.186 -6.42087 71.1215C-5.06586 71.4441 -3.71085 71.7667 -2.29131 72.0893C-8.3566 72.8636 -13.5185 77.7029 -16.6157 82.8649C-17.0029 83.5101 -17.39 84.2199 -17.7126 84.9297C-17.8417 84.7361 -17.9707 84.6071 -18.0998 84.4135C-18.0998 83.4456 -17.7126 82.4778 -17.261 81.6389ZM-17.5836 84.9297C-17.3255 84.2844 -16.8093 83.5101 -16.4221 82.8004C-13.0023 77.3803 -7.58231 72.7991 -1.12988 72.3474C0.805855 72.7991 2.74158 73.2508 4.67731 73.767C-0.613682 75.251 -5.453 78.2191 -9.19542 82.0906C-11.1957 84.349 -12.8088 87.1235 -14.0993 89.9626C-14.0993 90.0271 -14.1638 90.1562 -14.2283 90.2207C-14.8736 89.2528 -15.5188 88.2849 -16.164 87.3171C-16.6802 86.5428 -17.1964 85.833 -17.7126 85.0587C-17.6481 85.0587 -17.5836 84.9942 -17.5836 84.9297ZM-13.0023 89.5109C-12.2926 87.7042 -10.615 84.6071 -9.32446 82.9294C-5.77563 78.6063 -0.807251 75.8963 4.41922 74.2186C4.74184 74.0896 5.12899 74.0251 5.45161 73.9605C5.64518 74.0251 5.83875 74.0251 5.9678 74.0896C5.06446 74.4122 4.16112 74.7348 3.3223 75.0575C-3.25918 77.9611 -7.84041 82.8649 -10.4214 89.5754C-11.0021 91.0595 -11.5183 92.6081 -11.6473 94.1567C-12.3571 93.1243 -13.0023 92.0919 -13.7121 91.0595C-13.3895 90.6078 -13.1959 89.9626 -13.0023 89.5109ZM-11.1957 93.1888C-10.8085 91.2531 -10.0342 89.4464 -9.25994 87.7042C-8.0985 85.3168 -6.67897 83.0585 -4.87228 81.1227C-2.87203 78.9934 -0.484631 77.3803 2.16087 76.0898C3.45135 75.4446 4.80636 74.9929 6.29042 74.5413C6.48399 74.4767 6.74209 74.4122 6.93567 74.3477C7.19376 74.4122 7.45187 74.4767 7.70996 74.5413C3.8385 75.7672 0.289661 78.1546 -2.74298 80.8646C-6.09825 84.0263 -8.29208 88.2849 -9.77613 92.6081C-10.0988 93.6405 -10.3569 94.6729 -10.5504 95.7698C-10.873 95.3181 -11.1311 94.9309 -11.4538 94.4793C-11.3247 94.0276 -11.2602 93.5759 -11.1957 93.1888ZM-9.45351 92.6081C-8.16303 88.9302 -6.16277 85.3813 -3.5818 82.5423C-0.032959 78.9289 4.29017 76.1544 9.12949 74.8639C9.58117 74.9929 10.0328 75.0575 10.4845 75.1865C9.64569 75.4446 8.74235 75.7027 7.90353 76.0898C0.934906 79.187 -4.42061 85.3813 -7.13064 92.4145C-7.8404 94.4793 -8.3566 96.6086 -8.48565 98.8024C-9.13089 97.8991 -9.71161 96.9312 -10.3569 96.0279C-10.0988 94.931 -9.84066 93.7695 -9.45351 92.6081ZM-3.38823 85.9621C-0.807251 82.0906 2.87063 78.9934 7.19376 76.9932C8.41972 76.3479 9.64569 75.9608 11.1297 75.6382C11.2588 75.6382 11.4524 75.5737 11.5814 75.4446C12.4202 75.6382 13.2591 75.8317 14.0979 76.0898C4.0966 79.3806 -3.96895 86.2847 -7.19516 96.6086C-7.51778 97.5764 -7.8404 98.5443 -8.03398 99.5767C-8.0985 99.4477 -8.22755 99.3186 -8.29208 99.1896C-8.03398 94.3502 -6.09825 89.898 -3.38823 85.9621ZM-7.64683 99.5122C-7.51778 98.6088 -7.13064 97.3184 -6.74349 96.286C-3.96894 87.7042 2.80611 81.3808 10.8071 78.1546C12.1621 77.5739 13.8398 76.9287 15.4529 76.4125C16.8079 76.7351 18.1629 77.1222 19.5824 77.4449C19.1308 77.6384 18.6791 77.832 18.0984 78.0256C15.6465 79.058 13.13 80.0904 10.8717 81.5744C6.67757 84.349 3.38683 88.3495 0.87038 92.6726C-1.38797 96.4795 -2.87203 100.609 -3.77537 104.932C-3.8399 105.19 -3.8399 105.384 -3.90442 105.642C-5.13038 103.771 -6.42087 101.9 -7.64683 100.028C-7.64683 99.8348 -7.64683 99.6412 -7.64683 99.5122ZM4.35469 88.0268C6.29042 85.704 8.48425 83.5101 10.9362 81.897C13.0655 80.542 15.3884 79.5096 17.6467 78.6708C18.8081 78.2191 19.9051 77.8965 20.8084 77.703C22.2925 78.0901 23.841 78.4772 25.3251 78.7999C22.0989 79.3806 19.0662 81.0582 16.1626 82.5423C13.13 84.2199 10.0974 86.0266 7.51638 88.3495C3.19325 92.35 -0.291058 97.3829 -2.22679 103.061C-2.61393 104.158 -3.00108 105.19 -3.38823 106.416L-3.71085 105.9C-2.74298 99.3831 0.354183 93.0597 4.35469 88.0268ZM-1.58155 102.48C0.999428 94.8664 6.80662 88.3495 13.7752 84.349C17.195 82.4132 20.5503 80.6066 24.2927 79.6387C22.8087 80.2194 21.131 81.0582 20.9375 81.1227C11.6459 85.9621 3.90302 94.2212 0.741329 104.352C0.0960846 106.416 -0.420109 108.546 -0.549156 110.675C-1.32345 109.513 -2.09774 108.352 -2.87203 107.191C-2.87203 107.126 -2.80751 106.997 -2.80751 106.932C-2.48489 105.384 -2.03321 103.9 -1.58155 102.48ZM2.03181 101.577C3.90302 97.0602 6.80662 92.8016 10.2909 89.3173C13.13 86.2847 16.3562 83.8328 20.0341 81.897C22.1634 80.7356 24.2927 79.8968 26.5511 79.187C27.777 79.5096 29.0675 79.8323 30.2935 80.1549C26.422 80.7356 22.6796 82.4132 19.1953 84.2199C11.0007 88.8011 5.12898 96.7376 1.38657 105.19C0.612282 107.062 0.0960884 109.062 -0.291058 110.998C-0.291058 110.933 -0.355583 110.933 -0.355583 110.868C-0.291058 107.707 0.870377 104.545 2.03181 101.577ZM28.8739 80.8646C28.2287 81.0582 27.5835 81.3163 26.9382 81.5744C19.2598 84.7361 11.8395 89.5109 6.80662 96.1569C12.0976 88.6076 19.9696 82.6713 28.8739 80.8646ZM2.09634 104.932C1.25753 107.255 0.612282 109.707 0.418709 112.159C0.289658 111.965 0.16061 111.772 0.0315628 111.578C0.0960884 111.449 0.0960884 111.32 0.160614 111.191C0.676807 109.126 1.25753 106.997 2.09634 104.932ZM25.3896 82.7358C26.9382 82.0261 29.132 81.2518 31.0032 80.8646C31.3904 80.8001 31.713 80.7356 32.2937 80.6066C33.2616 80.8646 34.1649 81.1227 35.1328 81.3163C32.8745 81.8325 29.6482 83.0585 29.1966 83.1875C25.1961 84.7361 21.5182 87.059 18.0339 89.5754C12.8074 93.3824 7.90353 98.0281 5.58065 104.158C4.16112 107.707 3.25778 111.514 2.93516 115.385C2.93516 115.514 2.93516 115.708 2.93516 115.837C2.22539 114.804 1.58015 113.708 0.87038 112.675C1.70919 98.8024 12.6138 87.7687 25.3896 82.7358ZM9.38759 98.0281C14.1624 92.0919 21.3891 87.2526 28.2287 84.2844C30.8742 83.2521 33.6487 82.2842 36.4878 81.768H36.5523C36.6169 81.768 36.6814 81.768 36.7459 81.8325C35.9071 81.9616 35.0683 82.2842 34.294 82.4778C31.5194 83.4456 28.8739 84.8006 26.293 86.2202C15.9691 91.7693 8.48425 100.996 5.12899 112.288C4.61279 114.03 4.03207 115.708 3.8385 117.385C3.64493 117.063 3.45135 116.74 3.25778 116.482C3.25778 116.482 3.25778 116.482 3.25778 116.418C3.5804 109.901 5.38708 103.19 9.38759 98.0281ZM40.2302 81.5099C38.7462 81.1227 37.2621 80.6711 35.7135 80.2839C34.5521 79.058 33.4552 77.7675 32.3583 76.4125C30.487 73.8315 28.6158 71.186 27.2608 68.2179C25.9703 65.2498 24.938 62.0881 24.2927 58.8618C23.3248 53.6999 22.8087 48.0863 24.0346 42.9889C24.2282 42.4081 24.3572 41.8919 24.5508 41.4403C24.3572 42.9889 24.3572 45.4408 24.3572 46.086C24.4863 58.4102 30.6161 70.0246 39.714 78.1546C41.6498 79.9613 43.7145 81.6389 45.9729 82.9939C46.0374 83.0585 46.1665 83.123 46.231 83.1875C44.2953 82.6068 42.295 82.0906 40.2302 81.5099ZM36.9395 74.5413C29.9063 67.121 25.4542 57.1197 25.1315 46.9248C25.067 44.9891 25.1961 43.0534 25.3896 41.1177C29.0675 39.7626 32.8099 38.3431 36.4878 36.9881C29.6482 50.7963 34.6166 68.476 44.2307 79.7032C45.3922 81.0582 46.5536 82.4778 47.9731 83.5747C43.7791 81.2518 40.2947 78.0901 36.9395 74.5413ZM49.0055 83.4456C48.4893 83.0585 48.2312 82.9294 47.8441 82.6068C46.6827 81.6389 45.5857 80.542 44.5534 79.3806C40.3593 74.7348 37.1331 69.2503 35.3909 63.1205C33.3261 56.2809 32.8745 48.8606 35.0037 42.021C35.5845 40.3434 36.1652 38.6657 36.9395 37.1171C37.004 36.9881 37.0685 36.8591 37.1331 36.73C37.2621 36.6655 37.3912 36.601 37.5847 36.601C37.004 38.2786 36.4878 39.9562 36.1007 41.6339C33.4552 54.7323 37.004 68.9276 45.6503 79.1225C47.2634 81.1227 49.0701 82.9294 51.0703 84.5425C50.4896 84.4135 49.9734 84.2199 49.3927 84.0909C49.5217 83.7682 49.1991 83.5747 49.0055 83.4456ZM36.4233 42.6017C36.8104 40.4724 37.6493 38.2141 38.359 36.2783C39.3269 35.9557 40.2947 35.5686 41.1981 35.1814C40.6174 36.73 40.1657 38.3431 39.7785 39.9562C38.1009 49.3768 37.7783 59.4426 41.1981 68.5405C43.2629 73.896 46.5536 78.7353 50.5541 82.8649C51.1994 83.5747 51.9091 84.2199 52.5544 84.8652L51.9091 84.6716C39.6495 74.8639 33.6487 57.9585 36.4233 42.6017ZM52.3608 84.4135C49.7153 81.8325 47.3924 79.1225 45.3922 76.0898C43.0693 72.412 41.1981 68.5405 40.1657 64.3464C38.5526 57.1842 38.7462 49.3768 39.9721 42.3436C40.4238 39.9562 41.5852 36.4074 42.2305 34.9233C42.2305 34.8588 42.2305 34.8588 42.295 34.7943C46.8762 33.1166 51.4575 31.3745 56.0387 29.6969C54.4256 30.9873 53.1351 32.7295 52.0382 34.4717C43.521 47.9572 43.3274 67.0564 52.4898 80.2839C54.0384 82.4132 55.6515 84.5425 57.6518 86.2847C56.1032 85.833 54.6191 85.4459 53.0706 84.9942C52.7479 84.8006 52.4253 84.478 52.3608 84.4135ZM59.2004 87.6397C56.6194 87.9623 54.103 88.6076 51.651 89.3819C47.0698 90.8659 42.4886 92.7371 38.4881 95.5117C30.8097 100.867 24.6153 108.481 20.8084 117.063C19.0662 121.128 17.7758 125.386 17.195 129.774C17.3241 124.612 17.9048 119.45 19.7115 114.546C23.841 103.706 32.3583 94.5438 42.8112 89.3173C45.3276 88.0268 47.715 87.1235 50.4896 86.3492C51.1348 86.1556 51.7801 86.0266 52.4253 85.833C54.6191 86.4783 56.942 87.059 59.2004 87.6397ZM26.422 108.029C29.7773 103.448 34.1004 99.0605 38.8107 95.8343C42.6176 93.2533 46.6181 91.6402 50.8767 90.1562C53.9094 89.1238 57.2646 88.414 60.3618 87.9623C61.6523 88.2849 63.0073 88.6721 64.2978 88.9947C61.6523 89.0592 59.0713 89.4464 56.4903 90.0271C46.4246 92.0919 37.5847 97.9636 30.5516 105.384C26.0994 110.352 22.5506 116.224 19.9696 122.418C18.55 126.225 17.195 130.29 17.1305 134.42C17.195 124.935 21.002 115.643 26.422 108.029ZM25.9058 2.98378C25.9703 3.17735 26.0994 3.37092 26.0994 3.56449C26.8092 5.50022 27.9061 7.37143 29.1966 9.04906C33.4552 14.7272 39.9721 18.2115 46.6827 20.2763C53.8449 22.6637 61.5232 23.1799 69.0081 22.4056C69.3952 22.4056 72.1052 22.1475 74.4281 21.8249C73.4603 22.1475 72.5569 22.5347 71.589 22.8573C64.3623 24.3413 56.813 24.3413 49.6508 23.1154C40.94 21.7604 32.6164 17.8889 27.648 11.0493C26.4865 9.50073 25.3251 7.62953 24.7444 6.08094C24.5508 5.6938 24.5508 4.91951 24.2282 4.66141C24.2282 4.66141 24.2282 4.66141 24.1637 4.66141C24.8734 4.08069 25.3896 3.49997 25.9058 2.98378ZM-25.5846 7.17786C-14.809 16.8565 4.93542 14.4691 17.0015 8.46834C19.4534 7.24238 21.5827 5.56475 23.9056 4.20974C23.4539 4.66141 23.0022 5.04855 22.5506 5.50023C22.486 5.4357 22.357 5.4357 22.2925 5.50023C15.7755 10.5976 8.03258 13.9529 -0.0974846 15.3079C-6.74349 16.5984 -14.0347 16.3403 -19.8419 13.1141C-21.9067 12.0172 -23.7779 10.6622 -25.4555 9.04906C-25.5201 8.40382 -25.5201 7.8231 -25.5846 7.17786ZM-25.4555 12.856C-25.4555 11.6946 -25.4555 10.5331 -25.5201 9.30716L-25.4555 9.37169C-24.2296 10.9203 -22.681 11.8881 -21.1324 12.9205C-10.5504 19.5665 5.32256 15.5015 15.6465 10.0169C17.5822 8.98454 19.3889 7.75858 21.1955 6.53261C19.5824 8.0812 17.9048 9.62978 16.2917 11.1138C5.9678 18.5987 -9.06637 20.9861 -20.6162 15.7596C-22.2939 15.0498 -24.036 14.082 -25.4555 12.856ZM-25.4555 16.2113C-25.4555 15.3724 -25.4555 14.4691 -25.4555 13.6303C-24.3586 14.4691 -22.1003 15.6951 -21.8422 15.8241C-12.8088 20.2763 -2.03322 19.9537 7.25829 16.4694C10.0328 15.5015 12.6783 14.1465 15.0657 12.4689C12.8719 14.5336 10.6781 16.5984 8.48425 18.5987C-0.742729 23.1799 -12.4216 23.9542 -21.5196 18.9858C-22.552 18.4696 -23.5843 17.7598 -24.4232 17.1146C-24.7458 16.8565 -25.1329 16.3403 -25.4555 16.2113ZM-25.262 16.9856C-24.4232 17.8244 -22.4874 18.9213 -22.2293 19.1149C-14.68 23.438 -5.58205 23.567 2.61254 21.3087C4.29017 20.857 5.9678 20.2118 7.58091 19.502C6.87114 20.1472 6.2259 20.7925 5.51613 21.4377C3.25778 22.6637 0.676807 23.3735 -1.90417 23.8251C-7.19516 24.8575 -12.8088 24.4704 -17.9707 22.7282C-19.7129 22.1475 -21.1969 20.9215 -22.6165 19.6956C-23.5198 18.9858 -24.2941 18.147 -25.0684 17.3727C-25.1329 17.2437 -25.1974 17.1146 -25.262 16.9856ZM-25.262 21.6313C-25.262 21.5668 -25.3265 21.5668 -25.3265 21.5668C-25.391 21.5023 -25.391 21.4377 -25.4555 21.3732C-25.4555 20.2118 -25.4555 19.0503 -25.4555 17.8889C-25.391 18.0179 -25.262 18.0825 -25.1329 18.2115C-24.7458 18.7922 -24.3586 19.2439 -24.2296 19.373C-22.681 20.9215 -21.0034 22.4701 -19.0676 23.5025C-15.3898 25.2447 -11.2602 25.9544 -7.25969 25.9544C-4.03347 25.8254 -0.807251 25.4382 2.22539 24.4704C1.32205 25.3092 0.483234 26.148 -0.420109 27.0514C-4.09799 28.5354 -8.3566 28.858 -12.2926 28.4064C-14.1638 28.1483 -15.9059 27.503 -17.6481 26.7933C-19.3903 26.0835 -21.455 24.9866 -23.0681 23.7606C-23.3908 23.5025 -23.907 23.1799 -24.1651 22.9218C-24.5522 22.5992 -24.9394 22.0185 -25.262 21.6313ZM-23.8424 23.7606C-20.7453 25.8254 -17.3255 27.374 -13.7766 28.4064C-11.3247 28.9226 -8.74375 28.9226 -6.2273 28.729C-4.42062 28.5354 -2.67846 28.1483 -0.936302 27.6321C-2.09774 28.729 -3.19465 29.8904 -4.35609 30.9873C-4.80776 31.0519 -5.32396 31.0519 -5.84015 31.1164C-10.744 31.3745 -15.7769 30.6647 -19.9065 28.0192C-21.9067 26.7287 -23.907 24.9221 -24.8748 22.9218C-24.4232 23.3089 -23.9715 23.7606 -23.8424 23.7606ZM-25.4555 22.9863C-25.262 23.3735 -25.0039 23.7606 -24.7458 24.1478C-21.2615 29.6323 -14.2928 31.439 -8.16303 31.6326C-7.06611 31.6326 -5.9692 31.6326 -4.93681 31.5035C-5.7111 32.2133 -6.42087 32.9876 -7.19516 33.6974H-7.25969C-9.00184 33.8909 -10.8085 33.9555 -12.5507 33.6974C-16.035 33.1812 -19.8419 31.6971 -22.4874 29.4388C-23.9715 28.2128 -25.1329 26.8578 -25.5201 25.0511C-25.5201 24.4059 -25.5201 23.6961 -25.4555 22.9863ZM-25.4555 30.3421C-25.4555 28.9871 -25.4555 27.6966 -25.4555 26.3416C-24.9394 27.4385 -24.1005 28.4064 -23.2617 29.1807C-20.0355 32.0197 -15.7124 33.6328 -11.4538 34.02C-10.1633 34.0845 -8.80827 34.0845 -7.51778 33.9555C-7.90493 34.3426 -8.29208 34.7298 -8.67922 35.1169C-14.2928 36.4074 -21.0679 34.7943 -25.0684 30.7292C-25.3265 30.6002 -25.3265 30.4066 -25.4555 30.3421ZM-25.391 34.6652C-25.391 34.2781 -25.391 33.8909 -25.4555 33.5038C-25.4555 32.7295 -25.4555 31.9552 -25.5201 31.1809C-22.1003 33.9555 -17.3255 35.8267 -12.6797 35.7621C-11.3892 35.7621 -10.0988 35.6331 -8.87279 35.375C-9.32446 35.8267 -9.77614 36.2783 -10.2278 36.73C-13.1314 37.5043 -16.2931 37.8914 -19.0676 37.6333C-21.455 37.3107 -23.3908 36.0848 -25.391 34.6652ZM-25.391 35.6331C-24.8103 36.2138 -24.036 36.73 -23.3908 37.1817C-20.2936 39.311 -16.4221 39.7626 -12.7443 39.311C-12.8733 39.44 -12.9378 39.5691 -13.0669 39.6336C-14.68 39.8917 -16.3576 39.8272 -18.0352 39.6336C-20.6162 39.311 -23.5198 38.2786 -25.391 36.3429C-25.391 36.0848 -25.391 35.8267 -25.391 35.6331ZM-25.3265 36.9881C-22.2939 39.5046 -18.0352 40.3434 -14.1638 40.0853C-14.0993 40.0853 -13.7121 40.0853 -13.325 40.0207C-14.0993 40.795 -14.8736 41.5693 -15.5833 42.4081C-18.4869 42.2146 -21.455 41.0531 -23.5843 39.2465C-24.2941 38.6657 -24.8748 38.085 -25.262 37.4398C-25.3265 37.1817 -25.3265 37.0526 -25.3265 36.9881ZM-25.262 39.1174C-25.262 38.7303 -25.262 38.3431 -25.3265 37.956C-24.7458 38.6657 -24.036 39.2465 -23.2617 39.8272C-21.0679 41.3758 -18.4224 42.2146 -15.7769 42.4727C-15.9059 42.6017 -16.035 42.7308 -16.164 42.8598C-17.9062 42.9889 -19.5838 42.6017 -21.2615 41.8919C-22.552 41.3758 -23.9715 40.5369 -25.0039 39.44C-25.0684 39.311 -25.1974 39.1819 -25.262 39.1174ZM-25.262 39.6981C-24.2941 40.666 -23.1327 41.3758 -21.9067 41.8919C-20.2291 42.6662 -18.3579 43.1824 -16.4867 43.1824C-17.0029 43.6986 -17.4545 44.2148 -17.9707 44.731C-17.9707 44.731 -17.9707 44.731 -18.0352 44.731C-20.8098 43.9567 -23.1972 42.4081 -25.0039 40.2143C-25.0039 40.0853 -25.1329 39.8917 -25.262 39.6981ZM-25.262 40.4079C-24.9394 40.795 -24.5522 41.1822 -24.1651 41.5693C-22.4229 43.1824 -20.2936 44.2148 -18.0352 44.7955C-18.1643 44.9246 -18.2933 45.0536 -18.4224 45.1827C-20.8743 44.9246 -23.3908 43.9567 -25.1974 42.4081C-25.1974 41.7629 -25.1974 41.1177 -25.262 40.4079ZM-25.1329 43.1824C-25.1329 43.0534 -25.1329 42.9243 -25.1329 42.7953C-23.2617 44.2794 -20.8743 45.0536 -18.4869 45.3763C-18.8095 45.6989 -19.0676 46.0215 -19.3903 46.3441C-20.2291 46.1506 -21.0679 45.957 -21.5841 45.6989C-22.81 45.1827 -23.8424 44.4084 -24.6813 43.6341C-24.8748 43.5051 -25.0039 43.3115 -25.1329 43.1824ZM-25.1329 43.8922C-23.7134 45.2472 -21.7131 46.1506 -19.7774 46.6668C-19.8419 46.7313 -19.971 46.8603 -20.0355 46.9248C-21.7777 46.5377 -23.5843 45.8279 -25.0684 44.8601C-25.0684 44.5374 -25.1329 44.2148 -25.1329 43.8922ZM-25.0039 46.7958C-25.0039 46.7313 -25.0039 46.6667 -25.0039 46.6022C-25.0039 46.4086 -25.0039 46.2151 -25.0684 45.957C-24.2941 46.4732 -23.3908 46.9248 -22.4874 47.2475C-23.2617 46.9894 -24.1651 46.8603 -25.0039 46.7958ZM-24.4877 46.0215C-24.6813 45.8925 -24.8748 45.8279 -25.0684 45.6989C-25.0684 45.5053 -25.0684 45.3117 -25.0684 45.0536C-23.7134 45.957 -22.2293 46.5377 -20.6807 46.9248C-20.4872 46.9894 -20.3581 46.9894 -20.1645 47.0539C-20.2936 47.2475 -20.4872 47.3765 -20.6162 47.5701C-21.9067 47.2475 -23.2617 46.6668 -24.4877 46.0215ZM-17.6481 47.2475C-16.8738 46.4732 -16.164 45.7634 -15.3898 44.9891C-15.2607 47.8927 -14.0993 50.6673 -12.1635 52.8611C-11.97 53.1192 -11.7119 53.3773 -11.5183 53.5709C-11.7119 53.6354 -11.9054 53.7644 -12.099 53.8289C-13.1959 54.2806 -14.2928 54.7323 -15.3898 55.1194C-15.9705 54.7323 -16.4221 53.7644 -16.6157 53.2482C-17.1964 51.8932 -17.6481 50.022 -17.7126 48.667C-17.7772 48.2799 -17.7126 47.7637 -17.6481 47.2475ZM-15.8414 55.313L-15.9059 55.3775C-16.4867 54.7323 -16.9383 53.958 -17.261 53.1192C-17.8417 51.8932 -18.1643 50.4737 -18.1643 48.9896C-18.0998 50.0865 -17.7772 51.1835 -17.4545 52.2158C-17.0674 53.3128 -16.6157 54.4742 -15.8414 55.313ZM-18.4869 48.1508C-18.4224 48.0863 -18.2933 47.9572 -18.2288 47.8927C-18.5514 50.2801 -17.9707 52.732 -16.6802 54.7323C-16.4867 54.9904 -16.2931 55.2485 -16.035 55.4421C-16.4867 55.6356 -17.0029 55.8292 -17.4545 56.0228C-18.3579 53.8935 -18.9386 51.6351 -18.745 49.5058C-18.745 49.0541 -18.6805 48.6025 -18.4869 48.1508ZM-17.6481 56.0228C-17.8417 56.0873 -17.9707 56.1518 -18.1643 56.2164C-18.2288 56.0873 -18.2933 55.9583 -18.3579 55.8292C-19.0676 53.8935 -19.3903 51.6996 -19.1322 49.7639C-19.1967 51.8932 -18.616 54.087 -17.6481 56.0228ZM-12.6797 56.0228C-13.1314 56.7971 -13.454 57.6359 -13.7766 58.4102C-14.4219 60.0878 -14.68 61.83 -14.6155 63.5721C-14.809 60.9911 -14.1638 58.2811 -12.7443 56.0873C-12.7443 56.0228 -12.7443 56.0228 -12.6797 56.0228ZM-19.5193 49.0541C-19.4548 48.9896 -19.3903 48.9251 -19.3257 48.8606C-19.8419 50.9254 -19.5193 53.1192 -18.9386 55.184C-18.8095 55.5066 -18.6805 55.9583 -18.5514 56.3454C-18.616 56.3454 -18.616 56.3454 -18.6805 56.4099C-18.6805 56.3454 -18.745 56.2809 -18.745 56.2164C-19.5838 53.8935 -20.0355 51.4416 -19.5193 49.0541ZM-19.971 49.4413C-19.9065 49.4413 -19.8419 49.3768 -19.8419 49.3122C-20.2936 51.6996 -19.6484 54.2806 -18.745 56.4099C-18.9386 56.4744 -19.1967 56.6035 -19.3903 56.668C-19.971 54.3451 -20.1646 52.0223 -19.971 49.4413ZM-20.1 63.8302C-20.2291 62.0881 -20.1 61.0557 -19.5838 59.378C-19.4548 58.9264 -19.3903 58.7973 -19.1967 58.4747C-19.1322 58.4747 -19.0031 58.4102 -18.9386 58.4102C-19.3257 59.3135 -19.4548 60.4104 -19.6484 61.3783C-19.7774 62.4752 -19.971 63.5721 -19.971 64.669C-20.0355 64.4109 -20.1 64.2174 -20.1 63.8302ZM-19.5838 65.6369C-19.7129 64.54 -19.6484 63.3786 -19.4548 62.2171C-19.3257 61.1202 -19.0031 59.4426 -18.4869 58.2811C-18.4224 58.2811 -18.4224 58.2811 -18.3579 58.2166C-18.1643 58.1521 -18.0352 58.0876 -17.8417 58.023C-18.8741 60.475 -19.4548 63.1205 -18.9386 65.766C-19.1967 65.766 -19.3903 65.7014 -19.5838 65.6369ZM-18.8095 65.8305C-19.2612 63.1205 -18.4869 60.3459 -17.4545 57.894C-17.1964 57.8295 -17.0029 57.7004 -16.7448 57.6359C-17.9707 60.2814 -17.9062 63.314 -17.39 66.2176C-17.8417 66.0886 -18.2933 65.9595 -18.8095 65.8305ZM-17.0674 66.2821C-17.5191 64.2819 -17.6481 62.1526 -17.261 60.2169C-17.0674 59.3135 -16.8093 58.3456 -16.4867 57.5714C-16.3576 57.5068 -16.2286 57.5068 -16.0995 57.4423C-17.0674 60.2814 -17.0674 63.8302 -15.9059 66.6048C-16.2931 66.4112 -16.6802 66.3467 -17.0674 66.2821ZM-15.5188 66.6048C-16.035 65.5079 -16.2931 64.2174 -16.4221 63.1205C-16.6802 60.9912 -16.3576 58.9909 -15.6478 57.1197C-14.8736 56.7971 -14.0993 56.539 -13.3895 56.2164C-15.1317 59.249 -15.5833 62.9269 -14.4864 66.2821C-14.4864 66.3467 -14.4219 66.4112 -14.4219 66.4757C-14.4219 66.6048 -14.3574 66.7338 -14.3574 66.9274C-14.68 66.7983 -15.0671 66.7338 -15.5188 66.6048ZM-13.9057 66.9919C-14.0993 66.4757 -14.2928 65.895 -14.4219 65.3788C-14.809 61.959 -14.0347 58.2811 -12.099 55.7647C-11.9054 55.7002 -11.7119 55.6356 -11.5183 55.5066C-14.0993 58.6038 -14.4864 63.1205 -13.6476 67.0564C-13.7121 67.0564 -13.8412 67.0564 -13.9057 66.9919ZM-13.454 66.8629C-14.2928 62.7333 -13.5185 58.023 -10.4859 55.184C-10.4214 55.1194 -10.3569 55.0549 -10.2278 54.9904C-9.84066 54.8613 -9.51804 54.6678 -9.13089 54.5387C-10.8085 57.5714 -11.0666 61.2492 -10.8085 64.7336C-10.6795 65.8305 -10.4214 66.9274 -10.0342 67.9598C-11.1311 67.6372 -12.2926 67.3791 -13.3895 67.121C-13.454 67.0564 -13.454 66.9919 -13.454 66.8629ZM-26.746 72.0248C-25.9717 70.9279 -25.0039 70.0891 -23.8424 69.3793C-22.7455 68.6695 -21.3905 68.0243 -20.2291 67.7662C-20.1 67.8307 -19.971 67.8307 -19.8419 67.8953C-22.2939 68.8631 -24.4232 70.4762 -25.8427 72.7346C-25.9072 72.8636 -25.9717 72.9282 -26.0363 73.0572C-26.3589 72.541 -26.6815 72.1539 -26.746 72.0248ZM-29.9722 72.0893C-30.4884 72.0893 -31.0046 72.2184 -31.4563 72.412C-31.4563 72.2829 -31.5208 72.2184 -31.5208 72.0893C-31.0046 72.0248 -30.4884 72.0248 -29.9722 72.0893ZM-31.3273 73.5734C-30.4239 73.5734 -29.198 73.7024 -28.8108 73.767C-28.4237 73.8315 -28.101 73.896 -27.7784 74.0251L-27.7139 74.0896C-28.4237 74.0896 -29.1334 74.1541 -29.8432 74.2832C-30.2949 74.4122 -30.7465 74.6058 -31.1337 74.7994C-31.1337 74.6058 -31.1982 74.4122 -31.1982 74.1541C-31.2627 73.9605 -31.3273 73.767 -31.3273 73.5734ZM-30.682 78.8644C-29.3915 78.4772 -28.101 78.0901 -26.8106 78.0901C-25.9717 78.0901 -25.5201 78.2191 -24.8748 78.3482C-24.8748 78.3482 -24.8103 78.3482 -24.7458 78.3482C-24.4877 78.6708 -24.2941 79.058 -24.036 79.3806C-24.8103 79.2515 -25.5846 79.1225 -26.3589 79.1225C-27.6494 79.2515 -28.9399 79.6387 -30.1013 80.2194C-30.2303 80.2839 -30.4239 80.413 -30.553 80.4775C-30.6175 80.0258 -30.6175 79.4451 -30.682 78.8644ZM-30.553 80.9292C-28.5527 79.6387 -26.1653 79.1225 -23.907 79.7677C-23.3908 80.542 -22.8746 81.2518 -22.3584 82.0261C-23.5198 81.897 -24.7458 81.9616 -25.9072 82.0261C-27.3268 82.1551 -29.0689 82.3487 -30.4884 82.7358C-30.4884 82.1551 -30.4884 81.5099 -30.553 80.9292ZM-30.4239 83.252C-29.5206 82.9294 -28.3591 82.7359 -27.3913 82.6068C-25.9072 82.4132 -23.8424 82.2842 -22.1003 82.4132C-21.9712 82.6068 -21.8422 82.8004 -21.7131 82.9939C-21.7777 82.9939 -21.7777 82.9939 -21.8422 82.9939C-24.5522 82.8649 -27.3268 83.252 -29.9077 84.349C-30.1013 84.4135 -30.2949 84.5425 -30.4884 84.6716C-30.3594 84.1554 -30.4239 83.7037 -30.4239 83.252ZM-30.3594 84.9942C-29.5206 84.4135 -28.6172 84.1554 -27.5848 83.8973C-25.5846 83.3811 -23.6489 83.123 -21.5196 83.252C-21.1969 83.7037 -20.8743 84.1554 -20.5517 84.6071C-20.6807 84.6071 -20.7453 84.5425 -20.8743 84.5425C-23.0036 83.9618 -25.1974 84.0263 -27.3268 84.4135C-28.2946 84.6071 -29.3915 84.8006 -30.2949 85.1878C-30.2949 85.0587 -30.3594 85.0587 -30.3594 84.9942ZM-30.2949 85.6394C-27.6494 84.478 -23.3262 83.8973 -20.0355 85.2523C-19.7774 85.6395 -19.4548 86.0266 -19.1967 86.4783C-18.9386 86.8654 -18.6805 87.2526 -18.3579 87.6397C-22.2293 86.5428 -26.4879 86.7364 -30.1013 88.414C-30.2303 87.5107 -30.2303 86.6073 -30.2949 85.6394ZM-30.1658 88.8657C-29.1334 88.2849 -27.8429 87.9623 -26.617 87.7042C-23.8424 87.1235 -20.8743 87.188 -18.0352 88.1559C-17.39 89.0592 -16.8093 89.9626 -16.164 90.8014C-17.5836 90.0271 -19.0676 89.4464 -20.6162 89.0592C-23.6489 88.4785 -26.9396 88.8011 -29.9722 89.64C-30.0368 89.64 -30.0368 89.64 -30.1013 89.7045C-30.1013 89.4464 -30.1013 89.1238 -30.1658 88.8657ZM-29.8432 92.7371C-29.9077 91.8983 -29.9722 91.0595 -30.0368 90.2207C-29.8432 90.1562 -29.5851 90.0916 -29.3915 90.0271C-26.4879 89.1883 -23.5198 88.9302 -20.6162 89.4464C-18.8095 89.8981 -17.1964 90.6078 -15.6478 91.5757C-15.1317 92.35 -14.6155 93.0597 -14.0993 93.834C-18.0998 92.2209 -22.681 91.9628 -26.746 93.2533C-27.6494 93.5114 -28.6172 93.8986 -29.3915 94.4793C-29.5206 94.6083 -29.6496 94.6729 -29.7142 94.8019C-29.7787 94.0921 -29.8432 93.4469 -29.8432 92.7371ZM-29.7142 95.06C-29.6496 95.06 -29.6496 95.06 -29.6496 95.06C-28.1656 93.834 -26.0363 93.3178 -24.036 92.9952C-20.6162 92.479 -16.8093 92.9307 -13.6476 94.5438L-13.5831 94.6083C-17.1964 93.3178 -21.2615 93.2533 -25.0039 94.1567C-26.5525 94.6083 -28.2301 94.9955 -29.7142 95.6407C-29.7142 95.3826 -29.7142 95.2536 -29.7142 95.06ZM-29.6496 96.0279C-28.6172 95.5762 -27.4558 95.2536 -26.2944 94.931C-22.9391 94.0276 -19.6484 93.7695 -16.4221 94.5438C-15.0026 94.8664 -13.8412 95.189 -12.6797 95.7698C-11.9054 96.8022 -11.1957 97.8991 -10.4859 98.9315C-15.9705 97.7055 -21.455 99.3831 -25.9072 102.803C-26.9396 103.642 -28.2301 104.481 -29.0044 105.642C-29.2625 102.416 -29.4561 99.2541 -29.6496 96.0279ZM-29.0689 105.965C-29.0044 105.965 -29.0044 105.965 -28.9399 105.9C-28.5527 105.319 -27.5203 104.545 -27.0687 104.158C-25.6491 103.061 -24.1005 102.029 -22.4874 101.19C-18.8095 99.1896 -14.4864 98.4798 -10.4214 99.4477C-10.2923 99.4477 -10.2278 99.5122 -10.0988 99.5122C-9.25994 100.738 -8.42112 101.9 -7.58231 103.126C-9.64709 102.029 -12.0345 101.641 -14.3574 101.577C-19.0676 101.319 -23.6489 103.126 -27.4558 105.9C-27.972 106.287 -28.4882 106.739 -28.9399 107.191C-29.0044 106.803 -29.0044 106.416 -29.0689 105.965ZM-28.9399 108.029C-28.8753 107.9 -28.8108 107.771 -28.6818 107.707C-28.2301 107.126 -27.3268 106.416 -26.9396 106.094C-21.5196 101.771 -13.7121 100.674 -7.51778 103.513C-7.45326 103.577 -7.32421 103.577 -7.25969 103.642C-6.87254 104.158 -6.54992 104.674 -6.16277 105.19C-6.74349 104.997 -7.32421 104.803 -7.96945 104.61C-13.8412 103.126 -20.3581 104.093 -25.391 107.449C-26.617 108.287 -27.8429 109.126 -28.8108 110.288C-28.8108 109.578 -28.8753 108.804 -28.9399 108.029ZM-28.8108 110.546C-23.5198 105.319 -15.2607 103.061 -8.03398 105.061C-7.25969 105.255 -6.2273 105.707 -5.58205 105.965C-5.19491 106.481 -4.87229 106.997 -4.48514 107.513C-6.2273 106.674 -8.3566 106.223 -10.2278 105.965C-16.5512 105.19 -23.2617 106.739 -28.2946 110.739C-28.4882 110.868 -28.6172 110.998 -28.8108 111.191C-28.7463 110.998 -28.7463 110.804 -28.8108 110.546ZM-28.6818 112.417C-28.6818 112.159 -28.6818 111.901 -28.7463 111.643C-28.3591 111.32 -28.0365 111.062 -27.5848 110.739C-21.5841 106.545 -12.6797 105.642 -5.90468 107.9C-5.00134 108.223 -4.48514 108.417 -3.51727 108.933C-2.87203 109.836 -2.29131 110.739 -1.64607 111.643C-2.16226 111.385 -2.74298 111.127 -3.0656 110.998C-5.7111 110.094 -8.6147 109.449 -11.4538 109.578C-16.4221 110.094 -21.5196 111.836 -25.1329 115.385C-26.2298 116.418 -27.1977 117.579 -28.101 118.869C-28.2301 119.128 -28.4237 119.321 -28.5527 119.579C-28.5527 117.127 -28.6172 114.804 -28.6818 112.417ZM-28.5527 119.966C-28.0365 118.999 -27.2622 118.16 -26.5525 117.321C-23.8424 114.159 -20.3581 112.094 -16.4221 110.998C-14.2283 110.417 -12.2281 109.965 -9.90518 110.094C-8.0985 110.223 -6.03372 110.804 -4.16252 111.514C-3.64632 111.707 -2.35584 112.288 -1.38797 112.869C-1.06535 112.998 -0.742729 113.32 -0.420109 113.385C-0.0974846 113.837 0.225136 114.288 0.547756 114.74C-4.16252 112.094 -10.1633 111.965 -15.3898 113.256C-19.3903 114.095 -23.1972 116.224 -26.2298 118.74C-27.0041 119.386 -27.7784 120.16 -28.4882 120.934C-28.5527 120.612 -28.5527 120.289 -28.5527 119.966ZM-28.4882 121.773C-28.2946 121.579 -28.1656 121.257 -27.972 121.128C-27.3268 120.354 -26.5525 119.579 -25.7782 118.934C-23.7134 116.998 -21.3905 115.256 -18.6805 114.288C-13.1959 112.353 -7.25969 111.965 -1.77512 113.966C-0.807251 114.288 0.0315628 114.675 0.934906 115.256C0.999428 115.321 0.999428 115.385 1.06395 115.385C1.193 115.514 1.25752 115.708 1.38657 115.837C0.612282 115.385 -0.549156 114.933 -1.4525 114.675C-9.64709 112.288 -19.3903 114.353 -25.0039 120.999C-26.2298 122.483 -27.4558 124.031 -28.4237 125.774C-28.4882 124.483 -28.4882 123.128 -28.4882 121.773ZM-28.4882 126.29C-26.4879 122.547 -23.4553 119.321 -19.9065 117.127C-14.6155 114.03 -8.03398 113.32 -2.16227 115.127C-0.678207 115.514 0.418709 116.224 1.70919 116.805C1.77372 116.869 1.83825 116.869 1.96729 116.934C2.03182 116.998 2.09634 116.998 2.16087 116.998C2.48349 117.45 2.80611 117.902 3.12873 118.353C0.0315628 116.676 -3.71085 116.159 -7.19516 116.03C-11.5183 116.095 -15.9059 117.063 -19.7129 119.063C-21.9067 120.16 -24.2296 122.031 -25.9072 123.386C-26.9396 124.225 -27.7139 125.193 -28.4237 126.29C-28.4237 126.354 -28.4882 126.419 -28.4882 126.419C-28.4882 126.483 -28.4882 126.354 -28.4882 126.29ZM0.418709 119.45C-5.06586 118.676 -11.6473 118.289 -17.1964 120.547C-21.0679 122.096 -24.6167 124.677 -27.2622 127.903C-27.6494 128.419 -28.101 129 -28.4237 129.581C-28.4237 128.742 -28.4237 127.967 -28.4237 127.129C-27.2622 125.645 -25.7782 124.225 -24.2941 122.999C-22.0358 121.063 -19.5838 119.321 -16.7448 118.095C-10.6795 115.643 -3.5818 115.643 2.28991 118.289C2.74158 118.547 3.25778 118.74 3.70945 119.063C4.03207 119.579 4.41922 120.031 4.74184 120.547C3.25778 119.902 0.870377 119.515 0.418709 119.45ZM5.90327 120.547C5.9678 120.483 5.9678 120.418 5.90327 120.354C5.83875 120.289 5.7097 120.224 5.64518 120.095C5.25803 119.45 4.80637 118.805 4.41922 118.224C4.41922 117.514 4.48374 116.74 4.61279 116.353C4.93541 114.417 5.58065 112.611 6.2259 110.739C8.6133 103.964 12.4202 97.5119 17.7758 92.5435C20.7439 89.8335 24.2282 87.7042 27.8415 85.704C30.0354 84.5425 32.1002 83.5747 34.423 82.8004C35.52 82.4778 36.6169 81.9616 37.7783 82.2197C37.9073 82.2197 38.0364 82.3487 38.1654 82.2842C38.23 82.2842 38.23 82.2197 38.23 82.2197C38.4881 82.2842 38.7462 82.3487 39.0043 82.4132C38.6816 82.4778 38.359 82.6068 37.9719 82.8004C36.4878 83.252 35.0683 83.8328 33.7133 84.6071C28.4868 87.188 24.2282 91.1885 20.6794 95.7698C13.7752 104.481 10.3555 115.579 10.2264 126.612C10.2264 126.806 10.2264 127 10.2264 127.193C8.74235 124.87 7.32281 122.676 5.90327 120.547ZM34.1004 84.7361C33.8423 84.8652 33.6487 84.9942 33.5197 85.0587C24.8089 90.6078 17.2596 99.6412 13.9043 109.449C12.2267 114.482 10.8717 119.708 10.3555 124.999C10.6781 114.675 14.0979 104.287 20.4213 96.1569C24.0991 91.3176 28.6158 87.2526 34.1004 84.7361ZM10.549 127.645C10.6781 125.967 10.8071 124.225 11.0652 122.547C11.7105 118.095 12.9364 113.256 14.4205 108.868C17.9693 98.9315 27.3254 88.3495 36.9395 83.8973C38.23 83.4456 39.3914 83.252 40.5528 83.123C38.7462 83.8973 37.1331 85.1233 35.5199 86.1556C35.4554 86.2202 35.5199 86.2202 35.5199 86.2847C34.6811 86.8654 33.9068 87.4461 33.068 88.0914C23.0022 95.8343 16.8724 106.932 15.1303 119.45C14.4205 124.29 14.485 129.258 15.4529 134.033C15.6465 134.742 15.7755 135.452 16.0336 136.162C14.1624 133.323 12.3557 130.484 10.549 127.645ZM41.1336 83.6392C39.0043 84.8006 37.0685 86.2847 35.1328 87.7688C30.0354 91.8338 25.7768 96.9957 22.486 102.609C19.9696 106.739 18.3565 111.385 17.195 116.095C16.2272 120.16 15.5174 124.419 15.4529 128.613C15.4529 130.355 15.5174 132.161 15.7755 133.904C14.5495 128.096 15.0012 121.902 16.1626 116.095C18.2274 105.255 24.2282 95.5762 32.8745 88.7366C35.1973 86.9945 37.8428 85.0587 40.6174 83.7682C40.7464 83.7037 40.94 83.6392 41.1336 83.6392ZM16.6143 135.71C16.5498 135.646 16.5498 135.646 16.6143 135.71C16.2272 133.323 16.0336 130.936 16.0336 128.484C15.84 111.772 24.0991 96.4795 37.3266 86.8654C38.8107 85.7685 40.2947 84.7361 41.9079 83.8973C42.3595 83.6392 42.6821 83.5101 43.0693 83.3811C43.521 83.5101 43.9081 83.5747 44.3598 83.7037C46.6827 84.2844 49.0055 84.9297 51.2639 85.5104C48.4893 86.2202 45.7793 87.2526 43.1983 88.4785C32.0356 93.9631 22.8732 103.9 18.9372 115.772C17.4531 120.612 17.0015 125.645 17.0015 130.677C17.0015 131.258 17.0015 131.774 17.0015 132.355C16.9369 133.387 16.9369 134.42 16.9369 135.452C16.9369 135.904 17.0015 136.42 17.0015 136.872C16.8724 136.485 16.7434 136.097 16.6143 135.71ZM17.8403 138.743C17.7758 138.485 17.7112 138.098 17.7112 138.033C16.7434 129.581 21.002 120.095 25.5187 112.933C28.3577 108.352 31.9066 104.352 36.1652 100.867C41.7788 95.9633 48.6829 92.35 56.1032 90.7369C59.523 89.9626 62.6847 89.5109 66.169 89.4464C67.1369 89.7045 68.0402 89.898 69.0081 90.1562C65.8464 89.9626 62.3621 90.6078 59.1358 91.3176C48.3603 93.5114 38.2945 99.2541 30.9387 107.513C27.7125 111.191 25.2606 115.514 23.1313 119.902C20.8729 124.741 19.2598 129.968 18.7436 135.323C18.6791 136.227 18.6146 137.13 18.6791 137.969C18.6791 138.42 18.7436 138.872 18.9372 139.324C18.9372 139.646 18.9372 139.969 19.0017 140.292C19.0017 140.356 19.0662 140.356 19.0662 140.356C19.0662 140.421 19.0662 140.485 19.0662 140.614C18.6146 139.969 18.2274 139.388 17.8403 138.743Z" fill="white"/>
</svg>
