<svg width="210" height="213" viewBox="0 0 210 213" fill="none" xmlns="http://www.w3.org/2000/svg">
<path opacity="0.5" d="M220.797 5.8319C220.661 5.8319 220.593 5.89971 220.593 6.03534C220.593 4.27221 220.661 2.50907 220.729 0.745941C220.729 0.542502 220.797 0.271251 220.661 0.0678128C220.526 -0.0678128 220.255 -3.25776e-08 220.255 0.271251C219.577 8.13754 219.374 15.936 219.238 23.8023C218.019 34.4489 215.58 45.7058 213.615 56.6237C213.344 57.9799 213.141 59.3362 212.87 60.6925C211.447 64.2187 209.821 67.745 207.991 71.1356C208.195 70.5931 208.398 70.0506 208.601 69.5081C208.669 69.1691 208.804 68.7622 208.737 68.4909C208.669 68.4231 208.601 68.4909 208.601 68.5587C207.653 72.2884 205.281 75.5435 203.249 78.7985C202.91 79.341 202.503 79.9513 202.097 80.4938C202.029 80.5616 201.961 80.6294 201.894 80.6972C201.826 80.6972 201.826 80.6972 201.758 80.765C198.574 84.4269 195.186 87.9532 191.595 91.276C189.495 92.9035 187.394 94.3954 185.158 95.8873C168.694 107.076 150.74 115.35 131.294 119.486C126.891 120.503 122.283 121.046 118.421 121.588C115.982 122.063 113.543 122.606 111.104 123.216C111.036 123.148 110.968 123.148 110.901 123.148C110.426 123.284 109.952 123.419 109.478 123.623C108.597 123.826 107.716 124.03 106.836 124.233C106.768 124.301 106.836 124.504 106.903 124.436L106.971 124.436C97.2145 127.624 86.9838 131.421 77.4305 132.574C72.9588 133.184 68.2838 133.523 64.0154 132.777C63.9476 132.71 63.8798 132.642 63.7443 132.574C63.6088 132.506 63.4056 132.574 63.2701 132.642C63.0668 132.642 62.9313 132.574 62.7958 132.506C59.0016 130.675 55.2074 128.912 51.2777 127.352C51.0067 127.285 50.8034 127.081 50.5324 127.217C50.3292 127.352 50.3969 127.624 50.6002 127.691C54.8009 129.59 58.9338 131.557 63.0668 133.591C63.8121 140.644 63.3378 147.696 63.4056 154.952C63.4056 155.02 63.4056 155.088 63.4733 155.02C63.5411 154.681 63.4733 154.342 63.5411 153.935C63.7443 148.849 63.9476 143.695 64.2186 138.609C64.2864 137.457 64.4219 135.626 64.3541 134.202L64.3541 134.134C66.9965 135.422 69.6389 136.778 72.2813 138.067C72.2135 138.202 72.2135 138.338 72.2813 138.474C75.0592 143.288 73.6363 149.527 71.6037 155.02C65.9125 170.414 49.5839 184.858 34.4071 191.096C28.8513 193.334 23.16 195.097 17.3333 196.725C16.9945 196.793 16.6557 196.928 16.2492 196.996C16.1814 196.996 16.1137 196.996 16.1137 197.064C12.455 196.928 8.79633 196.793 5.13764 196.657C3.44381 196.657 1.68221 196.386 0.0561285 196.521C-0.0793696 196.657 0.0561437 196.861 0.191657 196.861C5.47642 197.132 10.7612 197.335 16.0459 197.606C16.1814 197.81 16.5202 197.742 16.7912 197.674C23.6343 198.013 30.4097 198.352 37.2528 198.691C37.3205 198.759 37.3883 198.827 37.456 198.827C37.727 198.827 37.998 198.759 38.269 198.759C41.7922 198.963 45.2477 199.166 48.7708 199.37C48.8386 199.437 48.9063 199.505 49.0418 199.505C49.3129 199.505 49.6516 199.437 49.9226 199.437C51.3455 199.505 52.7005 199.573 54.1234 199.709C54.3266 204.049 54.1234 208.389 54.1234 212.864C54.1234 212.932 54.1911 213 54.3266 213C54.5976 212.729 54.3944 211.915 54.4621 211.576C54.5299 208.592 54.6654 204.998 55.0042 202.286C55.0719 201.472 55.2074 200.59 55.2752 199.777C69.9099 200.658 84.4769 201.607 99.0439 202.828C111.985 203.981 124.993 204.727 137.934 205.405C160.428 206.761 183.126 207.507 205.62 205.608C208.94 205.269 211.447 204.93 213.344 204.591C214.292 204.32 214.699 204.456 215.241 204.252C215.647 204.252 216.122 204.184 216.528 204.184C217.409 204.252 217.748 203.845 217.545 203.303C217.477 203.032 217.409 202.76 217.341 202.421C217.409 202.15 217.409 201.811 217.341 201.54C217.341 201.472 217.274 201.404 217.274 201.336C217.274 200.794 217.274 200.251 217.274 199.844C217.274 197.2 217.206 194.623 217.206 191.978C217.138 188.316 217.07 184.722 217.003 181.06C217.206 179.907 217.206 178.755 217.003 177.534C217.003 177.466 217.003 177.466 217.003 177.398C217.003 177.263 217.003 177.059 216.935 176.924C216.732 165.124 216.664 153.325 216.664 141.458C216.732 140.983 216.867 140.508 216.867 140.033C216.867 139.966 216.799 139.898 216.732 139.83C216.664 139.83 216.664 139.83 216.664 139.83C216.664 137.457 216.664 135.083 216.664 132.71C216.799 131.557 216.799 130.404 216.664 129.183C216.732 115.756 216.935 102.33 217.274 88.9026C217.341 87.7498 217.409 86.5969 217.341 85.4441C217.477 79.341 217.68 73.2378 217.883 67.0669C218.29 64.3543 218.561 61.7096 218.832 59.1328C219.848 45.5702 220.255 32.0076 220.255 18.4451C220.255 17.767 220.255 17.0888 220.255 16.4107C220.526 12.9522 220.661 9.49379 221 6.10315C221 5.96753 220.864 5.8319 220.797 5.8319ZM202.978 81.9179C202.978 81.7822 203.045 81.6466 203.045 81.511C204.604 79.1375 206.094 76.6963 207.449 74.1194C209.211 70.7966 210.905 67.4059 212.395 63.9475C212.26 64.6256 212.192 65.3037 212.057 65.914C209.211 73.17 206.094 80.2225 202.097 86.936C202.436 85.2407 202.707 83.5454 202.978 81.9179ZM201.826 88.6991C205.688 82.4604 208.804 75.8825 211.582 69.1012C211.515 69.5081 211.447 69.915 211.379 70.3897C208.601 76.8319 205.484 83.1385 201.826 89.106C201.758 88.9026 201.826 88.8348 201.826 88.6991ZM106.158 153.053C106.768 153.121 107.31 153.189 107.92 153.189C114.492 153.528 121.064 153.325 127.568 152.443C128.923 152.308 130.346 152.036 131.837 151.765C131.769 153.46 131.701 155.156 131.633 156.783C126.01 157.054 119.641 156.783 114.763 156.648C114.356 156.58 114.627 156.648 114.356 156.58L114.288 156.58C114.153 156.58 114.017 156.512 113.882 156.512C113.475 156.308 113.137 156.173 112.73 155.969C112.73 155.902 112.73 155.834 112.662 155.834C112.527 155.698 112.391 155.698 112.256 155.766C111.849 155.563 111.375 155.359 110.968 155.156C109.342 154.545 107.716 153.799 106.158 153.053ZM106.361 165.056C106.429 164.446 106.497 163.768 106.564 163.158C106.7 165.667 106.632 168.244 106.09 170.82C103.787 180.314 97.8243 188.926 89.8294 194.284C89.2196 194.691 88.6098 195.03 88.0001 195.369C91.1167 193.199 94.0301 190.622 96.6047 187.909C102.161 181.874 105.955 173.533 106.361 165.056ZM128.449 151.426C121.809 152.172 114.559 152.443 108.123 151.901C112.662 151.629 116.728 151.223 121.674 150.341C125.129 149.663 128.584 148.781 132.04 147.696C131.972 148.781 131.972 149.866 131.904 150.951C130.685 151.155 129.601 151.29 128.449 151.426ZM123.096 149.12C117.541 149.934 111.104 150.273 105.074 150.409C103.651 150.341 102.228 150.341 100.805 150.205C100.602 150.205 100.399 150.138 100.128 150.205C99.4504 149.866 98.8406 149.595 98.1631 149.256C98.2986 149.324 98.5018 149.256 98.7051 149.324C100.196 149.324 101.686 149.324 103.177 149.188C109.749 148.713 116.185 147.425 122.554 145.73C125.806 144.78 129.059 143.831 132.311 142.746C132.175 144.238 132.108 145.662 132.04 147.154C129.126 147.968 126.145 148.646 123.096 149.12ZM98.0276 149.188C96.1982 148.307 94.4366 147.493 92.6073 146.611C93.4881 146.679 94.3689 146.679 95.2497 146.679C101.28 146.611 107.31 146.408 113.34 145.526C118.557 144.713 123.638 143.085 128.652 141.525C129.939 141.118 131.159 140.712 132.446 140.305C132.379 140.779 132.379 141.254 132.311 141.729C130.007 142.475 127.636 143.221 125.264 143.967C118.828 145.865 111.578 147.357 105.684 147.968C103.38 148.239 101.144 148.442 98.8406 148.578C98.5018 148.646 98.0953 148.442 97.9598 148.781C97.8921 148.985 97.9598 149.12 98.0276 149.188ZM90.1682 147.086C91.862 147.968 93.6236 148.849 95.3174 149.731C95.1819 150.07 95.3852 150.477 95.3852 150.68C95.724 153.867 96.0627 157.054 95.8595 160.242C95.6562 171.838 88.5421 182.756 79.5309 189.605C74.7881 193.131 69.7066 196.182 64.0831 197.742C65.5737 197.132 66.9965 196.386 68.3516 195.572C73.9751 192.249 79.2599 188.248 83.1896 183.027C88.0001 176.381 91.3877 168.311 91.862 160.038C91.9975 155.698 92.133 151.019 90.1682 147.086ZM88.6098 144.238C96.1982 144.645 102.567 143.424 110.02 142.068C117.947 140.644 125.603 137.999 132.988 134.744C132.921 135.151 132.921 135.49 132.853 135.829C132.785 136.778 132.717 137.796 132.582 138.745C126.891 140.576 121.064 142.136 115.305 143.492C108.868 144.713 102.025 145.187 94.9109 145.662C93.5558 145.73 92.2008 145.798 90.7779 145.73C90.7102 145.73 90.5747 145.73 90.5069 145.73C89.4229 145.187 88.4066 144.713 87.3225 144.238C87.9323 144.17 88.4066 144.17 88.6098 144.238ZM84.2736 142.61C82.8508 141.932 81.428 141.254 80.0052 140.576L79.9374 140.508C79.8697 140.508 79.8697 140.44 79.8019 140.44C79.3954 140.237 79.0566 140.033 78.6501 139.898C85.8997 141.932 93.8946 141.457 101.347 140.576C103.854 140.305 106.293 140.033 108.733 139.83C110.562 139.83 112.391 139.694 114.153 139.491C113.137 139.694 112.12 139.966 111.036 140.169C103.38 141.661 96.537 142.407 88.5421 142.746C87.187 142.746 85.6965 142.61 84.2736 142.61ZM133.192 132.099C133.124 132.371 133.124 132.71 133.056 133.117C130.346 134.269 127.636 135.354 124.858 136.372C127.094 135.219 129.126 133.862 131.159 132.167C131.904 131.489 132.582 130.879 133.124 130.201C133.124 130.743 133.124 131.218 133.192 132.099ZM132.243 147.628C150.469 141.864 168.356 130.607 182.313 118.537C189.02 112.298 194.915 105.313 200.132 97.8539C199.929 100.295 199.725 102.669 199.59 105.11C192.002 115.689 182.448 124.911 171.947 132.303C165.645 136.643 159.209 140.915 152.366 144.306C146.2 147.222 138.951 149.663 132.04 150.883C132.108 149.798 132.175 148.713 132.243 147.628ZM181.906 118.333C176.622 123.148 170.727 127.352 164.765 131.286C154.602 137.796 143.829 143.763 132.243 147.086C132.311 145.594 132.446 144.17 132.514 142.678C140.373 140.101 148.03 136.982 155.279 133.049C173.302 123.216 189.359 109.246 200.606 92.022C200.471 93.6495 200.335 95.2092 200.2 96.8367C194.915 104.635 188.885 111.823 181.906 118.333ZM194.305 99.7526C183.532 113.18 169.575 124.572 154.195 132.71C147.284 136.439 140.102 139.22 132.65 141.661C132.717 141.186 132.717 140.712 132.785 140.237C139.018 138.202 145.252 135.829 151.146 132.845C169.101 123.487 185.904 111.077 197.896 94.5989C198.912 93.1748 199.929 91.6829 200.877 90.191C200.877 90.2588 200.877 90.3945 200.877 90.4623C198.845 93.6495 196.677 96.7689 194.305 99.7526ZM201.487 90.8013C203.723 87.2751 205.755 83.681 207.585 79.9513C208.804 77.51 209.888 75.0688 211.04 72.5597C210.634 75.4078 210.227 78.1882 209.821 81.0363C207.517 85.7154 204.739 90.1232 201.961 94.531C201.623 95.0735 201.216 95.616 200.809 96.2264C200.945 94.3276 201.216 92.5645 201.487 90.8013ZM201.013 88.6991C199.793 90.5979 198.574 92.4967 197.219 94.3954C185.023 110.738 168.559 122.809 150.13 131.896C144.71 134.473 138.951 136.643 132.988 138.542C133.124 137.185 133.327 135.761 133.53 134.405C135.292 133.591 137.121 132.777 138.883 131.896C148.436 127.285 157.718 122.063 166.526 116.231C179.738 107.28 192.34 96.7689 201.555 83.681C201.352 85.3763 201.148 87.0716 201.013 88.6991ZM133.801 132.777C134.005 132.032 134.208 131.353 134.411 130.54C134.411 130.336 134.479 130.201 134.479 129.997C134.885 129.929 135.36 129.862 135.766 129.726C143.355 127.556 150.401 123.758 157.244 119.893C168.83 113.247 179.399 105.11 189.02 95.9551C191.934 93.1748 194.915 90.3267 197.693 87.3429C187.733 99.6848 174.521 110.399 160.699 118.808C152.976 123.419 145.116 127.691 136.918 131.353C135.834 131.896 134.818 132.371 133.801 132.777ZM193.763 90.3266C195.863 88.5635 197.828 86.6648 199.658 84.6304C199.59 84.6982 199.59 84.766 199.522 84.766C196.406 88.4279 192.747 91.6829 189.224 95.0057C183.329 100.431 177.435 105.449 170.998 109.925C160.225 117.452 148.707 124.03 136.647 128.234C135.834 128.505 135.021 128.709 134.208 128.844C134.14 128.844 134.14 128.777 134.072 128.777C134.343 128.37 134.547 127.895 134.75 127.352C134.885 126.742 134.885 126.132 134.75 125.589L134.818 125.589C136.376 125.454 138.205 125.047 140.035 124.504C148.436 121.995 156.363 118.062 163.884 113.586C172.692 108.433 180.89 102.194 188.478 95.3448C190.24 93.7173 192.069 92.022 193.763 90.3266ZM140.102 123.623C138.273 124.165 136.376 124.572 134.547 125.047C133.937 123.826 132.582 123.012 131.091 122.47C132.379 122.334 133.598 122.063 135.021 121.792C153.382 118.198 170.32 109.246 184.887 97.6504C185.971 96.7689 187.056 95.8873 188.14 94.9379C174.047 107.551 157.38 118.13 140.102 123.623ZM127.5 121.046C148.233 117.248 167.746 108.433 185.091 96.6332C185.294 96.4976 185.429 96.4298 185.633 96.2942C171.201 108.026 154.127 116.841 136.173 120.571C133.801 121.046 131.362 121.521 128.991 121.927C128.788 121.927 128.584 121.86 128.381 121.86C126.687 121.724 125.061 121.724 123.367 121.724C124.79 121.521 126.145 121.317 127.5 121.046ZM110.426 124.979C116.185 123.148 121.538 122.402 127.636 122.673C127.771 122.741 128.042 122.741 128.246 122.741L128.313 122.741C128.584 122.741 128.788 122.741 129.059 122.741C130.278 122.945 132.988 123.555 133.869 125.25C133.801 125.318 133.801 125.386 133.801 125.454C133.801 125.657 133.937 125.725 134.072 125.725C134.14 125.928 134.14 126.064 134.208 126.267C134.072 129.862 127.636 133.388 124.722 134.88C120.725 136.982 115.576 137.931 111.104 138.338C108.258 138.609 105.277 138.474 102.567 138.067C100.941 137.66 99.3826 137.05 97.8243 136.304C95.4529 135.015 95.1819 134.473 95.4529 133.456C96.6047 129.251 105.277 126.674 110.426 124.979ZM94.1656 135.422C94.5721 136.1 95.2497 136.507 95.8595 136.846C95.9272 136.846 95.995 136.914 95.995 136.914C89.0841 137.253 82.1055 137.796 75.3979 136.711C75.94 136.711 76.482 136.711 77.024 136.711C82.4443 136.778 87.7968 135.626 92.7428 133.456C93.1493 133.252 93.5558 133.049 93.9624 132.845C93.9624 132.981 93.8946 133.049 93.8946 133.184C93.6913 133.998 93.7591 134.744 94.1656 135.422ZM68.7581 135.083C67.8773 134.676 67.0643 134.269 66.1835 133.862C65.8447 133.727 65.5059 133.523 65.1672 133.388C68.8258 134.066 72.6878 133.998 76.4142 133.591C83.5283 132.913 90.3037 130.743 97.079 128.573C97.6888 128.37 98.2986 128.166 98.9084 127.963C98.5018 128.166 98.1631 128.437 97.7566 128.641C96.4015 129.59 95.0464 130.675 94.3011 132.167C86.5772 135.897 77.295 137.185 68.8936 135.083C68.8258 135.151 68.7581 135.083 68.7581 135.083ZM72.0103 136.643C79.6664 138.745 87.7968 138.745 95.724 137.863C96.1305 137.796 96.808 137.728 97.4855 137.66C98.3663 138.067 99.3149 138.406 100.263 138.609C101.28 138.881 102.364 139.152 103.448 139.355C103.719 139.423 103.99 139.423 104.261 139.491C93.8946 140.372 83.3251 141.525 73.8396 137.524C73.2298 137.253 72.6201 136.982 72.0103 136.643ZM24.1086 197.132C22.347 197.064 20.6532 196.996 18.8916 196.928C23.1601 195.708 27.293 194.216 31.426 192.656C40.4372 189.401 48.5676 183.976 55.6817 177.602C64.0154 170.142 71.1972 160.92 73.9751 149.866C74.6526 146.95 74.9237 143.967 74.3139 141.051C74.1106 140.169 73.9074 139.287 73.5008 138.474C73.6363 138.542 73.7041 138.609 73.8396 138.677C73.9074 138.813 74.0429 139.016 74.0429 139.152C74.3139 139.694 74.5171 140.372 74.7204 141.051C75.6012 143.967 75.7367 146.815 75.4657 149.934C74.6526 158.546 69.9777 166.616 64.6251 173.533C60.2212 179.433 54.4621 184.722 48.0933 188.587C42.4698 192.046 36.5752 194.08 30.0709 195.708C28.1061 196.182 26.0734 196.521 24.1086 196.996C24.1764 197.132 24.1086 197.132 24.1086 197.132ZM37.8625 197.606C35.4234 197.539 33.0521 197.403 30.6129 197.335L27.7673 197.267C43.2828 194.487 56.5625 185.943 66.1157 172.719C71.3327 165.599 76.1432 157.461 76.3465 148.442C76.482 145.391 76.0077 142.271 74.9237 139.491C74.8559 139.355 74.7881 139.287 74.7881 139.152C74.8559 139.152 74.8559 139.22 74.9237 139.22C74.9914 139.287 75.0592 139.423 75.1269 139.559C77.9048 143.492 78.3791 148.171 78.3113 152.918C78.1758 159.157 76.6852 165.056 73.5686 170.414C69.1646 178.551 62.6603 185.129 54.8686 189.876C49.3806 193.266 43.6893 195.572 37.8625 197.606ZM39.8274 197.674C44.3669 196.182 48.7031 194.08 52.8361 191.707C67.0643 183.434 79.2599 168.583 78.8534 151.426C78.7856 147.493 78.3113 143.153 76.0755 139.83C77.2273 140.44 78.4468 141.051 79.5986 141.661C79.2599 141.797 79.7341 142.475 79.8697 142.949C80.9537 146.204 81.2925 149.053 81.4957 152.375C81.9023 159.699 80.5472 167.091 76.8207 173.465C70.6552 183.84 60.2212 191.436 49.2451 195.776C46.6705 196.725 43.9603 197.335 41.1825 197.742C40.7082 197.742 40.2339 197.742 39.8274 197.674ZM49.8549 197.674C49.4484 197.81 48.7708 197.81 48.4998 198.013C46.8737 197.946 45.2477 197.878 43.5538 197.81C47.1448 197.064 50.6002 195.843 53.8523 194.148C58.3918 191.842 62.7958 189.13 66.5222 185.739C76.8207 177.127 82.5798 165.802 82.1055 152.24C82.0378 148.917 81.5635 145.594 80.2084 142.543C80.0729 142.339 80.0052 142.068 79.8019 141.864C79.8697 141.932 79.9374 141.932 80.0052 142C81.3602 143.831 83.1218 147.154 83.7316 150.273C84.8834 156.919 84.3414 164.514 81.699 171.159C78.4468 179.975 71.8747 187.638 63.6766 192.385C59.4759 194.962 54.8686 196.521 49.8549 197.674ZM52.1585 198.149L51.2777 198.081C55.5462 197.132 59.6114 195.572 63.3378 193.334C77.295 185.604 86.1707 169.939 85.2222 154.003C85.1544 151.087 84.5446 148.171 83.3251 145.458C82.9863 144.577 82.5798 143.763 82.1055 142.949C83.3928 143.628 84.7479 144.306 86.0352 144.984C86.0352 145.052 86.0352 145.119 86.0352 145.187C87.8646 152.036 87.458 159.36 87.5258 167.159C87.5258 167.294 87.5258 167.498 87.5258 167.633C87.5258 167.633 87.5258 167.633 87.5935 167.633C87.7968 166.955 87.6613 166.141 87.729 165.395C87.8646 159.767 88.2711 154.071 87.8646 148.374C88.5421 151.087 88.6098 153.46 88.6776 156.376C88.6776 162.547 87.8646 168.989 85.2899 174.55C80.4117 183.569 71.6037 190.825 62.6603 194.894C59.5436 196.386 55.5462 197.606 52.1585 198.149ZM59.2049 198.488C58.053 198.42 56.9013 198.42 55.7494 198.352C67.7418 195.436 78.8534 186.824 85.2222 176.178C86.7805 173.465 87.6613 170.481 88.2711 167.498C89.1519 163.768 89.6261 159.97 89.5584 156.173C89.5584 152.782 89.2196 149.188 88.0001 146.001C88.3388 146.204 88.6776 146.34 89.0164 146.543C92.0653 149.798 91.6587 158.614 91.1845 163.09C90.0327 169.939 87.1193 176.72 82.9186 182.484C79.6664 186.824 75.0592 190.554 70.3164 193.47C67.8773 194.962 65.2349 196.454 62.8635 197.267C61.7117 197.81 59.8146 198.013 59.2049 198.488ZM65.2349 198.691C64.5574 198.691 63.8121 198.691 63.1346 198.624C63.5411 198.556 63.8798 198.42 64.2864 198.352C68.0806 197.2 71.536 195.301 74.9914 193.334C87.3225 186.146 96.0627 173.736 96.6725 159.224C96.808 156.444 96.6725 153.596 96.266 150.816C96.1982 150.612 96.1982 150.409 96.1982 150.138C96.6725 150.409 97.1468 150.612 97.621 150.816C99.6536 153.732 99.9247 158.479 99.5181 162.615C98.1631 176.042 88.2711 189.062 76.1432 195.03C73.4331 196.182 69.5711 197.606 66.2512 198.285C65.8447 198.42 65.4382 198.352 65.2349 198.691ZM67.9451 198.827C70.3842 198.352 72.891 197.335 75.2624 196.386C83.3251 192.86 89.8294 186.35 94.3689 178.89C98.2986 172.651 100.399 165.463 100.399 158.072C100.331 155.902 99.9924 153.596 99.1116 151.629C101.144 152.647 103.177 153.732 105.277 154.749C105.345 154.952 105.345 155.156 105.413 155.359C105.616 156.444 105.819 157.461 105.887 158.479C106.022 160.106 106.09 161.734 106.022 163.361C104.6 177.398 95.1142 189.672 82.1055 195.64C79.7341 196.725 77.4983 197.742 74.8559 198.42C73.9074 198.624 72.9588 198.759 71.9425 198.963C70.5874 198.895 69.3001 198.895 67.9451 198.827ZM74.7204 199.098C76.6175 198.624 78.5146 198.081 80.2762 197.335C91.7943 192.724 101.618 183.095 105.074 171.092C105.074 171.16 105.074 171.227 105.006 171.363C102.499 180.789 96.1982 189.062 88.2033 194.351C84.2736 196.861 80.7504 198.895 76.6852 199.234C76.0755 199.166 75.3979 199.098 74.7204 199.098ZM88.7454 199.437C88.2711 199.37 87.9323 199.505 87.7968 199.505C87.5935 199.573 87.458 199.573 87.3225 199.709C85.2222 199.641 83.1218 199.505 81.0892 199.437C82.1733 198.963 83.2573 198.42 84.3414 197.81C85.1544 197.403 85.9675 196.996 86.7805 196.589C89.4229 195.233 91.9975 193.741 94.1656 191.707C103.177 183.366 109.207 170.617 106.768 158.207C106.768 158.139 106.7 158.004 106.7 157.936C106.632 157.122 106.564 156.308 106.497 155.495C106.836 155.902 107.242 156.308 107.581 156.783C108.665 158.139 110.155 160.513 110.765 162.208C112.662 167.362 113.001 173.058 111.239 178.28C109.071 186.078 104.261 192.927 97.35 196.793C95.2497 198.013 93.4203 198.827 90.9135 199.234C90.3714 199.37 89.6261 199.437 88.7454 199.437ZM97.8921 200.048C97.7566 200.116 97.5533 200.116 97.4178 200.183C95.7917 200.116 94.0979 200.048 92.4718 199.912C96.808 198.624 101.483 195.504 104.329 192.181C108.936 186.621 111.849 179.636 112.595 172.448C112.73 169.261 112.188 166.006 111.578 162.954C111.036 160.309 109.681 158.072 107.987 155.969C109.342 156.648 110.765 157.326 112.12 157.936C112.595 165.531 112.73 173.058 112.73 180.653C112.73 180.721 112.73 180.721 112.798 180.721C112.866 180.518 112.798 180.246 112.866 179.975C113.069 172.787 113.475 165.531 113.001 158.343C113.95 158.818 114.966 159.292 115.914 159.767C117.676 163.022 118.15 167.091 118.015 171.024C117.541 181.331 112.12 191.232 103.583 197.132C101.551 198.556 99.9247 199.437 97.8921 200.048ZM100.263 200.319C101.551 199.709 102.703 199.031 103.109 198.759C113.95 191.707 120.522 178.619 118.625 165.667C118.557 165.395 118.557 165.124 118.489 164.853C118.963 166.616 119.234 168.311 119.37 170.075C119.776 174.754 118.828 179.433 116.863 183.501C114.559 188.859 110.562 193.606 106.158 196.996C104.396 198.352 102.432 199.437 100.399 200.319L100.263 200.319ZM104.329 200.522C103.245 200.455 102.228 200.387 101.144 200.387C102.499 199.844 103.787 199.166 105.006 198.352C107.716 196.589 110.02 194.284 112.12 191.91C117.473 185.332 120.725 176.72 119.505 168.176C119.302 166.548 119.031 164.921 118.557 163.361C118.625 163.429 118.625 163.429 118.692 163.293C118.421 162.547 118.354 161.734 118.083 160.988C118.286 161.055 118.489 161.191 118.625 161.259C119.844 163.768 120.454 166.887 120.725 169.396C122.148 180.179 117.676 190.825 109.478 197.81C108.326 198.692 106.836 199.844 105.345 200.59C105.074 200.59 104.667 200.522 104.329 200.522ZM108.191 200.726C107.784 200.726 107.31 200.658 106.903 200.658C108.258 199.776 109.546 198.624 109.884 198.42C118.557 191.164 123.232 179.229 121.199 168.04C120.86 165.938 120.386 163.768 119.438 161.869C119.641 162.14 119.912 162.276 119.912 162.412C120.589 163.293 121.335 164.853 121.741 166.141C123.638 171.973 124.18 178.076 122.351 183.908C120.115 189.944 116.253 195.911 110.901 199.573C110.155 200.048 109.275 200.251 108.326 200.387C108.258 200.387 108.191 200.59 108.191 200.726ZM109.139 200.794C110.901 200.183 112.391 199.031 113.746 197.742C116.118 195.436 118.15 192.792 119.844 189.944C121.606 186.96 123.096 183.705 123.571 180.246C124.384 175.025 123.706 169.803 122.216 164.853C121.945 164.039 121.606 163.225 121.199 162.412C122.148 162.886 123.096 163.293 124.045 163.768C124.858 164.717 125.468 165.802 126.213 166.887C128.449 170.278 129.601 174.957 128.991 178.89C128.381 183.976 126.484 188.384 123.638 192.521C121.945 195.03 120.183 197.2 117.608 198.691C115.847 199.709 113.95 200.387 111.917 200.929C111.036 200.862 110.088 200.794 109.139 200.794ZM118.692 200.522C118.015 200.726 117.27 200.997 116.66 201.133C115.914 201.065 115.101 201.065 114.356 200.997C115.372 200.59 116.321 200.183 117.27 199.641C125.806 194.894 132.65 179.636 128.584 170.278C127.704 168.108 126.484 165.938 124.993 164.107C125.739 164.446 126.484 164.785 127.162 165.124C128.584 167.498 130.143 170.007 131.159 172.516C132.175 174.754 132.785 176.991 133.056 179.297C133.192 185.265 131.023 191.368 126.348 195.165C124.655 196.657 122.758 198.013 120.657 199.166C119.912 199.573 119.438 199.709 118.692 199.98C118.625 200.251 118.625 200.387 118.692 200.522ZM132.311 167.498C133.259 167.904 134.14 168.379 135.089 168.786C135.292 170.278 135.427 171.838 135.563 173.465C134.614 171.363 133.598 169.329 132.311 167.498ZM135.631 175.228C135.631 175.5 135.631 175.771 135.631 176.042C134.953 173.94 134.005 171.905 132.988 169.939C132.853 169.735 132.785 169.532 132.65 169.396C133.869 171.295 134.818 173.194 135.631 175.228ZM132.446 170.21C134.005 173.058 135.36 176.585 135.766 179.636C135.766 180.111 135.766 180.518 135.834 180.992C135.834 181.06 135.834 181.06 135.902 181.06C136.173 186.146 135.292 191.368 132.311 195.233C130.414 196.589 128.246 197.607 126.077 198.42C125.603 198.624 125.129 198.759 124.655 198.895C132.785 194.012 135.563 184.586 132.988 175.635C132.65 173.94 132.175 172.312 131.498 170.753C130.82 169.125 130.007 167.498 129.059 166.006C129.465 166.209 129.939 166.413 130.346 166.616C131.091 167.701 131.769 168.922 132.446 170.21ZM136.444 179.704C136.376 179.094 136.24 178.483 136.105 177.873C136.105 177.466 136.105 177.127 136.105 176.652C136.24 177.127 136.444 177.534 136.579 178.009C138.273 183.095 137.867 189.198 134.547 193.131C134.479 193.199 134.479 193.199 134.411 193.266C136.444 189.198 137.121 184.18 136.444 179.704ZM122.554 198.895C123.367 198.352 124.18 197.742 124.993 197.132C127.5 195.165 129.736 192.792 131.159 189.944C132.243 187.706 132.921 185.265 133.259 182.755C132.988 188.655 130.21 194.148 124.858 197.539C124.18 198.081 123.367 198.488 122.554 198.895ZM131.159 170.888C131.43 171.431 131.633 171.973 131.837 172.584C131.633 172.109 131.43 171.566 131.159 171.092C130.21 169.261 129.262 167.362 128.11 165.667C128.178 165.667 128.178 165.734 128.246 165.734C128.246 165.734 128.246 165.734 128.246 165.802C129.33 167.362 130.346 169.057 131.159 170.888ZM123.503 201.472C122.08 201.404 120.725 201.336 119.302 201.268C119.37 201.268 119.505 201.201 119.573 201.201C121.064 200.929 122.622 200.658 124.113 200.116C126.01 199.437 127.975 198.759 129.804 197.81C129.668 197.878 129.601 197.946 129.533 198.081C128.381 198.963 125.874 200.251 124.113 201.065C123.842 201.133 123.571 201.268 123.503 201.472ZM127.365 201.675C126.687 201.607 126.01 201.607 125.264 201.54C126.619 200.862 127.907 200.183 129.126 199.302C130.549 198.42 131.769 197.2 132.785 195.843C133.869 195.03 134.885 194.08 135.698 192.995C138.883 188.384 138.544 182.281 136.85 177.127C136.579 176.381 136.308 175.703 136.037 174.957C136.037 172.99 135.969 170.82 135.834 169.125C136.444 169.396 137.054 169.668 137.663 169.939C138.476 171.702 139.222 173.33 139.764 175.228C140.78 178.619 141.39 181.942 140.712 185.197C139.289 192.181 134.072 198.827 127.907 201.336C127.771 201.54 127.568 201.607 127.365 201.675ZM133.734 202.014C132.446 201.947 131.091 201.879 129.804 201.811C134.818 199.505 138.612 194.012 140.509 189.13C142.271 184.858 141.864 180.179 140.509 175.839C139.967 173.94 139.222 172.177 138.476 170.414C139.628 170.956 140.78 171.431 141.932 171.973C142.135 172.38 142.271 172.787 142.406 173.194C143.219 175.703 143.626 178.076 143.829 180.653C144.168 185.604 143.287 190.351 141.119 194.623C139.628 197.607 137.799 200.048 134.75 201.607C134.411 201.675 134.072 201.811 133.734 202.014ZM141.729 202.421C139.56 202.353 137.392 202.218 135.224 202.082C138.476 200.116 140.848 196.996 142.271 193.402C144.71 188.045 144.777 181.874 143.626 176.178C143.355 174.957 143.016 173.669 142.542 172.516C142.609 172.516 142.609 172.584 142.677 172.584C143.084 172.719 143.558 172.787 143.964 172.855C145.929 176.381 146.81 181.06 147.013 185.4C147.284 190.825 145.794 195.572 142.745 200.251C142.406 200.929 141.932 201.54 141.593 202.15C141.593 202.218 141.661 202.353 141.729 202.421ZM156.16 168.379C176.283 165.192 197.49 147.764 206.162 129.59C208.669 124.369 210.769 119.011 212.463 113.519C213.073 112.027 213.615 110.467 214.089 108.907C214.021 110.67 213.886 112.434 213.818 114.197C213.75 116.299 213.683 118.469 213.683 120.571C212.057 125.861 209.753 131.014 207.246 135.965C198.032 153.393 181.432 166.413 162.461 171.363C159.141 172.109 155.957 172.38 152.366 172.177C150.875 172.041 149.249 171.838 148.639 171.77C148.572 171.77 148.436 171.77 148.368 171.77C146.539 170.956 144.71 170.21 142.88 169.396C147.284 169.329 151.756 169.057 156.16 168.379ZM154.805 167.159C168.694 163.971 181.703 155.427 191.798 145.798C198.912 139.084 204.265 130.879 208.601 122.131C206.569 126.946 204.333 131.489 201.894 135.49C192.069 150.477 174.724 163.836 156.77 166.819C156.092 166.955 155.482 167.023 154.805 167.159ZM172.489 181.874C176.215 181.603 179.874 180.992 183.465 179.84C190.85 177.534 197.761 173.533 203.316 168.244C206.026 165.463 208.398 162.344 210.295 158.953C209.888 160.852 209.617 162.751 209.279 164.649C202.368 174.618 191.256 183.095 180.483 184.044C179.806 184.112 178.993 184.247 178.18 184.247C176.35 183.501 174.453 182.688 172.489 181.874ZM177.773 187.909C178.044 188.655 178.18 189.401 178.383 190.147C179.467 194.08 178.993 198.285 177.299 201.947C178.112 199.234 178.519 196.182 178.519 193.334C178.451 191.503 177.841 189.469 176.96 187.502C177.231 187.706 177.502 187.841 177.773 187.909ZM157.786 175.16C157.583 175.16 157.38 175.296 157.312 175.5C156.228 175.025 155.144 174.618 154.06 174.143C178.248 174.821 202.503 159.292 211.515 136.711C212.26 134.88 212.87 133.049 213.479 131.218C213.412 134.202 213.412 137.117 213.412 140.101C210.701 146.204 206.298 152.172 202.842 156.241C198.303 161.394 193.424 165.599 187.801 169.261C187.53 169.125 187.191 169.261 187.259 169.6C187.259 169.6 187.259 169.6 187.259 169.668C186.514 170.142 185.836 170.549 185.091 171.024C179.738 174.347 174.318 176.72 168.152 176.652C165.307 176.652 163.274 176.381 160.496 175.771C159.615 175.635 158.802 175.364 157.922 175.296C158.193 175.16 157.854 175.093 157.786 175.16ZM211.176 162.615C212.057 161.327 212.802 159.903 213.479 158.479C213.479 158.546 213.479 158.614 213.479 158.682C212.666 162.412 211.04 165.938 209.075 169.329C209.346 167.701 209.55 166.141 209.821 164.514C210.295 163.971 210.701 163.293 211.176 162.615ZM210.024 163.7C210.227 162.683 210.363 161.734 210.566 160.716C210.769 159.631 210.972 158.546 211.244 157.461C212.057 155.902 212.802 154.342 213.479 152.714C213.479 154.342 213.479 155.969 213.547 157.529C212.463 159.631 211.311 161.666 210.024 163.7ZM208.533 170.278C208.33 170.617 208.127 170.956 207.924 171.295C203.452 178.958 194.576 183.773 186.92 184.18C185.565 184.247 184.21 184.247 182.855 184.247C187.598 183.298 192.137 181.264 196.067 178.415C201.284 175.025 205.62 170.481 209.279 165.463C208.94 167.091 208.737 168.718 208.533 170.278ZM208.737 171.77C210.769 168.244 212.531 164.514 213.547 160.513C213.547 163.429 213.615 166.413 213.683 169.329C212.192 172.787 210.227 176.11 207.72 178.89C207.991 176.517 208.33 174.143 208.737 171.77ZM213.547 127.895C213.073 129.929 212.463 131.896 211.718 133.795C204.468 154.817 183.194 170.142 161.716 172.312C161.58 172.312 161.513 172.312 161.377 172.312C161.716 172.245 162.055 172.177 162.393 172.109C182.719 166.887 200.538 152.24 209.211 133.049C210.769 129.522 212.328 125.657 213.615 121.792C213.615 123.826 213.547 125.861 213.547 127.895ZM168.559 177.67C175.334 177.602 181.5 174.482 187.123 170.888C186.988 172.651 186.988 174.482 186.92 176.245C186.92 176.449 187.191 176.449 187.191 176.245C187.394 174.415 187.665 172.109 187.869 170.414C187.869 170.414 187.869 170.414 187.869 170.346C188.004 170.278 188.14 170.21 188.207 170.142C198.777 163.361 207.653 153.732 213.344 142.543C213.344 145.187 213.344 147.832 213.344 150.477C210.837 156.987 207.111 163.361 201.894 168.244C193.289 175.839 181.974 180.518 170.32 181.06C167.204 179.704 164.019 178.415 160.835 177.059C163.477 177.466 165.984 177.737 168.559 177.67ZM184.82 186.01C193.56 185.536 202.639 181.196 207.246 174.075C207.585 173.533 207.924 172.99 208.262 172.516C207.991 174.686 207.72 176.924 207.449 179.094C204.942 181.738 201.961 183.976 198.438 185.265C194.847 186.689 190.782 187.706 186.649 187.774C185.294 187.163 183.871 186.621 182.448 186.01C183.261 186.078 184.007 186.078 184.82 186.01ZM202.097 184.383C204.062 183.162 205.823 181.603 207.382 179.907C207.314 180.45 207.246 180.925 207.178 181.467C207.178 181.535 207.178 181.535 207.246 181.535C207.382 181.467 207.314 181.264 207.382 181.128C207.449 180.653 207.517 180.179 207.585 179.704C209.346 177.737 210.905 175.5 212.26 173.194C212.802 172.177 213.276 171.092 213.683 170.075C213.683 170.956 213.683 171.838 213.75 172.719C210.701 180.789 204.129 189.333 197.286 192.385C194.508 191.232 191.663 190.011 188.885 188.859C193.424 188.248 198.032 186.689 202.097 184.383ZM208.195 184.247C210.363 181.467 212.26 178.415 213.75 175.228C213.818 177.398 213.818 179.5 213.886 181.67C213.344 182.755 212.734 183.773 212.057 184.722C209.211 188.384 204.739 192.181 200.335 193.47C200.267 193.47 200.2 193.47 200.132 193.538C199.658 193.334 199.116 193.131 198.641 192.927C202.368 190.961 205.755 187.502 208.195 184.247ZM207.382 191.164C209.55 189.333 211.515 187.367 212.937 185.332C213.276 184.79 213.615 184.18 213.886 183.637C213.886 184.722 213.954 185.875 213.954 186.96C213.141 188.181 212.328 189.198 211.244 190.351C209.211 192.317 206.907 194.148 204.468 195.436C203.655 195.097 202.91 194.758 202.097 194.419C204.062 193.606 205.755 192.453 207.382 191.164ZM213.141 189.266C213.412 188.859 213.683 188.52 213.954 188.113C213.954 188.452 213.954 188.791 213.954 189.13C213.005 191.029 211.515 192.521 209.888 193.809C209.008 194.487 207.517 195.504 206.23 196.182C205.959 196.047 205.755 195.979 205.484 195.843C208.466 194.148 211.04 191.842 213.141 189.266ZM142.948 202.489C144.506 200.387 145.523 197.946 146.403 195.572C148.639 189.13 148.707 182.01 146.946 175.432C146.81 174.957 146.675 174.55 146.539 174.143C146.471 174.075 146.336 174.075 146.268 174.211C146.403 174.754 146.539 175.364 146.675 175.906C147.149 177.805 147.42 179.772 147.555 181.738C147.284 179.84 146.878 177.873 146.268 175.974C145.997 175.16 145.658 174.279 145.319 173.533C146.336 174.008 147.352 174.482 148.368 174.889C149.046 176.313 149.452 177.805 149.859 179.568C151.078 185.671 150.74 192.588 148.233 198.352C147.759 199.573 146.878 201.065 146.268 202.286C146.268 202.489 146.336 202.557 146.403 202.625C145.252 202.557 144.1 202.489 142.948 202.489ZM146.675 202.625C146.81 202.557 146.946 202.421 147.013 202.218C151.485 194.216 152.027 184.315 149.452 175.635C149.385 175.567 149.385 175.432 149.317 175.364C150.265 175.771 151.146 176.178 152.095 176.585C153.653 182.688 153.653 188.994 151.621 194.962C150.672 197.81 149.588 200.59 147.488 202.692C147.284 202.625 147.013 202.625 146.675 202.625ZM148.368 202.692C150.265 200.522 151.349 197.606 152.23 194.894C154.127 189.062 154.127 182.756 152.705 176.788C153.247 177.059 153.789 177.263 154.331 177.534C154.873 179.297 155.144 181.264 155.347 182.959C156.16 190.011 154.737 196.996 150.943 202.828C150.13 202.76 149.249 202.692 148.368 202.692ZM151.688 202.828C155.753 196.115 156.838 187.774 155.347 180.043C155.347 179.84 155.076 178.755 154.805 177.737C154.873 177.737 154.873 177.805 154.94 177.805C156.567 178.551 158.193 179.297 159.819 179.975C159.615 186.146 159.954 192.317 159.548 198.42C159.548 198.488 159.615 198.488 159.615 198.488C159.683 198.149 159.683 197.81 159.683 197.471C160.09 192.317 160.293 187.096 160.632 181.874C160.699 181.399 160.699 180.925 160.767 180.45C162.258 181.128 163.748 181.806 165.239 182.484C165.239 182.552 165.239 182.552 165.239 182.62C165.781 185.197 166.052 187.774 165.713 190.486C165.51 192.385 164.494 195.301 163.748 197.132C162.8 199.098 161.309 201.675 159.751 203.167C157.041 203.032 154.398 202.896 151.688 202.828ZM160.632 203.099C161.58 201.947 162.393 200.726 163.139 199.505C165.916 194.487 167.204 188.452 165.849 182.688C166.255 182.891 166.662 183.027 167.068 183.23C168.627 189.74 167.543 197.335 162.935 202.421C162.8 202.625 162.529 202.896 162.258 203.167C161.716 203.099 161.174 203.099 160.632 203.099ZM162.461 203.167C166.187 199.37 167.949 194.012 167.814 188.723C167.746 186.892 167.678 185.061 167.204 183.298C167.475 183.434 167.746 183.569 168.017 183.637C168.152 184.112 168.356 184.586 168.491 185.061C169.236 187.977 169.44 191.232 168.694 194.284C167.814 197.471 166.594 200.59 164.494 203.099C163.816 203.167 163.139 203.167 162.461 203.167ZM165.103 203.167C166.323 201.811 167.272 200.116 167.949 198.488C169.982 193.945 170.388 188.723 168.694 184.044C168.694 183.976 168.627 183.976 168.627 183.908C169.033 184.112 169.507 184.315 169.914 184.451C169.846 184.519 169.846 184.586 169.914 184.654C171.201 185.807 171.201 187.841 171.405 189.401C171.879 193.877 171.133 198.42 168.83 202.286C168.694 202.625 168.491 202.896 168.288 203.167C167.272 203.235 166.187 203.235 165.103 203.167ZM168.491 203.235C168.491 203.167 168.559 203.167 168.559 203.099C171.608 198.624 172.285 192.995 171.405 187.706C171.201 186.689 170.998 185.604 170.388 184.79L170.32 184.722C170.727 184.926 171.201 185.129 171.608 185.265C171.608 185.265 171.608 185.265 171.608 185.332C173.505 189.469 173.437 194.555 171.811 199.098C171.269 200.522 170.795 202.082 169.914 203.303C169.44 203.235 168.965 203.235 168.491 203.235ZM175.876 203.303C174.047 203.303 172.285 203.303 170.456 203.235C171.201 202.082 171.743 200.794 172.218 199.437C173.979 195.03 174.115 189.876 172.489 185.604C173.844 186.214 175.131 186.756 176.486 187.367C178.451 192.385 177.706 197.539 176.147 202.625C176.079 202.828 176.012 203.099 175.876 203.303ZM176.825 203.303C176.825 203.235 176.893 203.167 176.893 203.099C178.112 201.065 178.857 198.624 179.128 196.25C179.332 193.741 178.857 191.164 178.248 188.723C178.18 188.452 178.112 188.248 178.044 187.977C178.451 188.113 178.79 188.316 179.196 188.452C179.399 188.723 179.603 188.926 179.738 189.266C182.042 192.588 183.261 196.657 182.042 200.455C181.771 201.472 181.364 202.353 180.822 203.235C179.467 203.371 178.112 203.303 176.825 203.303ZM181.296 203.303C181.771 202.557 182.042 201.675 182.245 200.794C183.532 196.589 182.11 192.114 179.603 188.723C179.941 188.859 180.28 188.994 180.619 189.13C182.042 190.825 183.126 192.656 183.532 194.894C183.939 197.606 183.261 200.794 181.771 203.303C181.568 203.303 181.432 203.303 181.296 203.303ZM182.11 203.303C183.329 201.404 183.939 198.827 184.007 196.521C184.007 194.216 183.126 191.978 181.839 190.147C181.703 189.876 181.5 189.672 181.296 189.401C182.177 189.808 183.126 190.215 184.007 190.554C185.904 194.351 185.633 199.641 183.194 203.235C182.855 203.303 182.448 203.303 182.11 203.303ZM183.871 203.303C186.039 199.777 186.175 194.487 184.549 190.893C186.31 191.639 188.072 192.385 189.901 193.199C190.308 194.419 190.579 195.708 190.511 196.928C190.443 199.166 189.427 201.472 188.072 203.235C186.717 203.235 185.294 203.303 183.871 203.303ZM191.188 203.032C191.121 203.099 191.121 203.099 191.121 203.167C190.308 203.167 189.427 203.235 188.614 203.235C189.088 202.625 189.427 201.879 189.833 201.201C191.121 198.827 191.256 195.979 190.375 193.47C190.375 193.402 190.308 193.402 190.308 193.334C190.985 193.606 191.663 193.877 192.34 194.216C192.34 194.284 192.34 194.284 192.408 194.351C193.086 197.064 192.95 199.098 192.002 201.607C191.798 201.879 191.527 202.421 191.188 203.032ZM193.831 203.032C193.289 203.032 192.815 203.099 192.273 203.099C192.476 202.692 192.611 202.286 192.747 201.879C193.628 199.505 193.56 196.861 192.815 194.419L192.882 194.419C193.492 194.691 194.17 194.962 194.779 195.233C195.525 197.606 195.05 200.116 194.17 202.286C194.102 202.557 193.966 202.76 193.831 203.032ZM194.305 202.964C195.525 200.658 195.863 197.946 195.389 195.436C195.728 195.572 195.999 195.708 196.338 195.843C196.473 196.521 196.473 197.267 196.541 197.946C196.541 199.844 196.338 201.336 195.457 202.896C194.983 202.964 194.644 202.964 194.305 202.964ZM196.067 202.896C197.151 200.997 197.286 198.352 196.812 196.047C197.354 196.25 197.828 196.454 198.37 196.657C198.506 198.759 198.235 201.065 197.219 202.828C196.812 202.896 196.406 202.896 196.067 202.896ZM199.319 202.76C198.777 202.76 198.167 202.828 197.625 202.828C197.828 202.489 197.964 202.082 198.099 201.743C198.641 200.183 198.845 198.488 198.641 196.861C199.048 196.996 199.387 197.2 199.793 197.335C200.132 199.098 199.929 201.201 199.319 202.76ZM199.996 202.692C200.606 201.268 200.606 199.505 200.335 197.878C200.538 198.013 200.809 198.013 201.013 197.946C201.08 197.946 201.08 197.946 201.148 197.878C201.08 199.777 200.877 201.268 200.064 202.692C200.132 202.692 200.064 202.692 199.996 202.692ZM200.945 202.625C201.623 201.201 201.758 199.641 201.69 198.081C201.826 198.149 201.961 198.217 202.097 198.217C202.165 198.691 202.097 199.166 202.097 199.641C201.826 200.658 201.487 201.607 201.148 202.286C201.08 202.421 201.013 202.557 200.945 202.625ZM201.894 202.557C202.503 201.336 202.842 199.912 202.91 198.556C202.978 198.556 203.045 198.624 203.045 198.624C202.842 199.98 202.503 201.404 201.961 202.489L201.894 202.557ZM204.333 199.505C204.265 200.387 204.129 201.472 203.858 202.421C203.452 202.421 202.978 202.489 202.571 202.489C202.91 201.879 203.113 201.201 203.316 200.59C203.452 200.116 203.587 199.437 203.655 198.827C203.791 198.895 203.926 198.963 204.062 198.963C204.129 199.098 204.265 199.166 204.333 199.234C204.333 199.37 204.333 199.437 204.333 199.505ZM205.349 202.353C205.078 202.353 204.739 202.421 204.468 202.421C204.671 201.675 204.807 200.929 204.875 200.183C204.875 199.912 204.942 199.641 204.942 199.437C205.01 199.437 205.146 199.505 205.213 199.505C205.484 199.641 205.823 199.709 206.094 199.844C205.891 200.658 205.62 201.54 205.349 202.353ZM207.449 200.929C207.314 201.404 207.178 201.811 207.043 202.218C206.975 202.218 206.975 202.218 206.907 202.218C206.569 202.218 206.162 202.286 205.823 202.286C206.094 201.54 206.298 200.794 206.433 199.98C206.772 200.116 207.178 200.251 207.517 200.387C207.517 200.59 207.517 200.794 207.449 200.929ZM209.143 195.504C210.634 194.351 212.666 192.588 213.886 190.69C213.954 190.622 214.021 190.486 214.021 190.418C214.021 191.368 214.089 192.317 214.089 193.266C214.021 193.334 213.954 193.402 213.954 193.47C212.395 195.369 210.566 196.589 208.804 197.267C208.398 197.132 207.991 196.928 207.653 196.793C208.127 196.318 208.601 195.911 209.143 195.504ZM209.075 202.082C209.075 201.811 209.008 201.675 208.737 201.743C208.669 201.811 208.601 201.947 208.533 202.15C208.33 202.15 208.127 202.218 207.924 202.218C208.059 201.743 208.127 201.268 208.262 200.794C208.398 200.862 208.466 200.862 208.601 200.929C209.414 201.201 210.363 201.54 211.244 201.947C210.498 201.947 209.753 202.014 209.075 202.082ZM212.192 198.488C212.192 198.556 212.192 198.624 212.192 198.624C211.718 198.42 211.311 198.217 210.837 198.081C211.311 197.81 211.786 197.471 212.192 197.2C212.937 196.521 213.615 195.776 214.157 195.03C214.157 195.572 214.157 196.115 214.225 196.657C213.818 197.064 213.412 197.403 213.005 197.81C212.734 198.013 212.395 198.217 212.192 198.488ZM213.886 199.37C213.547 199.234 213.208 199.098 212.87 198.963C213.276 198.691 213.75 198.352 214.225 197.878C214.225 198.42 214.225 198.963 214.292 199.573C214.089 199.505 213.954 199.437 213.886 199.37ZM214.292 104.703C213.141 108.84 211.718 113.044 210.227 116.638C206.569 125.521 201.419 134.812 194.712 142C183.939 153.325 170.659 162.412 155.482 166.209C149.994 167.498 144.1 167.972 138.544 167.498C137.46 167.023 136.376 166.548 135.292 166.074C140.373 165.667 145.048 164.921 150.265 163.768C179.332 156.309 203.249 132.438 212.463 104.093C213.615 100.295 214.428 96.362 214.97 92.4288C214.699 96.4976 214.496 100.566 214.292 104.703ZM215.376 84.766C215.309 85.3763 215.241 85.9866 215.173 86.6648C214.699 91.5473 213.954 96.4298 212.666 101.177C205.417 127.691 182.516 150.544 157.651 159.903C149.114 163.09 140.712 164.175 131.972 164.717C127.433 162.751 122.961 160.716 118.421 158.75C122.351 159.089 127.568 158.953 131.565 158.75C131.565 159.564 131.498 160.377 131.498 161.123C131.904 161.53 131.701 159.699 131.769 159.496C131.769 159.224 131.769 159.021 131.769 158.75C146.742 158.207 160.632 151.223 172.624 142.678C186.446 133.117 197.964 120.3 205.552 105.245C209.346 97.9895 212.666 90.4623 215.376 82.7316L215.376 84.766ZM215.715 79.0019C213.75 85.7832 210.701 91.9542 207.653 98.3964C202.707 108.161 197.354 117.791 190.172 125.589C175.402 141.661 154.602 155.63 132.988 156.715C132.65 156.715 132.243 156.783 131.837 156.783C131.904 155.088 131.972 153.393 132.04 151.697C138.68 150.477 146.132 148.171 152.298 145.119C161.987 140.372 171.066 134.269 179.535 127.488C187.056 121.453 193.831 114.4 199.522 106.602C199.387 108.568 199.251 110.535 199.183 112.569C199.183 112.84 199.116 113.112 199.183 113.315L199.251 113.315C199.319 112.773 199.319 112.23 199.387 111.688C199.522 109.925 199.658 108.094 199.793 106.33C206.162 97.5148 211.176 87.6819 214.157 77.1031C214.97 74.3228 215.715 71.5425 216.325 68.6944C216.054 72.1528 215.851 75.6113 215.715 79.0019ZM216.528 64.49C214.36 79.0697 208.398 92.7679 199.929 104.703C200.132 102.194 200.403 99.6848 200.674 97.1757C203.926 92.4288 206.907 87.5463 209.617 82.4604C209.482 83.6132 209.279 84.8338 209.143 85.9866C209.143 86.2579 209.008 86.5291 209.075 86.7326L209.143 86.8004C209.482 85.851 209.482 84.6304 209.685 83.6132C209.753 83.0029 209.888 82.4604 209.956 81.85C210.024 81.7822 210.024 81.7144 210.092 81.6466C213.073 75.9503 214.631 69.7116 216.393 63.6084C216.461 63.3372 216.596 63.0659 216.664 62.7947C216.596 63.405 216.528 63.9475 216.528 64.49ZM216.664 62.0487C216.596 62.0487 216.596 62.0487 216.664 62.0487C214.834 67.2703 213.547 72.8309 211.311 77.7135C210.905 78.595 210.566 79.4088 210.159 80.2904C210.634 77.3066 211.04 74.3228 211.582 71.3391C213.479 66.9312 215.241 62.4556 216.732 57.9121C216.799 57.7087 216.867 57.5053 216.935 57.3696C216.799 58.9293 216.732 60.489 216.664 62.0487ZM217.003 55.5387C215.444 60.0821 213.818 64.5578 211.921 68.9656C211.989 68.4909 212.124 67.9484 212.192 67.4737C212.734 66.1175 213.276 64.7612 213.75 63.3372C214.902 60.2856 216.054 57.234 217.07 54.1146C217.07 54.5893 217.003 55.064 217.003 55.5387ZM217.206 52.3515C215.715 56.2846 214.292 60.2178 212.734 64.0831C212.87 63.4728 212.937 62.8625 213.073 62.2522C214.699 58.3868 216.122 54.3859 217.206 50.3171C217.274 49.978 217.341 49.639 217.477 49.2321C217.341 50.3171 217.274 51.3343 217.206 52.3515ZM217.68 46.3161C216.664 50.5205 215.309 54.6571 213.75 58.6581C214.767 53.0296 215.851 47.4011 217.003 41.8405C217.07 41.4336 217.816 37.9752 218.493 34.1777C218.222 38.1786 217.951 42.2474 217.68 46.3161Z" fill="white"/>
</svg>
