<svg width="352" height="357" viewBox="0 0 352 357" fill="none" xmlns="http://www.w3.org/2000/svg">
<g opacity="0.5">
<path d="M109.527 356.232C107.464 353.375 105.4 350.359 103.337 347.343C102.067 334.645 106.194 322.422 111.273 311.152C129.686 272.263 170.798 247.819 210.957 236.231C220.322 233.533 229.687 230.993 239.37 229.723C242.386 229.247 246.672 228.93 249.37 228.612C250.005 228.453 250.64 228.612 251.275 228.453C256.354 229.564 261.275 230.676 266.354 231.628C268.735 231.945 270.957 232.422 273.338 232.58C273.656 232.422 273.497 232.104 273.338 232.104C265.719 230.358 258.1 228.612 250.481 226.707C250.481 226.707 250.481 226.549 250.322 226.549C238.417 217.818 232.544 196.231 231.592 182.897C228.576 136.865 253.18 91.3092 283.18 57.9756C296.672 44.3246 311.593 31.9436 326.514 20.8324C326.514 20.8324 326.672 20.8324 326.672 20.6736C334.926 17.1815 343.022 13.372 351.117 9.40368C351.276 9.24495 351.434 9.08622 351.276 8.92748C351.117 8.76875 350.958 8.61002 350.799 8.76875C342.545 12.737 334.291 16.3879 325.879 20.0387C325.72 20.0387 325.561 20.1974 325.561 20.1974C300.164 30.9912 273.973 40.3563 248.1 50.1977C246.672 50.6739 245.402 51.1501 243.973 51.6263C236.513 53.2136 228.894 53.6898 221.116 54.3247C204.766 55.5946 189.211 54.0073 173.655 49.0866C156.512 44.0072 140.798 35.9119 129.369 21.626C126.194 17.8165 122.702 12.737 120.48 7.34017C120.321 7.02271 120.162 6.70524 120.162 6.38778C120.48 6.07032 120.797 5.59412 121.115 5.27666C122.543 3.68934 123.972 2.26076 125.242 0.673441C125.401 0.197246 124.766 -0.278948 124.448 0.197246C121.909 2.73695 119.369 5.11793 116.829 7.4989C114.289 8.92748 111.908 10.5148 109.369 12.1021C103.654 15.4355 98.0988 18.9276 91.9082 21.4673C66.6699 32.4198 34.7648 38.4516 8.25666 27.0229C2.70106 24.3245 -3.01329 21.3086 -7.45777 17.0228L-7.6165 16.8641C-7.77523 12.8958 -7.77523 8.92749 -7.93397 5.11793C-8.0927 4.80046 -8.41016 4.95919 -8.41016 5.27666C-8.41016 9.08622 -8.41016 12.8958 -8.41016 16.8641C-8.56889 17.0228 -8.56889 17.1815 -8.41016 17.3403C-8.41016 22.1022 -8.41016 26.8642 -8.41016 31.6261C-8.88635 31.7848 -8.72762 32.1023 -8.41016 32.5785C-8.41016 35.5944 -8.41016 38.4516 -8.56889 41.4675C-8.88635 41.6262 -8.88635 42.1024 -8.56889 42.5786C-8.72762 54.9597 -9.20382 67.3407 -9.83875 79.7218C-10.1562 87.4996 -11.1086 95.1188 -10.7911 102.897C-10.4737 105.436 -10.6324 111.786 -10.3149 112.262C-10.4737 112.738 -10.4737 112.897 -10.4737 112.897C-10.6324 113.532 -10.6324 114.167 -10.6324 114.801C-10.6324 115.119 -10.6324 115.595 -10.4737 115.754C-10.9499 116.389 -10.3149 117.5 -9.36255 117.182C-6.34665 116.548 -0.314846 118.77 2.70106 120.198C2.85979 120.198 2.85979 120.198 3.01852 120.357C3.17725 120.833 3.49471 121.309 3.97091 121.627C3.97091 122.421 3.97091 123.373 3.97091 124.167C4.12964 129.564 4.28837 134.96 5.71695 140.199C5.87569 140.516 5.87569 140.833 5.87569 141.151C5.87569 141.31 5.71695 141.468 5.71695 141.627C5.55822 142.103 5.71696 142.421 5.87569 142.897C4.4471 144.96 3.97091 147.659 3.65344 150.04C3.01852 154.008 3.17725 157.976 4.12964 161.945C4.12964 162.262 4.28837 162.421 4.28837 162.58C4.12964 162.738 4.12964 162.897 4.12964 163.056C-0.949774 163.691 -4.75933 166.389 -9.20382 169.881C-10.9499 171.31 -12.5372 172.739 -13.807 174.485C-14.2832 174.167 -14.6007 174.008 -15.0769 173.691C-17.9341 172.421 -19.0452 172.262 -20.95 171.945C-22.5373 171.786 -24.4421 171.786 -25.7119 172.739C-26.3468 173.056 -26.5056 173.691 -26.6643 174.167C-27.7754 175.278 -27.1405 177.342 -26.823 178.77C-25.8706 182.739 -25.3944 186.548 -25.077 188.77C-23.1722 201.945 -21.2674 219.723 -20.1563 236.549C-20.315 236.549 -20.315 236.707 -20.315 236.707C-20.4738 237.025 -20.315 237.342 -19.9976 237.342C-19.9976 237.818 -19.9976 238.295 -19.8388 238.612C-18.7277 253.533 -17.1404 268.454 -16.5055 283.533C-16.0293 295.914 -15.7118 308.137 -15.2356 320.518C-15.2356 320.994 -15.2356 321.629 -14.7594 321.787C-14.2832 321.946 -13.6483 321.629 -13.6483 321.153C-13.6483 320.518 -13.6483 319.724 -13.6483 319.089C-7.29904 308.93 2.85979 301.152 13.8123 296.708C26.987 291.628 41.5903 291.47 55.3999 294.644C60.4794 295.914 63.9715 297.184 68.7334 298.93C68.4159 298.771 68.5747 298.771 68.7334 298.93C69.0509 299.089 69.5271 299.089 69.8445 298.771C78.5748 311.47 87.1463 324.168 95.8765 336.867C100.004 343.058 104.131 349.248 108.734 355.121C109.051 355.597 109.369 356.074 109.845 356.391C109.369 357.026 109.686 356.55 109.527 356.232ZM246.037 227.025C245.719 227.025 245.243 227.025 244.926 227.183C236.195 228.136 226.036 230.358 216.989 233.215C174.766 245.12 131.909 268.454 111.273 308.93C108.575 314.327 106.194 320.041 104.448 325.915C109.845 302.898 124.607 279.089 140.639 264.644C148.099 258.295 156.195 252.739 165.083 248.136C178.258 241.945 192.862 237.342 207.147 233.533C216.83 230.993 226.83 229.247 236.83 227.818C240.005 227.342 242.545 227.025 244.608 226.707C245.243 226.866 245.719 227.025 246.037 227.025ZM210.005 231.31C194.608 235.755 179.211 240.517 164.766 247.342C155.56 252.104 146.988 257.977 139.21 264.962C129.686 273.851 122.067 284.486 115.877 295.756C109.369 307.184 104.607 319.724 102.702 332.74C102.385 335.121 102.067 337.661 101.908 340.042C101.908 339.407 101.908 338.613 101.908 337.978C101.908 334.803 102.226 331.629 102.702 328.772C104.607 316.391 108.416 304.486 113.972 293.375C119.369 282.422 125.718 271.946 134.131 263.216C151.591 245.279 173.655 232.739 197.941 227.183C206.671 225.279 214.766 223.691 223.338 223.215C225.719 223.056 228.259 223.215 230.64 223.215H230.798C233.021 223.85 235.243 224.326 237.465 224.961C238.259 225.12 239.052 225.279 239.687 225.437C238.735 225.596 237.783 225.596 236.83 225.755C227.941 227.025 218.894 228.929 210.005 231.31ZM242.545 224.644C242.545 224.326 242.227 224.009 242.068 223.691C240.322 221.31 238.735 218.929 237.306 216.548C235.878 213.85 234.449 211.152 233.338 208.294C236.513 214.326 240.322 220.041 244.926 225.12C244.767 225.12 244.608 225.12 244.449 225.12C243.814 224.961 243.179 224.802 242.545 224.644ZM317.307 24.8006C318.418 24.3245 319.688 23.8483 320.799 23.3721C320.006 24.007 319.053 24.6419 318.259 25.2768C307.466 33.2134 297.307 41.9437 287.624 51.3088C252.862 86.2298 223.973 139.564 231.116 190.04C232.227 197.342 234.449 204.326 237.465 211.152C240.005 216.707 243.021 222.104 247.624 226.072C247.306 226.072 247.148 225.914 246.83 225.914C240.481 219.088 235.719 210.834 231.751 202.263C229.846 198.136 228.1 193.532 226.671 188.929C225.719 184.961 224.925 180.993 224.449 177.024C219.846 131.786 243.179 86.0711 276.196 55.5946C285.085 47.4993 293.339 40.5151 302.545 34.3245C307.148 30.6737 311.593 27.6578 317.307 24.8006C317.307 24.9594 317.307 24.8006 317.307 24.8006ZM306.037 29.5626C296.672 34.8007 288.735 42.1024 280.005 49.8802C254.926 73.2138 234.767 102.897 226.671 136.389C225.084 143.214 223.814 150.04 223.338 157.024C223.814 126.865 234.767 97.0235 254.608 74.1662C264.449 62.42 276.513 50.1977 287.783 41.15C290.958 38.769 294.132 36.5468 297.466 34.3245C297.624 34.3245 297.624 34.1658 297.783 34.0071C299.847 32.7372 301.91 31.4674 303.974 30.3563C304.45 30.0388 305.243 29.8801 306.037 29.5626ZM267.465 44.8008C276.831 41.15 286.196 37.4992 295.561 33.6896C287.942 37.9754 281.275 44.0072 274.926 50.039C266.196 58.4517 258.1 67.4995 250.64 77.0234C229.687 103.532 220.322 136.072 222.862 168.77C223.021 176.072 223.973 183.374 225.878 190.358C226.036 190.993 226.354 191.628 226.513 192.262C226.513 192.421 226.513 192.421 226.513 192.58C228.259 199.723 231.116 206.548 234.29 213.215C236.195 217.183 238.417 220.834 241.116 224.326C240.957 224.326 240.64 224.168 240.481 224.168C237.465 221.31 235.402 217.818 233.179 214.326C227.465 204.961 223.655 195.12 220.64 184.643C209.37 144.643 218.417 100.039 244.767 67.6582C248.894 62.2613 254.767 56.0708 260.164 51.1501C262.386 49.0866 264.608 47.1818 266.83 45.1183C267.148 44.9596 267.307 44.8008 267.465 44.8008ZM253.973 50.039C257.148 48.7691 260.322 47.4993 263.338 46.3881C256.354 52.4199 249.846 59.2454 244.132 66.5471C215.878 100.674 207.624 149.722 221.909 191.628C225.56 202.421 230.481 212.739 237.306 221.945C237.783 222.58 238.417 223.215 238.894 223.85C231.751 221.945 224.608 220.041 217.624 218.136C206.036 210.04 196.354 187.024 192.703 173.373C184.131 141.945 189.211 113.055 206.671 85.7536C211.274 78.4519 216.195 72.4201 222.227 66.2296C224.29 64.1661 226.354 62.2613 228.417 60.1978C228.417 60.1978 228.576 60.0391 228.576 59.8803C237.148 56.547 245.56 53.3723 253.973 50.039ZM-19.5214 193.374C-19.6801 193.374 -19.9976 193.532 -20.1563 193.532C-20.1563 193.215 -20.1563 192.897 -20.1563 192.739C-16.5055 190.358 -11.7435 190.04 -7.29904 190.516C-6.82285 191.151 -6.50538 191.628 -6.02919 192.262C-7.14031 192.104 -8.41016 191.945 -9.68001 191.786C-13.0134 191.628 -16.3467 192.421 -19.5214 193.374ZM-21.9023 179.405C-19.9976 178.294 -17.4579 178.294 -15.0769 178.612C-14.9182 178.77 -14.9182 178.929 -14.7594 179.088C-14.442 179.723 -14.1245 180.199 -13.6483 180.834C-16.0293 180.199 -19.0452 179.881 -21.7436 179.881C-21.7436 179.723 -21.7436 179.564 -21.9023 179.405ZM21.7488 92.8965C24.2886 92.579 26.987 91.9441 29.5267 91.3092C27.9394 92.8965 26.3521 94.4838 24.7647 96.0711C14.4472 98.1347 2.70105 95.4362 -5.0768 88.1346C-1.5847 90.3568 2.70106 92.4203 6.66935 93.214C11.59 94.1664 16.6694 93.5314 21.7488 92.8965ZM43.1776 76.8646C42.384 77.0234 41.5903 77.0233 40.9554 77.1821C36.6696 77.4995 32.3839 77.3408 28.2568 76.7059C21.4314 75.7535 13.8123 74.1662 7.78046 70.5154C3.81217 68.1344 0.00261307 65.5947 -2.69582 62.1026C1.4312 66.5471 6.9868 70.3566 12.5424 72.7376C21.1139 76.2297 30.3204 77.0233 39.5268 77.1821C40.7966 77.0233 42.0665 77.0234 43.1776 76.8646ZM51.1142 77.0234C52.8602 75.1186 54.765 73.2138 56.5111 71.309C58.892 87.0234 72.0668 100.516 84.924 108.928C83.178 109.563 81.4319 110.198 79.6859 110.992C76.0351 109.087 72.8604 106.389 69.6858 103.532C61.273 96.3886 54.6063 87.1822 51.1142 77.0234ZM228.735 57.0232C217.941 60.9915 207.147 64.801 196.354 68.6106C193.02 68.7693 189.687 68.4518 186.354 68.1344C174.29 66.8645 161.115 64.4836 150.163 57.9756C136.194 50.5152 123.178 40.3563 117.305 25.1181C115.718 21.3086 114.766 17.499 114.607 14.0069C114.607 13.5307 114.607 13.2132 114.607 12.8958C114.924 14.4831 115.718 16.7053 115.877 17.499C116.829 20.0387 118.258 23.0546 120.162 25.9118C136.194 48.9278 165.083 57.3406 191.909 58.9279C204.29 59.7216 216.671 59.2454 228.735 57.0232ZM177.465 164.961C172.861 135.278 180.48 103.69 200.639 81.7853C206.671 74.8011 214.29 68.1344 220.798 62.7375C221.909 62.2613 223.179 61.7851 224.29 61.4677C224.132 61.4677 224.132 61.6264 224.132 61.6264C218.259 67.182 213.02 73.5313 208.576 80.198C187.941 110.357 182.703 144.167 193.814 179.088C198.576 192.58 204.449 206.231 214.449 216.548C214.766 216.866 215.243 217.183 215.719 217.66C210.481 216.231 205.401 214.802 200.163 213.374C187.941 199.723 179.528 182.739 177.465 164.961ZM198.893 212.898C198.735 212.898 198.417 212.739 198.258 212.739C193.655 208.771 190.004 204.167 186.512 199.247C181.274 191.945 176.988 184.326 174.449 175.913C164.925 146.707 167.623 113.532 183.655 88.1346C187.782 81.7853 190.798 77.9757 194.449 73.8487C195.242 73.0551 196.036 72.2614 196.83 71.6265C203.02 69.2455 209.211 67.0233 215.401 64.6423C210.322 68.7693 205.719 73.5313 201.274 78.4519C182.068 99.2458 173.338 128.452 176.036 157.183C177.306 175.437 183.338 193.532 194.925 207.818C196.195 209.564 197.623 211.152 198.893 212.898ZM115.877 24.9594C118.258 30.6737 121.432 36.2293 125.718 40.6738C132.226 47.9755 140.321 53.5311 148.734 58.1343C160.48 64.9597 173.655 69.2455 187.306 70.1979C188.734 70.1979 190.163 70.3566 191.592 70.3566C185.877 72.4201 180.004 74.4836 174.29 76.5472C164.607 76.7059 155.083 75.5948 145.56 73.3725C126.194 69.563 107.464 59.0867 96.3527 43.531C94.9241 41.6262 92.8606 38.1341 92.3844 37.023C92.0669 36.2293 92.067 36.2293 91.9082 35.5944C99.0511 28.2927 106.194 21.1498 113.178 13.6894C113.02 17.499 114.448 21.4673 115.877 24.9594ZM171.75 77.3408C162.226 80.6742 152.861 84.0075 143.337 87.4996C143.179 87.3409 142.861 87.3409 142.385 87.1822C139.845 86.3885 135.877 84.9599 134.131 84.325C127.464 81.6266 118.893 77.0233 113.178 71.9439C104.924 64.4836 97.4638 56.2295 93.0193 45.9119C92.2257 44.0072 91.1146 40.9913 90.6384 38.6103C91.7495 40.8325 93.4955 43.0548 93.9717 43.531C107.94 60.3565 125.559 70.6741 147.147 74.6424C155.242 76.3884 163.496 77.3408 171.75 77.3408ZM108.258 68.1344C115.877 76.3884 125.401 83.0552 136.036 87.0234C137.147 87.3409 138.099 87.8171 139.21 88.1346C120.162 84.9599 98.4162 66.8645 91.7495 50.6739C90.4796 47.4993 89.2098 44.4834 88.2574 41.15C88.0987 40.6738 88.0987 40.0389 87.6225 39.8801C87.6225 39.8801 87.6225 39.8801 87.4637 39.8801C88.2574 39.0865 89.0511 38.2928 89.686 37.6579C92.067 49.5628 100.162 59.5629 108.258 68.1344ZM87.1463 42.2611C87.6225 43.531 88.5749 45.7532 89.2098 47.1818C93.9717 59.8803 103.496 69.8804 114.448 77.4995C121.908 82.7377 130.321 87.1822 139.369 88.452C139.686 88.452 140.163 88.6108 140.48 88.6108C132.861 91.3092 125.401 94.0076 117.781 96.8648C117.305 96.7061 116.829 96.3886 116.353 96.0711C101.115 87.9758 88.5749 71.1503 82.8605 57.0232C81.5907 54.0073 80.6383 50.9914 79.8446 47.8167C81.1145 46.5469 82.5431 45.1183 83.8129 43.8484C84.7653 42.896 85.7177 41.9437 86.6701 40.9913C86.6701 41.4675 86.9875 41.7849 87.1463 42.2611ZM116.353 97.1823C116.353 97.341 116.512 97.341 116.353 97.1823C116.194 97.341 116.035 97.341 115.718 97.4997C98.575 91.9441 82.8605 77.1821 76.8287 61.3089C75.8763 58.6105 75.2414 56.547 74.9239 54.3247C74.7652 54.0073 74.9239 53.5311 74.6065 52.8961C75.8763 51.6263 77.1462 50.1977 78.416 48.9278C82.8605 69.8804 97.7813 87.6584 116.353 97.1823ZM57.7809 172.739C54.4476 167.183 52.0666 161.469 50.638 155.278C48.7332 145.437 49.2094 134.325 54.1301 125.754C55.2412 125.278 56.3523 124.802 57.4635 124.484C56.0349 129.564 55.7174 134.96 55.7174 140.199C55.5587 150.992 58.5746 161.786 63.8127 171.151C63.9715 171.627 65.8762 174.643 67.4635 177.183C64.7651 176.389 62.0667 175.754 59.3682 174.961C58.7333 174.167 58.2571 173.532 57.7809 172.739ZM58.5746 174.802C58.4158 174.802 58.2571 174.643 57.9397 174.643C55.0825 171.786 52.7015 168.611 50.7967 164.961C46.3522 156.389 43.8125 146.389 44.2887 136.548C44.4475 133.691 44.7649 130.992 44.9237 129.405C47.3046 128.452 49.8443 127.5 52.2253 126.548C50.638 129.881 49.6856 133.691 49.2094 137.5C47.4634 150.357 51.2729 163.85 58.5746 174.802ZM57.3047 150.834C56.1936 142.579 56.3523 133.691 58.4158 125.913C58.5746 125.278 58.892 124.484 59.0508 123.69C65.8762 120.992 72.543 118.452 79.3684 115.754C76.3525 121.944 75.5589 129.087 75.0827 136.072C74.1303 151.31 77.4636 167.183 86.0351 180.04C86.5113 180.834 87.1463 181.627 87.7812 182.421C83.4955 181.31 79.2097 180.199 74.9239 178.929C72.8604 178.453 70.6382 177.818 68.5747 177.183C62.8603 169.405 58.892 160.357 57.3047 150.834ZM86.6701 179.405C77.4636 166.548 74.7652 150.516 75.8763 135.119C76.3525 128.294 77.4636 121.468 80.4795 115.436C81.4319 115.119 82.3843 114.643 83.3367 114.325C83.3367 114.325 83.3367 114.325 83.3367 114.484C83.0193 114.96 82.8605 115.595 82.7018 115.913C82.0669 117.659 81.4319 119.563 80.9557 121.468C78.0986 132.262 79.051 143.691 82.3843 154.167C85.4002 164.802 90.3209 174.961 97.6226 183.532C98.4162 184.326 99.0511 185.12 99.8448 185.913C96.3527 184.961 92.8606 184.008 89.5273 183.056C88.4161 181.786 87.6225 180.675 86.6701 179.405ZM85.0828 113.532C85.2415 113.373 85.559 113.373 85.7177 113.214C80.3208 126.389 80.6383 142.897 83.9716 156.389C86.9875 167.342 93.1781 177.024 100.48 185.596C99.0512 184.167 97.6226 182.739 96.5114 181.151C88.8923 171.627 83.9716 159.564 81.2732 147.341C79.3684 139.087 79.5272 130.675 81.4319 122.579C81.9081 120.833 82.5431 119.087 83.178 117.341C83.3367 117.341 83.4954 117.182 83.4954 117.024C83.8129 115.754 84.2891 114.801 85.0828 113.532ZM96.194 179.405C89.3685 169.881 84.924 158.294 84.1304 147.183C83.3367 135.913 83.6542 126.23 86.5114 116.865C86.9875 115.278 87.6225 113.69 88.0987 112.262C88.7336 112.103 89.3685 111.786 90.0034 111.627C88.8923 114.484 87.9399 117.5 87.305 120.516C84.6066 131.944 85.7177 144.008 88.7336 155.278C91.5908 167.5 98.575 178.453 107.146 187.659C107.146 187.659 107.146 187.818 107.305 187.818C105.4 187.342 103.654 186.866 101.75 186.389C99.6861 184.008 97.94 181.786 96.194 179.405ZM93.6543 165.913C88.2574 153.691 86.0352 139.405 87.7812 125.595C88.2574 121.309 89.8447 115.278 91.5908 110.992C97.6226 108.611 103.654 106.389 109.686 104.166C108.416 106.389 107.781 108.928 106.988 111.151C103.972 122.738 104.924 134.802 106.988 146.548C109.686 160.199 113.02 174.167 120.797 185.755C122.385 188.135 124.131 190.516 125.877 192.739C120.797 191.31 115.718 190.04 110.639 188.612C103.496 182.104 97.7813 174.802 93.6543 165.913ZM126.988 191.945C124.766 189.405 123.02 187.024 120.956 184.167C115.718 177.024 112.861 168.929 110.48 160.357C106.988 147.024 104.765 132.738 106.353 119.405C106.829 116.23 107.464 113.055 108.416 110.198C108.099 111.786 107.94 112.897 107.781 113.373C105.718 123.056 106.829 132.897 109.051 142.58C111.908 157.183 119.528 170.199 127.94 182.104C131.75 187.342 135.559 192.58 140.48 196.866C136.512 195.755 132.544 194.643 128.417 193.691C128.099 192.897 127.305 192.421 126.988 191.945ZM136.671 191.628C132.067 186.389 128.099 180.675 124.289 174.643C116.829 163.056 111.273 150.992 109.21 137.183C107.94 130.04 107.305 122.579 108.893 115.595C109.845 111.468 110.797 107.182 112.067 103.214C112.861 102.897 113.654 102.579 114.448 102.262C113.654 104.484 113.178 106.706 112.702 108.928C111.75 116.23 112.067 123.69 112.543 131.151C113.813 144.326 117.147 157.5 123.02 169.564C126.67 176.548 131.115 183.056 135.877 189.247C137.94 191.786 140.004 194.485 142.067 197.024H141.909C140.004 195.596 138.417 193.532 136.671 191.628ZM100.162 103.373C93.9717 98.9283 87.305 93.214 83.0193 87.1822C76.67 78.6107 71.5906 66.3883 70.3207 57.4994C71.1144 56.7057 71.908 55.912 72.7017 55.1184C73.0192 56.2295 73.4954 57.3406 73.6541 57.8168C79.8446 73.8487 92.2257 87.6584 107.781 95.2775C110.162 96.3886 112.543 97.341 115.083 98.1347C110.004 99.722 105.083 101.468 100.162 103.373ZM65.7175 55.7533C64.4477 57.0232 63.1778 58.293 61.7492 59.5629C47.1459 64.1661 31.4315 64.9597 16.8282 60.3565C10.1614 58.7692 4.76456 55.1184 0.00261688 50.1977C4.12964 53.2136 8.41539 55.7533 13.3361 57.1819C25.7171 60.8327 39.0506 61.3089 51.7491 58.9279C57.3047 57.9756 62.7016 56.3882 67.781 53.8485C66.9874 54.4835 66.3524 55.1184 65.7175 55.7533ZM68.7334 59.0867C69.3683 63.2137 71.2731 67.3407 72.8604 71.309C77.9398 84.4837 88.0987 95.7537 98.8924 104.008C97.94 104.325 97.1464 104.643 96.194 104.96C84.7653 99.087 75.8763 89.5631 69.6858 78.6107C67.1461 74.1662 64.4476 68.928 63.8127 64.4836C63.8127 64.3248 63.8127 64.3248 63.8127 64.1661C65.2413 62.42 66.9874 60.674 68.7334 59.0867ZM67.3048 75.436C72.0668 84.325 78.0986 92.8965 86.3526 99.087C89.3685 101.309 92.3844 103.373 95.559 105.119C92.3844 106.23 89.3685 107.5 86.1939 108.611C86.1939 108.611 86.0351 108.611 86.0351 108.452C71.908 100.357 60.0032 86.8647 57.4635 70.5154C59.2095 68.7693 60.9556 67.0233 62.7016 65.2772C63.4953 68.928 65.4 72.1027 67.3048 75.436ZM73.0192 107.5C74.7652 108.928 76.8287 110.198 78.7335 111.309C76.1938 112.262 73.6541 113.214 71.1144 114.167C65.8762 111.309 60.9556 107.341 56.8285 102.897C51.7491 97.1823 48.0983 89.8806 46.511 81.7853C46.511 81.6266 46.511 81.4678 46.511 81.3091C47.7808 80.0393 49.0507 78.7694 50.1618 77.4995C54.9238 89.5631 63.0191 99.722 73.0192 107.5ZM50.1618 95.9124C53.6539 102.262 58.892 107.5 65.0826 111.309C65.4 111.627 67.9397 113.214 70.162 114.484C68.8921 114.96 67.4635 115.595 66.1937 116.071C54.4476 109.405 46.0348 97.0235 43.9713 84.1663C44.4475 83.5313 45.0824 83.0552 45.5586 82.4202C46.3522 87.1822 48.0983 91.6267 50.1618 95.9124ZM46.9872 96.2299C50.7967 104.801 57.6222 111.309 65.2413 116.548C65.0826 116.706 64.7651 116.706 64.6064 116.865C58.892 114.325 53.6539 109.563 49.3681 104.643C45.3999 99.8807 43.0189 93.0552 41.749 86.3885C42.2252 85.9123 42.7014 85.4361 43.1776 84.9599C43.8125 88.9282 45.3999 92.7378 46.9872 96.2299ZM56.8285 113.214C58.892 114.643 61.1143 116.23 63.4953 117.182C61.7492 117.817 60.0032 118.611 58.2571 119.246C57.9397 119.087 57.6222 118.928 57.4635 118.77C51.1142 114.801 46.3522 108.928 43.1776 101.944C41.2728 97.8172 39.6855 93.214 39.5268 88.452C39.8443 88.1346 40.1617 87.8171 40.4792 87.4996C42.8602 98.1347 47.3046 106.547 56.8285 113.214ZM42.5427 102.897C45.7173 109.722 51.1142 115.436 57.146 119.722C57.146 119.722 57.146 119.722 57.3047 119.881C53.9714 120.992 50.7967 122.262 47.6221 123.532C43.6538 119.722 40.3204 114.801 37.4633 109.563C35.0823 105.119 33.1775 100.516 32.5426 95.5949C34.6061 93.5314 36.6696 91.4679 38.5744 89.4044C38.8919 94.1664 40.4792 98.7696 42.5427 102.897ZM45.3999 122.738C45.7173 123.056 46.1935 123.532 46.511 124.008C45.0824 124.643 43.4951 125.278 42.0665 125.754C41.5903 125.278 41.1141 124.802 40.7966 124.167C36.9871 119.246 33.0188 113.373 31.4315 107.341C30.4791 104.008 30.4791 100.674 30.9553 97.341C31.114 97.1823 31.4315 96.8648 31.5902 96.7061C33.495 106.389 38.7331 115.436 45.3999 122.738ZM30.3204 107.024C32.3839 114.167 36.9871 120.357 41.5903 126.071C41.1141 126.23 40.6379 126.389 40.3204 126.548C33.0188 120.198 27.1457 112.897 24.7647 103.69C26.5108 101.944 28.2568 100.198 30.0029 98.4521C29.5267 101.309 29.6854 104.166 30.3204 107.024ZM37.7807 125.595C38.2569 126.071 38.7331 126.548 39.2093 126.865C38.8919 127.024 38.5744 127.183 38.2569 127.341C38.0982 127.183 37.9395 127.183 37.7807 127.024C33.6537 123.849 30.7965 120.04 27.9394 115.754C25.8759 112.42 24.2886 109.246 23.4949 105.436C23.4949 105.278 23.4949 105.119 23.4949 105.119C23.6536 104.96 23.6536 104.96 23.8124 104.801C26.0346 112.897 31.2727 120.04 37.7807 125.595ZM27.4632 116.23C30.1616 120.516 33.495 124.484 37.4633 127.659C34.6061 128.77 31.7489 130.04 28.8918 131.151C28.733 130.992 28.4156 130.675 28.2568 130.516C24.2885 125.278 22.5425 117.341 22.3838 110.833C22.3838 108.928 22.3838 107.341 22.7012 105.754L22.86 105.595C23.6536 109.246 25.5584 112.897 27.4632 116.23ZM27.9394 131.627C22.5425 125.913 18.7329 118.135 18.5742 109.881C19.5266 108.928 20.3203 108.135 21.2727 107.182C20.1615 115.754 22.86 124.643 27.9394 131.627ZM40.7966 130.992C41.4316 130.675 42.2252 130.357 42.8602 130.198C42.8602 132.103 42.8602 134.008 42.8602 136.072C43.3363 148.611 46.6697 161.627 54.6063 171.627C55.3999 172.58 56.1936 173.532 56.9873 174.326C52.384 173.056 47.9396 171.786 43.3363 170.675C43.1776 170.358 42.8602 170.04 42.7014 169.723C38.0982 160.675 37.4633 148.929 38.5744 139.564C39.2093 136.548 39.8443 133.691 40.7966 130.992ZM-3.33075 187.183C-0.632313 180.993 4.12964 175.754 10.1614 172.421C12.2249 171.151 14.2885 170.199 16.5107 169.405C19.2091 170.04 21.9076 170.675 24.606 171.31C15.5583 173.85 7.9392 180.834 2.70106 188.453C1.9074 189.882 1.11374 191.151 0.478809 192.739C-0.791042 190.834 -2.0609 189.088 -3.33075 187.183ZM-6.34665 182.739C-6.02919 182.421 -5.87045 182.104 -5.55299 181.786C-0.632313 175.119 6.98681 170.834 14.9234 169.088H15.0821C13.3361 169.723 11.59 170.675 10.0027 171.627C3.97091 174.961 -0.949774 180.199 -3.80694 186.389C-4.28314 185.755 -4.6006 185.12 -5.0768 184.485C-5.39426 184.008 -5.87045 183.374 -6.34665 182.739ZM36.6696 150.357C37.1458 157.5 39.2093 164.326 42.7014 170.516C42.384 170.358 42.0665 170.358 41.749 170.358C37.9395 165.596 36.0347 159.405 35.0823 153.373C33.9712 146.707 34.1299 139.405 36.6696 132.897C37.3045 132.579 37.9395 132.421 38.5744 132.103C36.6696 137.818 36.3521 144.167 36.6696 150.357ZM36.1934 160.04C37.3045 163.691 39.0506 167.183 41.4316 170.199C38.0982 169.246 34.7648 168.453 31.2727 167.5C29.2092 161.786 28.733 156.072 29.2092 150.04C29.6854 144.326 31.114 138.611 34.1299 133.849C34.6061 133.691 34.9236 133.532 35.3998 133.373C33.1775 141.945 33.495 151.31 36.1934 160.04ZM13.8123 168.77C13.1773 168.929 12.3837 169.246 11.7488 169.405C4.4471 171.627 -2.0609 176.231 -6.50538 182.421C-6.98158 181.786 -7.45777 181.151 -7.77523 180.516C-4.28314 174.326 2.22486 169.564 9.20905 167.5C10.6376 167.977 12.225 168.453 13.8123 168.77ZM-11.2673 184.326C-11.1086 184.485 -10.9499 184.802 -10.7911 184.961C-13.3308 184.167 -16.6642 183.85 -19.5214 184.485C-19.9976 184.643 -20.4738 184.643 -21.1087 184.802C-21.1087 184.643 -21.1087 184.643 -21.1087 184.485C-20.4738 184.167 -19.9976 184.008 -19.6801 183.85C-17.2991 182.897 -14.9182 182.739 -12.5372 182.739C-12.061 183.374 -11.5848 183.85 -11.2673 184.326ZM-20.95 185.596C-17.2991 184.643 -13.6483 184.802 -10.1562 186.072C-9.99748 186.231 -9.99748 186.389 -9.83875 186.548C-13.4896 186.072 -17.2991 187.024 -20.4738 188.929C-20.6325 187.818 -20.7912 186.707 -20.95 185.596ZM-9.52128 186.866C-9.04509 187.501 -8.72762 188.135 -8.25143 188.77C-11.2673 187.977 -14.442 187.818 -17.4579 188.77C-18.4103 188.929 -19.3626 189.247 -20.4738 189.564C-17.1404 187.501 -13.3308 186.231 -9.52128 186.866ZM-20.4738 189.882C-18.2515 189.247 -16.0293 188.929 -13.6483 188.77C-11.7435 188.77 -9.83875 189.088 -7.77523 189.564C-7.6165 189.723 -7.6165 189.882 -7.45777 190.04C-10.3149 189.723 -13.3308 189.723 -16.188 190.358C-17.6166 190.675 -19.0452 191.31 -20.1563 192.262C-20.315 191.469 -20.315 190.675 -20.4738 189.882ZM0.796274 193.215C2.22486 188.929 5.55822 185.278 8.73286 181.945C13.4948 177.342 18.8917 173.215 25.3997 171.469C26.987 171.786 28.4156 172.262 30.0029 172.58C23.3362 174.167 16.9869 177.977 11.9075 181.786C7.9392 184.643 3.01852 189.088 1.27247 194.009C1.11374 193.691 0.955006 193.532 0.796274 193.215ZM13.1773 182.58C18.8917 178.135 26.0346 174.643 33.1775 173.373C35.0823 173.85 36.9871 174.326 39.0506 174.802C29.0505 179.564 20.479 186.866 14.9234 196.39C13.0186 199.882 10.9551 203.691 10.7964 207.659C7.9392 203.532 4.92329 199.247 2.06613 195.12C2.38359 194.643 2.54232 194.326 2.85978 194.009C6.03442 190.358 9.05032 186.231 13.1773 182.58ZM13.0186 200.834C14.1297 198.453 15.5583 196.072 17.1456 193.85C22.5425 185.596 30.3204 179.247 39.5268 175.119C39.5268 175.119 39.6855 175.119 39.6855 174.961C43.0189 175.754 46.3522 176.548 49.8443 177.342C34.9236 179.247 22.225 191.151 14.6059 203.85C13.6535 205.437 12.7011 207.183 11.9075 208.929C11.59 208.453 11.2726 208.136 10.9551 207.659C10.9551 205.278 11.9075 202.898 13.0186 200.834ZM12.225 208.929C12.8599 207.342 14.1297 205.437 15.0821 203.691C23.4949 190.358 36.8283 179.088 52.7015 177.977C57.4635 179.088 62.2254 180.199 66.9874 181.469C53.9714 185.12 42.0665 192.421 32.8601 201.945C27.9394 207.501 23.9711 214.326 20.7965 221.31C20.7965 221.469 20.6377 221.787 20.479 221.945C18.8917 219.564 17.3044 217.183 15.717 214.802C14.4472 212.898 13.1773 211.152 11.9075 209.247C12.0662 209.247 12.225 209.088 12.225 208.929ZM23.4949 220.199C25.2409 215.755 29.368 208.136 32.5426 204.009C41.2728 193.374 53.4952 186.707 66.3524 182.58C67.1461 182.262 68.0985 182.104 68.8921 181.945C69.3683 182.104 69.8445 182.104 70.162 182.262C67.9397 183.056 65.7175 183.85 63.654 184.643C47.4634 191.786 36.1934 203.85 29.8442 220.358C28.4156 224.009 27.1457 227.818 26.8283 231.628C25.0822 229.088 23.4949 226.549 21.7488 224.009C22.5425 222.898 23.0187 221.31 23.4949 220.199ZM27.9394 229.247C28.8918 224.485 30.7965 220.041 32.7013 215.755C35.5585 209.882 39.0506 204.326 43.4951 199.564C48.4158 194.326 54.2888 190.358 60.7968 187.183C63.9715 185.596 67.3048 184.485 70.9556 183.374C71.4318 183.215 72.0668 183.056 72.543 182.897C73.1779 183.056 73.8128 183.215 74.4477 183.374C64.9239 186.389 56.1936 192.262 48.7332 198.929C40.4792 206.707 35.0823 217.183 31.4315 227.818C30.6378 230.358 30.0029 232.898 29.5267 235.596C28.733 234.485 28.0981 233.533 27.3045 232.422C27.6219 231.31 27.7806 230.199 27.9394 229.247ZM32.2251 227.818C35.3998 218.771 40.3204 210.04 46.6697 203.056C55.3999 194.167 66.035 187.342 77.9398 184.167C79.051 184.485 80.1621 184.643 81.2732 184.961C79.2097 185.596 76.9874 186.231 74.9239 187.183C57.7809 194.802 44.6062 210.04 37.9395 227.342C36.1934 232.422 34.9236 237.66 34.6061 243.057C33.0188 240.834 31.5902 238.453 30.0029 236.231C30.6378 233.533 31.2727 230.676 32.2251 227.818ZM47.1459 211.469C53.4952 201.945 62.5429 194.326 73.1779 189.405C76.1938 187.818 79.2097 186.866 82.8605 186.072C83.178 186.072 83.6542 185.913 83.9716 185.596C86.0352 186.072 88.0987 186.548 90.1622 187.183C65.5588 195.278 45.7173 212.263 37.7807 237.66C36.9871 240.041 36.1934 242.422 35.7172 244.961C35.5585 244.644 35.241 244.326 35.0823 244.009C35.7172 232.104 40.4792 221.152 47.1459 211.469ZM36.6696 244.803C36.9871 242.58 37.9395 239.406 38.8919 236.866C45.7173 215.755 62.3841 200.199 82.0669 192.262C85.4002 190.834 89.5273 189.247 93.4955 187.977C96.8289 188.77 100.162 189.723 103.654 190.516C102.543 190.993 101.432 191.469 100.004 191.945C93.9717 194.485 87.7812 197.024 82.2256 200.675C71.908 207.501 63.8127 217.342 57.6222 227.977C52.0666 237.342 48.4158 247.501 46.1935 258.136C46.0348 258.771 46.0348 259.247 45.8761 259.882C42.8602 255.279 39.6855 250.676 36.6696 246.073C36.6696 245.596 36.6696 245.12 36.6696 244.803ZM66.1937 216.548C70.9556 210.834 76.3525 205.437 82.3843 201.469C87.6225 198.136 93.3368 195.596 98.8924 193.532C101.75 192.421 104.448 191.628 106.67 191.151C110.321 192.104 114.131 193.056 117.781 193.85C109.845 195.278 102.385 199.405 95.2416 203.056C87.7812 207.183 80.3208 211.628 73.9715 217.342C63.3365 227.183 54.765 239.565 50.0031 253.533C49.0507 256.231 48.0983 258.771 47.1459 261.787L46.3522 260.517C48.7332 244.485 56.3523 228.929 66.1937 216.548ZM51.5904 252.104C57.9397 233.374 72.2255 217.342 89.3685 207.501C97.7813 202.739 106.035 198.294 115.242 195.913C111.591 197.342 107.464 199.405 106.988 199.564C84.1304 211.469 65.0826 231.787 57.3047 256.708C55.7174 261.787 54.4476 267.025 54.1301 272.263C52.2253 269.406 50.3205 266.549 48.4158 263.692C48.4158 263.533 48.5745 263.216 48.5745 263.057C49.3681 259.247 50.4793 255.596 51.5904 252.104ZM60.4794 249.882C65.0826 238.771 72.2255 228.295 80.797 219.723C87.7812 212.263 95.7178 206.231 104.765 201.469C110.004 198.612 115.242 196.548 120.797 194.802C123.813 195.596 126.988 196.39 130.004 197.183C120.48 198.612 111.273 202.739 102.702 207.183C82.5431 218.453 68.0985 237.977 58.892 258.771C56.9873 263.374 55.7174 268.295 54.765 273.057C54.765 272.898 54.6063 272.898 54.6063 272.739C54.765 264.962 57.6222 257.184 60.4794 249.882ZM126.512 198.929C124.924 199.405 123.337 200.04 121.75 200.675C102.861 208.453 84.6066 220.199 72.2255 236.549C85.2415 217.977 104.607 203.374 126.512 198.929ZM60.6381 258.136C58.5746 263.85 56.9873 269.882 56.5111 275.914C56.1936 275.438 55.8761 274.962 55.5587 274.485C55.7174 274.168 55.7174 273.851 55.8761 273.533C57.146 268.454 58.5746 263.216 60.6381 258.136ZM117.94 203.532C121.75 201.786 127.147 199.882 131.75 198.929C132.702 198.77 133.496 198.612 134.924 198.294C137.305 198.929 139.528 199.564 141.909 200.04C136.353 201.31 128.416 204.326 127.305 204.644C117.464 208.453 108.416 214.167 99.8448 220.358C86.9875 229.723 74.9239 241.152 69.2096 256.231C65.7175 264.962 63.4953 274.327 62.7016 283.851C62.7016 284.168 62.7016 284.644 62.7016 284.962C60.9556 282.422 59.3682 279.724 57.6222 277.184C59.6857 243.057 86.5114 215.913 117.94 203.532ZM78.5748 241.152C90.3209 226.549 108.099 214.644 124.924 207.342C131.432 204.802 138.258 202.421 145.242 201.151H145.401C145.56 201.151 145.718 201.151 145.877 201.31C143.813 201.628 141.75 202.421 139.845 202.898C133.02 205.278 126.512 208.612 120.162 212.104C94.7654 225.755 76.3525 248.453 68.0985 276.232C66.8286 280.517 65.4 284.644 64.9238 288.771C64.4477 287.978 63.9715 287.184 63.4953 286.549C63.4953 286.549 63.4953 286.549 63.4953 286.39C64.2889 270.358 68.7334 253.85 78.5748 241.152ZM154.448 200.517C150.798 199.564 147.147 198.453 143.337 197.501C140.48 194.485 137.782 191.31 135.083 187.977C130.48 181.627 125.877 175.119 122.543 167.818C119.369 160.516 116.829 152.738 115.242 144.802C112.861 132.103 111.591 118.294 114.607 105.754C115.083 104.325 115.4 103.055 115.877 101.944C115.4 105.754 115.4 111.786 115.4 113.373C115.718 143.691 130.797 172.262 153.179 192.262C157.941 196.707 163.02 200.834 168.576 204.167C168.734 204.326 169.052 204.485 169.211 204.644C164.449 203.215 159.528 201.945 154.448 200.517ZM146.353 183.374C129.051 165.119 118.099 140.516 117.305 115.436C117.147 110.674 117.464 105.913 117.94 101.151C126.988 97.8172 136.194 94.3251 145.242 90.9917C128.416 124.96 140.639 168.453 164.29 196.072C167.147 199.405 170.004 202.898 173.496 205.596C163.179 199.882 154.607 192.104 146.353 183.374ZM176.036 205.278C174.766 204.326 174.131 204.009 173.179 203.215C170.322 200.834 167.623 198.136 165.083 195.278C154.766 183.85 146.829 170.358 142.544 155.278C137.464 138.452 136.353 120.198 141.591 103.373C143.02 99.2458 144.448 95.1188 146.353 91.3092C146.512 90.9917 146.671 90.6743 146.829 90.3568C147.147 90.1981 147.464 90.0393 147.94 90.0393C146.512 94.1664 145.242 98.2934 144.29 102.42C137.782 134.643 146.512 169.564 167.782 194.643C171.75 199.564 176.195 204.009 181.115 207.977C179.687 207.659 178.417 207.183 176.988 206.866C177.306 206.072 176.512 205.596 176.036 205.278ZM145.083 104.801C146.036 99.5632 148.099 94.0076 149.845 89.2457C152.226 88.452 154.607 87.4996 156.829 86.5472C155.401 90.3568 154.29 94.3251 153.337 98.2934C149.21 121.468 148.417 146.23 156.829 168.611C161.909 181.786 170.004 193.691 179.846 203.85C181.433 205.596 183.179 207.183 184.766 208.771L183.179 208.294C153.02 184.167 138.258 142.579 145.083 104.801ZM184.29 207.659C177.782 201.31 172.068 194.643 167.147 187.183C161.433 178.135 156.829 168.611 154.29 158.294C150.321 140.675 150.798 121.468 153.814 104.166C154.925 98.2934 157.782 89.5631 159.369 85.9123C159.369 85.7536 159.369 85.7536 159.528 85.5949C170.798 81.4678 182.068 77.1821 193.338 73.0551C189.369 76.2297 186.195 80.5154 183.496 84.8012C162.544 117.976 162.068 164.961 184.607 197.501C188.417 202.739 192.385 207.977 197.306 212.263C193.496 211.152 189.846 210.199 186.036 209.088C185.242 208.612 184.449 207.818 184.29 207.659ZM201.116 215.596C194.766 216.39 188.576 217.977 182.544 219.882C171.274 223.533 160.004 228.136 150.163 234.961C131.274 248.136 116.035 266.866 106.67 287.978C102.385 297.978 99.2099 308.454 97.7813 319.248C98.0988 306.549 99.5273 293.851 103.972 281.787C114.131 255.12 135.083 232.58 160.798 219.723C166.988 216.548 172.861 214.326 179.687 212.421C181.274 211.945 182.861 211.628 184.449 211.152C189.846 212.739 195.56 214.167 201.116 215.596ZM120.48 265.755C128.734 254.485 139.369 243.692 150.956 235.755C160.322 229.406 170.163 225.437 180.639 221.787C188.1 219.247 196.354 217.501 203.973 216.39C207.147 217.183 210.481 218.136 213.655 218.929C207.147 219.088 200.798 220.041 194.449 221.469C169.687 226.549 147.94 240.993 130.639 259.247C119.686 271.47 110.956 285.914 104.607 301.152C101.115 310.518 97.7813 320.518 97.6226 330.676C97.7813 307.343 107.146 284.486 120.48 265.755ZM119.21 7.34017C119.369 7.81636 119.686 8.29256 119.686 8.76875C121.432 13.5307 124.131 18.1339 127.305 22.2609C137.782 36.2293 153.814 44.8008 170.322 49.8802C187.941 55.7533 206.83 57.0232 225.243 55.1184C226.195 55.1184 232.862 54.4835 238.576 53.6898C236.195 54.4835 233.973 55.4359 231.592 56.2295C213.814 59.8803 195.242 59.8803 177.623 56.8644C156.195 53.5311 135.718 44.0072 123.496 27.1816C120.639 23.3721 117.781 18.7688 116.353 14.9593C115.877 14.0069 115.877 12.1021 115.083 11.4672C115.083 11.4672 115.083 11.4672 114.924 11.4672C116.67 10.0386 117.94 8.61002 119.21 7.34017ZM-7.45777 17.6577C19.0504 41.4675 67.6223 35.5944 97.3051 20.8324C103.337 17.8165 108.575 13.6894 114.289 10.3561C113.178 11.4672 112.067 12.4196 110.956 13.5307C110.797 13.372 110.48 13.372 110.321 13.5307C94.2892 26.0705 75.2414 34.3245 55.2412 37.6579C38.8919 40.8325 20.9552 40.1976 6.66935 32.261C1.58993 29.5626 -3.01329 26.2292 -7.14031 22.2609C-7.29904 20.6736 -7.29904 19.245 -7.45777 17.6577ZM-7.14031 31.6261C-7.14031 28.7689 -7.14031 25.9118 -7.29904 22.8959L-7.14031 23.0546C-4.12441 26.8642 -0.314846 29.2451 3.49471 31.7848C29.5267 48.1342 68.5747 38.1341 93.9717 24.6419C98.7337 22.1022 103.178 19.0863 107.623 16.0704C103.654 19.88 99.5273 23.6895 95.559 27.3404C70.162 45.7532 33.1775 51.6263 4.76456 38.769C0.637543 37.023 -3.64821 34.642 -7.14031 31.6261ZM-7.14031 39.8801C-7.14031 37.8166 -7.14031 35.5944 -7.14031 33.5309C-4.44187 35.5944 1.11374 38.6103 1.74866 38.9278C23.9711 49.8802 50.4793 49.0866 73.3366 40.5151C80.1621 38.1341 86.6701 34.8007 92.5432 30.6737C87.1463 35.7531 81.7494 40.8325 76.3525 45.7532C53.6539 57.0232 24.9235 58.9279 2.54232 46.7056C0.00261688 45.4358 -2.53709 43.6897 -4.6006 42.1024C-5.39426 41.4675 -6.34665 40.1976 -7.14031 39.8801ZM-6.66411 41.7849C-4.6006 43.8484 0.161348 46.5469 0.796274 47.0231C19.3679 57.6581 41.749 57.9756 61.9079 52.4199C66.035 51.3088 70.162 49.7215 74.1303 47.9755C72.3842 49.5628 70.7969 51.1501 69.0509 52.7374C63.4953 55.7533 57.146 57.4994 50.7967 58.6105C37.7807 61.1502 23.9711 60.1978 11.2726 55.912C6.98681 54.4835 3.33598 51.4676 -0.156116 48.4517C-2.37836 46.7056 -4.28314 44.6421 -6.18792 42.7373C-6.34665 42.4199 -6.50538 42.1024 -6.66411 41.7849ZM-6.66411 53.2136C-6.66411 53.0549 -6.82284 53.0549 -6.82284 53.0549C-6.98158 52.8961 -6.98158 52.7374 -7.14031 52.5787C-7.14031 49.7215 -7.14031 46.8643 -7.14031 44.0072C-6.98158 44.3246 -6.66411 44.4834 -6.34665 44.8008C-5.39426 46.2294 -4.44187 47.3405 -4.12441 47.658C-0.31485 51.4676 3.81217 55.2771 8.57412 57.8168C17.6218 62.1026 27.7806 63.8486 37.622 63.8486C45.5586 63.5312 53.4952 62.5788 60.9556 60.1978C58.7333 62.2613 56.6698 64.3248 54.4476 66.5471C45.3999 70.1979 34.9236 70.9915 25.2409 69.8804C20.6377 69.2455 16.352 67.6582 12.0662 65.9121C7.78046 64.1661 2.70106 61.4677 -1.26723 58.4518C-2.06089 57.8168 -3.33075 57.0232 -3.96568 56.3882C-4.91807 55.5946 -5.87046 54.166 -6.66411 53.2136ZM-3.17202 58.4518C4.4471 63.5312 12.8599 67.3407 21.5901 69.8804C27.6219 71.1503 33.9712 71.1503 40.1617 70.6741C44.6062 70.1979 48.892 69.2455 53.1777 67.9756C50.3205 70.6741 47.6221 73.5313 44.7649 76.2297C43.6538 76.3884 42.384 76.3884 41.1141 76.5472C29.0505 77.1821 16.6694 75.436 6.51061 68.928C1.58993 65.7534 -3.33075 61.3089 -5.71172 56.3882C-4.6006 57.3406 -3.48948 58.4518 -3.17202 58.4518ZM-7.14031 56.547C-6.66411 57.4994 -6.02919 58.4518 -5.39426 59.4041C3.17725 72.8963 20.3203 77.3408 35.3998 77.817C38.0982 77.817 40.7966 77.817 43.3363 77.4995C41.4316 79.2456 39.6855 81.1504 37.7807 82.8964H37.622C33.3363 83.3726 28.8918 83.5313 24.606 82.8964C16.0345 81.6266 6.66935 77.9757 0.161348 72.4201C-3.48948 69.4042 -6.34665 66.0709 -7.29904 61.6264C-7.29904 60.0391 -7.29904 58.293 -7.14031 56.547ZM-7.14031 74.6424C-7.14031 71.309 -7.14031 68.1344 -7.14031 64.801C-5.87045 67.4995 -3.80694 69.8804 -1.74343 71.7852C6.19315 78.7694 16.8282 82.7377 27.3045 83.6901C30.4791 83.8488 33.8124 83.8488 36.9871 83.5313C36.0347 84.4837 35.0823 85.4361 34.1299 86.3885C20.3203 89.5631 3.65344 85.5949 -6.18792 75.5948C-6.82284 75.2773 -6.82285 74.8011 -7.14031 74.6424ZM-6.98158 85.2774C-6.98158 84.325 -6.98158 83.3726 -7.14031 82.4202C-7.14031 80.5154 -7.14031 78.6107 -7.29904 76.7059C1.11374 83.5313 12.8599 88.1346 24.2885 87.9758C27.4632 87.9758 30.6378 87.6584 33.6537 87.0234C32.5426 88.1346 31.4315 89.2457 30.3204 90.3568C23.1774 92.2616 15.3996 93.214 8.57412 92.579C2.70105 91.7854 -2.0609 88.7695 -6.98158 85.2774ZM-6.98158 87.6584C-5.55299 89.087 -3.64821 90.3568 -2.0609 91.4679C5.55822 96.7061 15.0821 97.8172 24.1298 96.7061C23.8124 97.0235 23.6536 97.341 23.3362 97.4997C19.3679 98.1347 15.2409 97.9759 11.1138 97.4997C4.76456 96.7061 -2.37836 94.1664 -6.98158 89.4044C-6.98158 88.7695 -6.98158 88.1346 -6.98158 87.6584ZM-6.82284 90.9917C0.637543 97.1823 11.1138 99.2458 20.6377 98.6108C20.7965 98.6108 21.7488 98.6108 22.7012 98.4521C20.7965 100.357 18.8917 102.262 17.1456 104.325C10.0027 103.849 2.70105 100.992 -2.53709 96.5473C-4.28314 95.1188 -5.71173 93.6902 -6.66411 92.1029C-6.82285 91.4679 -6.82284 91.1505 -6.82284 90.9917ZM-6.66411 96.2299C-6.66411 95.2775 -6.66411 94.3251 -6.82284 93.3727C-5.39426 95.1188 -3.64821 96.5473 -1.74343 97.9759C3.65344 101.785 10.1614 103.849 16.6694 104.484C16.352 104.801 16.0345 105.119 15.717 105.436C11.4313 105.754 7.30427 104.801 3.17725 103.055C0.00261688 101.785 -3.48948 99.722 -6.02919 97.0235C-6.18792 96.7061 -6.50538 96.3886 -6.66411 96.2299ZM-6.66411 97.6585C-4.28314 100.039 -1.42597 101.785 1.58993 103.055C5.71695 104.96 10.3202 106.23 14.9234 106.23C13.6535 107.5 12.5424 108.77 11.2726 110.04C11.2726 110.04 11.2726 110.04 11.1138 110.04C4.28837 108.135 -1.5847 104.325 -6.02919 98.9283C-6.02919 98.6108 -6.34665 98.1347 -6.66411 97.6585ZM-6.66411 99.4045C-5.87046 100.357 -4.91807 101.309 -3.96568 102.262C0.320078 106.23 5.55822 108.77 11.1138 110.198C10.7964 110.516 10.4789 110.833 10.1614 111.151C4.12964 110.516 -2.0609 108.135 -6.50538 104.325C-6.50538 102.738 -6.50538 101.151 -6.66411 99.4045ZM-6.34665 106.23C-6.34665 105.912 -6.34665 105.595 -6.34665 105.278C-1.74343 108.928 4.12964 110.833 10.0027 111.627C9.20905 112.421 8.57412 113.214 7.78046 114.008C5.71695 113.532 3.65344 113.055 2.38359 112.421C-0.632311 111.151 -3.17202 109.246 -5.23553 107.341C-5.71172 107.024 -6.02919 106.547 -6.34665 106.23ZM-6.34665 107.976C-2.85456 111.309 2.06613 113.532 6.82808 114.801C6.66934 114.96 6.35188 115.278 6.19315 115.436C1.90739 114.484 -2.53709 112.738 -6.18792 110.357C-6.18792 109.563 -6.34665 108.77 -6.34665 107.976ZM-6.02919 115.119C-6.02919 114.96 -6.02919 114.801 -6.02919 114.643C-6.02919 114.167 -6.02919 113.69 -6.18792 113.055C-4.28314 114.325 -2.06089 115.436 0.161348 116.23C-1.74343 115.595 -3.96568 115.278 -6.02919 115.119ZM-4.75933 113.214C-5.23553 112.897 -5.71172 112.738 -6.18792 112.421C-6.18792 111.944 -6.18792 111.468 -6.18792 110.833C-2.85455 113.055 0.796274 114.484 4.60583 115.436C5.08203 115.595 5.39949 115.595 5.87569 115.754C5.55822 116.23 5.08203 116.548 4.76456 117.024C1.58993 116.23 -1.74343 114.801 -4.75933 113.214ZM12.0662 116.23C13.971 114.325 15.717 112.579 17.6218 110.674C17.9393 117.817 20.7965 124.643 25.5584 130.04C26.0346 130.675 26.6695 131.31 27.1457 131.786C26.6695 131.944 26.1933 132.262 25.7171 132.421C23.0187 133.532 20.3203 134.643 17.6218 135.595C16.1932 134.643 15.0821 132.262 14.6059 130.992C13.1773 127.659 12.0662 123.056 11.9075 119.722C11.7488 118.77 11.9075 117.5 12.0662 116.23ZM16.5107 136.072L16.352 136.23C14.9234 134.643 13.8123 132.738 13.0186 130.675C11.59 127.659 10.7964 124.167 10.7964 120.516C10.9551 123.214 11.7488 125.913 12.5424 128.452C13.4948 131.151 14.6059 134.008 16.5107 136.072ZM10.0027 118.452C10.1614 118.294 10.4789 117.976 10.6376 117.817C9.84398 123.69 11.2726 129.722 14.4472 134.643C14.9234 135.278 15.3996 135.913 16.0345 136.389C14.9234 136.865 13.6535 137.341 12.5424 137.818C10.3202 132.579 8.89159 127.024 9.36778 121.786C9.36778 120.675 9.52651 119.563 10.0027 118.452ZM12.0662 137.818C11.59 137.976 11.2726 138.135 10.7964 138.294C10.6376 137.976 10.4789 137.659 10.3202 137.341C8.57412 132.579 7.78046 127.183 8.41539 122.421C8.25666 127.659 9.68525 133.056 12.0662 137.818ZM24.2885 137.818C23.1774 139.722 22.3838 141.786 21.5901 143.691C20.0028 147.818 19.3679 152.103 19.5266 156.389C19.0504 150.04 20.6377 143.373 24.1298 137.976C24.1298 137.818 24.1298 137.818 24.2885 137.818ZM7.46301 120.675C7.62173 120.516 7.78046 120.357 7.9392 120.198C6.66935 125.278 7.463 130.675 8.89159 135.754C9.20905 136.548 9.52652 137.659 9.84398 138.611C9.68525 138.611 9.68525 138.611 9.52651 138.77C9.52651 138.611 9.36778 138.452 9.36778 138.294C7.30427 132.579 6.19315 126.548 7.46301 120.675ZM6.35188 121.627C6.51061 121.627 6.66935 121.468 6.66935 121.309C5.55822 127.183 7.14554 133.532 9.36778 138.77C8.89159 138.929 8.25666 139.246 7.78046 139.405C6.35188 133.691 5.87569 127.976 6.35188 121.627ZM6.03442 157.024C5.71695 152.738 6.03442 150.199 7.30427 146.072C7.62173 144.96 7.78047 144.643 8.25666 143.849C8.41539 143.849 8.73286 143.691 8.89159 143.691C7.9392 145.913 7.62173 148.611 7.14554 150.992C6.82808 153.691 6.35188 156.389 6.35188 159.088C6.19315 158.453 6.03442 157.976 6.03442 157.024ZM7.30427 161.469C6.98681 158.77 7.14554 155.913 7.62173 153.056C7.9392 150.357 8.73285 146.23 10.0027 143.373C10.1614 143.373 10.1614 143.373 10.3202 143.214C10.7964 143.056 11.1138 142.897 11.59 142.738C9.05032 148.77 7.62173 155.278 8.89159 161.786C8.25666 161.786 7.78046 161.627 7.30427 161.469ZM9.20905 161.945C8.09793 155.278 10.0027 148.453 12.5424 142.421C13.1773 142.262 13.6535 141.945 14.2885 141.786C11.2726 148.294 11.4313 155.754 12.7011 162.897C11.59 162.58 10.4789 162.262 9.20905 161.945ZM13.4948 163.056C12.3837 158.135 12.0662 152.897 13.0186 148.135C13.4948 145.913 14.1297 143.532 14.9234 141.627C15.2409 141.468 15.5583 141.468 15.8758 141.31C13.4948 148.294 13.4948 157.024 16.352 163.85C15.3996 163.373 14.4472 163.215 13.4948 163.056ZM17.3044 163.85C16.0345 161.151 15.3996 157.976 15.0821 155.278C14.4472 150.04 15.2409 145.119 16.9869 140.516C18.8917 139.722 20.7965 139.087 22.5425 138.294C18.2568 145.754 17.1456 154.802 19.8441 163.056C19.8441 163.215 20.0028 163.373 20.0028 163.532C20.0028 163.85 20.1615 164.167 20.1615 164.643C19.3679 164.326 18.4155 164.167 17.3044 163.85ZM21.2727 164.802C20.7965 163.532 20.3203 162.104 20.0028 160.834C19.0504 152.421 20.9552 143.373 25.7171 137.183C26.1933 137.024 26.6695 136.865 27.1457 136.548C20.7965 144.167 19.8441 155.278 21.9076 164.961C21.7488 164.961 21.4314 164.961 21.2727 164.802ZM22.3838 164.484C20.3203 154.326 22.225 142.738 29.6854 135.754C29.8442 135.595 30.0029 135.437 30.3204 135.278C31.2727 134.96 32.0664 134.484 33.0188 134.167C28.8918 141.627 28.2568 150.675 28.8918 159.246C29.2092 161.945 29.8442 164.643 30.7966 167.183C28.0981 166.389 25.2409 165.754 22.5425 165.119C22.3838 164.961 22.3838 164.802 22.3838 164.484ZM-10.3149 177.183C-8.41016 174.485 -6.02919 172.421 -3.17202 170.675C-0.473579 168.929 2.85979 167.342 5.71695 166.707C6.03442 166.865 6.35188 166.865 6.66935 167.024C0.637545 169.405 -4.6006 173.373 -8.0927 178.929C-8.25143 179.247 -8.41016 179.405 -8.56889 179.723C-9.36255 178.453 -10.1562 177.5 -10.3149 177.183ZM-18.2515 177.342C-19.5214 177.342 -20.7912 177.659 -21.9023 178.135C-21.9023 177.818 -22.0611 177.659 -22.0611 177.342C-20.7912 177.183 -19.5214 177.183 -18.2515 177.342ZM-21.5849 180.993C-19.3626 180.993 -16.3467 181.31 -15.3944 181.469C-14.442 181.627 -13.6483 181.786 -12.8546 182.104L-12.6959 182.262C-14.442 182.262 -16.188 182.421 -17.9341 182.739C-19.0452 183.056 -20.1563 183.532 -21.1087 184.008C-21.1087 183.532 -21.2674 183.056 -21.2674 182.421C-21.4262 181.945 -21.5849 181.469 -21.5849 180.993ZM-19.9976 194.009C-16.8229 193.056 -13.6483 192.104 -10.4737 192.104C-8.41016 192.104 -7.29904 192.421 -5.71172 192.739C-5.71172 192.739 -5.55299 192.739 -5.39426 192.739C-4.75933 193.532 -4.28314 194.485 -3.64821 195.278C-5.55299 194.961 -7.45777 194.643 -9.36255 194.643C-12.5372 194.961 -15.7118 195.913 -18.569 197.342C-18.8864 197.501 -19.3626 197.818 -19.6801 197.977C-19.8388 196.866 -19.8388 195.437 -19.9976 194.009ZM-19.6801 199.088C-14.7594 195.913 -8.88636 194.643 -3.33075 196.231C-2.0609 198.136 -0.791042 199.882 0.478809 201.786C-2.37836 201.469 -5.39426 201.628 -8.25143 201.786C-11.7435 202.104 -16.0293 202.58 -19.5214 203.532C-19.5214 202.104 -19.5214 200.517 -19.6801 199.088ZM-19.3626 204.802C-17.1404 204.009 -14.2832 203.532 -11.9023 203.215C-8.25143 202.739 -3.17201 202.421 1.11374 202.739C1.4312 203.215 1.74866 203.691 2.06613 204.167C1.90739 204.167 1.9074 204.167 1.74866 204.167C-4.91806 203.85 -11.7435 204.802 -18.0928 207.501C-18.569 207.659 -19.0452 207.977 -19.5214 208.294C-19.2039 207.025 -19.3626 205.913 -19.3626 204.802ZM-19.2039 209.088C-17.1404 207.659 -14.9182 207.025 -12.3785 206.39C-7.45777 205.12 -2.69582 204.485 2.54232 204.802C3.33598 205.913 4.12964 207.025 4.9233 208.136C4.60583 208.136 4.4471 207.977 4.12964 207.977C-1.10851 206.548 -6.50538 206.707 -11.7435 207.659C-14.1245 208.136 -16.8229 208.612 -19.0452 209.564C-19.0452 209.247 -19.2039 209.247 -19.2039 209.088ZM-19.0452 210.675C-12.5372 207.818 -1.90216 206.39 6.19315 209.723C6.82808 210.675 7.62173 211.628 8.25666 212.739C8.89159 213.691 9.52651 214.644 10.3202 215.596C0.796274 212.898 -9.68001 213.374 -18.569 217.501C-18.8864 215.279 -18.8864 213.056 -19.0452 210.675ZM-18.7277 218.612C-16.188 217.183 -13.0134 216.39 -9.99748 215.755C-3.17202 214.326 4.12964 214.485 11.1138 216.866C12.7011 219.088 14.1297 221.31 15.717 223.374C12.225 221.469 8.57412 220.041 4.76456 219.088C-2.69582 217.66 -10.7911 218.453 -18.2515 220.517C-18.4103 220.517 -18.4103 220.517 -18.569 220.675C-18.569 220.041 -18.569 219.247 -18.7277 218.612ZM-17.9341 228.136C-18.0928 226.072 -18.2515 224.009 -18.4103 221.945C-17.9341 221.787 -17.2991 221.628 -16.8229 221.469C-9.68001 219.406 -2.37836 218.771 4.76456 220.041C9.20905 221.152 13.1773 222.898 16.9869 225.279C18.2568 227.183 19.5266 228.929 20.7965 230.834C10.9551 226.866 -0.314848 226.231 -10.3149 229.406C-12.5372 230.041 -14.9182 230.993 -16.8229 232.422C-17.1404 232.739 -17.4579 232.898 -17.6166 233.215C-17.7753 231.469 -17.9341 229.882 -17.9341 228.136ZM-17.6166 233.85C-17.4579 233.85 -17.4579 233.85 -17.4579 233.85C-13.807 230.834 -8.56889 229.564 -3.64821 228.771C4.76456 227.501 14.1297 228.612 21.9076 232.58L22.0663 232.739C13.1773 229.564 3.17725 229.406 -6.02919 231.628C-9.83875 232.739 -13.9658 233.691 -17.6166 235.279C-17.6166 234.644 -17.6166 234.326 -17.6166 233.85ZM-17.4579 236.231C-14.9182 235.12 -12.061 234.326 -9.20382 233.533C-0.949774 231.31 7.14554 230.676 15.0821 232.58C18.5742 233.374 21.4314 234.168 24.2885 235.596C26.1933 238.136 27.9394 240.834 29.6854 243.374C16.1932 240.358 2.70105 244.485 -8.25143 252.898C-10.7911 254.961 -13.9658 257.025 -15.8705 259.882C-16.5055 251.946 -16.9817 244.168 -17.4579 236.231ZM-16.0293 260.676C-15.8705 260.676 -15.8705 260.676 -15.7118 260.517C-14.7594 259.089 -12.2197 257.184 -11.1086 256.231C-7.6165 253.533 -3.80694 250.993 0.161348 248.93C9.20905 244.009 19.8441 242.263 29.8442 244.644C30.1616 244.644 30.3204 244.803 30.6378 244.803C32.7013 247.819 34.7648 250.676 36.8283 253.692C31.7489 250.993 25.8759 250.041 20.1615 249.882C8.57412 249.247 -2.69582 253.692 -12.061 260.517C-13.3308 261.469 -14.6007 262.581 -15.7118 263.692C-15.8705 262.739 -15.8705 261.787 -16.0293 260.676ZM-15.7118 265.755C-15.5531 265.438 -15.3944 265.12 -15.0769 264.962C-13.9658 263.533 -11.7435 261.787 -10.7911 260.993C2.54232 250.358 21.7488 247.66 36.9871 254.644C37.1458 254.803 37.4633 254.803 37.622 254.962C38.5744 256.231 39.3681 257.501 40.3204 258.771C38.8919 258.295 37.4633 257.819 35.876 257.342C21.4314 253.692 5.39949 256.073 -6.98158 264.327C-9.99748 266.39 -13.0134 268.454 -15.3944 271.311C-15.3944 269.565 -15.5531 267.66 -15.7118 265.755ZM-15.3944 271.946C-2.37836 259.089 17.9393 253.533 35.7172 258.454C37.622 258.93 40.1617 260.041 41.749 260.676C42.7014 261.946 43.4951 263.216 44.4475 264.485C40.1617 262.422 34.9236 261.311 30.3204 260.676C14.7647 258.771 -1.74343 262.581 -14.1245 272.422C-14.6007 272.739 -14.9182 273.057 -15.3944 273.533C-15.2356 273.057 -15.2356 272.581 -15.3944 271.946ZM-15.0769 276.549C-15.0769 275.914 -15.0769 275.279 -15.2356 274.644C-14.2832 273.851 -13.4896 273.216 -12.3785 272.422C2.38359 262.104 24.2885 259.882 40.9554 265.438C43.1776 266.231 44.4475 266.708 46.8284 267.977C48.4158 270.2 49.8443 272.422 51.4317 274.644C50.1618 274.009 48.7332 273.374 47.9396 273.057C41.4316 270.835 34.2886 269.247 27.3045 269.565C15.0821 270.835 2.54232 275.12 -6.34665 283.851C-9.04509 286.39 -11.4261 289.247 -13.6483 292.422C-13.9658 293.057 -14.442 293.533 -14.7594 294.168C-14.7594 288.136 -14.9182 282.422 -15.0769 276.549ZM-14.7594 295.121C-13.4896 292.74 -11.5848 290.676 -9.83875 288.613C-3.17202 280.835 5.39949 275.755 15.0821 273.057C20.479 271.628 25.3997 270.517 31.114 270.835C35.5585 271.152 40.6379 272.581 45.2411 274.327C46.511 274.803 49.6856 276.232 52.0666 277.66C52.8602 277.978 53.6539 278.771 54.4476 278.93C55.2412 280.041 56.0349 281.152 56.8285 282.263C45.2411 275.755 30.4791 275.438 17.6218 278.612C7.78046 280.676 -1.5847 285.914 -9.04509 292.105C-10.9499 293.692 -12.8546 295.597 -14.6007 297.502C-14.7594 296.708 -14.7594 295.914 -14.7594 295.121ZM-14.6007 299.565C-14.1245 299.089 -13.807 298.295 -13.3308 297.978C-11.7435 296.073 -9.83875 294.168 -7.93397 292.581C-2.85456 287.819 2.85979 283.533 9.52651 281.152C23.0187 276.39 37.622 275.438 51.1142 280.359C53.4952 281.152 55.5587 282.105 57.7809 283.533C57.9397 283.692 57.9397 283.851 58.0984 283.851C58.4158 284.168 58.5746 284.644 58.892 284.962C56.9873 283.851 54.1301 282.74 51.9079 282.105C31.7489 276.232 7.78046 281.311 -6.02919 297.66C-9.04509 301.311 -12.061 305.121 -14.442 309.406C-14.6007 306.232 -14.6007 302.898 -14.6007 299.565ZM-14.6007 310.676C-9.68001 301.47 -2.21963 293.533 6.51061 288.136C19.5266 280.517 35.7172 278.771 50.1618 283.216C53.8126 284.168 56.5111 285.914 59.6857 287.343C59.8444 287.501 60.0032 287.501 60.3206 287.66C60.4794 287.819 60.6381 287.819 60.7968 287.819C61.5905 288.93 62.3841 290.041 63.1778 291.152C55.5587 287.025 46.3522 285.755 37.7807 285.438C27.1457 285.597 16.352 287.978 6.9868 292.898C1.58993 295.597 -4.12441 300.2 -8.25143 303.533C-10.7911 305.597 -12.6959 307.978 -14.442 310.676C-14.442 310.835 -14.6007 310.994 -14.6007 310.994C-14.6007 311.152 -14.6007 310.835 -14.6007 310.676ZM56.5111 293.851C43.0189 291.946 26.8283 290.994 13.1773 296.549C3.65344 300.359 -5.0768 306.708 -11.5848 314.645C-12.5372 315.914 -13.6483 317.343 -14.442 318.772C-14.442 316.708 -14.442 314.803 -14.442 312.74C-11.5848 309.089 -7.93397 305.597 -4.28314 302.581C1.27247 297.819 7.30427 293.533 14.2885 290.517C29.2092 284.486 46.6697 284.486 61.1143 290.994C62.2254 291.628 63.4953 292.105 64.6064 292.898C65.4 294.168 66.3524 295.279 67.1461 296.549C63.4953 294.962 57.6222 294.009 56.5111 293.851ZM70.0033 296.549C70.162 296.39 70.162 296.232 70.0033 296.073C69.8445 295.914 69.5271 295.756 69.3683 295.438C68.4159 293.851 67.3048 292.263 66.3524 290.835C66.3524 289.089 66.5112 287.184 66.8286 286.232C67.6223 281.47 69.2096 277.025 70.7969 272.422C76.67 255.755 86.0352 239.882 99.2099 227.66C106.512 220.993 115.083 215.755 123.972 210.834C129.369 207.977 134.448 205.596 140.163 203.691C142.861 202.898 145.56 201.628 148.417 202.263C148.734 202.263 149.052 202.58 149.369 202.421C149.528 202.421 149.528 202.263 149.528 202.263C150.163 202.421 150.798 202.58 151.433 202.739C150.639 202.898 149.845 203.215 148.893 203.691C145.242 204.802 141.75 206.231 138.417 208.136C125.559 214.485 115.083 224.326 106.353 235.596C89.3685 257.025 80.9557 284.327 80.6383 311.47C80.6383 311.946 80.6383 312.422 80.6383 312.899C76.9875 307.184 73.4953 301.787 70.0033 296.549ZM139.369 208.453C138.734 208.771 138.258 209.088 137.94 209.247C116.512 222.898 97.94 245.12 89.686 269.247C85.559 281.628 82.2256 294.486 80.9557 307.502C81.7494 282.105 90.1622 256.549 105.718 236.549C114.766 224.644 125.877 214.644 139.369 208.453ZM81.4319 314.01C81.7494 309.883 82.0669 305.597 82.7018 301.47C84.2891 290.517 87.305 278.612 90.9558 267.819C99.6861 243.374 122.702 217.342 146.353 206.39C149.528 205.278 152.385 204.802 155.242 204.485C150.798 206.39 146.829 209.406 142.861 211.945C142.702 212.104 142.861 212.104 142.861 212.263C140.798 213.691 138.893 215.12 136.829 216.707C112.067 235.755 96.9876 263.057 92.7019 293.851C90.9558 305.756 91.1146 317.978 93.4955 329.724C93.9717 331.47 94.2892 333.216 94.9241 334.962C90.3209 327.978 85.8764 320.994 81.4319 314.01ZM156.671 205.755C151.433 208.612 146.671 212.263 141.909 215.914C129.369 225.914 118.893 238.612 110.797 252.422C104.607 262.581 100.638 274.009 97.7813 285.597C95.4003 295.597 93.6543 306.073 93.4955 316.391C93.4955 320.676 93.6543 325.121 94.2892 329.407C91.2733 315.121 92.3844 299.883 95.2416 285.597C100.321 258.93 115.083 235.12 136.353 218.294C142.067 214.009 148.575 209.247 155.401 206.072C155.718 205.913 156.195 205.755 156.671 205.755ZM96.3527 333.851C96.194 333.692 96.194 333.692 96.3527 333.851C95.4003 327.978 94.9241 322.105 94.9241 316.073C94.4479 274.962 114.766 237.342 147.306 213.691C150.956 210.993 154.607 208.453 158.576 206.39C159.687 205.755 160.48 205.437 161.433 205.12C162.544 205.437 163.496 205.596 164.607 205.913C170.322 207.342 176.036 208.929 181.592 210.358C174.766 212.104 168.099 214.644 161.75 217.66C134.29 231.152 111.75 255.596 102.067 284.803C98.4162 296.708 97.3051 309.089 97.3051 321.47C97.3051 322.899 97.3051 324.168 97.3051 325.597C97.1464 328.137 97.1464 330.676 97.1464 333.216C97.1464 334.327 97.3051 335.597 97.3051 336.708C96.9876 335.756 96.6702 334.803 96.3527 333.851ZM99.3686 341.311C99.2099 340.677 99.0511 339.724 99.0511 339.565C96.6702 318.772 107.146 295.438 118.258 277.819C125.242 266.549 133.972 256.708 144.448 248.136C158.258 236.072 175.242 227.183 193.496 223.215C201.909 221.31 209.687 220.199 218.259 220.041C220.64 220.675 222.862 221.152 225.243 221.787C217.465 221.31 208.893 222.898 200.957 224.644C174.449 230.041 149.687 244.168 131.591 264.485C123.655 273.533 117.623 284.168 112.385 294.962C106.829 306.867 102.861 319.724 101.591 332.899C101.432 335.121 101.273 337.343 101.432 339.407C101.432 340.518 101.591 341.629 102.067 342.74C102.067 343.534 102.067 344.327 102.226 345.121C102.226 345.28 102.385 345.28 102.385 345.28C102.385 345.439 102.385 345.597 102.385 345.915C101.273 344.327 100.321 342.899 99.3686 341.311Z" fill="white"/>
<path d="M144.448 205.437C149.21 204.961 153.972 204.802 158.575 204.167C159.369 203.85 159.052 202.58 158.258 202.58C147.782 203.85 137.623 205.437 126.67 206.548C118.416 207.501 109.845 207.818 101.75 208.929H101.591C101.432 208.929 101.432 209.088 101.432 209.088C101.273 209.406 101.591 209.723 101.908 209.723C116.035 208.612 130.163 206.39 144.448 205.437Z" fill="white"/>
<path d="M36.1934 301.629C44.13 301.153 51.9078 300.835 59.8444 300.518C63.019 300.359 66.3524 300.359 69.527 300.042C70.4794 299.724 70.162 297.978 69.0508 297.978C57.3047 298.295 46.511 299.724 35.0823 300.994C34.9235 300.994 34.9235 301.311 35.0823 301.47C35.3997 301.788 35.7172 301.629 36.1934 301.629Z" fill="white"/>
<path d="M100.956 343.534C97.6225 340.677 93.0193 340.836 88.8923 340.042C76.035 338.455 63.1778 338.772 50.1618 338.455C49.8443 338.455 49.3681 338.455 49.0507 338.455C49.8443 338.613 50.638 338.455 51.4316 338.613C66.0349 339.407 80.9557 338.455 95.0828 342.264C96.5114 342.74 98.4162 343.534 99.3686 344.328C99.686 344.645 100.004 344.963 100.321 344.963C100.956 344.804 101.432 343.851 100.956 343.534Z" fill="white"/>
<path d="M6.35186 132.58C15.8758 131.786 25.3997 130.675 35.0823 129.881C39.6855 129.405 44.6062 129.088 49.0507 127.818C49.8443 127.342 49.2094 126.072 48.257 126.389C35.7172 127.977 20.3202 130.357 5.87566 132.104C5.71693 132.104 5.5582 132.421 5.71693 132.58C5.87566 132.738 6.19313 132.58 6.35186 132.58Z" fill="white"/>
<path d="M154.925 89.5633C160.48 88.7696 165.877 87.976 171.274 87.1823C176.036 86.3887 181.115 85.4363 185.242 82.8966C186.036 82.2616 186.988 81.7854 187.623 80.9918C187.782 80.5156 187.147 80.0394 186.671 80.1981C183.973 82.1029 181.592 83.214 178.734 84.1664C171.75 86.5474 164.449 87.6585 157.147 88.9284C155.718 89.2458 154.131 89.2458 152.861 89.722C153.337 89.8808 154.29 89.5633 154.925 89.5633Z" fill="white"/>
<path d="M145.401 73.2139C160.48 72.4202 175.56 72.1027 190.639 72.4202C191.592 72.4202 192.385 72.8964 193.179 72.5789C193.814 72.2615 193.655 71.3091 193.02 71.1504C186.671 70.3567 180.322 71.1504 173.972 71.3091C164.131 71.7853 154.29 72.4202 144.29 73.0551C144.131 73.0551 144.131 73.2139 144.131 73.2139C144.448 73.3726 144.925 73.0551 145.401 73.2139Z" fill="white"/>
<path d="M66.1937 33.3722C72.7017 31.9436 79.0509 30.515 85.5589 29.4039C91.2733 28.2928 97.4638 27.6579 102.543 24.8007C103.019 24.1658 102.226 23.2134 101.432 23.5308C88.7336 27.9753 75.5588 30.9912 62.5429 34.0071C62.3841 34.0071 62.2254 34.0071 62.0667 34.1658C62.0667 34.1658 62.0667 34.1658 62.0667 34.3246C63.3365 34.1658 64.7651 33.5309 66.1937 33.3722Z" fill="white"/>
<path d="M183.02 227.659C199.211 227.342 215.243 226.39 231.433 226.548C236.195 226.548 241.116 226.707 245.878 226.39C246.672 226.072 246.513 224.644 245.56 224.644C223.973 224.961 202.385 226.39 180.798 227.501H180.639V227.659C181.433 227.659 182.227 227.659 183.02 227.659Z" fill="white"/>
<path d="M69.5271 181.945C70.162 181.945 70.9556 182.263 71.5906 181.786C72.0668 181.31 71.7493 180.516 71.1144 180.516C61.273 179.405 50.638 181.151 41.1141 182.263C40.6379 182.263 40.7966 183.056 41.2728 182.897C50.4793 182.421 60.0032 181.945 69.5271 181.945Z" fill="white"/>
<path d="M-23.9659 165.596C-17.7753 165.119 -11.5848 164.643 -5.39426 164.643C-0.791046 164.643 3.65344 164.802 8.25666 164.167C9.20905 163.85 8.89158 162.262 7.93919 162.262C-3.80695 163.056 -15.5531 164.484 -27.2992 165.596C-27.458 165.596 -27.458 165.754 -27.2992 165.754C-26.1881 165.913 -25.077 165.754 -23.9659 165.596Z" fill="white"/>
<path d="M6.03439 141.469C7.46298 141.31 9.52649 141.627 10.7963 141.151C11.2725 140.675 10.9551 139.723 10.1614 139.723C2.5423 140.199 -5.55301 140.516 -13.0134 141.151C-13.1721 141.151 -13.1721 141.31 -13.0134 141.469C-12.8547 141.627 -12.5372 141.469 -12.3785 141.469C-6.18794 141.31 0.00259209 141.469 6.03439 141.469Z" fill="white"/>
<path d="M5.39948 118.611C6.35187 117.5 4.92329 115.754 3.65343 116.548C-2.21964 117.659 -15.0769 116.865 -23.6484 117.182C-23.8071 117.5 -23.3309 117.341 -23.0135 117.341C-17.9341 117.659 -12.8547 117.659 -7.61651 117.976C-3.64822 118.294 -1.10851 119.246 3.65343 119.246C4.12963 119.405 4.92329 119.246 5.39948 118.611Z" fill="white"/>
<path d="M11.7487 80.9914C19.6853 80.9914 27.7806 80.3565 35.7172 80.039C38.5744 79.8803 41.4315 80.039 44.13 79.7216C44.9236 79.4041 44.6062 78.293 43.8125 78.293C32.5426 79.5628 21.4314 80.6739 10.0027 80.9914C9.36775 80.9914 11.4313 80.9914 11.7487 80.9914Z" fill="white"/>
</g>
</svg>
