<svg width="22" height="26" viewBox="0 0 22 26" fill="none" xmlns="http://www.w3.org/2000/svg">
<path d="M8.60009 11.3763C7.94121 11.3763 7.42101 11.9663 7.42101 12.6862C7.42101 13.406 7.95276 13.9961 8.60009 13.9961C9.25905 13.9961 9.77922 13.406 9.77922 12.6862C9.79079 11.9663 9.25905 11.3763 8.60009 11.3763ZM12.8195 11.3763C12.1606 11.3763 11.6403 11.9663 11.6403 12.6862C11.6403 13.406 12.1722 13.9961 12.8195 13.9961C13.4784 13.9961 13.9986 13.406 13.9986 12.6862C13.9986 11.9663 13.4784 11.3763 12.8195 11.3763Z" fill="url(#paint0_linear_209_3)"/>
<path d="M19.4228 0H2.57715C1.15658 0 0 1.18066 0 2.64366V19.9944C0 21.4573 1.15658 22.638 2.57715 22.638H16.8331L16.1669 20.2639L17.776 21.791L19.2971 23.2284L22 25.6666V2.64366C22 1.18066 20.8434 0 19.4228 0ZM14.5703 16.7604C14.5703 16.7604 14.1178 16.2086 13.7406 15.7208C15.3874 15.246 16.0161 14.1937 16.0161 14.1937C15.5006 14.5402 15.0103 14.784 14.5703 14.9508C13.9417 15.2204 13.3383 15.4 12.7475 15.5026C11.5406 15.7337 10.4343 15.6695 9.49141 15.4899C8.77487 15.3486 8.15887 15.1433 7.64345 14.938C7.3543 14.8226 7.04001 14.6813 6.72572 14.5017C6.68801 14.476 6.65029 14.4632 6.61258 14.4375C6.58744 14.4246 6.57487 14.4119 6.56229 14.399C6.33601 14.2706 6.2103 14.1808 6.2103 14.1808C6.2103 14.1808 6.81372 15.2075 8.41034 15.6952C8.03315 16.1828 7.56802 16.7604 7.56802 16.7604C4.78972 16.6706 3.73372 14.8097 3.73372 14.8097C3.73372 10.6773 5.544 7.32784 5.544 7.32784C7.3543 5.94184 9.07661 5.98033 9.07661 5.98033L9.20229 6.13433C6.93944 6.80167 5.89601 7.81551 5.89601 7.81551C5.89601 7.81551 6.17259 7.66151 6.63772 7.44333C7.98287 6.84017 9.05148 6.67333 9.49141 6.63484C9.56682 6.622 9.62972 6.60917 9.70512 6.60917C10.4721 6.50651 11.3394 6.48084 12.2445 6.58351C13.4389 6.72467 14.7212 7.084 16.0286 7.81551C16.0286 7.81551 15.0354 6.853 12.8983 6.18567L13.0742 5.98033C13.0742 5.98033 14.7966 5.94184 16.6069 7.32784C16.6069 7.32784 18.4172 10.6773 18.4172 14.8097C18.4172 14.8097 17.3486 16.6706 14.5703 16.7604Z" fill="url(#paint1_linear_209_3)"/>
<defs>
<linearGradient id="paint0_linear_209_3" x1="10.7016" y1="13.9341" x2="10.7016" y2="10.597" gradientUnits="userSpaceOnUse">
<stop stop-color="#F39200"/>
<stop offset="0.12" stop-color="#F18804"/>
<stop offset="0.6532" stop-color="#EB5E15"/>
<stop offset="0.9271" stop-color="#E94E1B"/>
</linearGradient>
<linearGradient id="paint1_linear_209_3" x1="10.9727" y1="25.0599" x2="10.9727" y2="-7.63498" gradientUnits="userSpaceOnUse">
<stop stop-color="#F39200"/>
<stop offset="0.12" stop-color="#F18804"/>
<stop offset="0.6532" stop-color="#EB5E15"/>
<stop offset="0.9271" stop-color="#E94E1B"/>
</linearGradient>
</defs>
</svg>
