<svg width="22" height="22" viewBox="0 0 22 22" fill="none" xmlns="http://www.w3.org/2000/svg">
<path d="M14.7636 6.66532C14.1485 2.7626 12.6106 0 10.897 0C9.13939 0 7.64545 2.7626 6.98636 6.66532H14.7636ZM6.67879 10.875C6.67879 11.8836 6.72273 12.8044 6.81061 13.6815H14.9394C15.0273 12.8044 15.0712 11.8836 15.0712 10.875C15.0712 9.9103 15.0273 8.98942 14.9394 8.06855H6.81061C6.72273 8.98942 6.67879 9.9103 6.67879 10.875ZM20.9152 6.66532C19.6848 3.72732 17.1364 1.40323 13.9727 0.48236C15.0712 1.97329 15.7742 4.20968 16.1697 6.66532H20.9152ZM7.77727 0.48236C4.61364 1.40323 2.06515 3.72732 0.83485 6.66532H5.5803C5.97576 4.20968 6.67879 1.97329 7.77727 0.48236ZM21.3985 8.06855H16.3455C16.4333 8.98942 16.5212 9.9541 16.5212 10.875C16.5212 11.8397 16.4333 12.7606 16.3455 13.6815H21.3985C21.6182 12.8044 21.75 11.8836 21.75 10.875C21.75 9.9103 21.6182 8.98942 21.3985 8.06855ZM5.27273 10.875C5.27273 9.9541 5.31667 8.98942 5.40455 8.06855H0.35152C0.131818 8.98942 0 9.9103 0 10.875C0 11.8836 0.131818 12.8044 0.35152 13.6815H5.40455C5.31667 12.7606 5.27273 11.8397 5.27273 10.875ZM6.98636 15.0847C7.64545 19.0312 9.13939 21.75 10.897 21.75C12.6106 21.75 14.1485 19.0312 14.7636 15.0847H6.98636ZM13.9727 21.3115C17.1364 20.3906 19.6848 18.0665 20.9152 15.0847H16.1697C15.8182 17.5842 15.0712 19.8206 13.9727 21.3115ZM0.83485 15.0847C2.06515 18.0665 4.61364 20.3906 7.77727 21.3115C6.67879 19.8206 5.97576 17.5842 5.5803 15.0847H0.83485Z" fill="url(#paint0_linear_209_8)"/>
<defs>
<linearGradient id="paint0_linear_209_8" x1="10.848" y1="21.2358" x2="10.848" y2="-6.46991" gradientUnits="userSpaceOnUse">
<stop stop-color="#F39200"/>
<stop offset="0.12" stop-color="#F18804"/>
<stop offset="0.6532" stop-color="#EB5E15"/>
<stop offset="0.9271" stop-color="#E94E1B"/>
</linearGradient>
</defs>
</svg>
